<svg width="447" height="447" viewBox="0 0 447 447" fill="none" xmlns="http://www.w3.org/2000/svg">
    <rect width="447" height="447" fill="#2EA33A"/>
    <path d="M300.212 123.346C302.355 123.789 304.315 124.484 305.957 125.991C308 127.867 309.181 130.633 309.314 133.382C309.474 136.687 308.312 139.443 306.133 141.876C304.361 143.544 302.456 144.427 300.108 144.97C300.128 137.767 299.994 130.544 300.212 123.346Z" fill="white"/>
    <path d="M207.263 123.113C207.971 123.025 208.782 122.901 209.443 123.213C210.121 124.322 209.78 142.401 209.777 145.237C207.92 144.797 206.491 144.22 204.905 143.162C203.028 141.634 201.587 139.742 200.845 137.422C199.863 134.347 200.048 130.343 201.573 127.475C202.842 125.089 204.747 123.865 207.263 123.113Z" fill="white"/>
    <path d="M103.275 173.175C106.29 173.032 110.131 173.125 113.061 173.967L112.957 174.01L112.758 173.855L112.714 174.03C110.597 173.962 108.486 173.894 106.37 174.011C106.026 174.031 105.682 174.055 105.338 174.083C104.995 174.111 104.651 174.143 104.308 174.179C103.966 174.216 103.624 174.257 103.282 174.301C102.94 174.346 102.599 174.395 102.258 174.448C101.917 174.501 101.578 174.559 101.238 174.62C100.899 174.682 100.561 174.747 100.223 174.817C99.8854 174.887 99.5488 174.961 99.213 175.039C98.8772 175.117 98.5423 175.199 98.2084 175.285C97.8747 175.371 97.542 175.462 97.2102 175.556C96.8787 175.65 96.5484 175.749 96.2192 175.851C95.89 175.953 95.5622 176.06 95.2356 176.17C94.9091 176.281 94.5839 176.395 94.2599 176.513C93.9362 176.632 93.614 176.754 93.2931 176.88C92.9725 177.006 92.6533 177.137 92.3356 177.271C92.0181 177.405 91.7022 177.543 91.388 177.684C91.0738 177.826 90.7614 177.972 90.4508 178.121C90.1401 178.271 89.8314 178.424 89.5246 178.581C89.2175 178.738 88.9125 178.898 88.6098 179.063C88.3067 179.227 88.0058 179.396 87.7071 179.567C87.4081 179.739 87.1113 179.914 86.8168 180.094C86.5224 180.273 86.23 180.455 85.9398 180.641C85.6498 180.828 85.3621 181.017 85.0767 181.21C84.7912 181.404 84.5081 181.6 84.2274 181.801C83.9469 182.001 83.6688 182.204 83.3931 182.411C83.1174 182.618 82.8443 182.828 82.5738 183.042C82.3033 183.256 82.0355 183.473 81.7705 183.693C81.5052 183.913 81.2428 184.136 80.9832 184.363C80.7234 184.59 80.4664 184.819 80.2123 185.052C79.9582 185.285 79.7071 185.521 79.4589 185.76C79.2105 185.999 78.9652 186.241 78.7229 186.486C78.4804 186.731 78.2411 186.979 78.0048 187.23C77.7685 187.481 77.5352 187.735 77.3051 187.991C69.9434 196.247 66.312 206.455 66.9748 217.517C67.6074 228.075 72.868 238.138 80.8001 245.07C88.7562 252.024 99.7758 255.526 110.288 254.75C120.554 253.992 129.816 248.959 136.478 241.184C143.94 232.475 147.372 219.905 145.376 208.604C145.076 206.905 144.641 205.167 144.133 203.517C143.763 202.317 143.006 200.876 142.911 199.642L143.164 199.94C143.519 200.608 143.856 201.284 144.175 201.97C144.495 202.655 144.796 203.348 145.078 204.049C145.361 204.75 145.625 205.458 145.871 206.173C146.116 206.888 146.342 207.609 146.55 208.336C146.758 209.063 146.946 209.795 147.115 210.532C147.284 211.268 147.433 212.009 147.563 212.754C147.693 213.498 147.803 214.246 147.894 214.996C147.985 215.747 148.055 216.499 148.106 217.253C148.756 227.397 144.941 237.516 138.214 245.066C137.975 245.334 137.732 245.6 137.486 245.862C137.241 246.124 136.992 246.383 136.739 246.639C136.487 246.895 136.232 247.148 135.974 247.398C135.715 247.648 135.454 247.895 135.189 248.138C134.925 248.381 134.657 248.621 134.386 248.858C134.116 249.095 133.843 249.328 133.566 249.558C133.29 249.788 133.011 250.014 132.729 250.237C132.447 250.46 132.163 250.68 131.876 250.896C131.588 251.112 131.298 251.324 131.006 251.533C130.713 251.742 130.418 251.947 130.121 252.149C129.823 252.35 129.523 252.548 129.22 252.742C128.918 252.936 128.613 253.127 128.306 253.314C127.999 253.5 127.689 253.683 127.377 253.862C127.065 254.041 126.752 254.216 126.435 254.387C126.119 254.558 125.801 254.725 125.481 254.889C125.161 255.052 124.838 255.211 124.514 255.367C124.19 255.522 123.864 255.673 123.536 255.821C123.208 255.968 122.879 256.111 122.547 256.25C122.216 256.389 121.882 256.524 121.548 256.655C121.213 256.786 120.877 256.913 120.539 257.036C120.201 257.158 119.861 257.277 119.52 257.391C119.179 257.505 118.837 257.615 118.494 257.721C118.15 257.826 117.805 257.928 117.459 258.025C117.113 258.122 116.766 258.215 116.417 258.304C116.069 258.392 115.719 258.477 115.369 258.557C115.018 258.637 114.667 258.712 114.315 258.784C113.962 258.855 113.609 258.922 113.255 258.984C112.901 259.047 112.546 259.105 112.191 259.159C111.835 259.213 111.479 259.262 111.122 259.307C110.766 259.352 110.409 259.393 110.051 259.429C109.693 259.465 109.335 259.497 108.977 259.524C108.618 259.551 108.259 259.574 107.9 259.593C96.5142 260.206 84.7692 255.363 76.3737 247.803C76.1147 247.57 75.8586 247.333 75.6055 247.093C75.3523 246.854 75.1022 246.611 74.8551 246.365C74.6079 246.119 74.3639 245.87 74.123 245.618C73.882 245.366 73.6442 245.111 73.4096 244.854C73.175 244.596 72.9436 244.335 72.7155 244.071C72.4873 243.808 72.2625 243.542 72.041 243.272C71.8194 243.003 71.6012 242.731 71.3864 242.457C71.1716 242.182 70.9603 241.905 70.7524 241.626C70.5445 241.346 70.3401 241.063 70.1391 240.779C69.9382 240.494 69.7409 240.206 69.5471 239.917C69.3534 239.627 69.1632 239.335 68.9767 239.041C68.7901 238.746 68.6073 238.449 68.4281 238.15C68.249 237.851 68.0735 237.55 67.9018 237.247C67.7302 236.944 67.5623 236.638 67.3982 236.331C67.234 236.023 67.0737 235.714 66.9173 235.402C66.7609 235.091 66.6084 234.777 66.4597 234.462C66.3111 234.147 66.1663 233.83 66.0256 233.511C65.8848 233.192 65.748 232.872 65.6152 232.549C65.4823 232.227 65.3535 231.903 65.2287 231.578C65.1039 231.252 64.9832 230.925 64.8665 230.597C64.7498 230.269 64.6372 229.939 64.5287 229.607C64.4202 229.276 64.3159 228.944 64.2156 228.61C64.1154 228.276 64.0193 227.941 63.9274 227.605C63.8354 227.269 63.7477 226.932 63.6641 226.593C63.5806 226.255 63.5012 225.916 63.4261 225.576C63.351 225.235 63.2801 224.894 63.2134 224.552C63.1467 224.21 63.0843 223.867 63.0261 223.523C62.968 223.18 62.9141 222.835 62.8645 222.49C62.8149 222.145 62.7695 221.8 62.7285 221.454C62.6874 221.108 62.6507 220.761 62.6183 220.414C62.5858 220.067 62.5577 219.72 62.5339 219.372C62.51 219.025 62.4905 218.677 62.4754 218.328C62.4577 217.969 62.4444 217.609 62.4357 217.248C62.4269 216.888 62.4227 216.528 62.4229 216.167C62.423 215.807 62.4277 215.447 62.4368 215.087C62.446 214.727 62.4596 214.367 62.4776 214.007C62.4957 213.647 62.5182 213.287 62.5452 212.928C62.5722 212.569 62.6037 212.21 62.6396 211.851C62.6755 211.493 62.7158 211.135 62.7606 210.777C62.8054 210.42 62.8546 210.063 62.9083 209.706C62.962 209.35 63.02 208.995 63.0825 208.64C63.145 208.285 63.2119 207.931 63.2832 207.578C63.3544 207.225 63.4301 206.872 63.5101 206.521C63.5901 206.169 63.6745 205.819 63.7632 205.47C63.8519 205.121 63.9449 204.773 64.0422 204.426C64.1396 204.079 64.2413 203.733 64.3472 203.389C64.4531 203.044 64.5633 202.701 64.6778 202.36C64.7922 202.018 64.9109 201.678 65.0338 201.339C65.1567 201 65.2838 200.663 65.415 200.327C65.5463 199.992 65.6817 199.658 65.8213 199.326C65.9608 198.994 66.1045 198.663 66.2522 198.334C66.4 198.006 66.5518 197.679 66.7077 197.354C66.8636 197.029 67.0234 196.707 67.1873 196.386C67.3512 196.065 67.5191 195.746 67.6909 195.429C67.8627 195.112 68.0384 194.798 68.218 194.485C68.3976 194.173 68.5811 193.863 68.7684 193.555C68.9557 193.247 69.1468 192.941 69.3417 192.638C69.5366 192.335 69.7352 192.035 69.9376 191.736C70.1399 191.438 70.3459 191.142 70.5556 190.85C70.7653 190.556 70.9787 190.266 71.1956 189.978C71.4125 189.69 71.6329 189.405 71.8569 189.123C72.0809 188.84 72.3084 188.561 72.5393 188.284C72.7702 188.008 73.0045 187.734 73.2423 187.463C73.48 187.192 73.721 186.924 73.9654 186.659C81.7409 178.205 91.8543 173.692 103.275 173.175Z" fill="white"/>
    <path fill-rule="evenodd" clip-rule="evenodd" d="M104.938 194.704C104.927 194.705 104.916 194.706 104.904 194.707C98.8372 195.261 93.383 197.772 89.468 202.526C89.2504 202.794 89.0397 203.067 88.8357 203.345C88.6317 203.624 88.4347 203.907 88.2447 204.195C88.0549 204.483 87.8723 204.776 87.6968 205.073C87.5215 205.37 87.3536 205.672 87.1931 205.978C87.0328 206.283 86.8801 206.592 86.735 206.905C86.5899 207.218 86.4527 207.535 86.3235 207.855C86.1941 208.175 86.0727 208.498 85.9595 208.824C85.8462 209.149 85.7411 209.478 85.6442 209.809C85.5473 210.14 85.4586 210.473 85.3781 210.809C85.2978 211.145 85.2259 211.482 85.1622 211.821C85.0986 212.16 85.0434 212.501 84.9966 212.843C84.9498 213.184 84.9116 213.527 84.8819 213.871C84.8522 214.214 84.831 214.559 84.8185 214.904C84.8059 215.248 84.8018 215.593 84.8063 215.938C84.8109 216.283 84.8239 216.628 84.8455 216.972C84.8671 217.317 84.8973 217.66 84.936 218.003C85.5434 223.819 88.3088 229.185 92.8707 232.884C96.8591 236.118 102.129 237.779 107.242 237.647C113.111 237.199 118.3 234.81 122.146 230.308C122.377 230.042 122.602 229.771 122.819 229.494C123.037 229.217 123.248 228.935 123.451 228.647C123.655 228.36 123.851 228.067 124.04 227.77C124.229 227.472 124.41 227.17 124.583 226.864C124.757 226.557 124.923 226.247 125.081 225.932C125.239 225.617 125.389 225.298 125.531 224.976C125.673 224.654 125.807 224.328 125.932 223.999C126.058 223.67 126.175 223.338 126.284 223.003C126.393 222.668 126.494 222.33 126.585 221.99C126.677 221.65 126.761 221.308 126.836 220.964C126.91 220.62 126.976 220.274 127.034 219.926C127.091 219.579 127.139 219.23 127.179 218.88C127.219 218.53 127.25 218.179 127.272 217.828C127.294 217.476 127.308 217.125 127.312 216.772C127.317 216.42 127.312 216.068 127.299 215.716C127.286 215.364 127.264 215.013 127.233 214.662C126.754 208.778 124.197 203.463 119.672 199.623C119.42 199.408 119.164 199.2 118.903 198.997C118.642 198.795 118.376 198.599 118.105 198.409C117.835 198.219 117.56 198.036 117.28 197.86C117.001 197.683 116.717 197.513 116.43 197.35C116.142 197.187 115.851 197.031 115.556 196.882C115.261 196.733 114.962 196.591 114.661 196.457C114.359 196.322 114.054 196.195 113.746 196.075C113.438 195.955 113.128 195.842 112.814 195.737C112.501 195.632 112.185 195.534 111.867 195.444C111.549 195.354 111.229 195.271 110.907 195.197C110.585 195.122 110.261 195.055 109.936 194.996C109.611 194.936 109.285 194.885 108.957 194.842C108.629 194.798 108.301 194.762 107.971 194.734C107.642 194.707 107.312 194.687 106.982 194.675C106.651 194.663 106.321 194.658 105.99 194.662C105.66 194.666 105.33 194.678 105 194.697C104.979 194.699 104.959 194.701 104.938 194.704ZM113.737 206.89C111.38 205.051 108.724 204.351 105.77 204.316C102.263 204.645 99.2148 205.781 96.9321 208.575C94.9247 211.032 93.8884 214.305 94.2586 217.466C94.6369 220.699 96.3988 223.657 98.9469 225.661C101.395 227.586 103.968 228.135 107.022 228.143C110.47 227.771 113.55 226.339 115.739 223.592C117.762 221.052 118.591 217.841 118.2 214.63C117.82 211.496 116.217 208.826 113.737 206.89Z" fill="white"/>
    <path d="M105.388 208.392C107.226 208.255 108.952 208.584 110.523 209.587C110.641 209.662 110.757 209.74 110.87 209.821C110.984 209.902 111.096 209.986 111.205 210.072C111.314 210.159 111.421 210.249 111.526 210.341C111.631 210.433 111.733 210.528 111.833 210.625C111.933 210.723 112.031 210.823 112.125 210.925C112.22 211.028 112.312 211.132 112.402 211.24C112.491 211.347 112.578 211.456 112.661 211.568C112.745 211.679 112.826 211.793 112.904 211.909C112.982 212.025 113.057 212.142 113.129 212.262C113.201 212.382 113.27 212.503 113.336 212.626C113.402 212.749 113.464 212.874 113.523 213C113.582 213.126 113.639 213.254 113.691 213.383C113.744 213.512 113.794 213.643 113.84 213.775C113.886 213.906 113.929 214.039 113.968 214.173C114.007 214.307 114.043 214.442 114.075 214.577C114.108 214.713 114.136 214.85 114.162 214.987C114.184 215.112 114.203 215.238 114.22 215.364C114.236 215.49 114.249 215.616 114.259 215.743C114.268 215.869 114.275 215.996 114.279 216.123C114.282 216.25 114.283 216.377 114.28 216.504C114.277 216.631 114.271 216.758 114.262 216.885C114.253 217.012 114.241 217.138 114.226 217.264C114.211 217.391 114.192 217.516 114.171 217.642C114.149 217.767 114.125 217.891 114.097 218.016C114.069 218.139 114.038 218.263 114.005 218.385C113.971 218.508 113.934 218.629 113.894 218.75C113.854 218.871 113.812 218.99 113.766 219.109C113.72 219.228 113.672 219.345 113.62 219.461C113.568 219.577 113.514 219.692 113.457 219.805C113.399 219.919 113.339 220.031 113.276 220.141C113.214 220.252 113.148 220.36 113.08 220.468C113.012 220.575 112.941 220.681 112.867 220.784C111.498 222.741 109.523 223.697 107.242 224.145C105.25 224.271 103.315 223.858 101.651 222.717C101.543 222.643 101.437 222.565 101.333 222.485C101.229 222.405 101.127 222.323 101.027 222.238C100.927 222.153 100.829 222.065 100.733 221.975C100.638 221.885 100.544 221.793 100.454 221.698C100.363 221.603 100.274 221.507 100.188 221.407C100.102 221.308 100.019 221.207 99.9375 221.104C99.8568 221 99.7785 220.895 99.7028 220.787C99.627 220.68 99.5541 220.571 99.4841 220.46C99.414 220.349 99.3467 220.237 99.2821 220.122C99.2175 220.008 99.1558 219.892 99.0972 219.775C99.0385 219.657 98.9828 219.539 98.9301 219.419C98.8774 219.298 98.8278 219.177 98.7812 219.054C98.7344 218.932 98.6908 218.808 98.6505 218.683C98.6101 218.558 98.5729 218.432 98.539 218.306C98.5048 218.179 98.4739 218.051 98.4464 217.923C98.4186 217.795 98.3941 217.666 98.373 217.536C98.3499 217.408 98.3301 217.279 98.3135 217.149C98.2969 217.02 98.2837 216.89 98.2739 216.76C98.264 216.63 98.2573 216.499 98.254 216.369C98.2509 216.238 98.251 216.108 98.2543 215.977C98.2577 215.847 98.2644 215.716 98.2747 215.586C98.2846 215.456 98.298 215.327 98.3149 215.197C98.3315 215.068 98.3515 214.939 98.3748 214.81C98.398 214.682 98.4246 214.554 98.4545 214.427C98.4842 214.3 98.5172 214.174 98.5536 214.048C98.5899 213.923 98.6293 213.798 98.6719 213.675C98.7146 213.552 98.7604 213.429 98.8094 213.308C98.858 213.187 98.9099 213.067 98.965 212.949C99.0199 212.831 99.0778 212.714 99.1389 212.598C99.1999 212.483 99.2638 212.369 99.3305 212.257C99.3973 212.145 99.4668 212.034 99.5393 211.925C99.6117 211.817 99.6869 211.71 99.7648 211.605C101.169 209.71 103.108 208.763 105.388 208.392Z" fill="white"/>
    <path d="M278.997 178.591C279.865 180.026 278.513 206.213 279.659 207.611C280.036 208.072 280.502 208.317 281.091 208.367C281.724 208.42 282.509 208.241 282.964 207.783C283.364 207.379 283.51 206.885 283.585 206.337C283.798 204.766 283.606 203.038 283.599 201.448C283.588 198.579 283.614 195.711 283.677 192.843C288.451 195.045 293.388 196.891 298.181 199.063C296.786 203.698 295.13 208.013 292.414 212.059C285.769 221.961 274.869 228.961 263.177 231.175C251.514 233.384 240.067 230.624 230.314 224.025C221.813 218.322 214.844 208.192 212.841 198.13C217.53 196.441 222.08 194.393 226.741 192.631C226.752 194.853 226.367 205.907 227.314 207.141C227.688 207.63 228.144 207.855 228.747 207.893C229.307 207.928 229.965 207.794 230.374 207.38C230.926 206.821 231.111 206.072 231.179 205.309C231.414 202.683 231.1 199.749 231.091 197.087L231.153 179.124C237.077 183.504 242.833 187.821 250.288 189.117C261.704 191.102 270.18 184.733 278.997 178.591Z" fill="white"/>
    <path d="M246.643 54.623C253.549 54.2825 261.106 55.4659 267.573 57.808C271.463 59.2168 278.872 62.9103 281.335 66.2456C282.316 67.5755 282.741 69.1241 283.468 70.583C283.625 70.8982 283.887 71.3328 284.161 71.5605C284.485 71.8314 289.195 72.472 290.29 72.8585C296.067 74.8974 300.373 79.2255 302.974 84.7263C307.655 94.625 306.392 108.976 302.691 119.167L300.058 118.949C300.01 116.58 300.641 111.838 299.569 109.857C299.412 109.566 299.142 109.222 298.843 109.068C298.252 108.763 294.994 108.478 293.794 108.105C294.329 104.914 294.348 101.807 293.01 98.7936C291.376 95.1156 287.869 92.4117 284.161 91.0349C274.574 87.4758 266.619 91.9805 258.103 95.8355C248.765 100.002 237.417 99.6776 228.406 94.85C226.451 93.8026 223.935 91.5697 221.744 91.3892C221.082 91.3347 220.403 91.4703 219.914 91.9467C219.18 92.6619 219.439 95.8059 219.385 96.9017C219.181 101.071 217.084 105.754 213.668 108.269C212.751 108.944 211.465 109.251 210.669 110.038C209.06 111.628 209.762 116.363 209.814 118.532C208.122 118.56 206.606 118.811 204.962 119.187C202.793 114.6 199.636 104.26 199.418 99.3024C198.943 88.4727 203.72 76.8615 211.019 68.9499C220.282 58.9083 233.374 55.1313 246.643 54.623Z" fill="white"/>
    <path fill-rule="evenodd" clip-rule="evenodd" d="M275.601 94.3092C277.213 94.1704 278.879 94.3046 280.46 94.6439C283.577 95.3128 286.687 96.8412 288.4 99.6413C289.417 101.304 290.137 103.878 289.6 105.799C289.488 106.198 289.344 106.591 289.201 106.984C288.993 107.552 288.785 108.12 288.673 108.71C288.555 109.328 288.653 109.89 289.017 110.405C290.228 112.119 293.153 112.687 295.208 113.087C295.36 113.116 295.508 113.145 295.649 113.173L295.715 139.356C295.72 140.595 295.762 141.88 295.804 143.182L295.804 143.185C295.914 146.618 296.028 150.177 295.496 153.373C295.075 155.898 294.058 158.221 292.653 160.356C288.432 166.771 271.941 178.822 264.828 182.481C262.922 183.462 260.926 184.214 258.823 184.643C250.506 186.339 244.125 182.62 237.451 178.227C236.94 177.853 236.427 177.479 235.911 177.103L235.852 177.06L235.849 177.057L235.787 177.012L235.779 177.007C230.015 172.803 224.013 168.427 219.292 163.127C217.193 160.771 215.38 157.919 214.617 154.827C213.889 151.881 214.017 146.655 214.119 142.472V142.47L214.119 142.469L214.119 142.464C214.151 141.15 214.181 139.94 214.18 138.936C214.18 136.764 214.163 134.585 214.147 132.402L214.147 132.399V132.399C214.098 125.975 214.049 119.52 214.405 113.141C214.568 113.037 214.727 112.928 214.883 112.813C220.289 108.928 222.815 104.105 223.879 97.607C236.647 104.278 248.197 105.261 261.464 99.218C262.119 98.9198 262.764 98.6185 263.405 98.3195L263.407 98.3185C267.35 96.4791 271.109 94.725 275.601 94.3092ZM273.519 110.866C276.757 110.78 281.841 111.258 284.466 113.4C284.897 113.752 285.267 114.215 285.282 114.797C285.302 115.567 284.654 116.365 284.086 116.822C282.931 117.751 281.109 116.988 279.612 116.361C279.154 116.169 278.726 115.989 278.357 115.875C277.761 115.691 277.117 115.595 276.49 115.503C276.397 115.489 276.304 115.475 276.211 115.461L276.155 115.452L276.098 115.444C275.221 115.356 274.342 115.335 273.462 115.381C272.582 115.427 271.711 115.538 270.847 115.716C270.253 115.836 269.654 116.008 269.052 116.181C267.685 116.573 266.301 116.97 264.91 116.77C264.314 116.32 263.621 115.577 263.512 114.809C263.443 114.329 263.61 113.963 263.896 113.592C265.564 111.421 271.027 111.035 273.519 110.866ZM235.49 110.692C233.737 110.456 231.955 110.513 230.198 110.676C227.991 110.978 224.232 111.657 222.754 113.475C222.393 113.919 222.227 114.45 222.302 115.017C222.392 115.699 222.838 116.423 223.401 116.822C223.957 117.216 224.471 117.108 225.111 116.956C225.939 116.76 226.742 116.46 227.543 116.161L227.543 116.16C227.884 116.033 228.224 115.906 228.566 115.787C230.906 114.971 233.161 115.023 235.583 115.341C236.236 115.504 236.989 115.823 237.771 116.154C239.479 116.877 241.328 117.66 242.596 117.012C242.976 116.818 243.271 116.503 243.376 116.081C243.561 115.34 243.272 114.492 242.841 113.888C241.442 111.925 237.774 111.001 235.49 110.692ZM250.948 134.834C251.757 134.791 252.412 134.905 253.161 135.227C253.509 135.377 253.809 135.618 253.925 135.991C254.26 137.073 253.463 138.346 252.747 139.491C252.427 140.002 252.124 140.487 251.944 140.919C251.484 142.022 251.371 143.357 251.855 144.472C252.431 145.798 253.481 146.383 254.755 146.895C255.184 146.848 255.628 146.758 256.075 146.666C256.826 146.512 257.586 146.356 258.305 146.405C258.96 146.45 259.591 146.693 259.988 147.24C260.371 147.768 260.369 148.556 260.224 149.169C260.025 150.007 259.569 150.308 258.883 150.752C257.186 151.369 255.281 151.519 253.518 151.099C251.331 150.579 249.511 149.163 248.4 147.219C247.107 144.955 246.883 142.159 247.539 139.659C248.067 137.645 249.136 135.904 250.948 134.834ZM270.748 156.636C270.222 156.235 269.569 156.122 268.931 156.02C268.915 156.026 268.899 156.032 268.883 156.038L268.882 156.038C268.848 156.05 268.814 156.062 268.781 156.075C267.826 156.447 266.943 157.293 266.091 158.109C265.602 158.576 265.124 159.034 264.647 159.389C260.278 162.636 253.609 163.122 248.659 161.012C247.4 160.476 246.066 159.465 244.85 158.544C243.733 157.697 242.715 156.926 241.95 156.67C241.413 156.491 240.793 156.591 240.279 156.807C239.894 156.969 239.583 157.239 239.409 157.623C239.119 158.265 239.329 159.277 239.624 159.889C239.918 160.498 240.477 160.996 240.981 161.445C241.013 161.474 241.044 161.502 241.076 161.529C246.127 165.492 251.813 167.285 258.24 166.48C262.498 165.946 267.867 163.705 270.612 160.284C271.152 159.612 271.584 158.782 271.484 157.895C271.426 157.382 271.153 156.946 270.748 156.636ZM271.898 120.972C273.51 120.822 275.077 120.852 276.595 121.482C276.71 121.53 276.824 121.58 276.937 121.634C277.049 121.688 277.16 121.744 277.269 121.804C277.379 121.863 277.487 121.925 277.593 121.991C277.699 122.056 277.803 122.123 277.906 122.194C278.009 122.264 278.11 122.338 278.208 122.413C278.307 122.489 278.404 122.567 278.499 122.648C278.593 122.729 278.686 122.812 278.777 122.898C278.867 122.984 278.955 123.071 279.041 123.162C279.127 123.252 279.21 123.344 279.291 123.439C279.372 123.533 279.451 123.63 279.527 123.728C279.603 123.827 279.676 123.928 279.747 124.03C279.818 124.133 279.886 124.237 279.951 124.343C280.016 124.449 280.079 124.557 280.138 124.666C280.149 124.686 280.16 124.706 280.171 124.726C280.187 124.756 280.202 124.786 280.218 124.816C280.249 124.876 280.279 124.937 280.309 124.998C280.363 125.111 280.414 125.224 280.461 125.339C280.509 125.454 280.554 125.57 280.596 125.687C280.639 125.804 280.679 125.922 280.715 126.041C280.752 126.16 280.785 126.279 280.815 126.4C280.846 126.521 280.873 126.642 280.897 126.764C280.921 126.886 280.942 127.008 280.959 127.132C280.977 127.255 280.992 127.378 281.003 127.502C281.015 127.626 281.023 127.75 281.028 127.874C281.033 127.998 281.035 128.123 281.033 128.247C281.032 128.371 281.027 128.496 281.02 128.62C281.012 128.744 281.001 128.868 280.987 128.991C280.972 129.115 280.955 129.238 280.935 129.361C280.923 129.432 280.909 129.503 280.895 129.574C280.885 129.625 280.875 129.676 280.863 129.727C280.836 129.848 280.807 129.969 280.774 130.089C280.741 130.209 280.704 130.327 280.665 130.445C280.626 130.563 280.584 130.68 280.538 130.796C280.493 130.912 280.445 131.027 280.394 131.14C280.343 131.253 280.289 131.365 280.232 131.476C279.157 133.578 277.482 134.536 275.334 135.249C273.601 135.478 272.022 135.464 270.395 134.712C270.282 134.66 270.17 134.605 270.06 134.547C269.949 134.489 269.841 134.429 269.733 134.366C269.626 134.302 269.521 134.236 269.417 134.168C269.313 134.099 269.211 134.028 269.111 133.954C269.01 133.88 268.912 133.804 268.816 133.725C268.719 133.646 268.625 133.565 268.533 133.481C268.496 133.448 268.46 133.414 268.424 133.38C268.369 133.329 268.316 133.276 268.263 133.223C268.175 133.135 268.089 133.044 268.006 132.951C267.976 132.917 267.946 132.883 267.916 132.849C267.864 132.789 267.814 132.729 267.764 132.667C267.686 132.57 267.61 132.472 267.537 132.371C267.463 132.27 267.393 132.168 267.325 132.064C267.257 131.96 267.191 131.854 267.129 131.746C267.066 131.638 267.006 131.529 266.949 131.419C266.892 131.308 266.838 131.196 266.786 131.083C266.735 130.969 266.687 130.855 266.642 130.739C266.596 130.623 266.553 130.506 266.514 130.388C266.476 130.269 266.44 130.148 266.408 130.027C266.376 129.906 266.347 129.785 266.322 129.662C266.296 129.539 266.273 129.416 266.254 129.293C266.234 129.169 266.218 129.045 266.205 128.92C266.192 128.796 266.182 128.671 266.176 128.546C266.169 128.421 266.166 128.296 266.166 128.17C266.166 128.045 266.169 127.92 266.175 127.795C266.181 127.67 266.191 127.545 266.204 127.421C266.217 127.296 266.233 127.172 266.252 127.048C266.271 126.925 266.294 126.801 266.319 126.679C266.345 126.556 266.374 126.435 266.406 126.313C266.438 126.192 266.473 126.072 266.511 125.953C266.549 125.834 266.59 125.715 266.635 125.598C266.679 125.481 266.726 125.365 266.777 125.25C266.827 125.136 266.88 125.022 266.936 124.91C266.992 124.799 267.051 124.688 267.113 124.579C268.191 122.644 269.828 121.585 271.898 120.972ZM237.501 121.843C236.099 120.937 234.582 120.65 232.942 120.644C230.663 120.911 228.732 121.649 227.294 123.543C227.215 123.647 227.14 123.753 227.067 123.861C226.994 123.969 226.924 124.078 226.856 124.19C226.789 124.301 226.724 124.414 226.662 124.528C226.6 124.643 226.541 124.759 226.485 124.877C226.43 124.994 226.377 125.113 226.326 125.233C226.277 125.353 226.23 125.475 226.186 125.598C226.142 125.72 226.101 125.844 226.064 125.968C226.026 126.093 225.992 126.218 225.96 126.344C225.929 126.471 225.901 126.598 225.876 126.726C225.851 126.853 225.829 126.982 225.811 127.111C225.792 127.239 225.777 127.369 225.765 127.498C225.753 127.628 225.745 127.758 225.739 127.888C225.734 128.018 225.731 128.148 225.733 128.278C225.734 128.408 225.738 128.538 225.746 128.668C225.753 128.798 225.764 128.928 225.779 129.057C225.793 129.187 225.81 129.316 225.831 129.444C225.85 129.56 225.871 129.675 225.895 129.79C225.92 129.905 225.947 130.019 225.977 130.132C226.007 130.246 226.04 130.358 226.076 130.47C226.112 130.581 226.15 130.692 226.191 130.802C226.233 130.912 226.277 131.02 226.324 131.128C226.37 131.236 226.42 131.342 226.472 131.447C226.524 131.552 226.578 131.656 226.636 131.759C226.693 131.861 226.753 131.962 226.815 132.061C226.877 132.161 226.942 132.259 227.009 132.355C227.077 132.451 227.146 132.545 227.218 132.638C227.29 132.731 227.364 132.821 227.441 132.91C227.518 132.999 227.596 133.086 227.677 133.171C227.758 133.256 227.841 133.339 227.926 133.42C228.011 133.501 228.098 133.58 228.187 133.656C228.276 133.733 228.367 133.807 228.46 133.879C228.552 133.951 228.647 134.021 228.743 134.088C230.291 135.185 232.036 135.571 233.906 135.576C236.134 135.256 238.029 134.494 239.4 132.616C240.614 130.952 241.079 128.765 240.721 126.744C240.7 126.62 240.676 126.497 240.648 126.374C240.621 126.251 240.59 126.129 240.556 126.008C240.523 125.887 240.486 125.767 240.446 125.648C240.406 125.529 240.363 125.411 240.317 125.294C240.271 125.177 240.222 125.061 240.17 124.947C240.118 124.832 240.063 124.719 240.005 124.607C239.947 124.496 239.886 124.386 239.823 124.277C239.759 124.169 239.693 124.062 239.624 123.957C239.555 123.852 239.483 123.749 239.409 123.647C239.335 123.546 239.258 123.446 239.178 123.349C239.099 123.252 239.017 123.156 238.932 123.063C238.848 122.97 238.761 122.879 238.672 122.79C238.583 122.701 238.492 122.615 238.398 122.531C238.305 122.447 238.209 122.365 238.111 122.286C238.013 122.207 237.914 122.131 237.812 122.057C237.71 121.982 237.607 121.911 237.501 121.843Z" fill="white"/>
    <path d="M324.212 212.794C334.066 212.724 341.448 213.153 350.577 217.648C360.779 222.672 368.608 230.97 372.233 241.833C372.39 242.287 372.538 242.744 372.679 243.204C372.82 243.664 372.954 244.125 373.08 244.589C373.205 245.053 373.323 245.519 373.434 245.988C373.544 246.455 373.647 246.925 373.741 247.396C373.836 247.868 373.923 248.34 374.002 248.815C374.081 249.289 374.152 249.764 374.215 250.24C374.279 250.717 374.334 251.195 374.381 251.673C374.429 252.152 374.468 252.631 374.5 253.11C374.531 253.59 374.555 254.07 374.57 254.55C374.586 255.031 374.593 255.512 374.593 255.992C374.592 256.473 374.584 256.954 374.568 257.434C374.551 257.915 374.527 258.395 374.495 258.874C374.462 259.354 374.422 259.833 374.374 260.311C374.326 260.789 374.27 261.267 374.206 261.743C374.142 262.22 374.07 262.695 373.99 263.169C373.91 263.643 373.823 264.116 373.727 264.587C373.484 265.805 373.276 267.097 372.872 268.274C371.733 271.585 370.112 274.469 368.602 277.595C368.271 278.278 367.807 279.356 368.119 280.108C368.363 280.695 368.852 281.448 369.497 281.646C369.874 281.761 370.264 281.675 370.611 281.514C373.218 280.3 375.407 274.072 376.449 271.438C377.708 273.816 378.861 276.244 379.906 278.724C385.03 291.081 386.388 305.336 384.857 318.56C384.578 320.827 384.224 323.082 383.795 325.325C383.472 326.93 382.979 328.606 382.873 330.24C382.753 332.094 383.513 334.221 383.829 336.059C384.202 338.366 384.42 340.687 384.482 343.023C384.81 355.603 382.299 368.489 377.971 380.269C377.057 382.758 375.92 385.143 374.91 387.592L344.181 387.604L334.823 387.591C334.599 381.732 334.717 375.996 335.348 370.159C336.471 359.788 339.534 345.763 347.02 338.076C349.361 335.672 351.789 334.924 353.92 333.046C354.308 332.704 354.561 332.105 354.547 331.588C354.53 330.971 354.145 330.22 353.642 329.854C353.151 329.497 352.591 329.42 352.002 329.5C348.023 330.045 342.897 335.927 340.688 339.04C338.329 334.261 336.776 329.421 335.111 324.375C337.414 319.105 339.368 313.708 340.972 308.185C341.574 306.089 342.116 303.977 342.597 301.85C343.078 299.723 343.499 297.584 343.858 295.433C344.218 293.282 344.516 291.122 344.752 288.954C344.988 286.786 345.162 284.613 345.274 282.435C345.381 280.682 345.831 277.835 344.91 276.297C344.657 275.873 344.27 275.543 343.775 275.443C343.217 275.329 342.437 275.445 341.969 275.786C341.451 276.162 341.221 276.655 341.103 277.265C340.78 278.944 340.922 280.829 340.848 282.54C340.732 285.758 340.419 288.957 339.908 292.137C337.2 289.57 334.609 287.042 332.377 284.031C319.209 266.265 319.548 244.556 322.404 223.61C322.898 219.988 323.671 216.41 324.212 212.794Z" fill="white"/>
    <path d="M185.298 211.805C185.509 211.759 185.718 211.802 185.931 211.821C185.969 211.877 186.013 211.93 186.046 211.99C186.755 213.274 187.117 216.941 187.408 218.608C189.757 232.068 191.152 246.518 188.435 260.033C185.915 272.574 179.823 285.072 168.906 292.352C167.691 288.848 167.072 284.836 166.739 281.139C166.595 279.545 166.727 277.472 166.26 275.959C166.118 275.5 165.657 275.019 165.284 274.718C164.929 274.431 164.476 274.272 164.019 274.378C163.361 274.532 162.821 275.164 162.521 275.735C160.087 280.362 166.429 299.579 168.256 305.117C165.928 307.589 164.055 310.625 161.834 313.228C156.268 319.751 149.702 325.449 142.732 330.423C134.244 336.48 117.455 345.703 107.268 347.748C106.566 347.894 105.86 348.007 105.148 348.087C104.436 348.168 103.722 348.215 103.006 348.23C102.29 348.244 101.575 348.225 100.861 348.174C100.146 348.122 99.4354 348.037 98.7288 347.919C91.8864 346.742 85.8885 342.312 81.9692 336.697C69.5921 318.965 73.7328 279.092 77.3261 258.853C77.595 257.52 77.8431 256.183 78.0707 254.842C89.2189 262.141 100.29 265.029 113.608 263.298C115.494 266.749 117.041 270.532 118.443 274.204C123.067 286.305 125.673 298.846 123.602 311.8C123.34 313.442 122.966 314.928 122.457 316.511C121.797 318.566 120.081 321.51 120.196 323.608C120.226 324.151 120.434 324.717 120.891 325.045C121.381 325.396 122.185 325.477 122.753 325.297C123.812 324.96 124.395 323.959 124.827 323.004C130.69 310.05 129.313 294.11 125.42 280.803C124.266 276.861 122.725 273.047 121.244 269.22C121.559 268.789 121.887 268.364 122.248 267.969C127.002 262.774 133.926 261.701 140.44 263.903C141.886 264.392 143.973 265.678 145.513 265.542C146.089 265.491 146.626 265.162 146.977 264.712C147.379 264.197 147.579 263.464 147.436 262.818C147.281 262.124 146.83 261.792 146.262 261.435C142.185 258.873 134.557 257.646 129.848 258.746C125.432 259.779 122.357 262.386 119.993 266.149C119.36 264.913 118.764 263.674 118.206 262.402C123.826 260.689 129.145 258.272 133.927 254.829C144.712 247.065 150.391 236.171 152.527 223.26C163.858 213.592 171.249 213.043 185.298 211.805Z" fill="white"/>
    <path d="M254.816 298.382C256.057 298.61 260.255 301.636 261.704 302.48C265.264 304.555 268.936 306.092 272.784 307.556C288.843 313.665 307.398 314.687 323.828 309.385C328.585 307.85 332.921 305.606 337.463 303.563C335.349 311.252 332.924 318.756 329.416 325.938C328.516 327.78 327.605 329.631 326.586 331.412C325.548 333.225 324.067 335.186 323.425 337.174C322.69 339.454 323.131 351.133 323.132 354.506L323.112 387.612L254.767 387.633L188.523 387.587C188.401 382.255 188.849 338.794 188.297 337.361C187.247 334.633 184.979 332.048 183.542 329.46C179.497 322.178 174.347 311.698 172.212 303.633C179.914 307.735 188.013 310.657 196.658 312.006C216.624 315.121 238.411 310.33 254.816 298.382Z" fill="white"/>
    <path d="M208.491 199.996C209.011 200.484 209.352 202.63 209.617 203.413C210.664 206.5 211.947 209.419 213.582 212.242C213.784 212.588 213.989 212.932 214.199 213.273C214.409 213.614 214.623 213.952 214.841 214.288C215.059 214.623 215.281 214.956 215.508 215.286C215.734 215.616 215.965 215.943 216.2 216.268C216.434 216.592 216.673 216.914 216.915 217.232C217.158 217.551 217.404 217.866 217.654 218.178C217.905 218.491 218.159 218.8 218.417 219.106C218.675 219.412 218.937 219.715 219.203 220.015C219.468 220.314 219.737 220.61 220.011 220.903C220.283 221.196 220.56 221.486 220.84 221.772C221.12 222.058 221.404 222.34 221.691 222.619C221.978 222.898 222.269 223.174 222.563 223.446C222.856 223.717 223.154 223.985 223.454 224.25C223.755 224.514 224.059 224.775 224.366 225.032C224.673 225.289 224.983 225.542 225.296 225.791C225.61 226.04 225.926 226.285 226.246 226.527C226.565 226.768 226.887 227.006 227.213 227.239C227.538 227.473 227.866 227.702 228.197 227.927C228.528 228.152 228.862 228.373 229.199 228.59C229.535 228.807 229.874 229.02 230.216 229.229C230.558 229.437 230.902 229.642 231.249 229.842C231.596 230.042 231.945 230.238 232.297 230.429C232.649 230.62 233.003 230.807 233.359 230.99C233.715 231.172 234.074 231.351 234.435 231.524C234.796 231.698 235.159 231.867 235.524 232.032C235.888 232.197 236.255 232.357 236.624 232.513C236.993 232.668 237.364 232.819 237.737 232.965C238.11 233.112 238.484 233.254 238.86 233.391C239.237 233.528 239.615 233.661 239.994 233.788C240.374 233.916 240.755 234.039 241.137 234.157C241.52 234.276 241.904 234.389 242.289 234.498C242.674 234.607 243.061 234.711 243.449 234.81C243.837 234.907 244.226 234.999 244.616 235.087C245.006 235.174 245.397 235.257 245.789 235.334C246.181 235.412 246.574 235.485 246.968 235.553C247.362 235.621 247.757 235.684 248.152 235.743C248.548 235.801 248.944 235.855 249.341 235.903C249.737 235.952 250.135 235.996 250.533 236.035C250.931 236.073 251.329 236.107 251.728 236.136C252.126 236.165 252.525 236.19 252.924 236.209C253.324 236.228 253.723 236.243 254.123 236.252C254.522 236.262 254.922 236.266 255.322 236.266C255.722 236.265 256.121 236.26 256.521 236.25C256.92 236.24 257.32 236.225 257.719 236.205C258.119 236.185 258.517 236.16 258.916 236.13C259.315 236.1 259.713 236.066 260.111 236.026C260.509 235.986 260.906 235.942 261.302 235.893C261.699 235.843 262.095 235.789 262.49 235.73C262.886 235.671 263.28 235.607 263.674 235.538C264.068 235.469 264.461 235.396 264.853 235.317C265.245 235.239 265.636 235.156 266.026 235.068C266.416 234.98 266.804 234.887 267.192 234.789C267.579 234.692 267.966 234.589 268.351 234.482C268.736 234.375 269.12 234.263 269.502 234.147C269.885 234.03 270.266 233.909 270.645 233.783C271.024 233.657 271.402 233.527 271.778 233.392C272.155 233.257 272.529 233.117 272.902 232.972C273.274 232.828 273.645 232.679 274.014 232.526C274.383 232.372 274.751 232.214 275.116 232.052C275.481 231.889 275.844 231.722 276.205 231.551C276.566 231.379 276.925 231.203 277.282 231.023C277.639 230.843 277.993 230.658 278.345 230.469C278.698 230.28 279.047 230.087 279.395 229.889C279.742 229.692 280.087 229.49 280.43 229.284C291.054 222.926 299.265 212.755 302.306 200.654C308.41 203.041 314.422 205.664 320.513 208.089C318.797 216.453 317.393 224.739 316.738 233.265C315.278 252.285 316.757 270.716 328.559 286.536C330.117 288.623 331.851 290.668 333.691 292.51C335.239 294.06 336.938 295.517 338.352 297.19L338.506 297.374C332.725 301.683 325.18 304.455 318.226 306.193C297.69 310.923 280.564 307.616 262.23 297.593C260.393 296.589 256.982 293.416 255.088 293.315C254.67 293.292 254.03 293.663 253.681 293.853C252.49 294.506 251.384 295.4 250.243 296.142C247.722 297.782 245.033 299.427 242.319 300.719C240.609 301.536 238.873 302.292 237.11 302.986C235.347 303.681 233.561 304.312 231.754 304.881C229.946 305.449 228.12 305.954 226.277 306.394C224.434 306.834 222.578 307.208 220.708 307.518C219.81 307.662 218.91 307.79 218.008 307.902C217.106 308.013 216.202 308.108 215.296 308.186C214.39 308.264 213.483 308.326 212.575 308.371C211.666 308.416 210.758 308.444 209.849 308.455C208.94 308.467 208.03 308.462 207.121 308.44C206.213 308.418 205.304 308.379 204.397 308.324C203.489 308.268 202.583 308.196 201.678 308.108C200.773 308.019 199.87 307.914 198.969 307.792C198.068 307.67 197.17 307.532 196.274 307.377C195.378 307.222 194.485 307.051 193.595 306.863C192.706 306.675 191.82 306.471 190.938 306.251C190.056 306.031 189.178 305.794 188.305 305.542C187.431 305.289 186.563 305.021 185.699 304.737C184.836 304.452 183.978 304.152 183.125 303.836C182.273 303.52 181.426 303.188 180.586 302.841C179.745 302.494 178.912 302.132 178.085 301.754C175.193 300.456 172.189 299.067 169.599 297.231C175.253 294.122 180.713 288.091 184.203 282.694C198.637 260.372 194.984 231.937 189.667 207.36L208.491 199.996Z" fill="white"/>
</svg>
