<svg width="61" height="61" viewBox="0 0 61 61" fill="none" xmlns="http://www.w3.org/2000/svg">
    <rect width="61" height="61" fill="white" fill-opacity="0.2"/>
    <path d="M40.9695 16.8325C41.262 16.8928 41.5295 16.9877 41.7535 17.1934C42.0323 17.4494 42.1935 17.8268 42.2116 18.202C42.2334 18.6531 42.0749 19.0291 41.7775 19.3612C41.5357 19.5887 41.2758 19.7093 40.9553 19.7833C40.958 18.8005 40.9398 17.8148 40.9695 16.8325Z" fill="white"/>
    <path d="M28.2852 16.8006C28.3818 16.7886 28.4925 16.7717 28.5827 16.8143C28.6752 16.9657 28.6287 19.4328 28.6283 19.8198C28.3749 19.7597 28.1798 19.681 27.9634 19.5366C27.7072 19.3281 27.5106 19.07 27.4094 18.7533C27.2754 18.3337 27.3006 17.7873 27.5087 17.3959C27.6818 17.0704 27.9419 16.9033 28.2852 16.8006Z" fill="white"/>
    <path d="M14.0944 23.6324C14.5059 23.6128 15.03 23.6255 15.4299 23.7405L15.4157 23.7463L15.3885 23.7252L15.3825 23.749C15.0937 23.7398 14.8056 23.7305 14.5168 23.7465C14.4698 23.7492 14.4229 23.7524 14.376 23.7562C14.3291 23.7601 14.2823 23.7645 14.2355 23.7694C14.1887 23.7744 14.142 23.78 14.0954 23.7861C14.0487 23.7922 14.0021 23.7989 13.9557 23.8061C13.9092 23.8134 13.8628 23.8212 13.8165 23.8296C13.7702 23.838 13.724 23.8469 13.6779 23.8565C13.6319 23.866 13.5859 23.8761 13.5401 23.8867C13.4943 23.8974 13.4486 23.9086 13.403 23.9203C13.3575 23.9321 13.3121 23.9444 13.2668 23.9573C13.2216 23.9702 13.1765 23.9836 13.1316 23.9975C13.0866 24.0115 13.0419 24.026 12.9973 24.0411C12.9528 24.0562 12.9084 24.0718 12.8642 24.088C12.82 24.1041 12.776 24.1208 12.7323 24.138C12.6885 24.1552 12.6449 24.173 12.6016 24.1913C12.5582 24.2096 12.5151 24.2284 12.4723 24.2478C12.4294 24.2671 12.3868 24.287 12.3444 24.3074C12.302 24.3278 12.2598 24.3487 12.218 24.3701C12.1761 24.3915 12.1345 24.4134 12.0931 24.4359C12.0518 24.4583 12.0107 24.4813 11.9699 24.5047C11.9291 24.5281 11.8887 24.5521 11.8485 24.5765C11.8083 24.6009 11.7684 24.6259 11.7288 24.6513C11.6892 24.6767 11.6499 24.7026 11.611 24.7289C11.572 24.7553 11.5334 24.7821 11.4951 24.8095C11.4568 24.8368 11.4189 24.8646 11.3812 24.8928C11.3436 24.921 11.3063 24.9497 11.2694 24.9789C11.2325 25.008 11.196 25.0377 11.1598 25.0677C11.1236 25.0977 11.0878 25.1282 11.0524 25.1591C11.0169 25.1901 10.9819 25.2214 10.9472 25.2532C10.9125 25.285 10.8782 25.3172 10.8444 25.3498C10.8105 25.3824 10.777 25.4154 10.7439 25.4489C10.7108 25.4823 10.6782 25.5162 10.6459 25.5504C10.6137 25.5846 10.5818 25.6193 10.5504 25.6543C9.54582 26.7809 9.05027 28.174 9.14072 29.6836C9.22705 31.1243 9.94493 32.4975 11.0274 33.4436C12.1131 34.3926 13.6169 34.8704 15.0514 34.7645C16.4524 34.6611 17.7164 33.9742 18.6255 32.9133C19.6438 31.7248 20.1122 30.0094 19.8397 28.4672C19.7988 28.2353 19.7394 27.9982 19.6701 27.7731C19.6197 27.6093 19.5163 27.4126 19.5034 27.2442L19.5379 27.2849C19.5863 27.376 19.6323 27.4683 19.6759 27.5619C19.7195 27.6554 19.7606 27.75 19.7991 27.8457C19.8377 27.9413 19.8738 28.0379 19.9073 28.1355C19.9407 28.2331 19.9716 28.3314 20 28.4307C20.0283 28.5298 20.054 28.6297 20.077 28.7303C20.1001 28.8308 20.1205 28.9319 20.1382 29.0335C20.156 29.1351 20.171 29.2371 20.1834 29.3396C20.1957 29.4419 20.2054 29.5446 20.2124 29.6475C20.301 31.0318 19.7804 32.4127 18.8624 33.443C18.8297 33.4796 18.7966 33.5158 18.7631 33.5516C18.7296 33.5874 18.6956 33.6228 18.6612 33.6577C18.6267 33.6927 18.5919 33.7272 18.5566 33.7613C18.5214 33.7954 18.4857 33.829 18.4496 33.8622C18.4135 33.8954 18.377 33.9282 18.3401 33.9605C18.3032 33.9928 18.2659 34.0246 18.2282 34.056C18.1905 34.0874 18.1524 34.1183 18.1139 34.1487C18.0755 34.1792 18.0366 34.2091 17.9974 34.2386C17.9582 34.2681 17.9187 34.2971 17.8787 34.3256C17.8388 34.3541 17.7985 34.3821 17.7579 34.4096C17.7173 34.4371 17.6764 34.4641 17.6351 34.4905C17.5938 34.517 17.5522 34.543 17.5102 34.5685C17.4683 34.594 17.4261 34.6189 17.3836 34.6433C17.341 34.6678 17.2982 34.6917 17.255 34.715C17.2119 34.7384 17.1685 34.7612 17.1248 34.7835C17.0811 34.8057 17.0371 34.8275 16.9929 34.8487C16.9486 34.8699 16.9041 34.8905 16.8594 34.9107C16.8146 34.9307 16.7697 34.9503 16.7244 34.9693C16.6792 34.9883 16.6337 35.0067 16.588 35.0245C16.5423 35.0424 16.4965 35.0597 16.4503 35.0765C16.4042 35.0932 16.3579 35.1093 16.3113 35.1249C16.2648 35.1405 16.2181 35.1555 16.1712 35.1699C16.1244 35.1844 16.0773 35.1982 16.0301 35.2115C15.9828 35.2247 15.9354 35.2374 15.8879 35.2495C15.8403 35.2616 15.7926 35.2731 15.7448 35.284C15.697 35.2949 15.6491 35.3053 15.601 35.315C15.5529 35.3247 15.5047 35.3339 15.4563 35.3424C15.4081 35.3509 15.3596 35.3589 15.3111 35.3662C15.2626 35.3735 15.214 35.3803 15.1653 35.3864C15.1167 35.3926 15.0679 35.3981 15.0191 35.4031C14.9703 35.408 14.9214 35.4123 14.8725 35.416C14.8236 35.4198 14.7746 35.4229 14.7256 35.4254C13.1718 35.5091 11.569 34.8481 10.4233 33.8165C10.388 33.7847 10.353 33.7524 10.3185 33.7197C10.284 33.6869 10.2498 33.6538 10.2161 33.6203C10.1824 33.5867 10.1491 33.5527 10.1162 33.5184C10.0833 33.484 10.0509 33.4492 10.0188 33.414C9.98683 33.3788 9.95525 33.3433 9.92412 33.3073C9.89298 33.2713 9.8623 33.235 9.83207 33.1983C9.80183 33.1615 9.77206 33.1244 9.74275 33.087C9.71344 33.0495 9.6846 33.0117 9.65622 32.9735C9.62785 32.9353 9.59996 32.8968 9.57254 32.8579C9.54512 32.8191 9.51819 32.7799 9.49175 32.7403C9.4653 32.7008 9.43935 32.6609 9.4139 32.6207C9.38844 32.5805 9.36349 32.54 9.33904 32.4992C9.31459 32.4585 9.29065 32.4174 9.26722 32.376C9.24379 32.3346 9.22088 32.2929 9.19849 32.2509C9.17609 32.209 9.15422 32.1667 9.13287 32.1242C9.11153 32.0817 9.09071 32.039 9.07042 31.9959C9.05014 31.9529 9.03039 31.9096 9.01118 31.8661C8.99196 31.8226 8.9733 31.7789 8.95517 31.7349C8.93704 31.6909 8.91946 31.6467 8.90243 31.6023C8.8854 31.5579 8.86893 31.5133 8.853 31.4685C8.83708 31.4237 8.82172 31.3787 8.80691 31.3335C8.7921 31.2883 8.77786 31.2429 8.76418 31.1974C8.7505 31.1518 8.73739 31.1061 8.72485 31.0602C8.7123 31.0143 8.70033 30.9683 8.68892 30.9221C8.67752 30.876 8.66669 30.8297 8.65644 30.7832C8.64619 30.7368 8.63651 30.6902 8.62741 30.6435C8.61831 30.5968 8.6098 30.5501 8.60186 30.5032C8.59392 30.4563 8.58657 30.4093 8.5798 30.3622C8.57303 30.3151 8.56684 30.268 8.56124 30.2208C8.55564 30.1736 8.55062 30.1263 8.5462 30.0789C8.54177 30.0316 8.53793 29.9842 8.53468 29.9367C8.53143 29.8893 8.52877 29.8418 8.5267 29.7943C8.52428 29.7452 8.52248 29.696 8.52128 29.6469C8.52009 29.5977 8.51951 29.5485 8.51953 29.4994C8.51956 29.4502 8.52019 29.401 8.52144 29.3519C8.52269 29.3027 8.52454 29.2536 8.527 29.2045C8.52947 29.1554 8.53255 29.1063 8.53623 29.0573C8.53992 29.0083 8.54421 28.9593 8.54911 28.9104C8.55401 28.8614 8.55951 28.8126 8.56563 28.7638C8.57174 28.715 8.57846 28.6663 8.58578 28.6177C8.5931 28.569 8.60103 28.5205 8.60955 28.4721C8.61808 28.4237 8.62721 28.3754 8.63693 28.3272C8.64666 28.279 8.65698 28.2309 8.6679 28.1829C8.67882 28.135 8.69033 28.0872 8.70244 28.0396C8.71454 27.9919 8.72724 27.9444 8.74052 27.8971C8.75381 27.8497 8.76768 27.8025 8.78214 27.7555C8.79659 27.7085 8.81163 27.6617 8.82725 27.6151C8.84287 27.5685 8.85906 27.522 8.87583 27.4758C8.8926 27.4296 8.90995 27.3836 8.92786 27.3378C8.94577 27.292 8.96425 27.2464 8.9833 27.2011C9.00234 27.1557 9.02194 27.1106 9.04211 27.0658C9.06227 27.021 9.08299 26.9764 9.10426 26.932C9.12553 26.8877 9.14735 26.8436 9.16971 26.7998C9.19208 26.756 9.21499 26.7125 9.23843 26.6693C9.26188 26.626 9.28586 26.5831 9.31037 26.5405C9.33488 26.4979 9.35991 26.4555 9.38547 26.4135C9.41103 26.3715 9.43711 26.3298 9.46371 26.2884C9.49031 26.2471 9.51742 26.206 9.54503 26.1654C9.57264 26.1247 9.60076 26.0843 9.62938 26.0443C9.65799 26.0043 9.6871 25.9647 9.7167 25.9254C9.7463 25.8861 9.77639 25.8472 9.80695 25.8087C9.83752 25.7702 9.86856 25.732 9.90007 25.6943C9.93159 25.6565 9.96357 25.6192 9.99601 25.5822C10.0284 25.5452 10.0613 25.5087 10.0947 25.4725C11.1558 24.3188 12.5359 23.7029 14.0944 23.6324Z" fill="white"/>
    <path fill-rule="evenodd" clip-rule="evenodd" d="M14.3214 26.5703C14.3199 26.5705 14.3183 26.5707 14.3168 26.5708C13.4888 26.6464 12.7445 26.9891 12.2103 27.6378C12.1806 27.6744 12.1518 27.7116 12.124 27.7496C12.0961 27.7876 12.0692 27.8263 12.0433 27.8656C12.0174 27.9049 11.9925 27.9448 11.9685 27.9854C11.9446 28.0259 11.9217 28.0671 11.8998 28.1088C11.8779 28.1505 11.8571 28.1927 11.8373 28.2354C11.8175 28.2781 11.7988 28.3213 11.7811 28.365C11.7635 28.4086 11.7469 28.4527 11.7315 28.4972C11.716 28.5416 11.7017 28.5865 11.6884 28.6317C11.6752 28.6768 11.6631 28.7223 11.6521 28.7681C11.6412 28.8139 11.6314 28.86 11.6227 28.9062C11.614 28.9525 11.6064 28.999 11.6001 29.0456C11.5937 29.0923 11.5885 29.139 11.5844 29.1859C11.5804 29.2328 11.5775 29.2798 11.5758 29.3269C11.574 29.374 11.5735 29.421 11.5741 29.4681C11.5747 29.5152 11.5765 29.5622 11.5794 29.6092C11.5824 29.6562 11.5865 29.7031 11.5918 29.7499C11.6747 30.5436 12.0521 31.2758 12.6746 31.7805C13.2189 32.2219 13.9381 32.4486 14.6358 32.4305C15.4367 32.3694 16.1448 32.0434 16.6696 31.429C16.7012 31.3928 16.7318 31.3558 16.7616 31.318C16.7913 31.2802 16.82 31.2416 16.8478 31.2024C16.8756 31.1632 16.9023 31.1233 16.9281 31.0827C16.9539 31.0421 16.9786 31.0009 17.0023 30.959C17.026 30.9172 17.0486 30.8748 17.0702 30.8319C17.0918 30.7889 17.1122 30.7454 17.1316 30.7014C17.151 30.6574 17.1693 30.613 17.1864 30.5681C17.2035 30.5232 17.2195 30.4779 17.2344 30.4321C17.2493 30.3864 17.263 30.3404 17.2755 30.294C17.288 30.2476 17.2994 30.2009 17.3096 30.1539C17.3198 30.1069 17.3288 30.0597 17.3367 30.0123C17.3445 29.9649 17.3511 29.9173 17.3565 29.8695C17.362 29.8218 17.3662 29.7739 17.3692 29.726C17.3722 29.678 17.3741 29.63 17.3747 29.5819C17.3753 29.5338 17.3747 29.4858 17.3729 29.4378C17.3711 29.3897 17.368 29.3418 17.3638 29.2939C17.2985 28.491 16.9496 27.7656 16.332 27.2416C16.2977 27.2123 16.2628 27.1838 16.2271 27.1562C16.1915 27.1286 16.1552 27.1018 16.1183 27.0759C16.0813 27.0501 16.0438 27.0251 16.0057 27.001C15.9675 26.9769 15.9289 26.9537 15.8896 26.9314C15.8504 26.9092 15.8106 26.888 15.7704 26.8676C15.7301 26.8473 15.6894 26.8279 15.6482 26.8096C15.607 26.7912 15.5654 26.7738 15.5234 26.7574C15.4814 26.741 15.439 26.7257 15.3962 26.7113C15.3534 26.6969 15.3103 26.6836 15.267 26.6713C15.2236 26.659 15.1799 26.6478 15.1359 26.6376C15.092 26.6274 15.0478 26.6182 15.0035 26.6102C14.9591 26.6021 14.9145 26.5951 14.8698 26.5891C14.8251 26.5832 14.7803 26.5783 14.7353 26.5745C14.6904 26.5707 14.6454 26.568 14.6003 26.5663C14.5552 26.5647 14.5101 26.5641 14.465 26.5646C14.4199 26.5652 14.3748 26.5668 14.3298 26.5695C14.327 26.5696 14.3242 26.57 14.3214 26.5703ZM15.5221 28.2334C15.2005 27.9823 14.838 27.8868 14.4349 27.882C13.9563 27.927 13.5404 28.082 13.2288 28.4632C12.9549 28.7985 12.8135 29.2452 12.864 29.6766C12.9156 30.1177 13.1561 30.5215 13.5038 30.795C13.8378 31.0576 14.189 31.1325 14.6057 31.1337C15.0763 31.0829 15.4966 30.8874 15.7953 30.5125C16.0715 30.1659 16.1845 29.7278 16.1312 29.2895C16.0793 28.8618 15.8605 28.4975 15.5221 28.2334Z" fill="white"/>
    <path d="M14.3828 28.4383C14.6336 28.4196 14.8691 28.4644 15.0836 28.6013C15.0996 28.6116 15.1154 28.6222 15.1309 28.6333C15.1464 28.6443 15.1617 28.6558 15.1766 28.6676C15.1915 28.6795 15.2061 28.6917 15.2204 28.7042C15.2347 28.7168 15.2487 28.7298 15.2623 28.743C15.276 28.7564 15.2893 28.77 15.3022 28.784C15.3151 28.798 15.3277 28.8123 15.3399 28.8269C15.3521 28.8415 15.3639 28.8564 15.3754 28.8716C15.3868 28.8869 15.3978 28.9024 15.4085 28.9182C15.4191 28.934 15.4294 28.9501 15.4392 28.9664C15.449 28.9827 15.4584 28.9993 15.4674 29.016C15.4764 29.0329 15.4849 29.0499 15.4929 29.0671C15.501 29.0843 15.5087 29.1018 15.5159 29.1194C15.5231 29.137 15.5299 29.1548 15.5362 29.1728C15.5425 29.1908 15.5483 29.2089 15.5536 29.2272C15.559 29.2455 15.5639 29.2639 15.5683 29.2824C15.5727 29.3009 15.5766 29.3195 15.5801 29.3383C15.5832 29.3553 15.5858 29.3725 15.588 29.3897C15.5902 29.4069 15.592 29.4241 15.5933 29.4414C15.5947 29.4587 15.5956 29.476 15.5961 29.4933C15.5965 29.5107 15.5966 29.528 15.5962 29.5453C15.5959 29.5627 15.595 29.58 15.5938 29.5973C15.5926 29.6146 15.5909 29.6318 15.5889 29.649C15.5868 29.6663 15.5843 29.6834 15.5813 29.7005C15.5784 29.7176 15.5751 29.7346 15.5713 29.7516C15.5675 29.7685 15.5633 29.7853 15.5587 29.802C15.5541 29.8187 15.549 29.8353 15.5436 29.8518C15.5382 29.8683 15.5323 29.8846 15.5261 29.9008C15.5198 29.917 15.5132 29.933 15.5062 29.9488C15.4991 29.9646 15.4917 29.9803 15.4839 29.9958C15.476 30.0113 15.4678 30.0266 15.4593 30.0417C15.4507 30.0567 15.4418 30.0716 15.4325 30.0862C15.4231 30.1008 15.4135 30.1152 15.4034 30.1294C15.2166 30.3965 14.9471 30.5268 14.6358 30.588C14.364 30.6053 14.0999 30.5488 13.8728 30.3932C13.858 30.383 13.8436 30.3724 13.8294 30.3615C13.8152 30.3506 13.8012 30.3394 13.7876 30.3278C13.774 30.3161 13.7606 30.3042 13.7476 30.2919C13.7345 30.2796 13.7218 30.267 13.7094 30.2541C13.697 30.2412 13.6849 30.228 13.6732 30.2144C13.6614 30.2009 13.65 30.1871 13.639 30.173C13.628 30.1589 13.6173 30.1445 13.6069 30.1298C13.5966 30.1152 13.5867 30.1003 13.5771 30.0852C13.5675 30.0701 13.5584 30.0547 13.5495 30.0391C13.5407 30.0235 13.5323 30.0077 13.5243 29.9917C13.5163 29.9756 13.5087 29.9594 13.5015 29.943C13.4943 29.9266 13.4875 29.9101 13.4812 29.8933C13.4748 29.8766 13.4689 29.8597 13.4633 29.8427C13.4578 29.8256 13.4528 29.8084 13.4481 29.7912C13.4435 29.7739 13.4392 29.7564 13.4355 29.7389C13.4317 29.7214 13.4284 29.7038 13.4255 29.6862C13.4223 29.6686 13.4196 29.651 13.4174 29.6334C13.4151 29.6157 13.4133 29.598 13.412 29.5802C13.4106 29.5625 13.4097 29.5447 13.4092 29.5269C13.4088 29.509 13.4088 29.4912 13.4093 29.4734C13.4097 29.4556 13.4107 29.4378 13.4121 29.4201C13.4134 29.4023 13.4153 29.3846 13.4176 29.3669C13.4198 29.3493 13.4225 29.3317 13.4257 29.3142C13.4289 29.2966 13.4325 29.2792 13.4366 29.2618C13.4407 29.2445 13.4452 29.2273 13.4501 29.2101C13.4551 29.193 13.4605 29.1761 13.4663 29.1592C13.4721 29.1424 13.4784 29.1257 13.485 29.1092C13.4917 29.0927 13.4988 29.0763 13.5063 29.0602C13.5138 29.044 13.5217 29.028 13.53 29.0123C13.5383 28.9965 13.547 28.981 13.5561 28.9657C13.5653 28.9504 13.5748 28.9353 13.5846 28.9205C13.5945 28.9057 13.6048 28.8911 13.6154 28.8768C13.807 28.6181 14.0717 28.4889 14.3828 28.4383Z" fill="white"/>
    <path d="M38.0743 24.3715C38.1929 24.5672 38.0083 28.1409 38.1647 28.3317C38.2162 28.3947 38.2797 28.4281 38.3601 28.4349C38.4465 28.4422 38.5536 28.4176 38.6157 28.3551C38.6703 28.3001 38.6903 28.2327 38.7004 28.1579C38.7296 27.9435 38.7033 27.7076 38.7024 27.4907C38.7009 27.0992 38.7045 26.7077 38.713 26.3163C39.3645 26.6169 40.0383 26.8688 40.6924 27.1651C40.502 27.7977 40.2759 28.3866 39.9054 28.9387C38.9985 30.29 37.511 31.2452 35.9155 31.5474C34.3239 31.8488 32.7618 31.4721 31.4309 30.5717C30.2708 29.7934 29.3198 28.4109 29.0463 27.0379C29.6863 26.8074 30.3072 26.5279 30.9433 26.2875C30.9447 26.5907 30.8922 28.0991 31.0214 28.2676C31.0725 28.3343 31.1347 28.365 31.2171 28.3702C31.2935 28.375 31.3832 28.3567 31.439 28.3002C31.5144 28.2239 31.5397 28.1217 31.549 28.0175C31.5809 27.6592 31.5381 27.2588 31.5369 26.8955L31.5454 24.4443C32.3538 25.042 33.1392 25.631 34.1567 25.8079C35.7145 26.0788 36.8711 25.2097 38.0743 24.3715Z" fill="white"/>
    <path d="M33.6592 7.45415C34.6017 7.40768 35.6329 7.56917 36.5155 7.88879C37.0463 8.08104 38.0573 8.58507 38.3934 9.04022C38.5274 9.22171 38.5854 9.43304 38.6845 9.63213C38.7059 9.67514 38.7418 9.73446 38.779 9.76552C38.8233 9.80249 39.466 9.88992 39.6155 9.94266C40.4039 10.2209 40.9915 10.8115 41.3465 11.5622C41.9852 12.913 41.8128 14.8714 41.3078 16.2622L40.9485 16.2323C40.942 15.9091 41.028 15.262 40.8818 14.9916C40.8604 14.952 40.8234 14.9051 40.7826 14.884C40.702 14.8424 40.2575 14.8034 40.0937 14.7525C40.1667 14.3171 40.1693 13.8931 39.9866 13.4819C39.7637 12.98 39.2852 12.611 38.7791 12.4231C37.4708 11.9374 36.3853 12.5522 35.223 13.0782C33.9487 13.6468 32.4002 13.6025 31.1704 12.9437C30.9037 12.8008 30.5604 12.4961 30.2614 12.4715C30.171 12.464 30.0784 12.4825 30.0117 12.5475C29.9115 12.6451 29.9468 13.0742 29.9395 13.2237C29.9116 13.7927 29.6255 14.4317 29.1592 14.775C29.0341 14.8671 28.8587 14.909 28.75 15.0164C28.5304 15.2334 28.6262 15.8795 28.6333 16.1756C28.4025 16.1794 28.1955 16.2136 27.9711 16.2649C27.6752 15.639 27.2444 14.2279 27.2147 13.5513C27.1498 12.0735 27.8018 10.4889 28.7977 9.40927C30.0618 8.03893 31.8484 7.52351 33.6592 7.45415Z" fill="white"/>
    <path fill-rule="evenodd" clip-rule="evenodd" d="M37.611 12.8699C37.8309 12.851 38.0584 12.8693 38.274 12.9156C38.6994 13.0069 39.1239 13.2155 39.3576 13.5976C39.4964 13.8245 39.5946 14.1757 39.5213 14.4379C39.506 14.4924 39.4865 14.546 39.4668 14.5996C39.4385 14.6771 39.4101 14.7547 39.3948 14.8352C39.3788 14.9195 39.3921 14.9962 39.4418 15.0665C39.607 15.3003 40.0061 15.3779 40.2867 15.4324C40.3074 15.4365 40.3275 15.4404 40.3469 15.4442L40.3559 19.0172C40.3566 19.1864 40.3622 19.3617 40.3679 19.5394L40.3679 19.5397C40.383 20.0083 40.3986 20.494 40.3259 20.93C40.2685 21.2746 40.1297 21.5917 39.938 21.883C39.3619 22.7584 37.1115 24.403 36.1409 24.9023C35.8807 25.0362 35.6083 25.1388 35.3213 25.1973C34.1863 25.4288 33.3156 24.9213 32.4048 24.3218C32.3351 24.2708 32.265 24.2197 32.1947 24.1684L32.1867 24.1625L32.1861 24.1622L32.1777 24.156L32.1767 24.1553C31.39 23.5817 30.571 22.9844 29.9267 22.2612C29.6403 21.9397 29.3929 21.5504 29.2887 21.1286C29.1894 20.7265 29.2068 20.0133 29.2208 19.4424V19.4422L29.2208 19.4421L29.2208 19.4414C29.2252 19.2621 29.2292 19.097 29.2292 18.9599C29.2291 18.6636 29.2268 18.3662 29.2246 18.0682L29.2246 18.0679V18.0678C29.2179 17.1913 29.2112 16.3103 29.2598 15.4398C29.282 15.4256 29.3038 15.4107 29.3251 15.3951C30.0628 14.8649 30.4075 14.2067 30.5527 13.32C32.2951 14.2303 33.8713 14.3645 35.6818 13.5398C35.7711 13.4991 35.8592 13.458 35.9467 13.4172L35.947 13.4171C36.485 13.166 36.998 12.9267 37.611 12.8699ZM37.3269 15.1293C37.7688 15.1176 38.4625 15.1829 38.8207 15.4752C38.8796 15.5232 38.93 15.5863 38.932 15.6658C38.9348 15.7708 38.8464 15.8798 38.7689 15.9422C38.6113 16.0689 38.3626 15.9648 38.1583 15.8792C38.0958 15.853 38.0374 15.8285 37.9871 15.813C37.9057 15.7878 37.8178 15.7748 37.7323 15.7621C37.7195 15.7602 37.7068 15.7583 37.6942 15.7564L37.6865 15.7552L37.6788 15.754C37.5591 15.7421 37.4392 15.7393 37.3191 15.7455C37.199 15.7517 37.0801 15.767 36.9623 15.7913C36.8811 15.8076 36.7994 15.831 36.7173 15.8546C36.5307 15.9082 36.3419 15.9624 36.1521 15.9351C36.0706 15.8737 35.9761 15.7723 35.9612 15.6675C35.9518 15.602 35.9746 15.552 36.0136 15.5013C36.2412 15.205 36.9868 15.1525 37.3269 15.1293ZM32.1372 15.1057C31.898 15.0734 31.6547 15.0812 31.4151 15.1034C31.1139 15.1446 30.6009 15.2373 30.3992 15.4854C30.3499 15.546 30.3272 15.6184 30.3375 15.6959C30.3498 15.789 30.4107 15.8877 30.4874 15.9422C30.5633 15.996 30.6335 15.9811 30.7209 15.9604C30.8338 15.9337 30.9434 15.8927 31.0527 15.8519L31.0527 15.8519C31.0992 15.8345 31.1457 15.8171 31.1923 15.8009C31.5117 15.6896 31.8194 15.6966 32.1499 15.7401C32.239 15.7623 32.3417 15.8058 32.4484 15.851C32.6815 15.9497 32.9339 16.0566 33.1069 15.9681C33.1588 15.9416 33.1991 15.8986 33.2134 15.8411C33.2385 15.7399 33.1992 15.6242 33.1404 15.5418C32.9494 15.2739 32.4489 15.1479 32.1372 15.1057ZM34.2466 18.4002C34.3571 18.3943 34.4465 18.4098 34.5487 18.4539C34.5961 18.4743 34.6372 18.5071 34.653 18.5581C34.6986 18.7057 34.5899 18.8795 34.4922 19.0357C34.4485 19.1054 34.4071 19.1717 34.3826 19.2305C34.3198 19.3811 34.3043 19.5632 34.3704 19.7154C34.449 19.8964 34.5924 19.9762 34.7662 20.0461C34.8248 20.0397 34.8853 20.0273 34.9463 20.0148C35.0488 19.9938 35.1526 19.9725 35.2506 19.9792C35.3401 19.9853 35.4261 20.0186 35.4803 20.0931C35.5326 20.1652 35.5323 20.2727 35.5125 20.3564C35.4854 20.4708 35.4231 20.5118 35.3295 20.5724C35.0979 20.6566 34.8379 20.6771 34.5973 20.6198C34.299 20.5488 34.0505 20.3555 33.899 20.0902C33.7225 19.7813 33.692 19.3998 33.7815 19.0586C33.8536 18.7837 33.9994 18.5462 34.2466 18.4002ZM36.9487 21.3754C36.8769 21.3206 36.7877 21.3053 36.7008 21.2914C36.6986 21.2922 36.6964 21.2929 36.6941 21.2937L36.6941 21.2937C36.6894 21.2954 36.6848 21.297 36.6803 21.2988C36.55 21.3496 36.4295 21.465 36.3131 21.5763C36.2465 21.6402 36.1812 21.7027 36.1162 21.751C35.5199 22.1942 34.6099 22.2605 33.9342 21.9726C33.7625 21.8994 33.5804 21.7615 33.4145 21.6357C33.262 21.5202 33.1232 21.415 33.0187 21.3801C32.9455 21.3555 32.8608 21.3693 32.7908 21.3987C32.7382 21.4208 32.6958 21.4576 32.6721 21.5101C32.6324 21.5976 32.6611 21.7358 32.7013 21.8193C32.7414 21.9024 32.8178 21.9704 32.8866 22.0317C32.8909 22.0355 32.8952 22.0394 32.8994 22.0431C33.5887 22.5839 34.3648 22.8287 35.2418 22.7188C35.8229 22.6459 36.5555 22.34 36.9302 21.8732C37.0038 21.7815 37.0628 21.6683 37.0491 21.5472C37.0412 21.4772 37.0039 21.4177 36.9487 21.3754ZM37.1056 16.5085C37.3257 16.488 37.5395 16.4921 37.7466 16.5781C37.7623 16.5846 37.7779 16.5915 37.7932 16.5988C37.8085 16.6061 37.8237 16.6139 37.8386 16.622C37.8536 16.6301 37.8683 16.6386 37.8828 16.6475C37.8972 16.6564 37.9115 16.6656 37.9255 16.6752C37.9395 16.6849 37.9533 16.6948 37.9668 16.7052C37.9802 16.7155 37.9935 16.7262 38.0064 16.7372C38.0193 16.7482 38.032 16.7596 38.0443 16.7713C38.0567 16.783 38.0687 16.795 38.0804 16.8073C38.0921 16.8196 38.1035 16.8322 38.1145 16.8451C38.1256 16.858 38.1363 16.8712 38.1467 16.8846C38.1571 16.8981 38.1671 16.9118 38.1767 16.9258C38.1864 16.9398 38.1957 16.9541 38.2046 16.9685C38.2135 16.983 38.222 16.9977 38.2302 17.0126C38.2316 17.0153 38.2331 17.0181 38.2346 17.0208C38.2367 17.0249 38.2389 17.0289 38.241 17.033C38.2452 17.0413 38.2494 17.0496 38.2534 17.0579C38.2607 17.0733 38.2677 17.0888 38.2742 17.1044C38.2808 17.1201 38.2869 17.1359 38.2927 17.1519C38.2985 17.1679 38.3039 17.184 38.3089 17.2002C38.3138 17.2164 38.3184 17.2328 38.3225 17.2492C38.3267 17.2657 38.3304 17.2822 38.3336 17.2989C38.337 17.3155 38.3398 17.3322 38.3422 17.3491C38.3446 17.3659 38.3466 17.3827 38.3482 17.3996C38.3497 17.4165 38.3509 17.4334 38.3515 17.4504C38.3522 17.4673 38.3525 17.4843 38.3523 17.5013C38.3521 17.5182 38.3515 17.5352 38.3504 17.5521C38.3494 17.5691 38.3478 17.586 38.3459 17.6028C38.344 17.6197 38.3416 17.6365 38.3388 17.6532C38.3372 17.663 38.3354 17.6727 38.3335 17.6823C38.3321 17.6893 38.3306 17.6962 38.3291 17.7032C38.3254 17.7198 38.3213 17.7362 38.3168 17.7526C38.3123 17.769 38.3074 17.7852 38.3021 17.8013C38.2967 17.8174 38.2909 17.8333 38.2847 17.8492C38.2786 17.865 38.272 17.8806 38.2651 17.8961C38.2581 17.9115 38.2507 17.9268 38.2429 17.9419C38.0962 18.2288 37.8676 18.3595 37.5745 18.4568C37.338 18.4881 37.1225 18.4861 36.9005 18.3835C36.8851 18.3764 36.8699 18.3689 36.8548 18.361C36.8397 18.3531 36.8249 18.3449 36.8102 18.3362C36.7956 18.3276 36.7812 18.3186 36.767 18.3092C36.7528 18.2999 36.7389 18.2901 36.7252 18.2801C36.7116 18.27 36.6981 18.2596 36.685 18.2488C36.6718 18.238 36.659 18.2269 36.6464 18.2155C36.6414 18.211 36.6364 18.2064 36.6315 18.2017C36.6241 18.1947 36.6168 18.1876 36.6095 18.1803C36.5975 18.1683 36.5859 18.1559 36.5745 18.1433C36.5704 18.1386 36.5663 18.134 36.5622 18.1292C36.5551 18.1211 36.5482 18.1129 36.5415 18.1045C36.5308 18.0913 36.5204 18.0778 36.5105 18.0641C36.5004 18.0503 36.4908 18.0364 36.4815 18.0221C36.4722 18.0079 36.4633 17.9935 36.4548 17.9788C36.4462 17.9641 36.4381 17.9492 36.4302 17.9341C36.4225 17.919 36.4151 17.9037 36.4081 17.8882C36.4011 17.8728 36.3945 17.8571 36.3883 17.8413C36.3821 17.8255 36.3763 17.8095 36.3709 17.7934C36.3657 17.7771 36.3609 17.7608 36.3565 17.7442C36.3521 17.7277 36.3481 17.7111 36.3446 17.6944C36.3411 17.6776 36.338 17.6608 36.3354 17.644C36.3327 17.6271 36.3305 17.6101 36.3287 17.5931C36.3269 17.5761 36.3256 17.5591 36.3247 17.5421C36.3238 17.525 36.3233 17.5079 36.3233 17.4908C36.3233 17.4738 36.3238 17.4567 36.3246 17.4396C36.3255 17.4225 36.3268 17.4055 36.3286 17.3885C36.3303 17.3715 36.3325 17.3546 36.3352 17.3377C36.3378 17.3208 36.3408 17.304 36.3444 17.2873C36.3479 17.2705 36.3518 17.2539 36.3561 17.2374C36.3605 17.2209 36.3653 17.2045 36.3705 17.1882C36.3757 17.1719 36.3813 17.1558 36.3874 17.1398C36.3934 17.1238 36.3998 17.108 36.4067 17.0923C36.4136 17.0767 36.4208 17.0612 36.4285 17.0459C36.4361 17.0307 36.4442 17.0156 36.4527 17.0008C36.5998 16.7366 36.8232 16.5921 37.1056 16.5085ZM32.4117 16.6273C32.2203 16.5037 32.0133 16.4646 31.7895 16.4637C31.4784 16.5001 31.2149 16.6008 31.0187 16.8594C31.008 16.8736 30.9977 16.888 30.9877 16.9027C30.9778 16.9174 30.9682 16.9324 30.959 16.9476C30.9497 16.9628 30.9409 16.9782 30.9325 16.9938C30.9241 17.0094 30.916 17.0253 30.9084 17.0413C30.9008 17.0574 30.8935 17.0736 30.8867 17.09C30.8799 17.1064 30.8735 17.123 30.8675 17.1397C30.8615 17.1564 30.856 17.1733 30.8508 17.1903C30.8457 17.2073 30.841 17.2244 30.8367 17.2416C30.8324 17.2589 30.8286 17.2762 30.8252 17.2937C30.8218 17.3111 30.8188 17.3286 30.8164 17.3462C30.8138 17.3638 30.8117 17.3814 30.8101 17.3991C30.8085 17.4168 30.8073 17.4345 30.8065 17.4522C30.8058 17.47 30.8055 17.4877 30.8057 17.5055C30.8058 17.5233 30.8064 17.541 30.8075 17.5587C30.8085 17.5765 30.81 17.5941 30.8119 17.6118C30.8139 17.6295 30.8163 17.6471 30.8191 17.6646C30.8216 17.6804 30.8245 17.6962 30.8279 17.7118C30.8312 17.7275 30.8349 17.743 30.839 17.7585C30.8431 17.774 30.8476 17.7894 30.8525 17.8046C30.8574 17.8198 30.8626 17.835 30.8683 17.85C30.8739 17.8649 30.8799 17.8798 30.8863 17.8945C30.8927 17.9091 30.8994 17.9236 30.9065 17.938C30.9136 17.9523 30.9211 17.9665 30.9289 17.9805C30.9367 17.9945 30.9449 18.0082 30.9534 18.0218C30.9619 18.0354 30.9707 18.0487 30.9799 18.0618C30.9891 18.0749 30.9986 18.0878 31.0084 18.1005C31.0182 18.1131 31.0283 18.1255 31.0388 18.1377C31.0492 18.1498 31.06 18.1617 31.071 18.1733C31.082 18.1849 31.0934 18.1962 31.105 18.2072C31.1166 18.2183 31.1285 18.229 31.1406 18.2395C31.1527 18.2499 31.1651 18.26 31.1778 18.2699C31.1904 18.2797 31.2033 18.2892 31.2164 18.2983C31.4277 18.4481 31.6659 18.5007 31.921 18.5014C32.2251 18.4577 32.4837 18.3538 32.6707 18.0974C32.8364 17.8704 32.9 17.572 32.8511 17.2961C32.8482 17.2792 32.8449 17.2624 32.8411 17.2457C32.8374 17.2289 32.8332 17.2123 32.8286 17.1958C32.824 17.1793 32.819 17.1629 32.8135 17.1466C32.808 17.1303 32.8022 17.1142 32.7959 17.0983C32.7896 17.0823 32.7829 17.0665 32.7758 17.0509C32.7687 17.0352 32.7612 17.0198 32.7533 17.0046C32.7454 16.9894 32.7372 16.9744 32.7285 16.9596C32.7198 16.9448 32.7108 16.9302 32.7013 16.9158C32.6919 16.9015 32.6822 16.8874 32.672 16.8736C32.6619 16.8597 32.6514 16.8462 32.6405 16.8328C32.6297 16.8196 32.6185 16.8066 32.607 16.7938C32.5954 16.7811 32.5836 16.7687 32.5714 16.7566C32.5593 16.7445 32.5468 16.7327 32.5341 16.7212C32.5213 16.7097 32.5082 16.6986 32.4949 16.6878C32.4816 16.677 32.468 16.6666 32.4541 16.6565C32.4402 16.6464 32.4261 16.6366 32.4117 16.6273Z" fill="white"/>
    <path d="M44.2446 29.039C45.5894 29.0295 46.5968 29.088 47.8425 29.7014C49.2348 30.387 50.3031 31.5194 50.7979 33.0018C50.8192 33.0638 50.8395 33.1262 50.8588 33.1889C50.878 33.2516 50.8963 33.3147 50.9134 33.378C50.9306 33.4413 50.9467 33.5049 50.9618 33.5688C50.9768 33.6326 50.9908 33.6967 51.0037 33.761C51.0166 33.8253 51.0285 33.8899 51.0393 33.9546C51.05 34.0193 51.0598 34.0841 51.0684 34.1492C51.077 34.2142 51.0846 34.2794 51.091 34.3447C51.0975 34.4099 51.1029 34.4753 51.1072 34.5408C51.1115 34.6062 51.1147 34.6718 51.1168 34.7373C51.1189 34.8029 51.12 34.8685 51.1199 34.9341C51.1199 34.9997 51.1187 35.0653 51.1165 35.1308C51.1143 35.1964 51.1109 35.2619 51.1065 35.3274C51.1021 35.3928 51.0966 35.4582 51.09 35.5234C51.0835 35.5887 51.0758 35.6539 51.0671 35.7189C51.0583 35.7839 51.0485 35.8488 51.0376 35.9135C51.0267 35.9782 51.0148 36.0427 51.0018 36.1069C50.9686 36.2732 50.9403 36.4495 50.885 36.61C50.7296 37.0619 50.5084 37.4554 50.3023 37.8821C50.2572 37.9753 50.1939 38.1224 50.2364 38.225C50.2697 38.3052 50.3365 38.4079 50.4246 38.4349C50.4759 38.4506 50.5292 38.4389 50.5765 38.4169C50.9323 38.2513 51.2311 37.4013 51.3732 37.0418C51.5451 37.3663 51.7023 37.6978 51.8449 38.0361C52.5442 39.7224 52.7295 41.6678 52.5207 43.4724C52.4825 43.7817 52.4342 44.0894 52.3757 44.3956C52.3317 44.6146 52.2643 44.8434 52.2499 45.0663C52.2335 45.3193 52.3372 45.6096 52.3803 45.8603C52.4313 46.1752 52.461 46.492 52.4695 46.8108C52.5142 48.5275 52.1715 50.286 51.5809 51.8935C51.4561 52.2332 51.3011 52.5587 51.1632 52.8929L46.9697 52.8945L45.6927 52.8927C45.6621 52.0932 45.6782 51.3104 45.7644 50.5139C45.9176 49.0985 46.3356 47.1847 47.3571 46.1357C47.6766 45.8076 48.008 45.7055 48.2988 45.4492C48.3517 45.4025 48.3863 45.3208 48.3843 45.2503C48.382 45.166 48.3295 45.0636 48.2608 45.0136C48.1939 44.9649 48.1174 44.9544 48.037 44.9654C47.4941 45.0397 46.7945 45.8424 46.4931 46.2672C46.1712 45.615 45.9592 44.9545 45.732 44.266C46.0463 43.5468 46.3129 42.8103 46.5318 42.0566C46.614 41.7705 46.6879 41.4824 46.7536 41.1921C46.8193 40.9018 46.8767 40.6099 46.9257 40.3164C46.9748 40.0228 47.0154 39.7281 47.0476 39.4322C47.0799 39.1364 47.1036 38.8398 47.1189 38.5426C47.1335 38.3034 47.195 37.9149 47.0693 37.7049C47.0347 37.6472 46.9819 37.6021 46.9144 37.5884C46.8382 37.5729 46.7318 37.5887 46.6678 37.6352C46.5972 37.6865 46.5658 37.7538 46.5497 37.8371C46.5056 38.0661 46.5251 38.3235 46.5149 38.5568C46.4991 38.9961 46.4564 39.4327 46.3867 39.8666C46.0171 39.5162 45.6634 39.1712 45.3589 38.7603C43.5619 36.336 43.6082 33.3735 43.9979 30.5151C44.0653 30.0207 44.1708 29.5324 44.2446 29.039Z" fill="white"/>
    <path d="M25.2877 28.9041C25.3165 28.8978 25.345 28.9036 25.3742 28.9062C25.3794 28.9139 25.3853 28.9211 25.3898 28.9292C25.4866 29.1046 25.5359 29.6049 25.5757 29.8324C25.8962 31.6693 26.0865 33.6411 25.7159 35.4856C25.3719 37.1969 24.5406 38.9024 23.0507 39.8959C22.885 39.4177 22.8006 38.8702 22.7551 38.3657C22.7355 38.1482 22.7534 37.8653 22.6897 37.6589C22.6704 37.5961 22.6074 37.5306 22.5565 37.4895C22.5081 37.4503 22.4462 37.4286 22.3839 37.4431C22.2941 37.464 22.2204 37.5503 22.1794 37.6283C21.8473 38.2598 22.7128 40.8821 22.9621 41.638C22.6443 41.9753 22.3888 42.3895 22.0858 42.7447C21.3262 43.6349 20.4301 44.4125 19.4789 45.0913C18.3206 45.9178 16.0295 47.1765 14.6393 47.4555C14.5436 47.4754 14.4472 47.4909 14.35 47.5019C14.2529 47.5128 14.1555 47.5193 14.0577 47.5213C13.96 47.5232 13.8624 47.5207 13.7649 47.5136C13.6674 47.5066 13.5705 47.495 13.474 47.4789C12.5403 47.3182 11.7218 46.7137 11.1869 45.9475C9.49789 43.5277 10.0629 38.0864 10.5533 35.3244C10.59 35.1425 10.6239 34.9601 10.6549 34.7771C12.1763 35.7732 13.6871 36.1672 15.5045 35.931C15.7619 36.402 15.973 36.9183 16.1644 37.4193C16.7953 39.0707 17.151 40.7821 16.8684 42.5499C16.8326 42.774 16.7816 42.9767 16.7122 43.1928C16.6221 43.4732 16.3878 43.875 16.4036 44.1613C16.4077 44.2354 16.436 44.3126 16.4985 44.3573C16.5653 44.4053 16.675 44.4163 16.7525 44.3917C16.897 44.3458 16.9765 44.2092 17.0355 44.0789C17.8357 42.311 17.6478 40.1358 17.1164 38.3198C16.959 37.782 16.7486 37.2614 16.5466 36.7392C16.5895 36.6803 16.6343 36.6224 16.6836 36.5685C17.3324 35.8595 18.2772 35.7131 19.1662 36.0136C19.3635 36.0803 19.6484 36.2559 19.8585 36.2373C19.937 36.2303 20.0104 36.1855 20.0583 36.124C20.1131 36.0537 20.1404 35.9537 20.1208 35.8655C20.0998 35.7709 20.0381 35.7255 19.9607 35.6769C19.4043 35.3272 18.3634 35.1597 17.7207 35.3099C17.118 35.4508 16.6985 35.8066 16.3758 36.3201C16.2895 36.1514 16.2081 35.9823 16.132 35.8088C16.8989 35.5749 17.6248 35.2451 18.2774 34.7754C19.7492 33.7158 20.5241 32.2291 20.8157 30.4673C22.3619 29.1479 23.3706 29.073 25.2877 28.9041Z" fill="white"/>
    <path d="M34.7745 40.7188C34.9439 40.7499 35.5168 41.1628 35.7145 41.278C36.2004 41.5612 36.7015 41.771 37.2265 41.9707C39.418 42.8044 41.9502 42.9438 44.1923 42.2203C44.8414 42.0109 45.4331 41.7046 46.053 41.4259C45.7645 42.4751 45.4336 43.4992 44.9548 44.4792C44.832 44.7306 44.7078 44.9832 44.5687 45.2262C44.4269 45.4737 44.2248 45.7413 44.1373 46.0126C44.037 46.3236 44.0971 47.9175 44.0973 48.3778L44.0946 52.8956L34.7678 52.8984L25.7278 52.8921C25.7111 52.1646 25.7722 46.2336 25.6969 46.0381C25.5537 45.6659 25.2442 45.3131 25.0481 44.9599C24.4961 43.9661 23.7933 42.5359 23.5019 41.4354C24.553 41.9952 25.6583 42.394 26.8379 42.578C29.5627 43.0031 32.5359 42.3493 34.7745 40.7188Z" fill="white"/>
    <path d="M28.4527 27.2926C28.5237 27.3592 28.5702 27.652 28.6065 27.7589C28.7493 28.1802 28.9244 28.5784 29.1476 28.9637C29.175 29.0109 29.2031 29.0578 29.2317 29.1043C29.2603 29.1509 29.2895 29.197 29.3193 29.2428C29.3491 29.2886 29.3794 29.334 29.4103 29.3791C29.4412 29.4241 29.4727 29.4688 29.5047 29.5131C29.5367 29.5573 29.5693 29.6012 29.6024 29.6447C29.6355 29.6881 29.6691 29.7311 29.7033 29.7738C29.7374 29.8164 29.7721 29.8586 29.8073 29.9004C29.8426 29.9422 29.8783 29.9835 29.9145 30.0244C29.9508 30.0652 29.9875 30.1057 30.0248 30.1456C30.062 30.1856 30.0997 30.2251 30.138 30.2641C30.1762 30.3032 30.2149 30.3417 30.2541 30.3798C30.2933 30.4179 30.3329 30.4554 30.373 30.4926C30.4131 30.5296 30.4537 30.5662 30.4947 30.6023C30.5358 30.6384 30.5772 30.674 30.6191 30.7091C30.661 30.7441 30.7034 30.7786 30.7461 30.8126C30.7889 30.8466 30.8321 30.8801 30.8757 30.9131C30.9193 30.946 30.9632 30.9784 31.0076 31.0103C31.052 31.0421 31.0968 31.0734 31.142 31.1041C31.1872 31.1349 31.2327 31.165 31.2787 31.1947C31.3246 31.2243 31.3709 31.2533 31.4175 31.2818C31.4641 31.3102 31.5111 31.3381 31.5585 31.3654C31.6058 31.3927 31.6535 31.4194 31.7015 31.4455C31.7495 31.4716 31.7978 31.4972 31.8464 31.5221C31.895 31.547 31.944 31.5713 31.9932 31.595C32.0425 31.6187 32.092 31.6418 32.1418 31.6643C32.1916 31.6868 32.2416 31.7087 32.292 31.7299C32.3424 31.7511 32.393 31.7717 32.4438 31.7917C32.4947 31.8117 32.5458 31.831 32.5971 31.8498C32.6485 31.8685 32.7 31.8866 32.7518 31.904C32.8036 31.9214 32.8556 31.9382 32.9078 31.9544C32.96 31.9705 33.0125 31.986 33.0651 32.0009C33.1176 32.0157 33.1704 32.0299 33.2233 32.0435C33.2763 32.0567 33.3293 32.0692 33.3825 32.0812C33.4358 32.0931 33.4892 32.1044 33.5427 32.115C33.5962 32.1256 33.6498 32.1355 33.7036 32.1448C33.7573 32.1541 33.8112 32.1627 33.8652 32.1707C33.9191 32.1787 33.9732 32.186 34.0273 32.1926C34.0815 32.1993 34.1357 32.2052 34.19 32.2105C34.2443 32.2158 34.2986 32.2205 34.3531 32.2244C34.4074 32.2284 34.4619 32.2317 34.5164 32.2344C34.5709 32.237 34.6254 32.2389 34.6799 32.2402C34.7344 32.2415 34.789 32.2421 34.8436 32.2421C34.8981 32.242 34.9527 32.2413 35.0072 32.2399C35.0617 32.2385 35.1162 32.2365 35.1707 32.2338C35.2252 32.231 35.2796 32.2276 35.334 32.2236C35.3884 32.2195 35.4428 32.2148 35.4971 32.2094C35.5514 32.204 35.6056 32.1979 35.6597 32.1912C35.7138 32.1844 35.7678 32.177 35.8218 32.169C35.8758 32.1609 35.9296 32.1522 35.9834 32.1428C36.0371 32.1334 36.0907 32.1234 36.1442 32.1126C36.1977 32.102 36.251 32.0906 36.3042 32.0786C36.3575 32.0666 36.4105 32.0539 36.4634 32.0406C36.5163 32.0273 36.569 32.0133 36.6216 31.9987C36.6742 31.9841 36.7265 31.9688 36.7787 31.9529C36.8309 31.937 36.8829 31.9205 36.9346 31.9033C36.9864 31.8861 37.038 31.8683 37.0893 31.8499C37.1406 31.8314 37.1917 31.8124 37.2426 31.7926C37.2935 31.7729 37.3441 31.7526 37.3944 31.7317C37.4448 31.7107 37.4949 31.6892 37.5448 31.667C37.5946 31.6448 37.6441 31.622 37.6934 31.5986C37.7427 31.5752 37.7916 31.5513 37.8403 31.5267C37.889 31.5021 37.9374 31.4769 37.9855 31.4511C38.0335 31.4253 38.0813 31.3989 38.1287 31.3719C38.1761 31.345 38.2232 31.3175 38.2699 31.2893C39.7198 30.4217 40.8402 29.0337 41.2553 27.3824C42.0882 27.708 42.9086 28.066 43.7398 28.3969C43.5057 29.5384 43.3141 30.6691 43.2248 31.8326C43.0255 34.4282 43.2273 36.9434 44.8379 39.1022C45.0504 39.387 45.2871 39.6661 45.5382 39.9174C45.7495 40.129 45.9814 40.3278 46.1743 40.5562L46.1953 40.5813C45.4064 41.1693 44.3767 41.5475 43.4278 41.7848C40.6253 42.4302 38.2883 41.9789 35.7863 40.6112C35.5355 40.4741 35.0701 40.0411 34.8116 40.0273C34.7547 40.0242 34.6672 40.0748 34.6197 40.1008C34.4571 40.1898 34.3062 40.3119 34.1505 40.4131C33.8065 40.6369 33.4395 40.8614 33.0691 41.0377C32.8358 41.1492 32.5989 41.2524 32.3583 41.3471C32.1177 41.4419 31.874 41.5281 31.6273 41.6056C31.3806 41.6832 31.1315 41.7521 30.88 41.8121C30.6285 41.8722 30.3751 41.9233 30.12 41.9655C29.9975 41.9852 29.8746 42.0027 29.7515 42.0179C29.6284 42.0331 29.505 42.0461 29.3814 42.0567C29.2577 42.0674 29.134 42.0758 29.01 42.0819C28.8861 42.0881 28.7621 42.0919 28.638 42.0935C28.514 42.095 28.3899 42.0943 28.2659 42.0913C28.1418 42.0883 28.0179 42.083 27.8941 42.0755C27.7702 42.068 27.6465 42.0581 27.5231 42.046C27.3995 42.0339 27.2763 42.0196 27.1533 42.003C27.0304 41.9863 26.9078 41.9674 26.7855 41.9463C26.6633 41.9252 26.5414 41.9018 26.42 41.8762C26.2986 41.8505 26.1777 41.8227 26.0574 41.7926C25.937 41.7626 25.8172 41.7303 25.698 41.6959C25.5788 41.6614 25.4603 41.6248 25.3425 41.586C25.2246 41.5471 25.1075 41.5062 24.9912 41.463C24.8749 41.4199 24.7594 41.3747 24.6447 41.3273C24.53 41.2799 24.4163 41.2305 24.3034 41.1789C23.9088 41.0019 23.4988 40.8123 23.1453 40.5617C23.917 40.1375 24.6621 39.3144 25.1382 38.578C27.108 35.5317 26.6095 31.6514 25.8839 28.2974L28.4527 27.2926Z" fill="white"/>
</svg>
