<svg width="66" height="67" viewBox="0 0 66 67" fill="none" xmlns="http://www.w3.org/2000/svg">
    <g filter="url(#filter0_d_2009_2060)">
        <rect x="1" width="64" height="64" rx="16" fill="#2EA33A" shape-rendering="crispEdges"/>
        <path d="M43.9833 17.6603C44.2903 17.7236 44.5709 17.8231 44.8059 18.039C45.0985 18.3075 45.2675 18.7036 45.2866 19.0972C45.3095 19.5705 45.1432 19.965 44.8312 20.3134C44.5774 20.5521 44.3047 20.6786 43.9685 20.7563C43.9713 19.7251 43.9522 18.6909 43.9833 17.6603Z" fill="white"/>
        <path d="M30.6753 17.6268C30.7766 17.6143 30.8928 17.5966 30.9874 17.6413C31.0845 17.8001 31.0357 20.3885 31.0352 20.7945C30.7693 20.7315 30.5647 20.649 30.3377 20.4974C30.0688 20.2787 29.8625 20.0079 29.7564 19.6756C29.6158 19.2354 29.6422 18.6621 29.8606 18.2515C30.0422 17.9099 30.3151 17.7347 30.6753 17.6268Z" fill="white"/>
        <path d="M15.7865 24.7946C16.2182 24.7741 16.7682 24.7874 17.1877 24.9081L17.1729 24.9142L17.1443 24.892L17.138 24.917C16.835 24.9073 16.5327 24.8976 16.2297 24.9143C16.1804 24.9171 16.1312 24.9206 16.082 24.9246C16.0328 24.9286 15.9836 24.9332 15.9345 24.9384C15.8855 24.9437 15.8365 24.9495 15.7876 24.9559C15.7386 24.9623 15.6897 24.9693 15.641 24.9769C15.5922 24.9845 15.5435 24.9927 15.4949 25.0015C15.4464 25.0103 15.3979 25.0197 15.3496 25.0297C15.3013 25.0397 15.2531 25.0503 15.205 25.0615C15.1569 25.0727 15.109 25.0844 15.0612 25.0968C15.0134 25.1091 14.9657 25.122 14.9182 25.1355C14.8708 25.149 14.8235 25.1631 14.7764 25.1778C14.7292 25.1924 14.6823 25.2076 14.6355 25.2235C14.5888 25.2393 14.5422 25.2557 14.4958 25.2726C14.4495 25.2895 14.4033 25.307 14.3574 25.3251C14.3115 25.3432 14.2658 25.3618 14.2203 25.381C14.1748 25.4002 14.1296 25.42 14.0846 25.4403C14.0396 25.4606 13.9949 25.4814 13.9504 25.5028C13.906 25.5242 13.8618 25.5462 13.8178 25.5686C13.7739 25.5911 13.7302 25.6141 13.6869 25.6376C13.6435 25.6612 13.6004 25.6853 13.5576 25.7099C13.5148 25.7344 13.4723 25.7595 13.4302 25.7852C13.388 25.8108 13.3461 25.837 13.3046 25.8637C13.2631 25.8903 13.2219 25.9174 13.181 25.9451C13.1401 25.9728 13.0996 26.0009 13.0594 26.0296C13.0192 26.0583 12.9794 26.0874 12.94 26.117C12.9005 26.1467 12.8614 26.1768 12.8226 26.2074C12.7839 26.238 12.7456 26.269 12.7076 26.3005C12.6696 26.332 12.6321 26.364 12.5949 26.3965C12.5577 26.4289 12.5209 26.4618 12.4845 26.4952C12.4482 26.5285 12.4122 26.5623 12.3767 26.5965C12.3411 26.6307 12.306 26.6654 12.2713 26.7005C12.2366 26.7356 12.2023 26.771 12.1685 26.807C12.1346 26.8429 12.1012 26.8792 12.0683 26.9159C11.0143 28.098 10.4943 29.5596 10.5892 31.1434C10.6798 32.6551 11.433 34.0958 12.5687 35.0883C13.7078 36.084 15.2856 36.5854 16.7907 36.4742C18.2605 36.3657 19.5867 35.6451 20.5405 34.532C21.6089 33.285 22.1003 31.4853 21.8144 29.8672C21.7714 29.6239 21.7092 29.3752 21.6364 29.139C21.5835 28.9671 21.4751 28.7607 21.4616 28.5841L21.4978 28.6268C21.5486 28.7224 21.5968 28.8192 21.6426 28.9174C21.6883 29.0155 21.7314 29.1147 21.7719 29.2151C21.8123 29.3155 21.8501 29.4168 21.8853 29.5192C21.9204 29.6216 21.9528 29.7248 21.9825 29.8289C22.0123 29.9329 22.0392 30.0377 22.0634 30.1432C22.0876 30.2487 22.109 30.3548 22.1276 30.4614C22.1462 30.568 22.162 30.675 22.175 30.7825C22.1879 30.8899 22.1981 30.9976 22.2054 31.1056C22.2984 32.558 21.7522 34.0067 20.789 35.0878C20.7548 35.1262 20.72 35.1641 20.6849 35.2017C20.6497 35.2392 20.614 35.2764 20.5779 35.313C20.5418 35.3497 20.5052 35.3859 20.4682 35.4216C20.4312 35.4574 20.3938 35.4927 20.3559 35.5276C20.3181 35.5624 20.2797 35.5968 20.241 35.6307C20.2023 35.6646 20.1632 35.698 20.1236 35.7309C20.0841 35.7638 20.0441 35.7962 20.0037 35.8282C19.9634 35.8601 19.9227 35.8915 19.8815 35.9225C19.8404 35.9534 19.7989 35.9838 19.757 36.0137C19.7151 36.0436 19.6729 36.073 19.6302 36.1018C19.5876 36.1307 19.5447 36.159 19.5014 36.1868C19.458 36.2146 19.4144 36.2419 19.3704 36.2686C19.3264 36.2953 19.2821 36.3215 19.2375 36.3471C19.1928 36.3727 19.1479 36.3978 19.1026 36.4223C19.0574 36.4468 19.0118 36.4707 18.966 36.4941C18.9201 36.5175 18.874 36.5403 18.8275 36.5626C18.7811 36.5848 18.7344 36.6065 18.6875 36.6276C18.6406 36.6486 18.5934 36.6691 18.5459 36.6891C18.4984 36.709 18.4507 36.7283 18.4028 36.7471C18.3549 36.7658 18.3067 36.784 18.2583 36.8015C18.21 36.8191 18.1613 36.836 18.1125 36.8524C18.0637 36.8687 18.0147 36.8845 17.9655 36.8996C17.9163 36.9147 17.867 36.9293 17.8174 36.9432C17.7678 36.9571 17.7181 36.9704 17.6682 36.9831C17.6183 36.9958 17.5683 37.0079 17.5181 37.0193C17.468 37.0308 17.4177 37.0416 17.3672 37.0518C17.3167 37.062 17.2662 37.0716 17.2155 37.0805C17.1648 37.0895 17.114 37.0978 17.0631 37.1056C17.0122 37.1132 16.9612 37.1203 16.9102 37.1268C16.8591 37.1332 16.8079 37.139 16.7567 37.1442C16.7055 37.1494 16.6542 37.1539 16.6029 37.1578C16.5516 37.1617 16.5002 37.165 16.4488 37.1676C14.8186 37.2555 13.137 36.562 11.9349 35.4796C11.8979 35.4462 11.8612 35.4123 11.8249 35.378C11.7887 35.3437 11.7529 35.3089 11.7175 35.2737C11.6821 35.2385 11.6472 35.2029 11.6127 35.1668C11.5782 35.1307 11.5441 35.0942 11.5106 35.0573C11.477 35.0204 11.4438 34.9831 11.4112 34.9453C11.3785 34.9076 11.3463 34.8695 11.3146 34.831C11.2829 34.7924 11.2516 34.7535 11.2209 34.7142C11.1901 34.6749 11.1599 34.6352 11.1301 34.5952C11.1003 34.5551 11.0711 34.5147 11.0423 34.4739C11.0135 34.4331 10.9853 34.392 10.9575 34.3505C10.9298 34.309 10.9026 34.2672 10.8759 34.225C10.8491 34.1829 10.823 34.1404 10.7973 34.0976C10.7717 34.0548 10.7465 34.0117 10.722 33.9682C10.6974 33.9248 10.6733 33.8811 10.6498 33.837C10.6263 33.793 10.6034 33.7487 10.581 33.7041C10.5586 33.6595 10.5368 33.6146 10.5155 33.5695C10.4942 33.5244 10.4735 33.479 10.4533 33.4333C10.4332 33.3877 10.4136 33.3418 10.3946 33.2956C10.3755 33.2495 10.3571 33.2031 10.3392 33.1565C10.3214 33.1099 10.3041 33.0631 10.2874 33.0162C10.2707 32.9691 10.2545 32.9219 10.239 32.8744C10.2235 32.827 10.2085 32.7794 10.1942 32.7317C10.1798 32.6839 10.1661 32.6359 10.1529 32.5878C10.1397 32.5396 10.1272 32.4913 10.1152 32.4429C10.1033 32.3944 10.0919 32.3459 10.0811 32.2972C10.0704 32.2484 10.0602 32.1996 10.0507 32.1506C10.0411 32.1016 10.0322 32.0525 10.0239 32.0033C10.0155 31.9541 10.0078 31.9048 10.0007 31.8554C9.99363 31.8061 9.98714 31.7566 9.98126 31.7071C9.97538 31.6575 9.97012 31.6079 9.96548 31.5582C9.96083 31.5085 9.9568 31.4588 9.95339 31.409C9.94998 31.3592 9.94719 31.3094 9.94502 31.2596C9.94249 31.208 9.94059 31.1565 9.93934 31.1049C9.93809 31.0533 9.93747 31.0017 9.9375 30.9501C9.93753 30.8986 9.93819 30.847 9.9395 30.7954C9.94081 30.7439 9.94276 30.6923 9.94534 30.6408C9.94793 30.5893 9.95115 30.5378 9.95502 30.4863C9.95889 30.4349 9.96339 30.3835 9.96853 30.3322C9.97367 30.2808 9.97945 30.2296 9.98586 30.1784C9.99228 30.1272 9.99932 30.0761 10.007 30.0251C10.0147 29.9741 10.023 29.9232 10.032 29.8724C10.0409 29.8216 10.0505 29.7709 10.0607 29.7203C10.0709 29.6697 10.0817 29.6193 10.0932 29.569C10.1046 29.5187 10.1167 29.4685 10.1294 29.4185C10.1421 29.3685 10.1554 29.3187 10.1694 29.269C10.1833 29.2194 10.1979 29.1699 10.213 29.1206C10.2282 29.0712 10.244 29.0221 10.2604 28.9732C10.2767 28.9243 10.2937 28.8756 10.3113 28.827C10.3289 28.7786 10.3471 28.7303 10.3659 28.6822C10.3847 28.6342 10.4041 28.5864 10.4241 28.5388C10.4441 28.4913 10.4646 28.4439 10.4858 28.3969C10.5069 28.3499 10.5287 28.3031 10.551 28.2566C10.5733 28.21 10.5962 28.1638 10.6197 28.1179C10.6431 28.0719 10.6672 28.0262 10.6918 27.9809C10.7164 27.9355 10.7415 27.8905 10.7672 27.8458C10.7929 27.801 10.8192 27.7566 10.846 27.7126C10.8728 27.6685 10.9002 27.6247 10.9281 27.5813C10.956 27.5379 10.9845 27.4949 11.0134 27.4522C11.0424 27.4095 11.0719 27.3671 11.1019 27.3252C11.132 27.2832 11.1625 27.2417 11.1936 27.2004C11.2246 27.1592 11.2562 27.1184 11.2882 27.078C11.3203 27.0376 11.3529 26.9975 11.3859 26.958C11.419 26.9183 11.4526 26.8791 11.4866 26.8403C11.5206 26.8015 11.5551 26.7632 11.5901 26.7253C12.7034 25.5148 14.1514 24.8686 15.7865 24.7946Z" fill="white"/>
        <path fill-rule="evenodd" clip-rule="evenodd" d="M16.0247 27.877C16.0231 27.8772 16.0215 27.8774 16.0198 27.8776C15.1512 27.9568 14.3703 28.3164 13.8097 28.9971C13.7786 29.0354 13.7484 29.0745 13.7192 29.1143C13.69 29.1542 13.6618 29.1948 13.6346 29.236C13.6074 29.2773 13.5813 29.3192 13.5561 29.3617C13.531 29.4043 13.507 29.4474 13.484 29.4912C13.4611 29.5349 13.4392 29.5792 13.4184 29.624C13.3977 29.6688 13.378 29.7142 13.3595 29.76C13.341 29.8058 13.3236 29.852 13.3074 29.8987C13.2912 29.9453 13.2761 29.9924 13.2623 30.0398C13.2484 30.0872 13.2357 30.1349 13.2242 30.183C13.2127 30.231 13.2024 30.2793 13.1932 30.3279C13.1841 30.3764 13.1762 30.4251 13.1695 30.4741C13.1628 30.523 13.1574 30.5721 13.1531 30.6213C13.1489 30.6705 13.1458 30.7198 13.144 30.7692C13.1422 30.8186 13.1416 30.8679 13.1423 30.9173C13.1429 30.9667 13.1448 31.0161 13.1479 31.0654C13.151 31.1147 13.1553 31.1639 13.1609 31.213C13.2478 32.0457 13.6438 32.8139 14.2969 33.3435C14.868 33.8066 15.6226 34.0444 16.3546 34.0255C17.1948 33.9614 17.9377 33.6193 18.4884 32.9747C18.5215 32.9367 18.5537 32.8979 18.5849 32.8582C18.6161 32.8185 18.6462 32.7781 18.6754 32.7369C18.7045 32.6958 18.7326 32.6539 18.7596 32.6113C18.7867 32.5687 18.8126 32.5255 18.8375 32.4816C18.8623 32.4377 18.8861 32.3933 18.9087 32.3482C18.9313 32.3031 18.9528 32.2575 18.9731 32.2113C18.9935 32.1652 19.0126 32.1186 19.0306 32.0714C19.0486 32.0243 19.0654 31.9768 19.0809 31.9288C19.0966 31.8808 19.1109 31.8325 19.1241 31.7838C19.1373 31.7352 19.1492 31.6862 19.1599 31.6369C19.1706 31.5876 19.18 31.5381 19.1883 31.4883C19.1965 31.4386 19.2034 31.3886 19.2091 31.3385C19.2148 31.2884 19.2192 31.2382 19.2224 31.1879C19.2256 31.1376 19.2275 31.0872 19.2281 31.0368C19.2288 30.9863 19.2282 30.9359 19.2263 30.8855C19.2243 30.8351 19.2212 30.7848 19.2168 30.7346C19.1482 29.8921 18.7822 29.1312 18.1342 28.5814C18.0982 28.5506 18.0615 28.5207 18.0241 28.4918C17.9867 28.4628 17.9487 28.4347 17.9099 28.4075C17.8712 28.3804 17.8318 28.3542 17.7918 28.3289C17.7518 28.3036 17.7112 28.2793 17.6701 28.2559C17.6289 28.2326 17.5872 28.2103 17.545 28.189C17.5027 28.1676 17.46 28.1473 17.4167 28.1281C17.3735 28.1088 17.3299 28.0905 17.2858 28.0734C17.2417 28.0562 17.1972 28.04 17.1524 28.0249C17.1075 28.0099 17.0623 27.9959 17.0168 27.983C16.9712 27.9701 16.9254 27.9583 16.8793 27.9476C16.8332 27.9369 16.7869 27.9273 16.7403 27.9189C16.6937 27.9104 16.647 27.903 16.6001 27.8968C16.5532 27.8905 16.5061 27.8854 16.459 27.8814C16.4118 27.8775 16.3646 27.8746 16.3173 27.8729C16.27 27.8711 16.2227 27.8706 16.1753 27.8711C16.128 27.8716 16.0807 27.8733 16.0335 27.8761C16.0306 27.8763 16.0276 27.8767 16.0247 27.877ZM17.2845 29.6219C16.9471 29.3585 16.5668 29.2583 16.1438 29.2532C15.6416 29.3004 15.2053 29.463 14.8784 29.863C14.591 30.2149 14.4426 30.6835 14.4956 31.1361C14.5498 31.5989 14.8021 32.0225 15.1669 32.3095C15.5173 32.5851 15.8857 32.6636 16.323 32.6648C16.8167 32.6116 17.2578 32.4064 17.5711 32.0131C17.8608 31.6494 17.9794 31.1898 17.9236 30.73C17.869 30.2813 17.6395 29.899 17.2845 29.6219Z" fill="white"/>
        <path d="M16.0891 29.8369C16.3523 29.8173 16.5993 29.8643 16.8244 30.008C16.8412 30.0187 16.8578 30.0299 16.874 30.0415C16.8903 30.0531 16.9063 30.0651 16.9219 30.0775C16.9376 30.0899 16.9529 30.1027 16.9679 30.1159C16.983 30.1291 16.9976 30.1427 17.0119 30.1566C17.0262 30.1706 17.0402 30.1849 17.0537 30.1996C17.0673 30.2143 17.0805 30.2293 17.0933 30.2446C17.1061 30.2599 17.1185 30.2756 17.1305 30.2916C17.1425 30.3076 17.1541 30.3239 17.1653 30.3404C17.1764 30.357 17.1872 30.3738 17.1975 30.391C17.2078 30.4081 17.2176 30.4255 17.227 30.4431C17.2365 30.4607 17.2454 30.4786 17.2539 30.4966C17.2624 30.5147 17.2704 30.533 17.2779 30.5515C17.2855 30.57 17.2926 30.5887 17.2992 30.6076C17.3058 30.6264 17.3119 30.6454 17.3175 30.6646C17.3232 30.6838 17.3283 30.7031 17.3329 30.7225C17.3375 30.7419 17.3417 30.7615 17.3453 30.7811C17.3485 30.799 17.3513 30.817 17.3536 30.835C17.3559 30.8531 17.3578 30.8712 17.3592 30.8893C17.3606 30.9075 17.3615 30.9256 17.362 30.9438C17.3626 30.962 17.3626 30.9802 17.3623 30.9984C17.3618 31.0166 17.361 31.0348 17.3597 31.0529C17.3584 31.0711 17.3567 31.0891 17.3545 31.1072C17.3523 31.1253 17.3497 31.1433 17.3466 31.1612C17.3435 31.1791 17.34 31.197 17.336 31.2147C17.3321 31.2325 17.3277 31.2501 17.3228 31.2677C17.318 31.2852 17.3127 31.3026 17.307 31.3199C17.3013 31.3372 17.2952 31.3543 17.2887 31.3713C17.2821 31.3883 17.2751 31.4051 17.2677 31.4217C17.2603 31.4383 17.2525 31.4547 17.2443 31.471C17.2361 31.4872 17.2275 31.5033 17.2185 31.5191C17.2095 31.5349 17.2002 31.5505 17.1904 31.5659C17.1806 31.5812 17.1705 31.5963 17.16 31.6112C16.9639 31.8914 16.6812 32.0281 16.3546 32.0924C16.0694 32.1105 15.7923 32.0512 15.554 31.888C15.5385 31.8773 15.5234 31.8662 15.5085 31.8547C15.4936 31.8433 15.479 31.8315 15.4646 31.8193C15.4503 31.8071 15.4363 31.7946 15.4227 31.7817C15.409 31.7688 15.3956 31.7556 15.3826 31.742C15.3696 31.7285 15.3569 31.7146 15.3446 31.7004C15.3323 31.6862 15.3203 31.6717 15.3087 31.6569C15.2972 31.6421 15.286 31.627 15.2751 31.6116C15.2643 31.5963 15.2538 31.5807 15.2438 31.5648C15.2338 31.5489 15.2241 31.5328 15.2149 31.5164C15.2056 31.5001 15.1968 31.4835 15.1884 31.4667C15.18 31.4498 15.172 31.4328 15.1645 31.4156C15.1569 31.3984 15.1498 31.3811 15.1432 31.3635C15.1365 31.3459 15.1302 31.3282 15.1245 31.3103C15.1187 31.2924 15.1134 31.2744 15.1085 31.2563C15.1036 31.2381 15.0992 31.2199 15.0952 31.2015C15.0912 31.1831 15.0877 31.1647 15.0847 31.1461C15.0814 31.1278 15.0786 31.1093 15.0762 31.0907C15.0738 31.0722 15.0719 31.0536 15.0705 31.035C15.0691 31.0163 15.0682 30.9977 15.0677 30.979C15.0672 30.9603 15.0673 30.9416 15.0677 30.9229C15.0682 30.9042 15.0692 30.8856 15.0706 30.867C15.0721 30.8483 15.074 30.8297 15.0764 30.8112C15.0788 30.7927 15.0816 30.7742 15.085 30.7558C15.0883 30.7374 15.0921 30.7191 15.0964 30.7009C15.1007 30.6828 15.1054 30.6647 15.1106 30.6467C15.1158 30.6288 15.1214 30.6109 15.1275 30.5933C15.1336 30.5756 15.1402 30.5581 15.1472 30.5408C15.1542 30.5234 15.1616 30.5063 15.1695 30.4893C15.1773 30.4724 15.1856 30.4557 15.1944 30.4391C15.2031 30.4226 15.2123 30.4063 15.2218 30.3903C15.2314 30.3742 15.2413 30.3584 15.2517 30.3428C15.2621 30.3273 15.2728 30.312 15.284 30.297C15.4851 30.0256 15.7627 29.89 16.0891 29.8369Z" fill="white"/>
        <path d="M40.9458 25.57C41.0702 25.7755 40.8765 29.5249 41.0406 29.7251C41.0947 29.7911 41.1613 29.8262 41.2457 29.8333C41.3363 29.841 41.4487 29.8152 41.5138 29.7496C41.5711 29.6919 41.5921 29.6212 41.6027 29.5427C41.6333 29.3178 41.6057 29.0703 41.6048 28.8427C41.6032 28.4319 41.6069 28.0212 41.6159 27.6106C42.2994 27.9259 43.0063 28.1902 43.6927 28.5011C43.4929 29.1648 43.2557 29.7826 42.8669 30.362C41.9154 31.7796 40.3548 32.7818 38.6808 33.0989C37.011 33.4151 35.372 33.0199 33.9756 32.0752C32.7585 31.2586 31.7607 29.8082 31.4738 28.3677C32.1452 28.1258 32.7967 27.8325 33.4641 27.5803C33.4656 27.8985 33.4105 29.481 33.546 29.6578C33.5997 29.7278 33.6649 29.76 33.7513 29.7655C33.8315 29.7705 33.9256 29.7512 33.9842 29.692C34.0633 29.6119 34.0898 29.5047 34.0995 29.3954C34.1331 29.0195 34.0881 28.5994 34.0869 28.2183L34.0958 25.6465C34.9439 26.2735 35.768 26.8915 36.8355 27.0771C38.4699 27.3614 39.6834 26.4495 40.9458 25.57Z" fill="white"/>
        <path d="M36.3135 7.82074C37.3024 7.77199 38.3844 7.94142 39.3103 8.27676C39.8672 8.47847 40.928 9.00729 41.2806 9.48482C41.4211 9.67524 41.482 9.89696 41.586 10.1058C41.6085 10.151 41.6461 10.2132 41.6852 10.2458C41.7316 10.2846 42.406 10.3763 42.5628 10.4316C43.3899 10.7236 44.0065 11.3432 44.3789 12.1308C45.0491 13.5481 44.8681 15.6028 44.3383 17.062L43.9613 17.0307C43.9545 16.6915 44.0448 16.0126 43.8913 15.7289C43.8689 15.6874 43.8301 15.6381 43.7873 15.616C43.7027 15.5724 43.2363 15.5315 43.0645 15.4781C43.1411 15.0212 43.1438 14.5764 42.9522 14.1449C42.7183 13.6183 42.2162 13.2312 41.6853 13.0341C40.3126 12.5245 39.1737 13.1695 37.9543 13.7214C36.6173 14.3179 34.9926 14.2715 33.7024 13.5803C33.4225 13.4304 33.0623 13.1106 32.7486 13.0848C32.6538 13.077 32.5566 13.0964 32.4866 13.1646C32.3815 13.267 32.4186 13.7172 32.4109 13.8741C32.3816 14.4711 32.0814 15.1415 31.5923 15.5017C31.461 15.5983 31.2769 15.6422 31.1629 15.7549C30.9325 15.9825 31.033 16.6605 31.0405 16.9711C30.7983 16.9751 30.5812 17.011 30.3457 17.0648C30.0353 16.4081 29.5832 14.9276 29.5521 14.2178C29.484 12.6672 30.168 11.0048 31.2129 9.87202C32.5392 8.43429 34.4137 7.89352 36.3135 7.82074Z" fill="white"/>
        <path fill-rule="evenodd" clip-rule="evenodd" d="M40.4597 13.5029C40.6905 13.483 40.9291 13.5022 41.1553 13.5508C41.6016 13.6466 42.047 13.8654 42.2922 14.2663C42.4378 14.5044 42.5409 14.8728 42.4639 15.148C42.4479 15.2051 42.4274 15.2613 42.4068 15.3176C42.3771 15.3989 42.3473 15.4803 42.3313 15.5648C42.3144 15.6532 42.3284 15.7337 42.3806 15.8075C42.5539 16.0528 42.9726 16.1342 43.2669 16.1914C43.2887 16.1956 43.3098 16.1997 43.3301 16.2038L43.3396 19.9525C43.3403 20.13 43.3462 20.3139 43.3522 20.5004L43.3522 20.5007C43.368 20.9923 43.3844 21.5019 43.3081 21.9594C43.2479 22.3209 43.1022 22.6536 42.9011 22.9592C42.2967 23.8777 39.9356 25.6032 38.9172 26.127C38.6443 26.2675 38.3586 26.3751 38.0574 26.4365C36.8666 26.6794 35.953 26.147 34.9974 25.518C34.9244 25.4645 34.8508 25.4109 34.777 25.357L34.7686 25.3509L34.768 25.3505L34.7592 25.344L34.7581 25.3433C33.9328 24.7414 33.0735 24.1148 32.3975 23.356C32.097 23.0187 31.8374 22.6103 31.7281 22.1677C31.6239 21.7458 31.6422 20.9975 31.6569 20.3986V20.3984L31.6569 20.3983L31.6569 20.3975C31.6615 20.2095 31.6657 20.0361 31.6657 19.8924C31.6656 19.5815 31.6632 19.2694 31.6608 18.9568L31.6608 18.9564V18.9564C31.6538 18.0368 31.6468 17.1124 31.6977 16.1992C31.7211 16.1843 31.7439 16.1686 31.7663 16.1522C32.5403 15.596 32.9019 14.9054 33.0542 13.9751C34.8824 14.9302 36.536 15.0709 38.4356 14.2057C38.5293 14.163 38.6217 14.1199 38.7135 14.0771L38.7138 14.0769C39.2783 13.8136 39.8166 13.5624 40.4597 13.5029ZM40.1616 15.8734C40.6252 15.8611 41.353 15.9296 41.7289 16.2363C41.7906 16.2867 41.8435 16.3529 41.8457 16.4362C41.8486 16.5465 41.7559 16.6607 41.6745 16.7262C41.5091 16.8592 41.2483 16.7499 41.034 16.6601C40.9683 16.6326 40.9071 16.607 40.8543 16.5907C40.7689 16.5643 40.6767 16.5506 40.587 16.5373C40.5736 16.5353 40.5603 16.5333 40.547 16.5313L40.5389 16.5301L40.5308 16.5288C40.4052 16.5163 40.2794 16.5133 40.1534 16.5199C40.0274 16.5264 39.9027 16.5424 39.7791 16.5679C39.6939 16.585 39.6082 16.6096 39.522 16.6344C39.3263 16.6906 39.1282 16.7474 38.929 16.7188C38.8436 16.6544 38.7444 16.548 38.7287 16.438C38.7189 16.3693 38.7429 16.3168 38.7837 16.2637C39.0226 15.9528 39.8048 15.8977 40.1616 15.8734ZM34.7167 15.8486C34.4658 15.8147 34.2105 15.8229 33.959 15.8462C33.643 15.8894 33.1048 15.9867 32.8932 16.247C32.8415 16.3106 32.8177 16.3866 32.8284 16.4678C32.8413 16.5655 32.9052 16.6691 32.9858 16.7262C33.0654 16.7827 33.139 16.7671 33.2307 16.7454C33.3492 16.7173 33.4642 16.6743 33.5788 16.6315L33.5789 16.6315C33.6277 16.6132 33.6764 16.595 33.7253 16.578C34.0604 16.4612 34.3832 16.4686 34.73 16.5142C34.8235 16.5375 34.9312 16.5831 35.0432 16.6306C35.2878 16.7341 35.5526 16.8462 35.7341 16.7534C35.7886 16.7256 35.8308 16.6805 35.8458 16.6202C35.8722 16.514 35.8309 16.3926 35.7692 16.3061C35.5689 16.0251 35.0437 15.8928 34.7167 15.8486ZM36.9299 19.3052C37.0458 19.299 37.1396 19.3152 37.2468 19.3614C37.2965 19.3828 37.3396 19.4173 37.3562 19.4708C37.4041 19.6257 37.29 19.808 37.1875 19.9719C37.1417 20.0451 37.0982 20.1145 37.0725 20.1763C37.0066 20.3343 36.9904 20.5254 37.0597 20.685C37.1422 20.8749 37.2926 20.9586 37.475 21.032C37.5365 21.0253 37.6 21.0123 37.664 20.9991C37.7715 20.9771 37.8804 20.9548 37.9832 20.9618C38.0771 20.9682 38.1673 21.0031 38.2242 21.0813C38.2791 21.157 38.2788 21.2698 38.258 21.3575C38.2295 21.4775 38.1642 21.5206 38.066 21.5841C37.823 21.6725 37.5502 21.694 37.2978 21.6339C36.9848 21.5594 36.7241 21.3566 36.5651 21.0783C36.38 20.7542 36.3479 20.3539 36.4418 19.9959C36.5175 19.7075 36.6705 19.4583 36.9299 19.3052ZM39.7648 22.4267C39.6895 22.3692 39.596 22.3531 39.5047 22.3385C39.5024 22.3393 39.5001 22.3401 39.4977 22.341L39.4977 22.341C39.4928 22.3427 39.488 22.3444 39.4832 22.3463C39.3465 22.3996 39.2201 22.5206 39.098 22.6375C39.0281 22.7044 38.9595 22.77 38.8913 22.8207C38.2658 23.2857 37.311 23.3552 36.6021 23.0532C36.4219 22.9764 36.2309 22.8317 36.0568 22.6998C35.8968 22.5786 35.7512 22.4682 35.6416 22.4316C35.5647 22.4058 35.4759 22.4202 35.4024 22.4511C35.3472 22.4743 35.3027 22.5129 35.2779 22.568C35.2363 22.6598 35.2664 22.8048 35.3086 22.8924C35.3507 22.9796 35.4307 23.0509 35.5029 23.1152C35.5075 23.1193 35.5119 23.1233 35.5164 23.1272C36.2396 23.6946 37.0538 23.9514 37.9739 23.8361C38.5836 23.7597 39.3523 23.4387 39.7454 22.9489C39.8226 22.8527 39.8845 22.7339 39.8702 22.6069C39.8618 22.5335 39.8228 22.471 39.7648 22.4267ZM39.9295 17.3204C40.1603 17.2989 40.3846 17.3032 40.602 17.3934C40.6185 17.4002 40.6348 17.4075 40.6509 17.4152C40.667 17.4228 40.6828 17.4309 40.6985 17.4395C40.7142 17.448 40.7296 17.4569 40.7448 17.4662C40.76 17.4755 40.775 17.4852 40.7897 17.4953C40.8044 17.5054 40.8188 17.5159 40.833 17.5267C40.8471 17.5376 40.861 17.5488 40.8745 17.5604C40.8881 17.5719 40.9014 17.5838 40.9143 17.5961C40.9273 17.6084 40.9399 17.621 40.9522 17.6339C40.9645 17.6468 40.9764 17.66 40.988 17.6735C40.9996 17.6871 41.0108 17.7009 41.0217 17.715C41.0326 17.7292 41.0431 17.7436 41.0532 17.7583C41.0634 17.7729 41.0731 17.7879 41.0825 17.803C41.0918 17.8182 41.1008 17.8336 41.1093 17.8493C41.1109 17.8522 41.1124 17.855 41.1139 17.8579C41.1162 17.8621 41.1184 17.8664 41.1207 17.8707C41.1251 17.8794 41.1295 17.8881 41.1337 17.8969C41.1414 17.9129 41.1487 17.9292 41.1556 17.9456C41.1624 17.9621 41.1689 17.9787 41.1749 17.9955C41.181 18.0122 41.1866 18.0291 41.1919 18.0461C41.1971 18.0631 41.2019 18.0803 41.2062 18.0975C41.2106 18.1148 41.2144 18.1322 41.2179 18.1496C41.2214 18.1671 41.2243 18.1847 41.2269 18.2023C41.2294 18.2199 41.2315 18.2376 41.2331 18.2553C41.2348 18.273 41.2359 18.2908 41.2367 18.3086C41.2374 18.3264 41.2376 18.3442 41.2374 18.362C41.2372 18.3798 41.2366 18.3976 41.2355 18.4154C41.2344 18.4331 41.2328 18.4509 41.2307 18.4685C41.2287 18.4862 41.2262 18.5039 41.2233 18.5214C41.2216 18.5316 41.2197 18.5418 41.2177 18.552C41.2162 18.5593 41.2147 18.5666 41.2131 18.5738C41.2092 18.5912 41.205 18.6085 41.2002 18.6257C41.1955 18.6428 41.1903 18.6599 41.1847 18.6767C41.1791 18.6936 41.1731 18.7104 41.1666 18.727C41.1601 18.7436 41.1532 18.76 41.1459 18.7762C41.1386 18.7924 41.1309 18.8085 41.1227 18.8243C40.9688 19.1253 40.7289 19.2624 40.4214 19.3645C40.1733 19.3973 39.9472 19.3952 39.7143 19.2876C39.6981 19.2801 39.6821 19.2723 39.6663 19.264C39.6505 19.2558 39.6349 19.2471 39.6195 19.238C39.6042 19.229 39.5891 19.2195 39.5742 19.2097C39.5593 19.1999 39.5447 19.1897 39.5304 19.1791C39.516 19.1685 39.5019 19.1576 39.4881 19.1463C39.4743 19.135 39.4608 19.1233 39.4476 19.1113C39.4424 19.1066 39.4372 19.1018 39.432 19.0969C39.4242 19.0895 39.4165 19.0821 39.409 19.0744C39.3964 19.0618 39.3842 19.0488 39.3723 19.0356C39.3679 19.0307 39.3636 19.0258 39.3593 19.0208C39.3519 19.0123 39.3447 19.0037 39.3376 18.9949C39.3264 18.981 39.3155 18.9669 39.305 18.9525C39.2945 18.9381 39.2844 18.9234 39.2747 18.9085C39.2649 18.8936 39.2556 18.8784 39.2466 18.863C39.2377 18.8476 39.2291 18.8319 39.2209 18.8161C39.2127 18.8003 39.205 18.7842 39.1976 18.768C39.1903 18.7517 39.1834 18.7353 39.1769 18.7188C39.1703 18.7021 39.1642 18.6854 39.1586 18.6685C39.1531 18.6514 39.1481 18.6342 39.1434 18.6169C39.1389 18.5996 39.1347 18.5821 39.1311 18.5646C39.1273 18.547 39.1241 18.5294 39.1213 18.5117C39.1185 18.494 39.1162 18.4762 39.1143 18.4584C39.1125 18.4405 39.1111 18.4227 39.1101 18.4048C39.1092 18.3869 39.1087 18.369 39.1087 18.351C39.1087 18.3331 39.1092 18.3152 39.11 18.2973C39.111 18.2794 39.1123 18.2615 39.1142 18.2437C39.116 18.2258 39.1184 18.2081 39.1211 18.1904C39.1239 18.1727 39.1271 18.155 39.1308 18.1374C39.1344 18.1199 39.1385 18.1025 39.1431 18.0851C39.1477 18.0678 39.1527 18.0506 39.1582 18.0335C39.1636 18.0165 39.1695 17.9995 39.1759 17.9827C39.1822 17.966 39.189 17.9494 39.1962 17.9329C39.2034 17.9165 39.211 17.9003 39.219 17.8843C39.2271 17.8683 39.2355 17.8525 39.2444 17.8369C39.3988 17.5597 39.6331 17.4081 39.9295 17.3204ZM35.0047 17.445C34.8039 17.3153 34.5867 17.2743 34.3519 17.2734C34.0255 17.3116 33.7491 17.4172 33.5432 17.6885C33.5319 17.7034 33.5211 17.7186 33.5107 17.734C33.5002 17.7495 33.4902 17.7652 33.4805 17.7811C33.4708 17.797 33.4616 17.8132 33.4527 17.8296C33.4439 17.846 33.4355 17.8626 33.4274 17.8794C33.4194 17.8963 33.4119 17.9133 33.4047 17.9305C33.3975 17.9477 33.3908 17.9651 33.3846 17.9826C33.3783 18.0002 33.3725 18.0179 33.367 18.0357C33.3617 18.0535 33.3567 18.0715 33.3523 18.0896C33.3478 18.1077 33.3437 18.1259 33.3402 18.1442C33.3366 18.1625 33.3335 18.1808 33.3309 18.1993C33.3282 18.2177 33.3261 18.2362 33.3244 18.2548C33.3226 18.2733 33.3214 18.2919 33.3206 18.3106C33.3198 18.3292 33.3195 18.3478 33.3197 18.3664C33.3198 18.3851 33.3205 18.4037 33.3216 18.4223C33.3226 18.4409 33.3242 18.4594 33.3262 18.4779C33.3283 18.4965 33.3308 18.515 33.3337 18.5334C33.3364 18.5499 33.3395 18.5665 33.343 18.5829C33.3465 18.5993 33.3504 18.6156 33.3547 18.6319C33.359 18.6481 33.3637 18.6642 33.3688 18.6802C33.3739 18.6962 33.3794 18.7121 33.3854 18.7278C33.3913 18.7435 33.3976 18.7591 33.4043 18.7745C33.4109 18.7899 33.418 18.8051 33.4255 18.8202C33.4329 18.8352 33.4408 18.8501 33.449 18.8648C33.4572 18.8794 33.4657 18.8939 33.4747 18.9081C33.4836 18.9224 33.4928 18.9364 33.5025 18.9501C33.5121 18.9639 33.522 18.9774 33.5323 18.9907C33.5427 19.0039 33.5533 19.0169 33.5643 19.0297C33.5752 19.0424 33.5865 19.0549 33.598 19.067C33.6096 19.0792 33.6215 19.0911 33.6337 19.1027C33.6459 19.1143 33.6583 19.1255 33.6711 19.1365C33.6838 19.1474 33.6968 19.1581 33.7101 19.1684C33.7234 19.1787 33.7369 19.1886 33.7506 19.1983C33.9723 19.3554 34.2222 19.4106 34.4899 19.4113C34.8089 19.3655 35.0802 19.2565 35.2765 18.9875C35.4503 18.7493 35.517 18.4362 35.4657 18.1468C35.4627 18.129 35.4592 18.1114 35.4553 18.0938C35.4513 18.0762 35.4469 18.0588 35.4421 18.0415C35.4373 18.0241 35.432 18.0069 35.4263 17.9899C35.4205 17.9728 35.4144 17.9559 35.4078 17.9392C35.4012 17.9224 35.3941 17.9058 35.3867 17.8895C35.3793 17.873 35.3714 17.8569 35.3631 17.8409C35.3548 17.8249 35.3462 17.8092 35.3371 17.7936C35.328 17.7781 35.3185 17.7628 35.3086 17.7478C35.2987 17.7327 35.2884 17.7179 35.2778 17.7034C35.2672 17.6889 35.2561 17.6747 35.2448 17.6607C35.2334 17.6468 35.2216 17.6331 35.2096 17.6198C35.1975 17.6064 35.185 17.5934 35.1723 17.5807C35.1595 17.568 35.1465 17.5556 35.1331 17.5436C35.1197 17.5315 35.106 17.5199 35.092 17.5085C35.078 17.4972 35.0637 17.4863 35.0492 17.4757C35.0346 17.4651 35.0198 17.4548 35.0047 17.445Z" fill="white"/>
        <path d="M47.4196 30.4672C48.8304 30.4572 49.8874 30.5186 51.1944 31.1621C52.6551 31.8815 53.776 33.0696 54.2952 34.6248C54.3175 34.6899 54.3388 34.7554 54.359 34.8212C54.3792 34.887 54.3983 34.9531 54.4163 35.0195C54.4343 35.086 54.4512 35.1527 54.467 35.2197C54.4828 35.2867 54.4975 35.3539 54.5111 35.4214C54.5246 35.4889 54.5371 35.5566 54.5484 35.6245C54.5597 35.6924 54.5699 35.7604 54.5789 35.8286C54.588 35.8969 54.5959 35.9652 54.6027 36.0337C54.6095 36.1022 54.6151 36.1708 54.6196 36.2395C54.6241 36.3082 54.6275 36.3769 54.6297 36.4457C54.632 36.5145 54.633 36.5833 54.633 36.6521C54.6329 36.721 54.6317 36.7898 54.6294 36.8586C54.627 36.9274 54.6236 36.9961 54.6189 37.0648C54.6143 37.1335 54.6085 37.202 54.6016 37.2705C54.5947 37.339 54.5867 37.4073 54.5776 37.4756C54.5684 37.5438 54.5581 37.6118 54.5467 37.6797C54.5352 37.7476 54.5227 37.8152 54.509 37.8827C54.4742 38.0571 54.4445 38.2421 54.3866 38.4105C54.2234 38.8846 53.9914 39.2975 53.7752 39.7451C53.7279 39.843 53.6614 39.9973 53.7061 40.1049C53.741 40.189 53.8111 40.2968 53.9034 40.3251C53.9573 40.3417 54.0132 40.3293 54.0628 40.3062C54.4361 40.1325 54.7496 39.2407 54.8987 38.8636C55.079 39.204 55.244 39.5517 55.3936 39.9068C56.1273 41.676 56.3217 43.717 56.1026 45.6104C56.0626 45.9349 56.0119 46.2578 55.9505 46.579C55.9043 46.8087 55.8336 47.0488 55.8185 47.2827C55.8013 47.5481 55.9101 47.8527 55.9553 48.1158C56.0088 48.4461 56.04 48.7785 56.0489 49.113C56.0958 50.9141 55.7363 52.7591 55.1167 54.4457C54.9857 54.802 54.823 55.1435 54.6783 55.4942L50.2786 55.4958L48.9388 55.494C48.9067 54.6551 48.9237 53.8339 49.0141 52.9982C49.1748 51.5132 49.6134 49.5052 50.6851 48.4046C51.0203 48.0605 51.368 47.9533 51.6731 47.6844C51.7286 47.6355 51.7649 47.5497 51.7629 47.4758C51.7604 47.3873 51.7054 47.2798 51.6333 47.2274C51.563 47.1763 51.4828 47.1652 51.3984 47.1768C50.8288 47.2547 50.0949 48.097 49.7786 48.5426C49.4409 47.8584 49.2185 47.1654 48.9801 46.443C49.3099 45.6884 49.5896 44.9157 49.8192 44.125C49.9054 43.8248 49.983 43.5225 50.0519 43.2179C50.1209 42.9134 50.1811 42.6071 50.2325 42.2991C50.284 41.9912 50.3266 41.682 50.3604 41.3715C50.3942 41.0611 50.4192 40.75 50.4352 40.4381C50.4505 40.1872 50.515 39.7795 50.3831 39.5593C50.3469 39.4987 50.2915 39.4514 50.2206 39.437C50.1407 39.4207 50.029 39.4373 49.962 39.4861C49.8879 39.5399 49.8549 39.6105 49.838 39.6979C49.7918 39.9383 49.8122 40.2082 49.8014 40.4531C49.7849 40.9139 49.7401 41.372 49.667 41.8273C49.2792 41.4597 48.9082 41.0977 48.5886 40.6666C46.7033 38.123 46.7519 35.0148 47.1607 32.0158C47.2314 31.4971 47.3421 30.9848 47.4196 30.4672Z" fill="white"/>
        <path d="M27.5304 30.3256C27.5606 30.319 27.5904 30.3251 27.621 30.3279C27.6265 30.3359 27.6328 30.3435 27.6375 30.352C27.739 30.5359 27.7908 31.0609 27.8325 31.2995C28.1688 33.2268 28.3685 35.2956 27.9795 37.2307C27.6187 39.0262 26.7465 40.8157 25.1834 41.858C25.0094 41.3563 24.9209 40.7819 24.8732 40.2526C24.8526 40.0243 24.8714 39.7275 24.8046 39.5109C24.7843 39.4451 24.7183 39.3763 24.6648 39.3332C24.614 39.2922 24.5491 39.2693 24.4837 39.2846C24.3895 39.3065 24.3122 39.397 24.2692 39.4789C23.9207 40.1414 24.8288 42.8927 25.0903 43.6857C24.757 44.0396 24.4889 44.4742 24.1709 44.8469C23.374 45.7808 22.4338 46.5967 21.4359 47.3089C20.2206 48.1761 17.8169 49.4967 16.3582 49.7894C16.2578 49.8103 16.1567 49.8265 16.0548 49.838C15.9529 49.8495 15.8506 49.8563 15.7481 49.8584C15.6456 49.8604 15.5432 49.8578 15.4409 49.8504C15.3386 49.8429 15.2368 49.8308 15.1357 49.814C14.156 49.6453 13.2972 49.0111 12.7361 48.2072C10.964 45.6684 11.5568 39.9595 12.0713 37.0617C12.1098 36.8708 12.1453 36.6794 12.1779 36.4874C13.7741 37.5326 15.3592 37.946 17.266 37.6981C17.5361 38.1923 17.7575 38.734 17.9583 39.2596C18.6203 40.9922 18.9935 42.7878 18.697 44.6425C18.6594 44.8776 18.6059 45.0903 18.533 45.317C18.4385 45.6112 18.1928 46.0327 18.2093 46.3331C18.2136 46.4109 18.2433 46.4919 18.3088 46.5389C18.379 46.5891 18.4941 46.6007 18.5754 46.5749C18.727 46.5267 18.8104 46.3834 18.8723 46.2467C19.7118 44.3919 19.5147 42.1097 18.9572 40.2044C18.792 39.6401 18.5713 39.094 18.3594 38.5461C18.4044 38.4843 18.4514 38.4235 18.5031 38.367C19.1838 37.6231 20.1751 37.4695 21.1077 37.7847C21.3148 37.8548 21.6136 38.0389 21.8341 38.0195C21.9165 38.0122 21.9935 37.9651 22.0438 37.9006C22.1012 37.8268 22.1299 37.7219 22.1093 37.6294C22.0873 37.5301 22.0226 37.4825 21.9413 37.4315C21.3576 37.0646 20.2655 36.8889 19.5912 37.0465C18.9589 37.1942 18.5187 37.5676 18.1802 38.1063C18.0896 37.9294 18.0042 37.7519 17.9244 37.5699C18.729 37.3245 19.4906 36.9785 20.1752 36.4856C21.7194 35.3739 22.5325 33.8141 22.8383 31.9656C24.4607 30.5814 25.5189 30.5028 27.5304 30.3256Z" fill="white"/>
        <path d="M37.4837 42.7214C37.6614 42.754 38.2625 43.1873 38.4699 43.3081C38.9797 43.6052 39.5054 43.8253 40.0563 44.0348C42.3556 44.9095 45.0123 45.0558 47.3647 44.2967C48.0457 44.077 48.6665 43.7557 49.3169 43.4632C49.0142 44.564 48.667 45.6385 48.1647 46.6667C48.0358 46.9305 47.9055 47.1955 47.7596 47.4504C47.6108 47.7101 47.3988 47.9909 47.307 48.2755C47.2017 48.6019 47.2648 50.2741 47.265 50.7571L47.2622 55.497L37.4766 55.5L27.9921 55.4934C27.9746 54.73 28.0387 48.5074 27.9597 48.3022C27.8094 47.9117 27.4847 47.5416 27.2789 47.171C26.6998 46.1284 25.9624 44.6279 25.6567 43.4732C26.7595 44.0605 27.9191 44.4789 29.1568 44.672C32.0155 45.118 35.1349 44.432 37.4837 42.7214Z" fill="white"/>
        <path d="M30.851 28.6348C30.9255 28.7047 30.9743 29.0119 31.0123 29.1241C31.1622 29.5661 31.3459 29.9839 31.58 30.3882C31.6089 30.4377 31.6383 30.4869 31.6683 30.5357C31.6983 30.5845 31.729 30.633 31.7602 30.681C31.7915 30.7291 31.8233 30.7767 31.8557 30.8239C31.8881 30.8712 31.9212 30.9181 31.9547 30.9645C31.9883 31.011 32.0225 31.057 32.0572 31.1026C32.0919 31.1482 32.1272 31.1933 32.163 31.238C32.1989 31.2828 32.2353 31.327 32.2722 31.3709C32.3092 31.4147 32.3467 31.4581 32.3847 31.501C32.4227 31.5439 32.4613 31.5863 32.5004 31.6282C32.5395 31.6701 32.579 31.7116 32.6191 31.7525C32.6592 31.7935 32.6999 31.8339 32.741 31.8739C32.7821 31.9138 32.8237 31.9533 32.8658 31.9922C32.9078 32.0311 32.9504 32.0695 32.9934 32.1073C33.0365 32.1452 33.08 32.1825 33.124 32.2193C33.1679 32.2561 33.2123 32.2923 33.2572 32.328C33.3021 32.3637 33.3474 32.3988 33.3931 32.4334C33.4388 32.4679 33.485 32.5019 33.5316 32.5354C33.5782 32.5688 33.6252 32.6016 33.6726 32.6339C33.72 32.6661 33.7678 32.6978 33.8159 32.7288C33.8641 32.7599 33.9127 32.7903 33.9616 32.8202C34.0105 32.8501 34.0598 32.8793 34.1095 32.908C34.1592 32.9366 34.2092 32.9647 34.2595 32.992C34.3099 33.0194 34.3606 33.0462 34.4116 33.0724C34.4626 33.0985 34.514 33.124 34.5656 33.1489C34.6173 33.1738 34.6692 33.198 34.7215 33.2216C34.7737 33.2452 34.8263 33.2681 34.8791 33.2904C34.932 33.3126 34.985 33.3343 35.0384 33.3552C35.0917 33.3762 35.1454 33.3965 35.1993 33.4161C35.2531 33.4358 35.3072 33.4547 35.3616 33.473C35.4159 33.4913 35.4705 33.509 35.5252 33.5259C35.58 33.5428 35.635 33.5591 35.6902 33.5747C35.7453 33.5903 35.8007 33.6052 35.8562 33.6194C35.9118 33.6332 35.9675 33.6464 36.0233 33.6589C36.0791 33.6714 36.1352 33.6833 36.1913 33.6944C36.2474 33.7055 36.3037 33.716 36.3601 33.7257C36.4165 33.7355 36.473 33.7445 36.5297 33.7529C36.5863 33.7612 36.643 33.7689 36.6998 33.7759C36.7566 33.7828 36.8135 33.7891 36.8705 33.7947C36.9274 33.8002 36.9844 33.8051 37.0415 33.8092C37.0986 33.8134 37.1557 33.8169 37.2129 33.8196C37.2701 33.8224 37.3273 33.8245 37.3845 33.8258C37.4417 33.8272 37.4989 33.8278 37.5562 33.8278C37.6134 33.8277 37.6706 33.827 37.7278 33.8255C37.785 33.824 37.8422 33.8219 37.8994 33.819C37.9566 33.8162 38.0137 33.8126 38.0707 33.8083C38.1278 33.8041 38.1849 33.7991 38.2418 33.7934C38.2988 33.7878 38.3556 33.7814 38.4124 33.7743C38.4692 33.7673 38.5259 33.7595 38.5825 33.751C38.6391 33.7426 38.6956 33.7334 38.752 33.7236C38.8084 33.7137 38.8646 33.7032 38.9208 33.692C38.9769 33.6807 39.0328 33.6688 39.0887 33.6562C39.1445 33.6436 39.2002 33.6303 39.2557 33.6164C39.3112 33.6024 39.3665 33.5877 39.4216 33.5724C39.4768 33.557 39.5317 33.541 39.5865 33.5244C39.6412 33.5077 39.6957 33.4903 39.75 33.4723C39.8044 33.4543 39.8585 33.4356 39.9123 33.4162C39.9662 33.3969 40.0198 33.3769 40.0732 33.3562C40.1265 33.3355 40.1796 33.3142 40.2325 33.2923C40.2853 33.2703 40.3379 33.2477 40.3902 33.2244C40.4425 33.2011 40.4944 33.1772 40.5462 33.1527C40.5978 33.1281 40.6492 33.103 40.7003 33.0772C40.7514 33.0513 40.8022 33.0249 40.8526 32.9979C40.903 32.9708 40.9531 32.9431 41.0029 32.9148C41.0526 32.8865 41.102 32.8577 41.151 32.8282C42.6722 31.9178 43.8478 30.4616 44.2832 28.729C45.1571 29.0707 46.0179 29.4463 46.8899 29.7935C46.6443 30.9911 46.4432 32.1774 46.3496 33.3981C46.1405 36.1214 46.3523 38.7603 48.042 41.0253C48.265 41.3241 48.5133 41.6169 48.7768 41.8806C48.9984 42.1025 49.2417 42.3111 49.4441 42.5507L49.4661 42.5771C48.6385 43.194 47.5581 43.5909 46.5626 43.8398C43.6223 44.5169 41.1703 44.0435 38.5453 42.6084C38.2821 42.4646 37.7938 42.0104 37.5226 41.9958C37.4629 41.9926 37.3711 42.0456 37.3212 42.073C37.1507 42.1664 36.9924 42.2944 36.829 42.4007C36.468 42.6354 36.083 42.871 35.6945 43.056C35.4497 43.173 35.2011 43.2812 34.9486 43.3806C34.6962 43.48 34.4406 43.5704 34.1817 43.6518C33.9229 43.7332 33.6615 43.8055 33.3976 43.8685C33.1338 43.9315 32.868 43.9851 32.6003 44.0294C32.4717 44.0501 32.3429 44.0684 32.2137 44.0844C32.0845 44.1003 31.955 44.1139 31.8253 44.1251C31.6956 44.1363 31.5658 44.1451 31.4357 44.1515C31.3057 44.158 31.1756 44.162 31.0454 44.1636C30.9153 44.1653 30.7851 44.1645 30.655 44.1614C30.5248 44.1582 30.3948 44.1527 30.2649 44.1448C30.1349 44.1369 30.0052 44.1266 29.8756 44.1138C29.746 44.1012 29.6167 44.0861 29.4877 44.0687C29.3587 44.0512 29.2301 44.0314 29.1018 44.0092C28.9735 43.9871 28.8457 43.9625 28.7183 43.9356C28.591 43.9088 28.4641 43.8796 28.3378 43.848C28.2116 43.8165 28.0859 43.7826 27.9608 43.7465C27.8358 43.7103 27.7114 43.6719 27.5878 43.6312C27.4642 43.5904 27.3413 43.5474 27.2192 43.5022C27.0972 43.457 26.976 43.4095 26.8557 43.3598C26.7354 43.3101 26.616 43.2582 26.4976 43.2041C26.0836 43.0184 25.6534 42.8195 25.2826 42.5566C26.0922 42.1115 26.8739 41.2479 27.3735 40.4753C29.4401 37.2792 28.9171 33.208 28.1559 29.6891L30.851 28.6348Z" fill="white"/>
    </g>
    <defs>
        <filter id="filter0_d_2009_2060" x="0" y="0" width="66" height="67" filterUnits="userSpaceOnUse" color-interpolation-filters="sRGB">
            <feFlood flood-opacity="0" result="BackgroundImageFix"/>
            <feColorMatrix in="SourceAlpha" type="matrix" values="0 0 0 0 0 0 0 0 0 0 0 0 0 0 0 0 0 0 127 0" result="hardAlpha"/>
            <feOffset dy="2"/>
            <feGaussianBlur stdDeviation="0.5"/>
            <feComposite in2="hardAlpha" operator="out"/>
            <feColorMatrix type="matrix" values="0 0 0 0 0 0 0 0 0 0 0 0 0 0 0 0 0 0 0.25 0"/>
            <feBlend mode="normal" in2="BackgroundImageFix" result="effect1_dropShadow_2009_2060"/>
            <feBlend mode="normal" in="SourceGraphic" in2="effect1_dropShadow_2009_2060" result="shape"/>
        </filter>
    </defs>
</svg>
