<svg width="21" height="20" viewBox="0 0 21 20" fill="none" xmlns="http://www.w3.org/2000/svg">
    <path fill-rule="evenodd" clip-rule="evenodd" d="M10.5007 2.49967C6.35852 2.49967 3.00065 5.85754 3.00065 9.99967C3.00065 14.1418 6.35852 17.4997 10.5007 17.4997C14.6428 17.4997 18.0007 14.1418 18.0007 9.99967C18.0007 5.85754 14.6428 2.49967 10.5007 2.49967ZM1.33398 9.99967C1.33398 4.93706 5.43804 0.833008 10.5007 0.833008C15.5633 0.833008 19.6673 4.93706 19.6673 9.99967C19.6673 15.0623 15.5633 19.1663 10.5007 19.1663C5.43804 19.1663 1.33398 15.0623 1.33398 9.99967ZM9.9114 7.2556C9.58596 6.93016 9.58596 6.40252 9.9114 6.07709C10.2368 5.75165 10.7645 5.75165 11.0899 6.07709L14.4232 9.41042C14.7487 9.73586 14.7487 10.2635 14.4232 10.5889L11.0899 13.9223C10.7645 14.2477 10.2368 14.2477 9.9114 13.9223C9.58596 13.5968 9.58596 13.0692 9.9114 12.7438L11.8221 10.833H7.16732C6.70708 10.833 6.33398 10.4599 6.33398 9.99967C6.33398 9.53944 6.70708 9.16634 7.16732 9.16634H11.8221L9.9114 7.2556Z" fill="white"/>
</svg>
