<svg width="15" height="16" viewBox="0 0 15 16" fill="none" xmlns="http://www.w3.org/2000/svg">
    <path d="M0.5 1.88235C0.5 0.842758 1.2835 0 2.25 0H4.875C5.8415 0 6.625 0.842758 6.625 1.88235V14.1176C6.625 15.1572 5.8415 16 4.875 16H2.25C1.2835 16 0.5 15.1572 0.5 14.1176V1.88235Z" fill="white"/>
    <path d="M8.375 1.88235C8.375 0.842758 9.1585 0 10.125 0H12.75C13.7165 0 14.5 0.842758 14.5 1.88235V14.1176C14.5 15.1572 13.7165 16 12.75 16H10.125C9.1585 16 8.375 15.1572 8.375 14.1176V1.88235Z" fill="white"/>
</svg>
