<svg width="66" height="67" viewBox="0 0 66 67" fill="none" xmlns="http://www.w3.org/2000/svg">
    <g filter="url(#filter0_d_2009_2055)">
        <rect x="1" width="64" height="64" rx="16" fill="#2EA33A"/>
        <path d="M8.95323 39.3789C9.53961 40.1393 9.30523 41.2902 9.21255 42.1663C9.12298 42.1087 9.04423 42.0384 8.9633 41.9696C8.56448 41.4838 8.43855 40.3917 8.37261 39.7652C8.56242 39.6296 8.75542 39.5026 8.95323 39.3789Z" fill="white"/>
        <path d="M49.5769 33.681L49.6281 33.7188C49.632 33.7293 49.447 38.9614 49.4081 39.4027L49.3508 38.8326C49.303 38.3157 49.234 37.8017 49.1437 37.2905C49.0534 36.7793 48.9422 36.2727 48.8101 35.7707C48.939 35.4033 49.072 35.0342 49.1804 34.6602C49.2599 34.3853 49.3196 34.0922 49.4162 33.8238C49.4512 33.7264 49.483 33.7211 49.5769 33.681Z" fill="white"/>
        <path d="M33.3252 25.5026C33.5402 25.5153 33.753 25.5507 33.966 25.5818C33.8912 25.9242 33.8629 26.2874 33.8281 26.636C33.8059 26.868 33.7877 27.1002 33.7736 27.3328C33.7595 27.5653 33.7496 27.7981 33.7437 28.031C33.7379 28.2639 33.7361 28.4968 33.7385 28.7298C33.7409 28.9628 33.7474 29.1957 33.758 29.4284C33.7686 29.6612 33.7833 29.8937 33.802 30.1259C33.8208 30.3581 33.8437 30.59 33.8707 30.8214C33.8977 31.0528 33.9288 31.2837 33.9639 31.514C33.999 31.7443 34.0382 31.974 34.0815 32.2029C34.1594 32.6163 34.2392 33.037 34.3427 33.4448C34.4042 33.687 34.5232 33.8792 34.524 34.139C34.4749 34.2269 34.432 34.2333 34.3432 34.277C34.2585 34.3113 34.2265 34.3333 34.1345 34.3199C34.0831 34.2777 34.0412 34.2383 34.0072 34.1803C33.8645 33.9372 33.6621 33.2792 33.5777 32.994C32.892 30.6753 32.7532 27.8585 33.3252 25.5026Z" fill="white"/>
        <path d="M50.6057 28.5935C50.682 28.6698 50.7386 28.8592 50.7882 28.9617C50.9856 29.3689 51.3397 29.8518 51.7754 30.0202C52.0964 30.1443 52.3592 30.0426 52.6555 29.9158C52.4102 30.8995 51.9242 31.7435 51.1286 32.3842C50.6574 32.7266 50.1685 32.9353 49.6197 33.1181C49.8491 31.8314 49.9847 30.8143 49.9896 29.5025C50.236 29.2062 50.4384 28.9433 50.6057 28.5935Z" fill="white"/>
        <path d="M49.58 40.7533C50.5193 40.8123 51.9942 40.8953 52.8662 41.1918C53.6587 41.4614 54.2482 41.9413 54.6149 42.6957C52.9884 42.7459 51.348 42.7038 49.7199 42.7003C49.7 42.0503 49.5872 41.4052 49.58 40.7533Z" fill="white"/>
        <path d="M13.0345 38.515L13.062 38.5208C13.0582 38.6354 12.9634 38.7655 12.9092 38.8676C12.574 39.4993 12.3735 39.8617 12.4274 40.5965C12.443 40.8108 12.4609 41.03 12.5084 41.2398C12.6662 41.9369 13.1883 42.3998 13.8514 42.6083C14.2141 42.7223 14.6018 42.7877 14.9256 42.9978C15.2892 43.2338 15.4615 43.532 15.5481 43.9443C14.576 44.0268 13.5726 43.9815 12.5965 43.9873L11.3539 43.9958C11.3365 43.7082 11.2672 43.461 11.1178 43.2115C10.8282 42.728 10.4005 42.4893 9.86367 42.3571C9.8903 41.649 10.1243 40.8186 9.95617 40.1233C9.86717 39.7552 9.69405 39.3902 9.55367 39.0377C10.1084 38.8511 10.7149 38.9166 11.2925 38.8535C11.8849 38.7888 12.4563 38.655 13.0345 38.515Z" fill="white"/>
        <path d="M7.8678 35.3615C7.91567 35.408 8.09873 36.3852 8.15148 36.556C8.20711 36.7351 8.271 36.9111 8.34317 37.0842C8.41538 37.2572 8.49553 37.4265 8.58361 37.592C8.67169 37.7575 8.76736 37.9185 8.87061 38.075C8.97386 38.2315 9.08421 38.3828 9.20167 38.5289C8.83448 38.707 8.00773 39.0712 7.79711 39.3865C7.55167 39.7538 7.86698 40.8205 7.96973 41.2632C8.18948 42.2096 8.51198 42.6314 9.46292 42.902C9.72317 42.976 9.98261 43.0418 10.2125 43.1916C10.4402 43.3399 10.6467 43.5528 10.6944 43.8306C10.7084 43.9128 10.7184 43.9882 10.6517 44.0508C10.4256 44.2631 9.14605 44.1858 8.79148 44.1858C7.98467 44.1875 6.36632 44.3783 5.76118 43.8158C4.99348 43.1021 5.55101 41.1114 5.25339 40.1088C5.02443 39.3375 4.43345 38.688 4.43315 37.8507C4.43302 37.4866 4.55542 37.1372 4.82508 36.886C5.1949 36.5415 5.62069 36.4967 6.09813 36.5195C6.68268 36.213 7.26673 35.707 7.8678 35.3615Z" fill="white"/>
        <path d="M25.3974 28.4531C25.4339 28.5457 25.2918 29.532 25.2827 29.7733C25.2776 29.9122 25.275 30.0511 25.2748 30.19C25.2747 30.3289 25.277 30.4678 25.2818 30.6067C25.2866 30.7455 25.2939 30.8842 25.3036 31.0228C25.3133 31.1614 25.3255 31.2997 25.3402 31.4378C25.3548 31.576 25.3719 31.7139 25.3915 31.8514C25.4111 31.989 25.4331 32.1261 25.4575 32.2628C25.4819 32.3996 25.5088 32.5359 25.5381 32.6717C25.5674 32.8075 25.5991 32.9427 25.6332 33.0774C25.6673 33.2121 25.7038 33.3461 25.7426 33.4795C25.7815 33.6128 25.8227 33.7455 25.8663 33.8774C25.9099 34.0093 25.9559 34.1404 26.0041 34.2707C26.0524 34.401 26.1029 34.5303 26.1557 34.6588C26.2086 34.7873 26.2637 34.9148 26.3211 35.0413C26.3785 35.1678 26.4381 35.2933 26.5 35.4177C26.5618 35.5421 26.6259 35.6653 26.6921 35.7875C26.7584 35.9096 26.8268 36.0305 26.8973 36.1502C24.1834 36.5182 20.7882 36.8068 18.1059 36.1177C17.536 36.3187 16.9849 36.5842 16.4179 36.7964C14.5219 37.506 12.5204 38.0966 10.4956 38.254C10.2774 38.2563 10.0588 38.2735 9.84098 38.2868C8.81898 37.1022 8.52698 35.735 8.46067 34.2146C8.83992 33.9873 9.26067 33.8057 9.66105 33.6176C11.5509 32.7298 13.6492 31.9547 15.7367 31.7199C16.0673 31.6827 16.4073 31.6628 16.7399 31.6581C17.0289 31.654 17.6272 31.7525 17.8727 31.6599C17.8842 31.6556 17.8954 31.6505 17.9068 31.646C18.2234 31.5207 18.5155 31.329 18.8132 31.1644C19.2887 30.8994 19.7719 30.6494 20.2629 30.4143C21.9347 29.6238 23.6374 29.0111 25.3974 28.4531Z" fill="white"/>
        <path d="M46.8109 23.1135C46.8311 23.1108 46.8512 23.1076 46.8715 23.1055C47.7326 23.0142 48.6657 23.3151 49.3179 23.8808C49.9917 24.4654 50.3666 25.3632 50.425 26.2428C50.4847 27.1403 50.261 28.0389 49.7238 28.7671C49.5352 29.0227 49.3073 29.253 49.0991 29.4933C49.0524 29.7304 49.2214 29.8053 49.3025 30.0003C49.4112 30.2612 49.3137 30.6778 49.2847 30.9561C49.1542 32.2045 48.9302 33.4564 48.5215 34.6461C48.3988 35.0036 48.2452 35.349 48.1071 35.7007C48.6803 37.5317 48.8272 39.6729 48.9905 41.5856C49.0206 41.938 49.1307 43.951 49.2165 44.1575C49.2224 44.1717 49.2444 44.2134 49.2612 44.2255C49.3325 44.2767 49.4859 44.2937 49.5719 44.2994C49.79 44.314 50.018 44.292 50.237 44.2905C50.6459 44.2877 51.0704 44.309 51.4747 44.3658C51.5837 44.3805 51.6921 44.3991 51.7997 44.4215C51.9074 44.444 52.0142 44.4704 52.12 44.5005C52.2258 44.5307 52.3303 44.5647 52.4337 44.6024C52.537 44.6402 52.6388 44.6816 52.7392 44.7267C53.4464 45.0449 53.9289 45.497 54.203 46.2272L53.0649 46.2218C52.0982 46.2013 48.7347 46.3254 48.0726 46.043C47.9167 45.9765 47.7811 45.871 47.694 45.7242C47.534 45.4542 47.5683 45.126 47.4407 44.8483C47.2287 44.3873 46.9606 43.9439 46.7297 43.4912C46.1996 42.4518 45.6767 41.3711 45.244 40.2863C44.7151 38.9606 43.8424 36.5875 44.4257 35.2285C44.0629 33.4257 44.0451 31.9802 44.2544 30.156C44.2952 29.7997 44.5229 28.8335 44.5146 28.5783C44.5115 28.4815 43.948 27.777 43.843 27.5529C43.7412 27.3353 43.6979 27.1062 43.6677 26.8692C43.6611 26.816 43.6557 26.7626 43.6517 26.7092C43.6476 26.6557 43.6449 26.6021 43.6435 26.5485C43.6421 26.4948 43.642 26.4412 43.6433 26.3876C43.6445 26.334 43.647 26.2804 43.6509 26.2269C43.6548 26.1734 43.66 26.12 43.6665 26.0668C43.673 26.0135 43.6808 25.9605 43.6899 25.9076C43.699 25.8547 43.7094 25.8021 43.7211 25.7498C43.7328 25.6974 43.7458 25.6454 43.76 25.5937C43.7743 25.542 43.7898 25.4906 43.8066 25.4397C43.8234 25.3887 43.8414 25.3382 43.8607 25.2882C43.88 25.2381 43.9005 25.1885 43.9222 25.1395C43.9439 25.0904 43.9668 25.0419 43.9909 24.994C44.0149 24.9461 44.0402 24.8988 44.0666 24.8521C44.0931 24.8054 44.1206 24.7594 44.1493 24.714C44.178 24.6687 44.2078 24.6241 44.2387 24.5803C44.2695 24.5364 44.3015 24.4933 44.3345 24.451C44.9468 23.6632 45.8342 23.2339 46.8109 23.1135Z" fill="white"/>
        <path fill-rule="evenodd" clip-rule="evenodd" d="M46.7649 21.6784C48.2368 21.6765 49.5577 22.1078 50.8643 22.7544C50.8167 23.23 50.8016 23.7208 50.8362 24.1977C50.8677 24.6305 51.0482 25.8702 51.4238 26.1334C51.5178 26.1993 51.6207 26.2146 51.7334 26.2028C52.6279 26.109 53.5677 25.4102 54.1147 24.7315C54.029 24.5569 53.9582 24.3904 53.9196 24.198C53.8255 23.7291 53.8396 23.1352 54.1244 22.7332C54.2206 22.5973 54.3791 22.4357 54.5553 22.4197C54.6486 22.4113 54.7285 22.4495 54.7924 22.5157C55.0722 22.8054 55.0634 23.6322 55.0576 24.1845V24.1846C55.0564 24.2967 55.0554 24.3975 55.0569 24.4802C55.0732 24.4754 55.0896 24.4706 55.1059 24.4657C55.1157 24.4628 55.1254 24.4598 55.1352 24.4569C56.3839 24.0725 57.2011 23.1647 57.798 22.0472C58.7577 22.6587 59.7434 23.1084 60.9048 23.0628C60.9206 23.4416 60.9171 23.8336 60.8766 24.2105C60.8663 24.3061 60.8524 24.4037 60.8385 24.5021C60.8052 24.7367 60.7712 24.9761 60.7832 25.2047C60.7917 25.3669 60.8464 25.545 60.9019 25.7257C60.9834 25.9909 61.0666 26.2617 61.0078 26.4957C60.8626 26.5939 60.5954 26.6027 60.3513 26.6108C60.2223 26.615 60.0998 26.6191 60.0051 26.636C59.9931 26.6381 59.9811 26.6405 59.9691 26.6429C59.9149 26.7249 59.8347 26.8759 59.7442 27.0463C59.5542 27.4038 59.3187 27.8472 59.182 27.9203C59.1777 27.9081 59.1741 27.8955 59.1706 27.8829C59.1635 27.8578 59.1565 27.8326 59.143 27.8105C59.1378 27.802 58.9828 27.7514 58.7909 27.6887C58.516 27.5989 58.1654 27.4843 58.0717 27.4337C57.8361 27.3065 57.6129 27.1293 57.4417 26.9227C57.4008 26.8734 57.3602 26.8084 57.3178 26.7405C57.2375 26.612 57.1511 26.4736 57.0454 26.4142C56.969 26.3713 56.9483 26.3757 56.8719 26.3916L56.8623 26.3936L56.8561 26.3992L56.8515 26.4033C56.7979 26.4516 56.7488 26.4958 56.7387 26.5737C56.7129 26.7725 56.9202 27.0447 57.0436 27.1912C57.4449 27.6675 58.0164 28.0341 58.6484 28.0804C58.8326 28.0939 58.9649 28.0887 59.1081 27.966C59.1107 27.9638 59.1132 27.9616 59.1157 27.9594C59.1176 27.9577 59.1195 27.956 59.1214 27.9542L59.1234 27.9525C59.1257 27.9505 59.1279 27.9484 59.1302 27.9464C59.1315 27.9538 59.1326 27.9594 59.1335 27.9639C59.1352 27.9722 59.1361 27.9767 59.1356 27.981C59.1352 27.9848 59.1336 27.9884 59.1305 27.9945C59.1275 28.0003 59.1232 28.0083 59.117 28.0207C58.9574 28.3421 57.8773 29.0415 57.5235 29.1302C56.5507 29.3737 54.9311 27.8567 54.4066 27.1305C54.3436 27.0433 54.2922 26.9232 54.2398 26.8008C54.1563 26.6058 54.0703 26.405 53.9308 26.3214C53.847 26.3237 53.8312 26.334 53.7657 26.3769L53.7547 26.3841C53.7227 26.4398 53.7057 26.4767 53.7006 26.5423C53.6667 26.9675 54.0954 27.5612 54.3556 27.8692C53.9562 28.2023 52.6789 29.2288 52.2702 29.3932C52.1628 29.4365 52.0771 29.4359 51.9722 29.384C51.5704 29.1848 51.2742 28.5755 51.1498 28.165C51.0393 27.7858 51.0569 27.414 51.075 27.0314C51.0791 26.9449 51.0832 26.8579 51.0859 26.7702C51.1141 25.8412 50.8642 24.8001 50.3261 24.0325C50.2912 23.9831 50.255 23.9347 50.2177 23.8872C50.1804 23.8396 50.1419 23.793 50.1023 23.7474C50.0627 23.7017 50.022 23.657 49.9802 23.6134C49.9385 23.5697 49.8956 23.5271 49.8517 23.4855C49.8078 23.4439 49.763 23.4034 49.7171 23.364C49.6712 23.3247 49.6244 23.2864 49.5767 23.2493C49.529 23.2123 49.4804 23.1764 49.4309 23.1417C49.3814 23.107 49.3311 23.0735 49.2799 23.0412C49.2288 23.009 49.1769 22.9781 49.1243 22.9483C49.0716 22.9186 49.0183 22.8902 48.9642 22.8632C48.9102 22.8361 48.8555 22.8103 48.8002 22.7859C48.745 22.7615 48.6891 22.7385 48.6327 22.7168C48.5762 22.6951 48.5193 22.6748 48.4619 22.6559C48.4045 22.637 48.3466 22.6196 48.2884 22.6035C48.2301 22.5874 48.1714 22.5728 48.1124 22.5596C48.0535 22.5464 47.9942 22.5347 47.9346 22.5244C46.8162 22.3312 45.6462 22.5539 44.7154 23.2138C43.8304 23.8412 43.2317 24.7234 43.0554 25.8004C42.8731 26.9142 43.1589 27.8985 43.8122 28.8014C43.5018 30.503 43.4561 32.175 43.5366 33.8966C40.7733 34.5092 37.9446 34.6157 35.1796 33.9757C34.3331 31.838 34.205 27.8713 34.6176 25.6102C37.1592 25.5685 39.8515 24.3924 42.1102 23.3201C42.3554 23.2037 42.5985 23.0836 42.841 22.9638C44.0924 22.3455 45.3294 21.7343 46.7649 21.6784ZM58.2559 23.6358C58.5124 23.6247 58.7357 23.6355 58.9804 23.7288C59.2012 23.8129 59.4675 23.9867 59.548 24.2231C59.5747 24.3015 59.5666 24.34 59.5327 24.4125C59.4568 24.417 59.4412 24.4067 59.3882 24.3717C59.381 24.3669 59.373 24.3617 59.3642 24.356C58.8617 24.0206 58.6747 23.9535 58.0732 23.9312L58.068 23.931C57.9827 23.9278 57.9565 23.9269 57.8945 23.8633L57.9153 23.8085C58.0124 23.7303 58.1159 23.6901 58.229 23.6463L58.23 23.6459C58.2386 23.6425 58.2472 23.6392 58.2559 23.6358ZM58.5263 24.4892C58.5171 24.4884 58.508 24.4877 58.4992 24.4868C58.2881 24.526 58.1511 24.6042 58.0265 24.7833C57.893 24.9752 57.8209 25.232 57.8747 25.4636C57.9045 25.592 57.9904 25.7238 58.1094 25.7862C58.1811 25.8238 58.2788 25.8297 58.3592 25.8346L58.3669 25.8351C58.6349 25.7211 58.812 25.5653 58.9202 25.2884C58.9839 25.1252 59.0087 24.9142 58.9293 24.7518C58.8714 24.6335 58.7626 24.5397 58.6354 24.5046C58.6018 24.4954 58.5626 24.4922 58.5263 24.4892Z" fill="white"/>
    </g>
    <defs>
        <filter id="filter0_d_2009_2055" x="0" y="0" width="66" height="67" filterUnits="userSpaceOnUse" color-interpolation-filters="sRGB">
            <feFlood flood-opacity="0" result="BackgroundImageFix"/>
            <feColorMatrix in="SourceAlpha" type="matrix" values="0 0 0 0 0 0 0 0 0 0 0 0 0 0 0 0 0 0 127 0" result="hardAlpha"/>
            <feOffset dy="2"/>
            <feGaussianBlur stdDeviation="0.5"/>
            <feComposite in2="hardAlpha" operator="out"/>
            <feColorMatrix type="matrix" values="0 0 0 0 0 0 0 0 0 0 0 0 0 0 0 0 0 0 0.25 0"/>
            <feBlend mode="normal" in2="BackgroundImageFix" result="effect1_dropShadow_2009_2055"/>
            <feBlend mode="normal" in="SourceGraphic" in2="effect1_dropShadow_2009_2055" result="shape"/>
        </filter>
    </defs>
</svg>
