<svg width="66" height="67" viewBox="0 0 66 67" fill="none" xmlns="http://www.w3.org/2000/svg">
    <g filter="url(#filter0_d_2008_1988)">
        <rect x="1" width="64" height="64" rx="16" fill="#243640"/>
        <rect x="7" y="6" width="52" height="52" rx="12" fill="#243640"/>
        <path d="M13.462 37.9954C13.9384 38.6132 13.748 39.5483 13.6727 40.2601C13.5999 40.2133 13.5359 40.1562 13.4702 40.1003C13.1461 39.7056 13.0438 38.8182 12.9902 38.3092C13.1445 38.199 13.3013 38.0959 13.462 37.9954Z" fill="white" fill-opacity="0.5"/>
        <path d="M46.4687 33.3658L46.5103 33.3966C46.5135 33.4051 46.3632 37.6561 46.3316 38.0147L46.285 37.5515C46.2462 37.1315 46.1901 36.7139 46.1168 36.2985C46.0434 35.8832 45.9531 35.4716 45.8457 35.0637C45.9505 34.7652 46.0585 34.4653 46.1465 34.1614C46.2112 33.938 46.2597 33.6999 46.3381 33.4818C46.3666 33.4027 46.3924 33.3984 46.4687 33.3658Z" fill="white" fill-opacity="0.5"/>
        <path d="M33.2643 26.7209C33.4389 26.7312 33.6119 26.76 33.7849 26.7852C33.7241 27.0634 33.7011 27.3585 33.6728 27.6418C33.6548 27.8302 33.64 28.0189 33.6286 28.2079C33.6171 28.3968 33.609 28.5859 33.6043 28.7752C33.5995 28.9644 33.5981 29.1537 33.6 29.343C33.6019 29.5323 33.6072 29.7215 33.6159 29.9106C33.6245 30.0997 33.6364 30.2886 33.6517 30.4773C33.6669 30.666 33.6855 30.8543 33.7075 31.0424C33.7294 31.2304 33.7546 31.418 33.7832 31.6052C33.8117 31.7923 33.8436 31.9788 33.8787 32.1649C33.942 32.5007 34.0068 32.8426 34.0909 33.1739C34.1409 33.3707 34.2376 33.5268 34.2383 33.7379C34.1984 33.8094 34.1635 33.8146 34.0914 33.85C34.0225 33.8779 33.9966 33.8958 33.9218 33.8849C33.88 33.8507 33.846 33.8186 33.8183 33.7715C33.7024 33.574 33.538 33.0394 33.4694 32.8077C32.9122 30.9237 32.7995 28.635 33.2643 26.7209Z" fill="white" fill-opacity="0.5"/>
        <path d="M47.3046 29.2322C47.3667 29.2942 47.4126 29.4481 47.4529 29.5313C47.6133 29.8622 47.901 30.2546 48.255 30.3914C48.5158 30.4922 48.7293 30.4096 48.9701 30.3066C48.7708 31.1059 48.3759 31.7916 47.7295 32.3121C47.3467 32.5904 46.9494 32.76 46.5035 32.9085C46.6899 31.863 46.8001 31.0366 46.8041 29.9708C47.0043 29.7301 47.1687 29.5164 47.3046 29.2322Z" fill="white" fill-opacity="0.5"/>
        <path d="M46.4713 39.1121C47.2344 39.16 48.4328 39.2274 49.1413 39.4684C49.7852 39.6874 50.2641 40.0773 50.5621 40.6902C49.2405 40.7311 47.9077 40.6968 46.5849 40.694C46.5688 40.1659 46.4771 39.6417 46.4713 39.1121Z" fill="white" fill-opacity="0.5"/>
        <path d="M16.778 37.2934L16.8004 37.2982C16.7973 37.3913 16.7203 37.497 16.6763 37.5799C16.4039 38.0932 16.241 38.3876 16.2847 38.9847C16.2975 39.1588 16.312 39.3369 16.3506 39.5074C16.4788 40.0737 16.903 40.4499 17.4417 40.6192C17.7365 40.7119 18.0515 40.765 18.3146 40.9357C18.61 41.1275 18.75 41.3697 18.8203 41.7047C18.0305 41.7718 17.2152 41.735 16.4222 41.7397L15.4126 41.7466C15.3984 41.5129 15.3421 41.3121 15.2207 41.1093C14.9854 40.7165 14.6379 40.5226 14.2017 40.4151C14.2234 39.8398 14.4135 39.1651 14.2769 38.6002C14.2046 38.3011 14.0639 38.0045 13.9499 37.7182C14.4005 37.5665 14.8933 37.6197 15.3627 37.5684C15.844 37.5159 16.3082 37.4072 16.778 37.2934Z" fill="white" fill-opacity="0.5"/>
        <path d="M12.5801 34.7312C12.619 34.769 12.7677 35.5629 12.8106 35.7018C12.8558 35.8472 12.9077 35.9903 12.9663 36.1309C13.025 36.2715 13.0901 36.409 13.1617 36.5435C13.2333 36.6779 13.311 36.8088 13.3949 36.9359C13.4788 37.0631 13.5684 37.186 13.6639 37.3047C13.3655 37.4495 12.6938 37.7454 12.5227 38.0016C12.3232 38.3 12.5794 39.1666 12.6629 39.5263C12.8415 40.2953 13.1035 40.638 13.8761 40.8579C14.0876 40.918 14.2984 40.9714 14.4852 41.0932C14.6701 41.2137 14.838 41.3867 14.8767 41.6124C14.8881 41.6792 14.8962 41.7404 14.842 41.7913C14.6583 41.9638 13.6187 41.901 13.3306 41.901C12.675 41.9024 11.3601 42.0574 10.8685 41.6003C10.2447 41.0205 10.6977 39.403 10.4559 38.5884C10.2699 37.9617 9.78968 37.434 9.78944 36.7537C9.78933 36.4579 9.88878 36.174 10.1079 35.9699C10.4084 35.6899 10.7543 35.6535 11.1422 35.6721C11.6172 35.4231 12.0917 35.012 12.5801 34.7312Z" fill="white" fill-opacity="0.5"/>
        <path d="M26.8229 29.1181C26.8525 29.1933 26.7371 29.9947 26.7297 30.1908C26.7255 30.3036 26.7234 30.4165 26.7233 30.5294C26.7232 30.6422 26.7251 30.7551 26.729 30.8679C26.7329 30.9807 26.7388 31.0934 26.7467 31.206C26.7546 31.3186 26.7645 31.431 26.7764 31.5433C26.7883 31.6555 26.8022 31.7675 26.8181 31.8793C26.834 31.991 26.8519 32.1025 26.8717 32.2136C26.8916 32.3247 26.9134 32.4354 26.9372 32.5458C26.961 32.6561 26.9868 32.766 27.0145 32.8754C27.0422 32.9848 27.0718 33.0937 27.1034 33.2021C27.135 33.3104 27.1685 33.4182 27.2039 33.5254C27.2393 33.6326 27.2766 33.7391 27.3158 33.845C27.355 33.9508 27.3961 34.0559 27.439 34.1603C27.482 34.2647 27.5268 34.3683 27.5734 34.4711C27.62 34.5739 27.6685 34.6758 27.7187 34.7768C27.769 34.8779 27.821 34.9781 27.8748 35.0773C27.9287 35.1765 27.9842 35.2748 28.0416 35.372C25.8365 35.6711 23.0779 35.9055 20.8986 35.3456C20.4355 35.5089 19.9877 35.7246 19.527 35.8971C17.9865 36.4737 16.3603 36.9535 14.7152 37.0814C14.5379 37.0832 14.3603 37.0972 14.1833 37.108C13.3529 36.1456 13.1157 35.0347 13.0618 33.7994C13.3699 33.6147 13.7118 33.4671 14.0371 33.3143C15.5726 32.593 17.2775 31.9632 18.9735 31.7724C19.2422 31.7422 19.5184 31.726 19.7887 31.7222C20.0234 31.7189 20.5096 31.7989 20.7091 31.7237C20.7184 31.7202 20.7275 31.7161 20.7368 31.7124C20.994 31.6105 21.2314 31.4548 21.4732 31.3211C21.8595 31.1058 22.2522 30.9026 22.6511 30.7116C24.0095 30.0693 25.3929 29.5715 26.8229 29.1181Z" fill="white" fill-opacity="0.5"/>
        <path d="M44.2213 24.7797C44.2378 24.7776 44.2541 24.7749 44.2706 24.7732C44.9702 24.699 45.7284 24.9435 46.2583 25.4032C46.8058 25.8781 47.1104 26.6076 47.1578 27.3223C47.2063 28.0515 47.0245 28.7816 46.5881 29.3733C46.4349 29.581 46.2497 29.768 46.0805 29.9633C46.0426 30.156 46.1799 30.2168 46.2458 30.3752C46.3341 30.5872 46.2549 30.9258 46.2313 31.1518C46.1253 32.1662 45.9433 33.1833 45.6113 34.15C45.5115 34.4404 45.3867 34.721 45.2745 35.0068C45.7402 36.4945 45.8596 38.2342 45.9923 39.7883C46.0167 40.0747 46.1062 41.7102 46.1759 41.878C46.1807 41.8895 46.1985 41.9234 46.2122 41.9332C46.2702 41.9748 46.3948 41.9886 46.4647 41.9933C46.6419 42.0051 46.8271 41.9872 47.0051 41.986C47.3373 41.9838 47.6822 42.0011 48.0107 42.0473C48.0993 42.0592 48.1873 42.0743 48.2748 42.0925C48.3623 42.1108 48.449 42.1322 48.535 42.1567C48.6209 42.1812 48.7059 42.2088 48.7899 42.2395C48.8738 42.2701 48.9566 42.3038 49.0381 42.3404C49.6127 42.599 50.0047 42.9663 50.2274 43.5596L49.3027 43.5553C48.5173 43.5386 45.7844 43.6394 45.2465 43.4099C45.1198 43.3559 45.0096 43.2702 44.9389 43.1509C44.8089 42.9315 44.8367 42.6649 44.733 42.4393C44.5608 42.0647 44.343 41.7044 44.1554 41.3366C43.7247 40.4921 43.2998 39.614 42.9482 38.7327C42.5185 37.6555 41.8095 35.7273 42.2834 34.6231C41.9886 33.1583 41.9741 31.9839 42.1442 30.5018C42.1774 30.2123 42.3623 29.4272 42.3556 29.2199C42.3531 29.1412 41.8953 28.5688 41.81 28.3867C41.7272 28.21 41.6921 28.0238 41.6675 27.8312C41.6621 27.788 41.6578 27.7446 41.6545 27.7012C41.6512 27.6577 41.649 27.6142 41.6479 27.5706C41.6467 27.5271 41.6467 27.4835 41.6477 27.4399C41.6487 27.3964 41.6507 27.3528 41.6539 27.3094C41.657 27.2659 41.6612 27.2225 41.6665 27.1793C41.6718 27.136 41.6781 27.0929 41.6856 27.0499C41.6929 27.007 41.7014 26.9642 41.7109 26.9217C41.7204 26.8791 41.731 26.8369 41.7425 26.7948C41.7541 26.7528 41.7667 26.7111 41.7804 26.6697C41.794 26.6283 41.8087 26.5873 41.8243 26.5466C41.84 26.5059 41.8566 26.4657 41.8743 26.4258C41.8919 26.386 41.9105 26.3466 41.9301 26.3076C41.9496 26.2687 41.9702 26.2302 41.9916 26.1923C42.0131 26.1544 42.0355 26.117 42.0588 26.0802C42.0821 26.0433 42.1063 26.0071 42.1314 25.9715C42.1565 25.9358 42.1825 25.9008 42.2093 25.8665C42.7068 25.2264 43.4278 24.8776 44.2213 24.7797Z" fill="white" fill-opacity="0.5"/>
        <path fill-rule="evenodd" clip-rule="evenodd" d="M44.184 23.6137C45.3799 23.6121 46.4532 23.9626 47.5147 24.4879C47.4761 24.8744 47.4638 25.2731 47.492 25.6606C47.5175 26.0123 47.6641 27.0196 47.9693 27.2334C48.0457 27.2869 48.1294 27.2994 48.2209 27.2898C48.9477 27.2136 49.7113 26.6458 50.1557 26.0943C50.0861 25.9525 50.0285 25.8172 49.9972 25.6609C49.9207 25.2799 49.9321 24.7973 50.1636 24.4707C50.2417 24.3603 50.3705 24.229 50.5137 24.216C50.5895 24.2092 50.6544 24.2403 50.7063 24.294C50.9336 24.5294 50.9265 25.2012 50.9218 25.6499V25.65C50.9209 25.7411 50.92 25.823 50.9212 25.8901C50.9345 25.8863 50.9478 25.8824 50.9611 25.8784C50.969 25.876 50.9769 25.8736 50.9848 25.8712C51.9994 25.5589 52.6634 24.8213 53.1484 23.9133C53.9282 24.4102 54.729 24.7755 55.6727 24.7385C55.6855 25.0463 55.6827 25.3648 55.6497 25.6711C55.6414 25.7487 55.6301 25.828 55.6188 25.908C55.5917 26.0985 55.5641 26.2931 55.5738 26.4788C55.5808 26.6106 55.6252 26.7553 55.6703 26.9021C55.7365 27.1176 55.8041 27.3376 55.7563 27.5277C55.6384 27.6076 55.4213 27.6147 55.223 27.6212C55.1182 27.6247 55.0185 27.628 54.9416 27.6417C54.9319 27.6435 54.9221 27.6454 54.9124 27.6473C54.8684 27.714 54.8032 27.8366 54.7296 27.9751C54.5753 28.2656 54.3839 28.6258 54.2729 28.6853C54.2693 28.6754 54.2665 28.6651 54.2636 28.6549C54.2579 28.6345 54.2521 28.614 54.2412 28.5961C54.237 28.5892 54.111 28.548 53.9551 28.4971C53.7317 28.4241 53.4469 28.331 53.3708 28.2899C53.1793 28.1865 52.998 28.0425 52.8589 27.8747C52.8257 27.8347 52.7926 27.7818 52.7582 27.7267C52.693 27.6222 52.6228 27.5098 52.5369 27.4616C52.4748 27.4267 52.458 27.4302 52.3959 27.4432L52.3881 27.4448L52.3831 27.4493L52.3794 27.4527C52.3358 27.492 52.2959 27.5278 52.2877 27.5912C52.2668 27.7527 52.4352 27.9738 52.5354 28.0928C52.8615 28.4799 53.3259 28.7777 53.8393 28.8153C53.989 28.8263 54.0965 28.8221 54.2128 28.7224C54.2149 28.7206 54.2169 28.7188 54.219 28.717C54.2205 28.7156 54.2221 28.7142 54.2237 28.7128L54.2253 28.7114C54.2271 28.7098 54.2289 28.7081 54.2308 28.7065C54.2318 28.7124 54.2327 28.717 54.2335 28.7207C54.2349 28.7274 54.2356 28.7311 54.2352 28.7346C54.2348 28.7376 54.2336 28.7406 54.231 28.7455C54.2286 28.7502 54.2251 28.7567 54.2201 28.7668C54.0904 29.028 53.2128 29.5962 52.9253 29.6683C52.135 29.8662 50.819 28.6335 50.3929 28.0435C50.3417 27.9726 50.2999 27.8751 50.2573 27.7756C50.1895 27.6172 50.1196 27.454 50.0063 27.3861C49.9382 27.388 49.9253 27.3964 49.8722 27.4312L49.8632 27.4371C49.8372 27.4824 49.8234 27.5123 49.8192 27.5656C49.7917 27.9111 50.14 28.3935 50.3514 28.6437C50.0269 28.9144 48.9891 29.7484 48.657 29.882C48.5698 29.9171 48.5001 29.9167 48.4149 29.8745C48.0884 29.7127 47.8478 29.2176 47.7467 28.8841C47.6569 28.576 47.6712 28.2739 47.6859 27.963C47.6893 27.8928 47.6926 27.8221 47.6948 27.7508C47.7177 26.996 47.5147 26.1501 47.0775 25.5264C47.0491 25.4863 47.0197 25.4469 46.9894 25.4083C46.9591 25.3697 46.9278 25.3318 46.8956 25.2947C46.8635 25.2576 46.8304 25.2213 46.7965 25.1858C46.7625 25.1504 46.7277 25.1157 46.692 25.0819C46.6564 25.0482 46.6199 25.0153 46.5827 24.9833C46.5454 24.9513 46.5074 24.9202 46.4686 24.8901C46.4298 24.86 46.3903 24.8308 46.3501 24.8026C46.3099 24.7744 46.269 24.7472 46.2274 24.721C46.1859 24.6948 46.1438 24.6697 46.101 24.6455C46.0582 24.6214 46.0149 24.5983 45.9709 24.5763C45.927 24.5543 45.8826 24.5334 45.8377 24.5136C45.7928 24.4937 45.7474 24.475 45.7016 24.4574C45.6557 24.4398 45.6094 24.4233 45.5628 24.4079C45.5161 24.3926 45.4691 24.3784 45.4218 24.3653C45.3744 24.3523 45.3268 24.3404 45.2789 24.3297C45.2309 24.319 45.1828 24.3094 45.1344 24.3011C44.2257 24.1441 43.275 24.325 42.5187 24.8612C41.7997 25.371 41.3133 26.0877 41.17 26.9628C41.0219 27.8678 41.2541 28.6675 41.7849 29.4011C41.5327 30.7837 41.4955 32.1422 41.561 33.541C39.3158 34.0387 37.0175 34.1252 34.7709 33.6053C34.0832 31.8684 33.9791 28.6454 34.3143 26.8083C36.3793 26.7744 38.5668 25.8188 40.4021 24.9476C40.6013 24.853 40.7988 24.7554 40.9958 24.6581C42.0126 24.1557 43.0176 23.6591 44.184 23.6137ZM53.5204 25.2041C53.7288 25.1951 53.9102 25.2039 54.109 25.2796C54.2885 25.3479 54.5048 25.4892 54.5702 25.6813C54.5919 25.745 54.5854 25.7763 54.5578 25.8352C54.4961 25.8388 54.4835 25.8305 54.4404 25.802C54.4345 25.7981 54.4281 25.7939 54.4209 25.7892C54.0126 25.5167 53.8607 25.4623 53.372 25.4441L53.3677 25.4439C53.2985 25.4414 53.2771 25.4406 53.2268 25.3889L53.2437 25.3444C53.3226 25.2808 53.4066 25.2482 53.4985 25.2126L53.4994 25.2123C53.5063 25.2096 53.5134 25.2068 53.5204 25.2041ZM53.7402 25.8975C53.7326 25.8968 53.7252 25.8962 53.7181 25.8956C53.5466 25.9274 53.4353 25.9909 53.334 26.1365C53.2255 26.2923 53.167 26.501 53.2107 26.6892C53.2349 26.7935 53.3047 26.9006 53.4014 26.9513C53.4596 26.9819 53.539 26.9867 53.6044 26.9906L53.6106 26.991C53.8283 26.8984 53.9723 26.7718 54.0601 26.5468C54.1119 26.4142 54.132 26.2428 54.0676 26.1109C54.0205 26.0147 53.9321 25.9385 53.8287 25.91C53.8014 25.9025 53.7696 25.8999 53.7402 25.8975Z" fill="white" fill-opacity="0.5"/>
    </g>
    <defs>
        <filter id="filter0_d_2008_1988" x="0" y="0" width="66" height="67" filterUnits="userSpaceOnUse" color-interpolation-filters="sRGB">
            <feFlood flood-opacity="0" result="BackgroundImageFix"/>
            <feColorMatrix in="SourceAlpha" type="matrix" values="0 0 0 0 0 0 0 0 0 0 0 0 0 0 0 0 0 0 127 0" result="hardAlpha"/>
            <feOffset dy="2"/>
            <feGaussianBlur stdDeviation="0.5"/>
            <feComposite in2="hardAlpha" operator="out"/>
            <feColorMatrix type="matrix" values="0 0 0 0 0 0 0 0 0 0 0 0 0 0 0 0 0 0 0.25 0"/>
            <feBlend mode="normal" in2="BackgroundImageFix" result="effect1_dropShadow_2008_1988"/>
            <feBlend mode="normal" in="SourceGraphic" in2="effect1_dropShadow_2008_1988" result="shape"/>
        </filter>
    </defs>
</svg>
