<svg width="61" height="61" viewBox="0 0 61 61" fill="none" xmlns="http://www.w3.org/2000/svg">
    <rect width="61" height="61" fill="white" fill-opacity="0.2"/>
    <path d="M7.58043 37.533C8.13931 38.2578 7.91593 39.3547 7.82758 40.1897C7.74222 40.1348 7.66716 40.0679 7.59002 40.0023C7.2099 39.5393 7.08986 38.4983 7.02702 37.9012C7.20793 37.772 7.39189 37.6509 7.58043 37.533Z" fill="white"/>
    <path d="M46.2998 32.1022L46.3487 32.1383C46.3524 32.1483 46.1761 37.1351 46.139 37.5557L46.0844 37.0123C46.0388 36.5197 45.973 36.0297 45.887 35.5425C45.8009 35.0553 45.6949 34.5724 45.569 34.094C45.6919 33.7438 45.8187 33.392 45.9219 33.0355C45.9977 32.7735 46.0546 32.4941 46.1467 32.2383C46.18 32.1455 46.2103 32.1404 46.2998 32.1022Z" fill="white"/>
    <path d="M30.81 24.3072C31.0149 24.3193 31.2177 24.353 31.4207 24.3826C31.3495 24.709 31.3224 25.0552 31.2893 25.3875C31.2681 25.6085 31.2508 25.8299 31.2373 26.0516C31.2239 26.2732 31.2144 26.495 31.2089 26.717C31.2033 26.939 31.2016 27.1611 31.2039 27.3831C31.2061 27.6052 31.2123 27.8271 31.2225 28.049C31.2325 28.2708 31.2465 28.4924 31.2645 28.7138C31.2824 28.9351 31.3042 29.156 31.3299 29.3767C31.3557 29.5972 31.3853 29.8173 31.4187 30.0368C31.4522 30.2563 31.4896 30.4752 31.5308 30.6934C31.6051 31.0874 31.6811 31.4884 31.7797 31.8771C31.8384 32.1079 31.9518 32.2911 31.9526 32.5387C31.9058 32.6225 31.8649 32.6287 31.7803 32.6702C31.6995 32.7029 31.6691 32.7239 31.5813 32.7112C31.5323 32.671 31.4924 32.6334 31.46 32.5781C31.324 32.3464 31.1311 31.7193 31.0507 31.4474C30.397 29.2374 30.2648 26.5526 30.81 24.3072Z" fill="white"/>
    <path d="M47.2804 27.2532C47.3532 27.3259 47.4071 27.5064 47.4544 27.6041C47.6425 27.9922 47.9801 28.4525 48.3953 28.613C48.7013 28.7313 48.9517 28.6344 49.2342 28.5135C49.0004 29.4511 48.5372 30.2555 47.7788 30.8662C47.3297 31.1925 46.8637 31.3915 46.3407 31.5657C46.5593 30.3393 46.6886 29.3699 46.6932 28.1196C46.9281 27.8372 47.121 27.5866 47.2804 27.2532Z" fill="white"/>
    <path d="M46.3029 38.843C47.1981 38.8992 48.6038 38.9783 49.4349 39.261C50.1903 39.5179 50.7522 39.9753 51.1017 40.6943C49.5514 40.7422 47.9879 40.702 46.4362 40.6988C46.4172 40.0792 46.3097 39.4644 46.3029 38.843Z" fill="white"/>
    <path d="M11.4704 36.7096L11.4966 36.7152C11.4929 36.8244 11.4026 36.9484 11.351 37.0457C11.0315 37.6478 10.8404 37.9932 10.8917 38.6936C10.9067 38.8978 10.9237 39.1067 10.969 39.3067C11.1194 39.9711 11.617 40.4124 12.249 40.611C12.5947 40.7197 12.9642 40.782 13.2728 40.9823C13.6194 41.2073 13.7837 41.4914 13.8662 41.8844C12.9397 41.963 11.9833 41.9199 11.053 41.9254L9.86858 41.9335C9.85196 41.6594 9.78596 41.4238 9.64352 41.1859C9.36748 40.7251 8.95984 40.4977 8.44819 40.3716C8.47356 39.6967 8.69659 38.9052 8.53635 38.2426C8.45152 37.8917 8.28651 37.5437 8.15272 37.2078C8.68141 37.03 9.25947 37.0924 9.81008 37.0322C10.3747 36.9706 10.9193 36.843 11.4704 36.7096Z" fill="white"/>
    <path d="M6.54587 33.7039C6.5915 33.7483 6.76598 34.6796 6.81626 34.8425C6.86928 35.0131 6.93018 35.1809 6.99896 35.3458C7.06778 35.5108 7.14417 35.6721 7.22813 35.8298C7.31208 35.9876 7.40326 36.141 7.50167 36.2902C7.60008 36.4394 7.70527 36.5836 7.81722 36.7229C7.46724 36.8926 6.67925 37.2398 6.47849 37.5403C6.24456 37.8904 6.54509 38.907 6.64303 39.329C6.85248 40.231 7.15986 40.6331 8.06622 40.8909C8.31427 40.9615 8.56155 41.0242 8.78071 41.167C8.99766 41.3084 9.19454 41.5113 9.23994 41.776C9.25334 41.8544 9.26287 41.9262 9.19931 41.9859C8.98378 42.1883 7.7642 42.1146 7.42626 42.1146C6.65726 42.1162 5.11478 42.2981 4.538 41.7619C3.80628 41.0817 4.33768 39.1843 4.05401 38.2287C3.83579 37.4935 3.27251 36.8745 3.27222 36.0764C3.2721 35.7294 3.38876 35.3964 3.64578 35.1569C3.99827 34.8286 4.4041 34.7859 4.85915 34.8077C5.4163 34.5155 5.97298 34.0333 6.54587 33.7039Z" fill="white"/>
    <path d="M23.2537 27.1194C23.2885 27.2076 23.1531 28.1477 23.1444 28.3777C23.1396 28.51 23.1371 28.6424 23.1369 28.7748C23.1368 28.9072 23.139 29.0396 23.1436 29.172C23.1482 29.3043 23.1551 29.4365 23.1644 29.5686C23.1736 29.7007 23.1852 29.8325 23.1992 29.9642C23.2132 30.0959 23.2295 30.2273 23.2481 30.3584C23.2668 30.4895 23.2878 30.6202 23.311 30.7505C23.3344 30.8809 23.36 31.0108 23.3879 31.1402C23.4158 31.2697 23.446 31.3986 23.4785 31.5269C23.511 31.6553 23.5458 31.783 23.5828 31.9101C23.6199 32.0372 23.6591 32.1637 23.7007 32.2894C23.7423 32.4151 23.7861 32.5401 23.832 32.6643C23.878 32.7884 23.9262 32.9117 23.9766 33.0342C24.027 33.1567 24.0795 33.2782 24.1342 33.3988C24.1889 33.5194 24.2457 33.6389 24.3047 33.7575C24.3636 33.876 24.4246 33.9935 24.4878 34.1099C24.5509 34.2263 24.6161 34.3416 24.6834 34.4556C22.0966 34.8064 18.8607 35.0815 16.3041 34.4247C15.7609 34.6162 15.2356 34.8693 14.6951 35.0716C12.888 35.7479 10.9803 36.3108 9.0505 36.4609C8.84254 36.463 8.63417 36.4795 8.42656 36.4921C7.45247 35.3631 7.17416 34.06 7.11095 32.6108C7.47242 32.3941 7.87345 32.221 8.25506 32.0418C10.0563 31.1956 12.0562 30.4568 14.0459 30.233C14.361 30.1976 14.6851 30.1786 15.0021 30.1741C15.2775 30.1703 15.8478 30.2641 16.0818 30.1759C16.0928 30.1717 16.1034 30.1669 16.1143 30.1626C16.4161 30.0431 16.6945 29.8605 16.9782 29.7036C17.4314 29.451 17.892 29.2127 18.36 28.9886C19.9534 28.2352 21.5763 27.6512 23.2537 27.1194Z" fill="white"/>
    <path d="M43.6635 22.0301C43.6828 22.0275 43.702 22.0244 43.7213 22.0224C44.542 21.9354 45.4313 22.2222 46.053 22.7614C46.6952 23.3186 47.0525 24.1743 47.1082 25.0127C47.1651 25.8681 46.9519 26.7246 46.4399 27.4186C46.2601 27.6623 46.0429 27.8817 45.8445 28.1108C45.8 28.3368 45.961 28.4082 46.0384 28.594C46.1419 28.8427 46.049 29.2398 46.0213 29.505C45.897 30.6949 45.6834 31.8881 45.294 33.0221C45.177 33.3628 45.0306 33.692 44.899 34.0272C45.4453 35.7724 45.5853 37.8132 45.7409 39.6363C45.7696 39.9722 45.8746 41.8908 45.9564 42.0877C45.962 42.1012 45.9829 42.1409 45.9989 42.1524C46.067 42.2012 46.2131 42.2174 46.2951 42.2229C46.5029 42.2368 46.7203 42.2158 46.9291 42.2144C47.3187 42.2117 47.7234 42.232 48.1087 42.2862C48.2126 42.3002 48.3159 42.3179 48.4185 42.3393C48.5212 42.3607 48.6229 42.3858 48.7237 42.4146C48.8246 42.4434 48.9242 42.4757 49.0227 42.5117C49.1212 42.5477 49.2183 42.5871 49.3139 42.6301C49.988 42.9334 50.4478 43.3644 50.7091 44.0603L49.6244 44.0552C48.7029 44.0357 45.4971 44.1539 44.8661 43.8847C44.7174 43.8214 44.5882 43.7208 44.5053 43.5808C44.3527 43.3235 44.3854 43.0107 44.2638 42.7461C44.0618 42.3066 43.8062 41.884 43.5861 41.4525C43.0809 40.4619 42.5825 39.4318 42.17 38.3979C41.666 37.1343 40.8342 34.8724 41.3901 33.5771C41.0443 31.8588 41.0274 30.4812 41.2268 28.7425C41.2658 28.4029 41.4827 27.482 41.4749 27.2387C41.4719 27.1465 40.9349 26.475 40.8348 26.2614C40.7377 26.054 40.6965 25.8356 40.6677 25.6097C40.6613 25.559 40.6562 25.5081 40.6524 25.4572C40.6485 25.4062 40.6459 25.3551 40.6446 25.304C40.6433 25.2529 40.6432 25.2018 40.6444 25.1507C40.6455 25.0996 40.648 25.0485 40.6517 24.9975C40.6553 24.9465 40.6603 24.8957 40.6665 24.8449C40.6727 24.7942 40.6801 24.7436 40.6888 24.6932C40.6975 24.6428 40.7074 24.5926 40.7186 24.5428C40.7297 24.4928 40.7421 24.4432 40.7557 24.394C40.7692 24.3447 40.784 24.2957 40.8 24.2472C40.8161 24.1986 40.8332 24.1505 40.8516 24.1028C40.87 24.055 40.8895 24.0078 40.9102 23.9611C40.9309 23.9143 40.9527 23.8681 40.9757 23.8224C40.9986 23.7767 41.0227 23.7316 41.0479 23.6872C41.0731 23.6426 41.0993 23.5988 41.1267 23.5556C41.154 23.5124 41.1824 23.4699 41.2119 23.4281C41.2413 23.3863 41.2717 23.3452 41.3032 23.3049C41.8868 22.554 42.7326 22.1448 43.6635 22.0301Z" fill="white"/>
    <path fill-rule="evenodd" clip-rule="evenodd" d="M43.6197 20.6622C45.0226 20.6604 46.2816 21.0715 47.5269 21.6877C47.4815 22.1411 47.4671 22.6089 47.5002 23.0634C47.5302 23.476 47.7022 24.6576 48.0602 24.9084C48.1498 24.9712 48.2479 24.9858 48.3553 24.9745C49.2079 24.8852 50.1036 24.2191 50.625 23.5722C50.5433 23.4058 50.4758 23.2471 50.439 23.0638C50.3493 22.6168 50.3627 22.0507 50.6342 21.6675C50.7258 21.5381 50.877 21.384 51.0449 21.3688C51.1338 21.3608 51.21 21.3972 51.2709 21.4602C51.5375 21.7364 51.5292 22.5245 51.5237 23.0508V23.051C51.5225 23.1578 51.5215 23.2539 51.523 23.3327C51.5386 23.3282 51.5541 23.3236 51.5697 23.3189C51.579 23.3161 51.5883 23.3133 51.5976 23.3104C52.7878 22.9441 53.5667 22.0788 54.1356 21.0137C55.0504 21.5965 55.9898 22.0251 57.0968 21.9817C57.1118 22.3428 57.1085 22.7164 57.0698 23.0757C57.0601 23.1667 57.0469 23.2598 57.0335 23.3536C57.0018 23.5771 56.9694 23.8053 56.9808 24.0232C56.989 24.1778 57.0411 24.3476 57.094 24.5198C57.1717 24.7726 57.251 25.0306 57.1949 25.2537C57.0566 25.3473 56.8019 25.3557 56.5692 25.3634C56.4463 25.3674 56.3294 25.3713 56.2392 25.3874C56.2278 25.3894 56.2163 25.3918 56.2049 25.394C56.1533 25.4722 56.0769 25.6161 55.9905 25.7785C55.8095 26.1193 55.585 26.5418 55.4547 26.6116C55.4506 26.5999 55.4472 26.5879 55.4438 26.5759C55.4371 26.552 55.4304 26.528 55.4175 26.5069C55.4126 26.4988 55.2648 26.4505 55.082 26.3908C54.8199 26.3052 54.4857 26.196 54.3965 26.1478C54.1719 26.0265 53.9592 25.8576 53.796 25.6607C53.757 25.6137 53.7183 25.5517 53.6779 25.4871C53.6014 25.3645 53.519 25.2326 53.4182 25.1761C53.3454 25.1352 53.3257 25.1393 53.2529 25.1545L53.2438 25.1564L53.2379 25.1617L53.2335 25.1657C53.1823 25.2117 53.1356 25.2538 53.1259 25.3281C53.1014 25.5176 53.2989 25.777 53.4165 25.9166C53.7991 26.3706 54.3438 26.72 54.9461 26.7641C55.1217 26.777 55.2478 26.7721 55.3843 26.6551C55.3867 26.653 55.3891 26.6509 55.3915 26.6488C55.3933 26.6472 55.3952 26.6455 55.397 26.6439L55.3989 26.6422C55.401 26.6403 55.4032 26.6383 55.4053 26.6364C55.4066 26.6434 55.4076 26.6488 55.4085 26.6531C55.4101 26.661 55.411 26.6653 55.4105 26.6694C55.4101 26.673 55.4086 26.6765 55.4056 26.6822C55.4028 26.6878 55.3986 26.6954 55.3928 26.7073C55.2407 27.0136 54.2112 27.6802 53.874 27.7647C52.9468 27.9968 51.4031 26.5509 50.9032 25.8587C50.8431 25.7756 50.7941 25.6612 50.7442 25.5445C50.6646 25.3587 50.5826 25.1672 50.4497 25.0876C50.3698 25.0897 50.3547 25.0996 50.2923 25.1405L50.2818 25.1473C50.2513 25.2005 50.2352 25.2356 50.2302 25.2981C50.198 25.7034 50.6065 26.2693 50.8546 26.5629C50.4739 26.8803 49.2564 27.8587 48.8669 28.0154C48.7645 28.0566 48.6828 28.0561 48.5829 28.0066C48.1999 27.8168 47.9176 27.2361 47.799 26.8448C47.6937 26.4834 47.7105 26.129 47.7277 25.7643C47.7316 25.6819 47.7355 25.599 47.7381 25.5153C47.765 24.6299 47.5268 23.6376 47.014 22.906C46.9806 22.8589 46.9462 22.8128 46.9106 22.7675C46.8751 22.7221 46.8384 22.6777 46.8006 22.6342C46.7629 22.5907 46.7241 22.5481 46.6843 22.5065C46.6445 22.4649 46.6036 22.4242 46.5618 22.3846C46.52 22.345 46.4772 22.3064 46.4335 22.2688C46.3898 22.2313 46.3452 22.1949 46.2997 22.1595C46.2542 22.1242 46.2079 22.09 46.1607 22.0569C46.1135 22.0238 46.0655 21.9919 46.0168 21.9612C45.9681 21.9305 45.9186 21.901 45.8685 21.8726C45.8183 21.8443 45.7674 21.8173 45.7159 21.7915C45.6644 21.7656 45.6123 21.7411 45.5596 21.7178C45.5069 21.6946 45.4537 21.6726 45.3999 21.6519C45.3461 21.6312 45.2918 21.6119 45.2371 21.5939C45.1824 21.5759 45.1273 21.5593 45.0717 21.5439C45.0162 21.5286 44.9603 21.5147 44.904 21.5021C44.8478 21.4896 44.7913 21.4784 44.7346 21.4686C43.6686 21.2844 42.5534 21.4966 41.6662 22.1256C40.8228 22.7237 40.2521 23.5644 40.0841 24.591C39.9103 25.6526 40.1827 26.5907 40.8054 27.4513C40.5095 29.0731 40.4659 30.6668 40.5427 32.3077C37.9089 32.8915 35.2128 32.9931 32.5774 32.3831C31.7706 30.3456 31.6485 26.5648 32.0418 24.4097C34.4642 24.37 37.0303 23.249 39.1832 22.227C39.4169 22.116 39.6486 22.0016 39.8797 21.8874C41.0725 21.298 42.2514 20.7155 43.6197 20.6622ZM54.572 22.5279C54.8165 22.5173 55.0293 22.5276 55.2625 22.6165C55.473 22.6966 55.7268 22.8624 55.8035 23.0876C55.829 23.1624 55.8213 23.1991 55.789 23.2682C55.7166 23.2724 55.7018 23.2627 55.6512 23.2293C55.6443 23.2247 55.6368 23.2197 55.6283 23.2143C55.1494 22.8946 54.9712 22.8307 54.3979 22.8094L54.3929 22.8092C54.3117 22.8062 54.2866 22.8053 54.2276 22.7447L54.2474 22.6925C54.3399 22.6179 54.4386 22.5797 54.5464 22.5378L54.5473 22.5375C54.5555 22.5343 54.5638 22.5311 54.572 22.5279ZM54.8298 23.3413C54.821 23.3405 54.8123 23.3398 54.804 23.339C54.6027 23.3763 54.4721 23.4509 54.3534 23.6216C54.2261 23.8044 54.1574 24.0493 54.2087 24.27C54.2371 24.3924 54.319 24.518 54.4324 24.5775C54.5007 24.6133 54.5938 24.619 54.6705 24.6236L54.6778 24.6241C54.9332 24.5154 55.1021 24.3669 55.2052 24.103C55.2659 23.9474 55.2895 23.7463 55.2139 23.5916C55.1586 23.4788 55.055 23.3894 54.9337 23.3559C54.9017 23.3472 54.8643 23.3441 54.8298 23.3413Z" fill="white"/>
</svg>
