<svg width="447" height="447" viewBox="0 0 447 447" fill="none" xmlns="http://www.w3.org/2000/svg">
    <rect width="447" height="447" fill="#2EA33A"/>
    <path d="M55.5484 275.037C59.6438 280.348 58.0069 288.386 57.3595 294.505C56.734 294.103 56.1839 293.612 55.6186 293.131C52.8332 289.739 51.9536 282.111 51.4931 277.735C52.8188 276.788 54.1668 275.901 55.5484 275.037Z" fill="white"/>
    <path d="M339.279 235.241L339.637 235.505C339.664 235.578 338.372 272.121 338.1 275.203L337.7 271.221C337.366 267.611 336.884 264.021 336.254 260.451C335.623 256.88 334.847 253.342 333.924 249.836C334.824 247.27 335.753 244.692 336.51 242.08C337.065 240.16 337.482 238.113 338.157 236.238C338.401 235.558 338.623 235.521 339.279 235.241Z" fill="white"/>
    <path d="M225.772 178.12C227.273 178.208 228.76 178.456 230.247 178.673C229.725 181.064 229.527 183.601 229.284 186.036C229.128 187.656 229.002 189.278 228.903 190.902C228.805 192.527 228.735 194.152 228.695 195.779C228.654 197.406 228.641 199.033 228.658 200.66C228.674 202.287 228.72 203.913 228.794 205.539C228.868 207.165 228.971 208.789 229.102 210.411C229.233 212.032 229.393 213.652 229.582 215.268C229.77 216.885 229.987 218.497 230.232 220.106C230.478 221.714 230.751 223.318 231.053 224.917C231.598 227.804 232.155 230.743 232.878 233.591C233.308 235.282 234.138 236.625 234.145 238.439C233.801 239.054 233.502 239.099 232.882 239.403C232.29 239.643 232.067 239.797 231.424 239.703C231.065 239.408 230.772 239.133 230.534 238.728C229.538 237.03 228.124 232.435 227.535 230.443C222.746 214.248 221.776 194.574 225.772 178.12Z" fill="white"/>
    <path d="M346.465 199.708C346.998 200.241 347.393 201.563 347.74 202.279C349.118 205.123 351.592 208.496 354.635 209.672C356.877 210.539 358.712 209.829 360.782 208.943C359.068 215.814 355.674 221.708 350.117 226.183C346.826 228.575 343.411 230.033 339.578 231.309C341.181 222.323 342.128 215.219 342.162 206.057C343.883 203.987 345.296 202.151 346.465 199.708Z" fill="white"/>
    <path d="M339.301 284.637C345.861 285.048 356.162 285.628 362.253 287.699C367.788 289.582 371.905 292.934 374.467 298.202C363.106 298.553 351.649 298.259 340.278 298.235C340.139 293.695 339.351 289.19 339.301 284.637Z" fill="white"/>
    <path d="M84.0534 269.003L84.2454 269.044C84.2188 269.844 83.557 270.753 83.1786 271.466C80.837 275.878 79.4371 278.409 79.813 283.541C79.9225 285.038 80.0474 286.569 80.3791 288.035C81.4813 292.903 85.1276 296.136 89.7587 297.592C92.2923 298.388 95 298.845 97.2617 300.313C99.8014 301.961 101.005 304.044 101.609 306.923C94.8202 307.5 87.8118 307.184 80.9946 307.224L72.3157 307.284C72.1939 305.275 71.7102 303.548 70.6665 301.805C68.6436 298.428 65.6565 296.762 61.9072 295.838C62.0932 290.892 63.7275 285.092 62.5533 280.237C61.9316 277.665 60.7225 275.116 59.7421 272.654C63.6162 271.351 67.8522 271.808 71.887 271.367C76.0244 270.915 80.0151 269.981 84.0534 269.003Z" fill="white"/>
    <path d="M47.9673 246.978C48.3016 247.303 49.5802 254.128 49.9486 255.321C50.3372 256.572 50.7834 257.801 51.2875 259.01C51.7918 260.218 52.3516 261.401 52.9668 262.556C53.582 263.712 54.2501 264.837 54.9713 265.93C55.6924 267.023 56.4632 268.08 57.2836 269.1C54.719 270.344 48.9446 272.888 47.4736 275.09C45.7593 277.656 47.9616 285.105 48.6792 288.197C50.2141 294.808 52.4665 297.754 59.1082 299.643C60.9259 300.161 62.7379 300.62 64.3439 301.666C65.9337 302.702 67.3764 304.189 67.709 306.129C67.8073 306.704 67.8771 307.23 67.4113 307.667C65.832 309.15 56.895 308.611 54.4186 308.611C48.7836 308.622 37.4804 309.955 33.2539 306.026C27.8919 301.041 31.786 287.137 29.7073 280.135C28.1082 274.748 23.9805 270.211 23.9784 264.363C23.9775 261.82 24.8324 259.38 26.7158 257.625C29.2988 255.219 32.2726 254.906 35.6072 255.066C39.69 252.925 43.7692 249.391 47.9673 246.978Z" fill="white"/>
    <path d="M170.4 198.727C170.655 199.374 169.663 206.262 169.599 207.948C169.564 208.918 169.545 209.888 169.544 210.858C169.543 211.828 169.56 212.798 169.593 213.768C169.627 214.738 169.677 215.707 169.746 216.675C169.813 217.643 169.898 218.609 170.001 219.574C170.103 220.539 170.223 221.502 170.359 222.462C170.496 223.423 170.65 224.381 170.82 225.336C170.991 226.291 171.179 227.243 171.383 228.192C171.588 229.14 171.809 230.084 172.047 231.025C172.286 231.966 172.54 232.902 172.812 233.833C173.083 234.765 173.371 235.691 173.676 236.613C173.98 237.534 174.301 238.45 174.638 239.36C174.975 240.269 175.328 241.173 175.697 242.07C176.066 242.968 176.451 243.858 176.852 244.742C177.253 245.625 177.669 246.502 178.101 247.37C178.533 248.239 178.981 249.1 179.443 249.953C179.906 250.806 180.384 251.65 180.876 252.486C161.921 255.057 138.208 257.072 119.474 252.26C115.494 253.663 111.645 255.517 107.684 257C94.4417 261.956 80.4625 266.081 66.3209 267.181C64.797 267.196 63.27 267.317 61.7487 267.409C54.6107 259.136 52.5713 249.587 52.1081 238.968C54.757 237.38 57.6956 236.111 60.492 234.798C73.6916 228.597 88.3466 223.183 102.926 221.544C105.236 221.284 107.61 221.145 109.934 221.112C111.952 221.084 116.131 221.772 117.845 221.125C117.926 221.095 118.004 221.059 118.083 221.027C120.295 220.152 122.335 218.814 124.414 217.664C127.735 215.813 131.11 214.067 134.539 212.425C146.216 206.904 158.108 202.624 170.4 198.727Z" fill="white"/>
    <path d="M319.96 161.434C320.102 161.415 320.242 161.392 320.384 161.377C326.398 160.74 332.915 162.841 337.47 166.793C342.177 170.876 344.795 177.146 345.203 183.289C345.62 189.558 344.057 195.834 340.305 200.92C338.988 202.706 337.396 204.314 335.942 205.992C335.616 207.648 336.796 208.172 337.363 209.533C338.122 211.356 337.441 214.266 337.238 216.209C336.327 224.929 334.762 233.672 331.908 241.981C331.051 244.478 329.978 246.89 329.014 249.347C333.017 262.135 334.043 277.09 335.184 290.449C335.394 292.911 336.163 306.971 336.762 308.413C336.803 308.512 336.957 308.803 337.074 308.887C337.573 309.245 338.644 309.364 339.245 309.404C340.768 309.505 342.36 309.352 343.89 309.341C346.745 309.322 349.711 309.471 352.534 309.868C353.296 309.97 354.052 310.1 354.804 310.257C355.557 310.414 356.302 310.598 357.041 310.808C357.78 311.019 358.51 311.257 359.232 311.52C359.954 311.784 360.665 312.073 361.366 312.388C366.305 314.611 369.675 317.768 371.59 322.868L363.641 322.831C356.889 322.688 333.397 323.554 328.773 321.581C327.684 321.117 326.737 320.38 326.129 319.355C325.011 317.469 325.25 315.177 324.359 313.238C322.879 310.017 321.006 306.921 319.393 303.759C315.691 296.499 312.039 288.951 309.017 281.375C305.323 272.115 299.228 255.541 303.301 246.049C300.768 233.457 300.643 223.362 302.105 210.621C302.39 208.132 303.98 201.384 303.922 199.601C303.901 198.926 299.965 194.005 299.232 192.44C298.52 190.92 298.218 189.32 298.007 187.665C297.961 187.293 297.923 186.92 297.895 186.547C297.867 186.173 297.848 185.799 297.839 185.424C297.829 185.05 297.828 184.675 297.837 184.301C297.845 183.926 297.863 183.552 297.89 183.179C297.917 182.805 297.953 182.432 297.999 182.06C298.044 181.688 298.099 181.318 298.162 180.948C298.226 180.579 298.298 180.212 298.38 179.846C298.462 179.48 298.553 179.117 298.652 178.756C298.752 178.395 298.86 178.036 298.977 177.68C299.095 177.324 299.221 176.972 299.355 176.622C299.49 176.272 299.633 175.926 299.785 175.584C299.936 175.241 300.096 174.902 300.264 174.567C300.432 174.233 300.609 173.902 300.793 173.576C300.978 173.25 301.171 172.929 301.371 172.612C301.571 172.295 301.779 171.984 301.995 171.678C302.211 171.371 302.434 171.071 302.664 170.775C306.941 165.273 313.139 162.274 319.96 161.434Z" fill="white"/>
    <path fill-rule="evenodd" clip-rule="evenodd" d="M319.639 151.41C329.92 151.397 339.145 154.409 348.271 158.925C347.938 162.247 347.833 165.675 348.075 169.006C348.295 172.029 349.555 180.687 352.179 182.526C352.835 182.986 353.554 183.093 354.341 183.01C360.589 182.355 367.153 177.475 370.973 172.734C370.374 171.515 369.88 170.352 369.61 169.008C368.953 165.733 369.051 161.585 371.041 158.777C371.712 157.828 372.82 156.699 374.05 156.588C374.702 156.529 375.26 156.796 375.706 157.258C377.66 159.281 377.599 165.056 377.559 168.913V168.914C377.55 169.697 377.543 170.401 377.553 170.979C377.668 170.946 377.782 170.912 377.896 170.878C377.964 170.857 378.032 170.837 378.1 170.816C386.822 168.131 392.53 161.791 396.699 153.986C403.402 158.257 410.286 161.397 418.398 161.079C418.508 163.725 418.484 166.463 418.2 169.095C418.129 169.763 418.032 170.444 417.934 171.132C417.702 172.77 417.465 174.442 417.548 176.039C417.608 177.172 417.99 178.416 418.378 179.678C418.947 181.53 419.528 183.421 419.117 185.056C418.103 185.742 416.237 185.803 414.532 185.86C413.631 185.889 412.775 185.917 412.113 186.036C412.03 186.05 411.946 186.068 411.862 186.084C411.484 186.657 410.924 187.711 410.291 188.902C408.965 191.399 407.32 194.495 406.365 195.006C406.335 194.921 406.31 194.833 406.285 194.745C406.236 194.569 406.187 194.394 406.092 194.239C406.056 194.18 404.973 193.826 403.633 193.388C401.713 192.761 399.264 191.961 398.61 191.607C396.965 190.719 395.406 189.481 394.21 188.038C393.924 187.694 393.641 187.24 393.345 186.766C392.784 185.868 392.18 184.901 391.442 184.487C390.908 184.187 390.764 184.218 390.231 184.329L390.163 184.343L390.12 184.382L390.088 184.411C389.713 184.748 389.371 185.056 389.3 185.601C389.12 186.989 390.568 188.891 391.429 189.913C394.233 193.24 398.224 195.801 402.638 196.124C403.925 196.218 404.849 196.182 405.849 195.325C405.867 195.31 405.884 195.294 405.902 195.279C405.915 195.267 405.929 195.255 405.942 195.243L405.956 195.231C405.971 195.217 405.987 195.202 406.003 195.188C406.012 195.239 406.02 195.279 406.026 195.31C406.038 195.369 406.045 195.4 406.041 195.43C406.038 195.456 406.027 195.482 406.005 195.524C405.985 195.564 405.954 195.62 405.911 195.707C404.796 197.952 397.252 202.837 394.781 203.456C387.987 205.157 376.675 194.561 373.012 189.489C372.572 188.88 372.213 188.042 371.847 187.187C371.264 185.825 370.663 184.422 369.689 183.839C369.103 183.854 368.993 183.927 368.536 184.226L368.458 184.276C368.235 184.666 368.117 184.923 368.08 185.381C367.844 188.351 370.838 192.498 372.656 194.649C369.866 196.975 360.945 204.145 358.09 205.293C357.34 205.595 356.741 205.591 356.009 205.229C353.202 203.838 351.134 199.582 350.265 196.715C349.493 194.067 349.616 191.47 349.742 188.797C349.771 188.193 349.8 187.586 349.819 186.973C350.016 180.485 348.27 173.213 344.512 167.852C344.268 167.507 344.016 167.169 343.755 166.837C343.494 166.505 343.226 166.179 342.949 165.86C342.672 165.541 342.388 165.229 342.096 164.924C341.805 164.62 341.505 164.322 341.199 164.031C340.892 163.741 340.579 163.458 340.259 163.183C339.938 162.908 339.611 162.641 339.278 162.382C338.945 162.123 338.605 161.872 338.259 161.63C337.914 161.388 337.562 161.154 337.205 160.929C336.848 160.704 336.486 160.487 336.118 160.28C335.75 160.072 335.378 159.874 335 159.685C334.623 159.496 334.241 159.316 333.855 159.145C333.469 158.975 333.079 158.814 332.685 158.663C332.29 158.511 331.893 158.369 331.492 158.237C331.091 158.106 330.687 157.983 330.28 157.871C329.873 157.759 329.463 157.657 329.051 157.565C328.639 157.473 328.225 157.391 327.809 157.319C319.998 155.969 311.826 157.525 305.325 162.134C299.144 166.516 294.962 172.677 293.731 180.2C292.458 187.979 294.453 194.853 299.017 201.16C296.849 213.044 296.529 224.723 297.091 236.747C277.792 241.025 258.035 241.769 238.723 237.299C232.811 222.369 231.916 194.664 234.798 178.871C252.549 178.58 271.353 170.366 287.129 162.876C288.842 162.063 290.54 161.225 292.233 160.388C300.974 156.069 309.613 151.801 319.639 151.41ZM399.897 165.081C401.688 165.004 403.248 165.079 404.957 165.731C406.499 166.318 408.359 167.532 408.921 169.183C409.107 169.731 409.051 170 408.814 170.506C408.284 170.537 408.175 170.466 407.805 170.221C407.754 170.188 407.699 170.151 407.637 170.111C404.128 167.769 402.822 167.301 398.621 167.144L398.584 167.143C397.989 167.121 397.805 167.114 397.373 166.67L397.518 166.288C398.196 165.741 398.919 165.461 399.709 165.154L399.716 165.152C399.776 165.128 399.836 165.105 399.897 165.081ZM401.786 171.042C401.721 171.036 401.657 171.031 401.596 171.025C400.122 171.299 399.165 171.845 398.294 173.096C397.362 174.436 396.859 176.23 397.234 177.847C397.443 178.744 398.042 179.665 398.873 180.101C399.374 180.363 400.056 180.405 400.618 180.439L400.672 180.442C402.543 179.646 403.781 178.558 404.536 176.624C404.981 175.484 405.154 174.01 404.6 172.876C404.195 172.049 403.436 171.394 402.547 171.149C402.312 171.085 402.039 171.062 401.786 171.042Z" fill="white"/>
</svg>
