<svg width="61" height="61" viewBox="0 0 61 61" fill="none" xmlns="http://www.w3.org/2000/svg">
    <rect width="61" height="61" fill="white" fill-opacity="0.2"/>
    <path fill-rule="evenodd" clip-rule="evenodd" d="M37.5171 13.9019V13.9019C37.5449 13.7682 37.57 13.6478 37.59 13.5634Z" fill="white"/>
    <path fill-rule="evenodd" clip-rule="evenodd" d="M36.6076 9.25117C37.2994 9.17558 37.7252 9.35207 38.2586 9.57323C38.3829 9.62474 38.513 9.67868 38.6537 9.73243C39.777 10.1615 40.9344 10.3743 42.0568 9.81016C42.1987 9.73883 42.3391 9.65795 42.4704 9.56797C42.5108 9.5403 42.5509 9.50973 42.5912 9.4789C42.6785 9.41231 42.7673 9.34453 42.8644 9.30234C42.9809 9.25173 43.0901 9.25541 43.2051 9.30897C43.2857 9.3465 43.3416 9.41153 43.37 9.49701C43.4997 9.88765 43.1167 11.0464 42.9425 11.4121C42.4177 12.5139 41.5303 13.1967 40.4112 13.5881C40.4141 13.6813 40.4136 13.7988 40.4131 13.9261C40.4117 14.2569 40.4101 14.6545 40.4673 14.8669C40.511 15.0294 40.6009 15.2064 40.6914 15.3844C40.8078 15.6135 40.9252 15.8445 40.9463 16.0489C40.9556 16.139 40.9357 16.2217 40.8786 16.2917C40.735 16.4676 40.4818 16.4915 40.2603 16.5123C40.2212 16.516 40.1831 16.5196 40.1467 16.5239C40.1033 16.6433 40.0615 16.7837 40.0171 16.933C39.8627 17.4516 39.6765 18.0776 39.2784 18.3009C38.8408 18.5464 38.3502 18.3941 37.9038 18.2555C37.8675 18.2443 37.8315 18.2331 37.7959 18.2222C37.6219 18.6192 37.4455 19.0151 37.2669 19.41C37.5458 19.7667 37.7689 20.1483 37.907 20.5842C37.9298 20.656 37.948 20.7293 37.9661 20.8024C38.008 20.971 38.0497 21.1388 38.1464 21.2861C38.2956 21.5133 38.4891 21.7264 38.6799 21.9364C38.7847 22.0518 38.8887 22.1662 38.9841 22.2817L41.2104 24.9694C42.4123 24.269 43.6176 23.575 44.8265 22.8874C44.8244 22.8174 44.8202 22.7437 44.816 22.6681C44.8017 22.4161 44.7863 22.1429 44.8404 21.916C44.8435 21.9027 44.847 21.8894 44.8508 21.8762C44.8547 21.863 44.8588 21.85 44.8633 21.837C44.8678 21.824 44.8726 21.8112 44.8777 21.7985C44.8829 21.7857 44.8883 21.7732 44.8941 21.7608L44.8995 21.7495L44.9021 21.7441C44.9055 21.7373 44.9089 21.7306 44.9124 21.724C44.9188 21.7119 44.9255 21.7 44.9325 21.6882L44.9385 21.6783C44.9437 21.6699 44.949 21.6617 44.9544 21.6535C44.959 21.6467 44.9637 21.6399 44.9685 21.6332L44.978 21.6201C44.9862 21.6091 44.9946 21.5984 45.0033 21.5879C45.012 21.5774 45.021 21.5671 45.0302 21.5571L45.0375 21.5493C45.0444 21.542 45.0514 21.5348 45.0586 21.5278C45.0684 21.5182 45.0783 21.5089 45.0885 21.4999C45.0987 21.491 45.1091 21.4822 45.1197 21.4737C45.1304 21.4653 45.1412 21.4571 45.1523 21.4492C45.1633 21.4414 45.1746 21.4338 45.186 21.4265C45.1974 21.4192 45.2091 21.4122 45.2208 21.4055C45.5149 21.2413 45.8248 21.281 46.1321 21.369C46.2165 21.3163 46.2979 21.2591 46.379 21.202C46.6278 21.0272 46.8732 20.8547 47.19 20.8248C47.474 20.798 47.7405 20.8863 47.9541 21.0791C48.2057 21.3062 48.8609 22.371 49.0031 22.7031C49.0493 22.8111 49.0803 22.9206 49.0851 23.0389C49.0959 23.3059 49.0063 23.5682 48.8252 23.7624C48.6285 23.9733 48.1955 24.2386 47.8444 24.4536C47.7336 24.5215 47.631 24.5844 47.5465 24.639C46.7018 25.1903 45.8539 25.7365 45.003 26.2778L43.0212 27.5602C42.932 27.6177 42.8422 27.6775 42.7519 27.7377C42.4773 27.9205 42.1974 28.1069 41.907 28.2465C41.6331 28.3782 41.2792 28.4426 40.9768 28.444C39.8646 28.4492 39.2496 27.7644 38.5727 27.0107L38.5721 27.0101L38.571 27.0088C38.5245 26.9571 38.4778 26.9051 38.4306 26.8529C38.261 26.6656 38.0933 26.4745 37.9253 26.2832C37.5929 25.9046 37.2595 25.5248 36.9083 25.1699C36.772 25.338 36.6227 25.4946 36.4736 25.651C36.2994 25.8337 36.1253 26.0163 35.9722 26.217C35.0466 27.43 34.5612 28.8953 34.0852 30.3325L34.0359 30.4814C34.8971 31.3351 35.7889 32.1641 36.6787 32.9911L36.68 32.9924L36.6807 32.993C36.9612 33.2537 37.2415 33.5142 37.5205 33.7753C37.7414 33.9819 37.9569 34.179 38.1657 34.37L38.1671 34.3713C39.7292 35.8 40.9297 36.898 41.4345 39.2825C41.5467 39.8121 41.5765 40.3508 41.6063 40.8898L41.6141 41.0288L41.6177 41.0921L41.7351 43.2628L41.9118 46.4325C41.9213 46.6121 41.9285 46.7931 41.9358 46.9747C41.9556 47.4713 41.9756 47.9719 42.0423 48.4588C42.5138 48.7472 43.3448 49.2469 43.8677 49.3432C44.0296 49.373 44.2037 49.3919 44.3685 49.3868C44.457 49.384 44.5443 49.3763 44.6306 49.3687C44.8961 49.3452 45.1527 49.3225 45.4118 49.4467C45.5945 49.5343 45.731 49.6819 45.7922 49.8793C45.8626 50.1068 45.8284 50.337 45.7148 50.5432C45.4056 51.1047 44.7296 51.4842 44.1423 51.6567C43.5286 51.837 42.9523 51.8925 42.3332 51.729L42.2987 51.7198L42.2312 51.7016C42.0077 51.6411 41.7834 51.5804 41.5507 51.5785C41.2952 51.5764 41.053 51.6318 40.8149 51.6863C40.3737 51.7872 39.9466 51.885 39.475 51.6077C39.1694 51.428 39.005 51.1059 38.9162 50.7703C38.7887 50.2884 38.8069 49.5004 39.0565 49.0598C38.8898 48.4502 38.758 47.8246 38.6265 47.2008C38.5557 46.8646 38.485 46.5289 38.4089 46.1966C37.9265 44.0768 37.4327 41.9597 36.9278 39.8454C36.6193 39.5947 36.2797 39.3731 35.943 39.1534C35.8149 39.0699 35.6873 38.9866 35.5619 38.9021L33.1709 37.2912L31.2244 35.9593C31.0495 36.2245 30.8622 36.4832 30.6752 36.7416C30.5735 36.882 30.472 37.0223 30.3725 37.1635L28.14 40.3081C27.3769 41.3884 26.3673 42.1841 25.1319 42.6281C24.3696 42.902 23.5463 42.9648 22.7357 43.0265C22.5228 43.0428 22.3107 43.0589 22.1009 43.0788L17.5147 43.5186C17.2952 43.5406 17.0732 43.558 16.8508 43.5754C16.4037 43.6105 15.9543 43.6458 15.5176 43.7185C14.8382 44.5862 14.6774 45.4766 14.6812 46.5662C14.6815 46.647 14.6852 46.729 14.6889 46.8111C14.7034 47.1307 14.7179 47.4537 14.5323 47.7318C14.4242 47.8939 14.2582 48.0149 14.0654 48.042C13.8571 48.0714 13.6575 47.9824 13.4926 47.8592C12.5854 47.1809 12.0826 45.9861 12.1259 44.8529C12.1316 44.7023 12.1554 44.5478 12.1793 44.393C12.2122 44.1791 12.2452 43.9647 12.2307 43.7599C12.2172 43.5685 12.1463 43.3932 12.0751 43.2175C12.0115 43.0602 11.9477 42.9027 11.925 42.7332C11.8744 42.3564 12.0036 42.0035 12.2272 41.709C12.5422 41.2941 13.0113 41.087 13.5236 41.1087C13.5813 41.1112 13.6404 41.1167 13.6996 41.1223C13.8307 41.1346 13.9638 41.1471 14.0904 41.1269C14.3149 41.0912 14.5551 41.0046 14.7858 40.9215C14.8829 40.8865 14.9783 40.8521 15.0702 40.8223L17.1576 40.1485L21.3875 38.8263C21.5704 38.7686 21.7542 38.7123 21.9381 38.6559C22.3505 38.5295 22.7635 38.403 23.169 38.2597C23.3579 38.1929 23.5237 38.1296 23.678 37.9932C23.8254 37.863 23.9755 37.6776 24.0694 37.5036C24.2351 37.1967 24.3783 36.8689 24.5205 36.5434C24.5916 36.3807 24.6624 36.2186 24.7357 36.06C25.1695 35.138 25.596 34.2126 26.015 33.2836L26.6169 31.9505C26.6443 31.8897 26.674 31.8278 26.7041 31.765C26.7915 31.5824 26.8824 31.3928 26.9296 31.204C26.9609 31.0789 26.9492 30.916 26.9381 30.7616C26.9322 30.6793 26.9264 30.5995 26.9274 30.529C26.9348 30.0292 27.0334 29.5392 27.1885 29.0666C27.3347 28.621 27.5244 28.1808 27.7173 27.7539C27.7519 27.6775 27.7905 27.6014 27.8294 27.525C27.9196 27.3476 28.0109 27.168 28.0542 26.9767C28.1056 26.7498 28.142 26.5184 28.1785 26.2869C28.2098 26.0878 28.2412 25.8886 28.2821 25.6921C28.6375 23.9848 29.1579 22.3044 30.15 20.8656C29.7145 20.7753 29.2801 20.6765 28.8458 20.5777C28.1814 20.4265 27.5168 20.2753 26.8473 20.1545C26.4227 20.5569 26.0236 21.0022 25.6278 21.4437C25.4741 21.6152 25.3208 21.7861 25.1668 21.9538C24.9817 22.1553 24.7942 22.3561 24.6063 22.5572C24.1271 23.0704 23.6456 23.5859 23.197 24.1207C23.2221 24.1774 23.2435 24.2356 23.2649 24.2939C23.2902 24.3628 23.3156 24.4317 23.3471 24.4982C23.3758 24.5588 23.406 24.6167 23.4354 24.6732C23.5508 24.8948 23.6564 25.0975 23.6315 25.3767C23.6302 25.392 23.6285 25.4073 23.6265 25.4225C23.6244 25.4377 23.622 25.4529 23.6192 25.468C23.6164 25.4831 23.6132 25.4981 23.6096 25.5131C23.6061 25.528 23.6021 25.5429 23.5979 25.5576C23.5936 25.5724 23.5889 25.587 23.5839 25.6015C23.5789 25.616 23.5735 25.6304 23.5678 25.6446C23.5621 25.6588 23.556 25.6729 23.5496 25.6868C23.5432 25.7007 23.5364 25.7144 23.5293 25.728C23.5222 25.7416 23.5148 25.755 23.507 25.7682C23.4992 25.7813 23.4912 25.7943 23.4828 25.8071C23.4744 25.8198 23.4657 25.8324 23.4566 25.8447C23.4476 25.8571 23.4383 25.8691 23.4287 25.881C23.419 25.8928 23.4091 25.9044 23.3989 25.9158C23.3887 25.9271 23.3783 25.9382 23.3675 25.949C23.3568 25.9597 23.3458 25.9702 23.3345 25.9805C23.3233 25.9907 23.3117 26.0007 23.3 26.0103C23.0666 26.2042 22.8194 26.2395 22.5306 26.2097C22.4644 26.2863 22.3973 26.3724 22.328 26.4612C22.1206 26.7272 21.8942 27.0174 21.6194 27.1486C21.3714 27.267 21.0446 27.263 20.791 27.1636C20.4666 27.0365 19.1987 25.8889 19.0593 25.5724C18.9456 25.3145 18.9331 25.0097 19.0416 24.7474C19.1648 24.4496 19.6646 23.9613 20.0487 23.5861C20.1801 23.4577 20.2979 23.3426 20.3825 23.2528C20.577 23.0465 20.7438 22.8111 20.9094 22.5776C20.9606 22.5054 21.0116 22.4333 21.0633 22.3624C21.248 22.1091 21.4363 21.8583 21.6245 21.6076C21.7186 21.4822 21.8127 21.3568 21.9064 21.2311L23.8136 18.6793C23.8987 18.5669 23.9858 18.4437 24.0755 18.3163L24.0935 18.2908C24.3804 17.8832 24.6932 17.4389 25.0472 17.1774C25.3829 16.9296 25.8044 16.7744 26.2174 16.7422C26.5697 16.7148 26.9418 16.776 27.3037 16.8354C27.4377 16.8575 27.5704 16.8793 27.7001 16.8963L31.2324 17.3777C31.4269 17.4057 31.6234 17.437 31.8206 17.4683C32.3623 17.5545 32.911 17.6417 33.45 17.6678C33.6172 17.6758 33.8268 17.6757 33.9818 17.6073C34.3383 17.45 34.4847 17.1013 34.6092 16.7552C34.0092 15.7367 33.4178 14.5033 33.3093 13.3066C33.2174 12.2933 33.4468 11.3168 34.0951 10.5298C34.7458 9.73996 35.6103 9.34202 36.6076 9.25117ZM39.6767 13.7267C38.962 13.8151 38.2885 13.7045 37.59 13.5634C37.57 13.6478 37.5449 13.7682 37.5171 13.9019C37.4501 14.2236 37.3672 14.622 37.2995 14.7787C37.2653 14.8577 37.2118 14.9413 37.1363 14.9853C37.0631 15.028 36.9815 15.0358 36.9014 15.0097C36.8117 14.9805 36.7514 14.909 36.7135 14.8235C36.6918 14.7746 36.6754 14.7215 36.6592 14.6696L36.6473 14.6315L36.6395 14.629C36.6334 14.6271 36.6273 14.6253 36.6212 14.6233C36.4741 14.5757 36.3759 14.4404 36.2816 14.3104C36.1425 14.1187 36.0118 13.9384 35.7445 14.0675C35.6428 14.1167 35.5956 14.2022 35.563 14.3076C35.5016 14.5062 35.5001 14.7034 35.5965 14.8907C35.6416 14.9783 35.7393 15.0716 35.8403 15.1679C36.0124 15.3323 36.1938 15.5056 36.1392 15.6744C36.1091 15.7676 36.017 15.8598 35.9281 15.896C35.8849 15.9136 35.8329 15.9207 35.7853 15.9272L35.7631 15.9302C35.6154 16.2415 35.4776 16.5571 35.3497 16.8773L35.3381 16.9053C35.1001 17.4851 34.9287 17.9027 34.3796 18.2514C34.5909 18.713 34.9058 19.0661 35.3843 19.2434C35.6237 19.3321 35.8638 19.3544 36.1168 19.3529C36.2598 19.329 36.3943 19.2975 36.533 19.2548C36.7121 18.9593 36.9874 18.2957 37.0979 17.967C36.944 17.9247 36.8479 17.8929 36.7649 17.7459C36.7187 17.6641 36.7015 17.5724 36.7294 17.4811C36.758 17.3875 36.8378 17.2823 36.9281 17.2443C37.014 17.2081 37.1178 17.2161 37.2067 17.2346C37.4318 17.2815 37.6439 17.3598 37.8581 17.4389C38.1435 17.5442 38.4326 17.6509 38.7611 17.6866C38.9461 17.6141 39.0222 17.5534 39.1052 17.3674C39.1498 17.2678 39.1999 17.0897 39.2568 16.8879C39.3838 16.4367 39.5442 15.8671 39.7497 15.7908C39.831 15.7607 39.924 15.758 40.0114 15.7555L40.0471 15.7544C40.0094 15.6562 39.9625 15.5604 39.9157 15.4649C39.8591 15.3491 39.8025 15.2336 39.7625 15.1143C39.685 14.8834 39.6836 14.4591 39.6824 14.1005C39.682 13.9608 39.6815 13.8312 39.6767 13.7267Z" fill="white"/>
</svg>
