<svg width="66" height="67" viewBox="0 0 66 67" fill="none" xmlns="http://www.w3.org/2000/svg">
    <g filter="url(#filter0_d_2009_2057)">
        <rect x="1" width="64" height="64" rx="16" fill="#2EA33A" shape-rendering="crispEdges"/>
        <path fill-rule="evenodd" clip-rule="evenodd" d="M40.3622 14.5856V14.5856C40.3914 14.4453 40.4177 14.319 40.4387 14.2305Z" fill="white"/>
        <path fill-rule="evenodd" clip-rule="evenodd" d="M39.408 9.70615C40.1338 9.62684 40.5805 9.81201 41.1402 10.044C41.2706 10.0981 41.4071 10.1547 41.5547 10.2111C42.7332 10.6613 43.9476 10.8845 45.1252 10.2926C45.2741 10.2178 45.4214 10.1329 45.5591 10.0385C45.6015 10.0095 45.6435 9.97742 45.6859 9.94508C45.7774 9.87521 45.8706 9.8041 45.9725 9.75983C46.0947 9.70674 46.2093 9.71059 46.33 9.76679C46.4145 9.80617 46.4731 9.87439 46.503 9.96408C46.639 10.3739 46.2372 11.5896 46.0544 11.9734C45.5038 13.1294 44.5728 13.8457 43.3986 14.2564C43.4017 14.3542 43.4012 14.4774 43.4006 14.611C43.3992 14.9581 43.3975 15.3752 43.4575 15.5981C43.5034 15.7685 43.5977 15.9542 43.6926 16.141C43.8148 16.3814 43.9379 16.6237 43.9601 16.8382C43.9698 16.9327 43.9489 17.0195 43.889 17.0929C43.7383 17.2775 43.4728 17.3025 43.2403 17.3244C43.1993 17.3283 43.1593 17.3321 43.1211 17.3366C43.0756 17.4618 43.0317 17.6091 42.9851 17.7657C42.8232 18.3099 42.6278 18.9667 42.2101 19.201C41.751 19.4586 41.2363 19.2988 40.7679 19.1533C40.7298 19.1415 40.6921 19.1298 40.6547 19.1184C40.4721 19.5349 40.2871 19.9503 40.0997 20.3646C40.3924 20.7389 40.6264 21.1392 40.7713 21.5966C40.7952 21.6719 40.8143 21.7488 40.8333 21.8255C40.8773 22.0023 40.921 22.1784 41.0225 22.333C41.179 22.5713 41.382 22.7949 41.5822 23.0153C41.6921 23.1363 41.8012 23.2564 41.9013 23.3775L44.2372 26.1974C45.4981 25.4625 46.7628 24.7344 48.0311 24.013C48.0289 23.9396 48.0245 23.8622 48.02 23.7829C48.0051 23.5186 47.9889 23.2319 48.0456 22.9939C48.0489 22.9798 48.0526 22.9659 48.0566 22.9521C48.0606 22.9382 48.065 22.9245 48.0697 22.9109C48.0744 22.8973 48.0795 22.8838 48.0848 22.8705C48.0902 22.8572 48.096 22.844 48.102 22.831L48.1076 22.8192L48.1104 22.8134C48.1139 22.8064 48.1175 22.7993 48.1212 22.7924C48.1279 22.7797 48.135 22.7672 48.1423 22.7548L48.1486 22.7444C48.154 22.7357 48.1596 22.727 48.1653 22.7185C48.1701 22.7113 48.175 22.7042 48.18 22.6971L48.19 22.6834C48.1986 22.6719 48.2075 22.6606 48.2166 22.6496C48.2257 22.6386 48.2351 22.6278 48.2448 22.6173L48.2524 22.6091C48.2597 22.6014 48.2671 22.5939 48.2746 22.5865C48.2848 22.5765 48.2953 22.5668 48.306 22.5573C48.3167 22.5479 48.3276 22.5387 48.3387 22.5298C48.3499 22.521 48.3613 22.5124 48.3729 22.5041C48.3845 22.4959 48.3963 22.4879 48.4082 22.4802C48.4203 22.4726 48.4324 22.4653 48.4448 22.4582C48.7533 22.2859 49.0785 22.3276 49.4008 22.4199C49.4894 22.3647 49.5749 22.3046 49.66 22.2448C49.921 22.0613 50.1785 21.8803 50.5108 21.849C50.8088 21.8209 51.0884 21.9135 51.3125 22.1158C51.5765 22.3541 52.2639 23.4712 52.4131 23.8197C52.4616 23.9329 52.4941 24.0478 52.4991 24.1719C52.5105 24.4521 52.4165 24.7273 52.2265 24.931C52.02 25.1523 51.5657 25.4306 51.1974 25.6563C51.0812 25.7275 50.9735 25.7934 50.8849 25.8507C49.9986 26.4291 49.1091 27.0023 48.2162 27.5701L46.137 28.9156C46.0434 28.976 45.9491 29.0387 45.8544 29.1018C45.5664 29.2936 45.2726 29.4893 44.968 29.6357C44.6806 29.7738 44.3094 29.8414 43.9921 29.8429C42.8252 29.8483 42.1799 29.1299 41.4697 28.3391L41.4691 28.3384L41.4679 28.3371C41.4192 28.2828 41.3702 28.2283 41.3207 28.1736C41.1427 27.977 40.9668 27.7766 40.7905 27.5758C40.4418 27.1786 40.092 26.7801 39.7234 26.4078C39.5805 26.5841 39.4238 26.7484 39.2673 26.9126C39.0846 27.1042 38.902 27.2958 38.7413 27.5063C37.7702 28.779 37.261 30.3163 36.7615 31.8243L36.7097 31.9805C37.6134 32.8762 38.549 33.7459 39.4825 34.6136L39.484 34.6149L39.4847 34.6156C39.7789 34.8891 40.073 35.1625 40.3658 35.4364C40.5975 35.6531 40.8237 35.86 41.0427 36.0603L41.0442 36.0617C42.6831 37.5607 43.9426 38.7126 44.4723 41.2145C44.59 41.7701 44.6212 42.3353 44.6525 42.9008L44.6607 43.0466L44.6645 43.113L44.7876 45.3905L44.973 48.716C44.983 48.9045 44.9906 49.0944 44.9982 49.2849C45.019 49.806 45.04 50.3312 45.11 50.842C45.6047 51.1446 46.4765 51.6688 47.0251 51.7699C47.195 51.8012 47.3777 51.821 47.5506 51.8156C47.6435 51.8127 47.735 51.8046 47.8255 51.7966C48.1041 51.772 48.3733 51.7482 48.6451 51.8785C48.8368 51.9704 48.9801 52.1252 49.0442 52.3324C49.1181 52.571 49.0822 52.8126 48.9631 53.029C48.6387 53.6181 47.9294 54.0162 47.3132 54.1972C46.6694 54.3864 46.0647 54.4446 45.4152 54.273L45.3789 54.2634L45.3082 54.2443C45.0737 54.1808 44.8383 54.1172 44.5941 54.1152C44.3261 54.113 44.072 54.1711 43.8222 54.2282C43.3593 54.3342 42.9111 54.4367 42.4163 54.1457C42.0958 53.9573 41.9233 53.6193 41.8301 53.2672C41.6963 52.7616 41.7154 51.9349 41.9773 51.4725C41.8025 50.833 41.6641 50.1766 41.5262 49.5221C41.4519 49.1694 41.3777 48.8173 41.2979 48.4686C40.7917 46.2445 40.2737 44.0233 39.7439 41.805C39.4202 41.5419 39.0639 41.3095 38.7107 41.079C38.5763 40.9914 38.4424 40.904 38.3109 40.8153L35.8023 39.1252L33.76 37.7278C33.5765 38.006 33.38 38.2775 33.1838 38.5485C33.0771 38.6959 32.9706 38.8431 32.8662 38.9912L30.524 42.2905C29.7233 43.4239 28.6641 44.2587 27.3679 44.7245C26.5681 45.012 25.7043 45.0778 24.8538 45.1426C24.6305 45.1596 24.408 45.1766 24.1878 45.1975L19.3761 45.6589C19.1458 45.6819 18.9129 45.7002 18.6795 45.7185C18.2104 45.7553 17.7389 45.7923 17.2808 45.8686C16.5679 46.779 16.3992 47.7132 16.4033 48.8563C16.4036 48.9412 16.4074 49.0271 16.4113 49.1133C16.4265 49.4486 16.4418 49.7874 16.247 50.0793C16.1336 50.2493 15.9594 50.3763 15.7571 50.4048C15.5386 50.4355 15.3292 50.3422 15.1562 50.213C14.2044 49.5013 13.6768 48.2477 13.7223 47.0588C13.7283 46.9008 13.7533 46.7386 13.7783 46.5762C13.8128 46.3518 13.8474 46.1269 13.8323 45.912C13.8181 45.7112 13.7436 45.5272 13.669 45.3429C13.6022 45.1779 13.5353 45.0127 13.5114 44.8348C13.4584 44.4395 13.5939 44.0692 13.8285 43.7602C14.159 43.325 14.6512 43.1077 15.1887 43.1305C15.2492 43.133 15.3112 43.1389 15.3734 43.1447C15.5109 43.1576 15.6505 43.1707 15.7834 43.1496C16.0189 43.1121 16.271 43.0212 16.5129 42.934C16.6148 42.8973 16.715 42.8612 16.8114 42.83L19.0015 42.123L23.4393 40.7358C23.6312 40.6752 23.8241 40.6161 24.0171 40.557C24.4497 40.4244 24.883 40.2916 25.3084 40.1413C25.5066 40.0713 25.6806 40.0048 25.8425 39.8617C25.9971 39.7251 26.1547 39.5306 26.2532 39.3481C26.427 39.0261 26.5772 38.6822 26.7264 38.3407C26.801 38.17 26.8753 37.9999 26.9522 37.8334C27.4074 36.8661 27.8548 35.8952 28.2944 34.9205L28.926 33.5218C28.9547 33.4581 28.9858 33.3931 29.0174 33.3272C29.1092 33.1357 29.2045 32.9367 29.254 32.7387C29.2868 32.6073 29.2745 32.4364 29.2629 32.2745C29.2567 32.1881 29.2507 32.1043 29.2518 32.0305C29.2594 31.5061 29.3629 30.992 29.5257 30.4961C29.6791 30.0286 29.878 29.5668 30.0805 29.1189C30.1167 29.0387 30.1573 28.9589 30.1981 28.8787C30.2927 28.6925 30.3885 28.5042 30.434 28.3034C30.4879 28.0654 30.5261 27.8226 30.5643 27.5797C30.5972 27.3708 30.6301 27.1618 30.673 26.9556C31.0459 25.1644 31.5919 23.4013 32.6328 21.8918C32.1759 21.7971 31.7201 21.6934 31.2644 21.5897C30.5674 21.4311 29.8701 21.2724 29.1676 21.1457C28.7222 21.5679 28.3035 22.035 27.8882 22.4983C27.7269 22.6782 27.5661 22.8576 27.4045 23.0335C27.2103 23.2449 27.0136 23.4555 26.8165 23.6666C26.3137 24.205 25.8085 24.7459 25.3379 25.307C25.3642 25.3664 25.3867 25.4275 25.4091 25.4886C25.4357 25.5609 25.4622 25.6333 25.4953 25.703C25.5255 25.7666 25.5571 25.8273 25.588 25.8867C25.7091 26.1191 25.8198 26.3318 25.7937 26.6247C25.7924 26.6408 25.7906 26.6568 25.7884 26.6728C25.7863 26.6888 25.7837 26.7047 25.7808 26.7205C25.7778 26.7364 25.7745 26.7521 25.7707 26.7678C25.767 26.7835 25.7629 26.7991 25.7584 26.8146C25.7539 26.83 25.749 26.8454 25.7438 26.8606C25.7385 26.8758 25.7329 26.8909 25.7269 26.9058C25.7209 26.9207 25.7145 26.9355 25.7078 26.9501C25.701 26.9647 25.6939 26.9791 25.6865 26.9933C25.6791 27.0076 25.6713 27.0216 25.6631 27.0355C25.6549 27.0493 25.6465 27.0629 25.6377 27.0763C25.6289 27.0897 25.6197 27.1029 25.6102 27.1158C25.6008 27.1287 25.591 27.1414 25.5809 27.1538C25.5708 27.1663 25.5604 27.1784 25.5497 27.1903C25.539 27.2022 25.528 27.2138 25.5167 27.2251C25.5055 27.2364 25.4939 27.2475 25.4821 27.2582C25.4703 27.269 25.4582 27.2794 25.4459 27.2895C25.201 27.493 24.9417 27.53 24.6386 27.4987C24.5692 27.5791 24.4988 27.6694 24.4261 27.7626C24.2085 28.0417 23.971 28.3461 23.6827 28.4838C23.4225 28.608 23.0796 28.6038 22.8135 28.4995C22.4732 28.3662 21.1429 27.1621 20.9966 26.8301C20.8774 26.5594 20.8643 26.2396 20.9781 25.9645C21.1074 25.6521 21.6317 25.1398 22.0347 24.7461C22.1725 24.6114 22.2962 24.4906 22.3849 24.3964C22.589 24.1799 22.764 23.933 22.9377 23.688C22.9914 23.6122 23.045 23.5366 23.0992 23.4622C23.293 23.1965 23.4905 22.9333 23.688 22.6703C23.7867 22.5387 23.8855 22.4071 23.9838 22.2752L25.9847 19.598C26.074 19.4801 26.1655 19.3507 26.2595 19.2171L26.2784 19.1903C26.5794 18.7627 26.9076 18.2965 27.2791 18.0222C27.6313 17.7622 28.0735 17.5994 28.5068 17.5656C28.8764 17.5368 29.2668 17.601 29.6465 17.6634C29.7871 17.6865 29.9263 17.7094 30.0624 17.7272L33.7684 18.2323C33.9725 18.2618 34.1786 18.2945 34.3855 18.3274C34.9539 18.4178 35.5295 18.5093 36.0951 18.5367C36.2705 18.5452 36.4904 18.545 36.653 18.4733C37.0271 18.3082 37.1807 17.9424 37.3113 17.5793C36.6818 16.5107 36.0613 15.2166 35.9474 13.961C35.851 12.8979 36.0917 11.8733 36.7719 11.0477C37.4546 10.219 38.3617 9.80147 39.408 9.70615ZM42.628 14.4018C41.8782 14.4945 41.1716 14.3784 40.4387 14.2305C40.4177 14.319 40.3914 14.4453 40.3622 14.5856C40.2919 14.9231 40.2049 15.3411 40.1339 15.5055C40.098 15.5885 40.0419 15.6762 39.9627 15.7223C39.8859 15.7671 39.8002 15.7752 39.7162 15.7479C39.6221 15.7172 39.5588 15.6422 39.5191 15.5526C39.4964 15.5012 39.4791 15.4455 39.4622 15.391L39.4497 15.351L39.4414 15.3485C39.435 15.3465 39.4286 15.3445 39.4223 15.3425C39.2679 15.2926 39.1649 15.1506 39.0659 15.0142C38.92 14.813 38.7828 14.6239 38.5024 14.7594C38.3957 14.8109 38.3462 14.9006 38.312 15.0112C38.2476 15.2196 38.2461 15.4266 38.3472 15.6231C38.3945 15.7149 38.497 15.8128 38.6029 15.9139C38.7835 16.0864 38.9739 16.2681 38.9166 16.4452C38.8849 16.543 38.7883 16.6398 38.6951 16.6778C38.6498 16.6963 38.5951 16.7037 38.5452 16.7105L38.5219 16.7137C38.367 17.0402 38.2224 17.3714 38.0882 17.7073L38.0761 17.7367C37.8264 18.345 37.6465 18.7832 37.0704 19.149C37.2921 19.6333 37.6225 20.0038 38.1245 20.1898C38.3756 20.2829 38.6276 20.3063 38.893 20.3046C39.0431 20.2796 39.1842 20.2466 39.3297 20.2017C39.5176 19.8917 39.8065 19.1955 39.9224 18.8507C39.7609 18.8062 39.6601 18.7729 39.573 18.6187C39.5246 18.5329 39.5065 18.4367 39.5358 18.3408C39.5658 18.2426 39.6495 18.1322 39.7442 18.0924C39.8344 18.0544 39.9432 18.0627 40.0366 18.0822C40.2727 18.1315 40.4953 18.2136 40.72 18.2965C41.0194 18.407 41.3228 18.519 41.6674 18.5564C41.8614 18.4803 41.9413 18.4167 42.0284 18.2216C42.0752 18.117 42.1278 17.9302 42.1874 17.7184C42.3207 17.2451 42.489 16.6475 42.7046 16.5674C42.7899 16.5358 42.8875 16.533 42.9792 16.5303L43.0166 16.5292C42.977 16.4261 42.9279 16.3257 42.8788 16.2255C42.8193 16.104 42.76 15.9828 42.7181 15.8577C42.6368 15.6154 42.6353 15.1702 42.634 14.7939C42.6335 14.6474 42.6331 14.5114 42.628 14.4018Z" fill="white"/>
    </g>
    <defs>
        <filter id="filter0_d_2009_2057" x="0" y="0" width="66" height="67" filterUnits="userSpaceOnUse" color-interpolation-filters="sRGB">
            <feFlood flood-opacity="0" result="BackgroundImageFix"/>
            <feColorMatrix in="SourceAlpha" type="matrix" values="0 0 0 0 0 0 0 0 0 0 0 0 0 0 0 0 0 0 127 0" result="hardAlpha"/>
            <feOffset dy="2"/>
            <feGaussianBlur stdDeviation="0.5"/>
            <feComposite in2="hardAlpha" operator="out"/>
            <feColorMatrix type="matrix" values="0 0 0 0 0 0 0 0 0 0 0 0 0 0 0 0 0 0 0.25 0"/>
            <feBlend mode="normal" in2="BackgroundImageFix" result="effect1_dropShadow_2009_2057"/>
            <feBlend mode="normal" in="SourceGraphic" in2="effect1_dropShadow_2009_2057" result="shape"/>
        </filter>
    </defs>
</svg>
