<svg width="447" height="447" viewBox="0 0 447 447" fill="none" xmlns="http://www.w3.org/2000/svg">
    <rect width="447" height="447" fill="#2EA33A"/>
    <path fill-rule="evenodd" clip-rule="evenodd" d="M274.92 101.871C275.124 100.892 275.308 100.009 275.455 99.3912L274.92 101.871Z" fill="white"/>
    <path fill-rule="evenodd" clip-rule="evenodd" d="M268.256 67.7914C273.325 67.2374 276.445 68.5308 280.354 70.1514C281.265 70.5289 282.218 70.9241 283.249 71.3179C291.48 74.4624 299.962 76.0215 308.187 71.8876C309.227 71.3648 310.255 70.7722 311.218 70.1128C311.514 69.9101 311.807 69.686 312.103 69.4601C312.742 68.9722 313.393 68.4755 314.105 68.1663C314.958 67.7955 315.759 67.8224 316.602 68.2149C317.192 68.4899 317.601 68.9664 317.81 69.5928C318.76 72.4554 315.954 80.9464 314.677 83.6266C310.831 91.7004 304.329 96.7035 296.128 99.5719C296.149 100.255 296.146 101.116 296.142 102.048C296.132 104.473 296.12 107.386 296.539 108.943C296.86 110.133 297.518 111.43 298.181 112.735C299.034 114.414 299.894 116.106 300.049 117.604C300.117 118.264 299.971 118.871 299.553 119.383C298.501 120.673 296.646 120.847 295.022 121C294.736 121.027 294.456 121.054 294.19 121.085C293.872 121.96 293.565 122.989 293.24 124.083C292.109 127.883 290.744 132.47 287.827 134.107C284.62 135.906 281.025 134.79 277.754 133.774C277.488 133.692 277.224 133.61 276.963 133.53C275.688 136.439 274.396 139.34 273.087 142.234C275.131 144.848 276.766 147.644 277.778 150.839C277.944 151.365 278.078 151.902 278.211 152.438C278.518 153.673 278.823 154.903 279.532 155.982C280.625 157.647 282.043 159.208 283.441 160.747C284.209 161.593 284.971 162.431 285.67 163.277L301.984 182.973C310.792 177.84 319.624 172.754 328.483 167.716C328.467 167.203 328.437 166.663 328.406 166.109C328.301 164.263 328.188 162.26 328.584 160.598C328.607 160.5 328.633 160.403 328.661 160.306C328.689 160.209 328.72 160.114 328.752 160.019C328.785 159.923 328.821 159.829 328.858 159.736C328.896 159.643 328.936 159.551 328.978 159.46L329.017 159.378L329.037 159.338C329.061 159.288 329.086 159.239 329.112 159.191C329.159 159.102 329.208 159.014 329.259 158.928L329.304 158.856C329.341 158.795 329.38 158.734 329.42 158.674C329.454 158.624 329.488 158.574 329.523 158.525L329.593 158.429C329.653 158.349 329.715 158.27 329.778 158.193C329.842 158.116 329.908 158.041 329.975 157.968L330.029 157.91C330.079 157.857 330.131 157.804 330.184 157.753C330.255 157.683 330.328 157.615 330.403 157.549C330.477 157.483 330.554 157.419 330.632 157.357C330.709 157.295 330.789 157.235 330.87 157.177C330.951 157.119 331.033 157.064 331.117 157.01C331.201 156.957 331.286 156.906 331.372 156.857C333.527 155.653 335.798 155.944 338.05 156.589C338.668 156.203 339.265 155.784 339.86 155.366C341.682 154.085 343.481 152.82 345.802 152.601C347.883 152.405 349.836 153.052 351.402 154.465C353.245 156.129 358.046 163.931 359.088 166.365C359.427 167.156 359.654 167.959 359.689 168.826C359.768 170.783 359.112 172.705 357.785 174.128C356.343 175.673 353.17 177.617 350.597 179.193C349.786 179.69 349.034 180.151 348.415 180.551C342.225 184.591 336.012 188.594 329.776 192.56L315.254 201.957C314.6 202.379 313.942 202.817 313.28 203.258C311.268 204.598 309.217 205.964 307.089 206.987C305.082 207.952 302.489 208.423 300.273 208.434C292.123 208.472 287.616 203.454 282.655 197.931L282.651 197.926L282.643 197.917C282.303 197.538 281.96 197.157 281.615 196.775C280.372 195.402 279.143 194.002 277.912 192.6C275.476 189.825 273.033 187.042 270.459 184.442C269.461 185.674 268.367 186.821 267.273 187.967C265.997 189.306 264.722 190.644 263.599 192.115C256.817 201.003 253.26 211.741 249.772 222.273L249.41 223.364C255.721 229.62 262.257 235.694 268.777 241.754L268.786 241.764L268.791 241.768C270.847 243.679 272.901 245.588 274.946 247.501C276.564 249.015 278.143 250.46 279.673 251.859L279.684 251.868C291.131 262.338 299.927 270.383 303.627 287.857C304.449 291.738 304.667 295.686 304.886 299.635L304.942 300.653L304.969 301.117L305.829 317.024L307.124 340.251C307.194 341.567 307.247 342.894 307.3 344.224C307.445 347.864 307.592 351.532 308.081 355.099C311.536 357.213 317.625 360.875 321.457 361.581C322.643 361.799 323.919 361.938 325.126 361.9C325.775 361.879 326.415 361.823 327.047 361.767C328.992 361.595 330.873 361.429 332.772 362.339C334.11 362.981 335.111 364.062 335.559 365.509C336.075 367.176 335.824 368.863 334.992 370.374C332.726 374.489 327.773 377.269 323.469 378.534C318.972 379.855 314.749 380.262 310.212 379.063L309.959 378.996L309.465 378.862C307.827 378.419 306.183 377.975 304.478 377.961C302.606 377.945 300.831 378.351 299.086 378.75C295.853 379.49 292.723 380.206 289.267 378.174C287.028 376.858 285.824 374.498 285.173 372.038C284.238 368.507 284.372 362.733 286.201 359.503C284.98 355.036 284.014 350.452 283.05 345.881C282.531 343.418 282.013 340.958 281.456 338.523C277.92 322.989 274.302 307.476 270.602 291.982C268.341 290.144 265.853 288.521 263.385 286.911C262.447 286.299 261.512 285.689 260.593 285.07L243.072 273.265L228.808 263.505C227.527 265.448 226.154 267.344 224.784 269.238C224.039 270.266 223.295 271.294 222.566 272.329L206.206 295.373C200.614 303.289 193.216 309.119 184.164 312.373C178.577 314.381 172.544 314.84 166.604 315.293C165.044 315.412 163.49 315.53 161.952 315.676L128.345 318.899C126.737 319.06 125.11 319.187 123.48 319.315C120.204 319.572 116.911 319.831 113.711 320.363C108.732 326.722 107.554 333.247 107.582 341.231C107.584 341.823 107.611 342.424 107.639 343.026C107.744 345.368 107.851 347.734 106.491 349.772C105.699 350.96 104.482 351.847 103.069 352.046C101.543 352.261 100.08 351.609 98.8722 350.706C92.2243 345.736 88.5394 336.98 88.857 328.676C88.8991 327.573 89.0735 326.44 89.2481 325.306C89.4894 323.738 89.7312 322.168 89.6253 320.667C89.5264 319.264 89.0062 317.979 88.485 316.692C88.0185 315.54 87.5512 314.385 87.3846 313.143C87.0144 310.382 87.9605 307.796 89.5991 305.638C91.9074 302.598 95.3452 301.08 99.099 301.239C99.5218 301.257 99.9548 301.298 100.389 301.339C101.35 301.429 102.325 301.52 103.253 301.373C104.897 301.111 106.658 300.476 108.348 299.867C109.06 299.611 109.759 299.359 110.433 299.141L125.729 294.203L156.725 284.514C158.065 284.091 159.412 283.678 160.76 283.265C163.781 282.339 166.808 281.412 169.779 280.362C171.164 279.873 172.379 279.409 173.51 278.409C174.589 277.455 175.69 276.097 176.378 274.822C177.592 272.573 178.641 270.171 179.683 267.786C180.204 266.593 180.723 265.405 181.26 264.243C184.439 257.487 187.564 250.705 190.634 243.898L195.045 234.129C195.246 233.684 195.463 233.23 195.684 232.769C196.325 231.432 196.991 230.042 197.337 228.659C197.566 227.742 197.48 226.548 197.399 225.417C197.355 224.814 197.313 224.229 197.321 223.713C197.374 220.05 198.097 216.459 199.234 212.996C200.305 209.731 201.695 206.505 203.109 203.377C203.362 202.817 203.645 202.26 203.93 201.699C204.591 200.399 205.26 199.084 205.578 197.682C205.954 196.019 206.221 194.323 206.488 192.627C206.718 191.168 206.948 189.708 207.247 188.268C209.852 175.757 213.666 163.443 220.935 152.9C217.744 152.239 214.561 151.515 211.378 150.79C206.509 149.683 201.639 148.575 196.733 147.689C193.622 150.639 190.698 153.901 187.797 157.137C186.671 158.393 185.548 159.646 184.419 160.875C183.063 162.351 181.689 163.822 180.312 165.296C176.8 169.057 173.272 172.835 169.985 176.753C170.169 177.169 170.326 177.595 170.482 178.022C170.668 178.527 170.853 179.032 171.084 179.519C171.295 179.964 171.516 180.388 171.732 180.802C172.577 182.426 173.351 183.911 173.169 185.957C173.159 186.069 173.147 186.181 173.132 186.293C173.117 186.404 173.099 186.516 173.078 186.626C173.058 186.737 173.034 186.847 173.008 186.957C172.982 187.066 172.953 187.175 172.922 187.283C172.891 187.391 172.857 187.498 172.82 187.604C172.783 187.711 172.744 187.816 172.702 187.92C172.66 188.024 172.615 188.128 172.568 188.229C172.521 188.331 172.472 188.432 172.42 188.531C172.368 188.631 172.313 188.729 172.256 188.826C172.199 188.922 172.14 189.017 172.079 189.111C172.017 189.204 171.953 189.296 171.887 189.387C171.821 189.477 171.753 189.566 171.682 189.652C171.612 189.739 171.539 189.824 171.464 189.907C171.39 189.99 171.313 190.071 171.234 190.151C171.155 190.23 171.075 190.307 170.992 190.382C170.91 190.457 170.825 190.529 170.739 190.6C169.029 192.021 167.218 192.28 165.101 192.062C164.616 192.623 164.124 193.254 163.617 193.905C162.097 195.854 160.438 197.98 158.424 198.941C156.607 199.809 154.212 199.779 152.354 199.051C149.977 198.12 140.685 189.711 139.664 187.391C138.831 185.501 138.74 183.268 139.535 181.346C140.437 179.164 144.1 175.585 146.914 172.836C147.877 171.895 148.741 171.051 149.36 170.394C150.786 168.881 152.008 167.157 153.221 165.446C153.596 164.916 153.97 164.389 154.349 163.869C155.703 162.013 157.082 160.175 158.461 158.338C159.151 157.419 159.841 156.5 160.527 155.578L174.503 136.88C175.126 136.056 175.765 135.153 176.422 134.22L176.554 134.033C178.656 131.046 180.949 127.79 183.543 125.874C186.003 124.058 189.091 122.921 192.118 122.685C194.699 122.484 197.426 122.932 200.078 123.368C201.06 123.529 202.032 123.689 202.983 123.814L228.867 127.341C230.293 127.547 231.732 127.776 233.177 128.006C237.147 128.637 241.167 129.276 245.117 129.467C246.342 129.526 247.879 129.525 249.014 129.024C251.627 127.871 252.7 125.316 253.611 122.78C249.215 115.317 244.881 106.278 244.086 97.509C243.413 90.084 245.094 82.9277 249.844 77.1612C254.613 71.3732 260.948 68.4571 268.256 67.7914ZM290.745 100.588C285.509 101.235 280.573 100.424 275.455 99.3912C275.308 100.009 275.124 100.892 274.92 101.871C274.43 104.228 273.822 107.148 273.326 108.296C273.075 108.876 272.683 109.488 272.13 109.81C271.594 110.123 270.995 110.18 270.409 109.989C269.752 109.775 269.309 109.251 269.032 108.625C268.873 108.266 268.752 107.877 268.634 107.497L268.547 107.217L268.489 107.2C268.445 107.186 268.4 107.172 268.356 107.158C267.277 106.809 266.558 105.817 265.867 104.864C264.848 103.46 263.89 102.139 261.931 103.085C261.186 103.445 260.84 104.072 260.601 104.844C260.151 106.299 260.14 107.745 260.847 109.117C261.177 109.759 261.893 110.443 262.633 111.149C263.894 112.353 265.224 113.623 264.823 114.86C264.603 115.543 263.928 116.219 263.277 116.484C262.96 116.613 262.579 116.665 262.23 116.712L262.067 116.735C260.985 119.015 259.975 121.329 259.038 123.674L258.953 123.88C257.209 128.129 255.953 131.189 251.929 133.744C253.477 137.126 255.785 139.714 259.291 141.013C261.046 141.663 262.805 141.827 264.659 141.815C265.707 141.64 266.693 141.41 267.709 141.096C269.022 138.931 271.039 134.069 271.849 131.66C270.721 131.35 270.017 131.117 269.408 130.04C269.07 129.44 268.944 128.769 269.148 128.099C269.358 127.413 269.942 126.642 270.604 126.364C271.234 126.099 271.994 126.157 272.646 126.293C274.295 126.637 275.85 127.21 277.419 127.79C279.511 128.561 281.629 129.343 284.036 129.605C285.392 129.074 285.949 128.629 286.558 127.266C286.884 126.536 287.252 125.231 287.668 123.752C288.599 120.446 289.775 116.272 291.281 115.713C291.876 115.492 292.558 115.472 293.198 115.454L293.46 115.446C293.183 114.726 292.84 114.025 292.497 113.325C292.082 112.476 291.668 111.63 291.375 110.756C290.807 109.064 290.796 105.954 290.788 103.326C290.784 102.303 290.781 101.353 290.745 100.588Z" fill="white"/>
</svg>
