<svg width="49" height="48" viewBox="0 0 49 48" fill="none" xmlns="http://www.w3.org/2000/svg">
    <path d="M32.6592 13.567C15.8029 14.2044 7.00883 29.752 4.29416 38.7009C4.0948 39.3582 4.59616 40 5.27998 40C5.69462 40 6.07086 39.7481 6.24742 39.3711C12.5758 25.8598 26.8323 23.4829 32.8376 24.0174C33.3601 24.0641 33.7345 24.5154 33.7345 25.0426V29.5214C33.7345 30.4714 34.8714 30.9541 35.5495 30.2922L43.9257 22.1142C44.2994 21.7495 44.3571 21.1672 44.0624 20.7356L35.686 8.46867C35.0915 7.59803 33.7345 8.02078 33.7345 9.07668V12.4721C33.7345 13.0656 33.2493 13.5447 32.6592 13.567Z" fill="#2EA33A"/>
</svg>
