<svg width="447" height="447" viewBox="0 0 447 447" fill="none" xmlns="http://www.w3.org/2000/svg">
    <rect width="447" height="447" fill="#2EA33A"/>
    <path d="M233.722 98.0492C235.672 97.9214 238.915 97.4102 240.693 98.3656C240.887 98.8683 240.802 98.8922 240.599 99.4022C239.262 99.3673 234.322 99.8424 233.401 98.9795C233.391 98.4804 233.43 98.4606 233.722 98.0492Z" fill="white"/>
    <path d="M207.257 73.8531C207.674 73.8222 208.13 73.7687 208.543 73.8599C209.445 74.0587 210.283 74.9659 210.773 75.7046C211.225 76.387 211.613 77.1173 211.438 77.9364L211.065 77.9964C210.575 77.7477 210.346 77.5826 210.021 77.1153L209.171 75.9083C208.667 75.8186 208.221 75.8073 207.713 75.8105C206.359 76.6317 207.177 77.7238 206.395 78.6975C205.911 78.6208 205.835 78.5328 205.452 78.2127C205.29 77.8423 205.225 77.5481 205.287 77.1404C205.505 75.6941 206.131 74.733 207.257 73.8531Z" fill="white"/>
    <path d="M247.181 73.8518C247.73 73.7995 248.299 73.7577 248.838 73.9119C249.613 74.1342 250.344 74.6628 250.734 75.376C251.1 76.0446 251.147 76.8296 250.914 77.5506C250.564 78.6301 249.73 79.2233 248.778 79.7401C248.275 79.8363 247.7 79.8391 247.205 79.6979C246.445 79.4813 245.736 78.9827 245.358 78.2776C244.978 77.5684 244.938 76.7023 245.162 75.9379C245.496 74.7995 246.19 74.408 247.181 73.8518Z" fill="white"/>
    <path d="M229.535 73.8182C230.049 73.7845 230.627 73.7833 231.133 73.8871C231.914 74.0474 232.646 74.5788 233.079 75.2417C233.528 75.9282 233.634 76.7274 233.435 77.5189C233.132 78.7283 232.336 79.2711 231.314 79.8707C231.01 79.9255 230.717 79.9434 230.409 79.9251C229.561 79.8744 228.693 79.461 228.166 78.7839C227.6 78.0581 227.455 77.0986 227.627 76.2077C227.852 75.0357 228.604 74.462 229.535 73.8182Z" fill="white"/>
    <path d="M239.934 74.6332C240.407 74.7943 240.874 74.9164 241.202 75.3168C241.839 76.0937 242.681 89.7965 242.494 91.4582C241.502 92.2266 239.383 91.9877 238.174 92.0059C237.748 91.9386 237.28 91.7958 236.924 91.5439C236.539 91.272 236.41 91.0586 236.346 90.6059C236.449 90.3385 236.545 90.1349 236.765 89.9418C237.72 89.0999 238.623 89.2464 239.801 89.2902C239.542 86.4337 238.398 78.0836 238.954 75.7829C239.105 75.1549 239.433 74.9748 239.934 74.6332Z" fill="white"/>
    <path d="M175.944 306.114C178.718 307.101 181.409 308.511 184.082 309.747C189.157 312.094 194.233 314.456 199.455 316.465C200.645 318.153 201.691 319.93 202.908 321.612C207.145 319.156 211.279 316.486 215.449 313.913C213.926 316.688 212.841 319.691 211.524 322.567C209.597 326.702 207.572 330.788 205.45 334.827C203.382 338.236 200.335 340.898 196.543 342.199C189.013 344.785 182.38 341.059 175.732 337.913C172.665 336.462 169.547 335.118 166.498 333.629C173.954 325.538 175.824 316.758 175.944 306.114Z" fill="white"/>
    <path d="M296.116 171.017C297.317 172.624 298.824 177.756 299.646 179.885C300.801 182.871 302.451 185.674 303.427 188.727C307.172 200.432 307.737 219.271 307.454 231.636C308.038 231.908 308.597 232.202 309.126 232.571C311.448 234.193 312.234 237.265 312.633 239.918C313.136 243.255 313.847 247.684 311.636 250.554C310.388 252.175 308.506 253.143 306.497 253.397C304.253 253.683 301.812 253.132 300.034 251.697C296.368 248.739 297.625 243.205 297.237 239.063C296.182 239.942 295.682 241.293 295.07 242.481C294.724 243.154 294.352 243.897 293.536 244.063C292.524 244.269 291.384 243.385 290.553 242.895C290.868 241.54 291.255 240.242 291.776 238.951C293.887 233.721 295.662 233.191 300.465 231.128C299.633 211.402 291.205 196.883 280.236 181.222C285.026 177.357 290.635 173.821 296.116 171.017Z" fill="white"/>
    <path d="M110.855 138.524C112.273 139.869 113.839 143.261 115.19 145.041C117.766 148.435 120.971 151.21 124.062 154.108C121.283 156.147 118.512 158.178 115.94 160.478C103.43 171.664 93.3175 187.167 88.9071 203.408C91.0891 203.976 92.3355 204.712 93.7601 206.552C95.3188 208.565 98.1329 213.534 97.651 216.12C97.5295 216.774 97.1261 217.294 96.5819 217.653C95.9777 218.051 95.1913 218.304 94.4721 218.098C92.832 217.629 91.8718 215.078 91.1462 213.673C90.8777 215.374 90.6983 217.094 90.4909 218.804C90.3229 220.247 90.3184 221.753 89.9706 223.166C89.498 225.086 88.5451 226.865 86.7912 227.888C84.9791 228.946 82.4477 229.097 80.4561 228.527C80.2237 228.462 79.995 228.386 79.7701 228.298C79.5452 228.21 79.3253 228.111 79.1104 228C78.8955 227.89 78.6867 227.77 78.484 227.638C78.2815 227.507 78.086 227.366 77.8976 227.215C77.7089 227.064 77.5284 226.903 77.3562 226.734C77.1839 226.565 77.0206 226.387 76.8662 226.201C76.7118 226.015 76.5671 225.822 76.4321 225.622C76.2971 225.421 76.1725 225.215 76.0583 225.001C74.1222 221.408 75.2075 215.046 76.4219 211.309C77.4789 208.057 79.1983 205.71 82.2837 204.149C82.7413 201.263 83.0069 198.34 83.4362 195.448C86.0202 178.033 92.3302 161.787 102.783 147.585C105.073 144.474 107.754 140.826 110.855 138.524Z" fill="white"/>
    <path d="M107.655 280.19C108.437 280.156 109.205 280.14 109.972 280.329C113.664 281.238 117.387 284.269 119.393 287.444C131.713 291.053 144.005 294.857 156.405 298.174C155.906 306.79 152.87 315.925 147.35 322.65C141.002 318.429 134.516 314.408 128.164 310.186C122.911 306.769 117.594 303.439 112.482 299.813C106.414 303.977 99.7049 307.438 93.3673 311.186C91.4839 312.3 86.8585 315.431 85.1447 316.071C84.777 316.209 84.3777 316.266 83.9894 316.168C83.452 316.032 83.2973 315.78 82.9964 315.363L83.2305 315.349L83.0256 315.192C83.2434 314.546 83.5188 313.943 83.8509 313.349C85.237 310.873 87.0763 308.532 88.6642 306.172L97.3655 293.137C99.7316 289.644 102.288 284.963 104.959 281.921C105.806 280.956 106.425 280.539 107.655 280.19Z" fill="white"/>
    <path d="M252.998 291.663L253.257 291.815C254.547 294.956 255.491 298.317 256.529 301.557C258.275 307.001 260.397 312.749 261.218 318.408C261.365 319.444 261.436 320.486 261.429 321.533C261.422 322.579 261.338 323.619 261.178 324.654C260.334 330.102 257.793 335.557 255.954 340.738C246.346 341.538 237.669 338.825 229.38 334.125C228.114 333.303 226.906 332.354 225.686 331.462C226.476 329.178 227.77 326.892 228.754 324.668C224.552 321.044 220.529 317.231 216.685 313.23C221.64 310.074 226.76 307.188 231.794 304.163C238.818 299.944 245.819 295.613 252.998 291.663Z" fill="white"/>
    <path d="M220.622 353.518C228.534 360.365 237.158 362.657 247.457 363.014C244.202 368.978 241.463 375.306 238.359 381.364C234.73 388.447 230.715 395.365 227.178 402.483C235.919 406.327 244.802 409.882 253.557 413.712C255.023 414.296 256.287 414.781 257.243 416.094C257.279 416.497 257.371 416.681 257.048 416.984C256.293 417.692 255.078 417.842 254.096 417.917C251.789 418.092 249.346 417.937 247.026 417.929L232.282 417.878L217.84 417.903C215.343 417.906 212.601 418.133 210.133 417.778C209.415 417.675 208.881 417.323 208.46 416.733C207.341 415.164 207.772 412.572 208.11 410.787C208.775 407.281 210.502 402.805 213.555 400.746C214.738 396.12 215.201 390.408 215.908 385.616L220.622 353.518Z" fill="white"/>
    <path d="M226.896 30.1023C226.934 30.098 226.971 30.0922 227.008 30.0893C235.697 29.4017 244.237 32.7345 250.78 38.3922C255.541 42.5094 259.943 49.3212 260.417 55.7395C259.434 57.0349 258.203 58.0353 257.005 59.1222C255.882 60.1417 254.819 61.1527 253.458 61.8517C248.487 64.4068 242.508 62.2424 237.807 60.1543C235.545 59.1498 233.306 57.9931 230.827 57.648C228.688 57.35 226.577 57.6889 224.514 58.2755C212.024 61.8262 220.795 73.1845 218.097 77.254C217.804 77.6966 217.433 78.026 216.888 78.1072C216.215 78.207 215.668 77.8431 215.26 77.3469C214.762 76.7424 214.548 75.647 214.265 74.9014C213.125 71.9053 211.372 69.4581 208.775 67.5412C207.991 66.9627 207.056 66.6004 206.071 66.7692C204.641 67.0142 203.455 68.2167 202.636 69.3409C200.947 71.6586 200.418 74.5687 200.888 77.3696C201.258 79.5782 202.34 81.8412 204.253 83.1046C206.283 84.4446 208.72 84.3882 211.013 83.9585L211.066 84.389C212.084 92.5398 215.061 99.9057 221.735 105.04C225.908 108.25 231.056 110.254 236.361 109.516C241.574 108.791 244.924 105.546 248.007 101.519C252.057 103.171 255.976 104.778 259.783 106.955C263.767 109.234 267.3 111.928 270.396 115.328C279.424 125.239 285.562 139.205 290.397 151.552C291.663 154.783 293.052 158.05 293.964 161.4C286.459 165.102 279.477 169.643 273.325 175.335C268.739 168.41 262 159.914 256.478 153.73C254.051 158.382 251.81 163.095 249.217 167.666C245.658 173.941 241.752 180.007 238.239 186.315C233.554 194.842 229.045 203.461 224.712 212.172L251.562 279.813C246.302 283.163 240.862 286.255 235.511 289.459C225.299 295.61 215.052 301.703 204.772 307.74C202.697 309.02 200.601 310.266 198.484 311.476C196.254 308.677 193.573 304.455 190.933 302.212C188.59 300.222 184.865 298.95 182.071 297.635L168.913 291.448C169.184 285.966 170.312 280.527 170.722 275.047C168.368 272.111 166.355 268.669 164.262 265.529C156.21 253.448 149.499 242.255 150.941 227.089C151.67 219.43 154.397 209.828 160.519 204.771C161.234 200.999 161.569 197.06 161.888 193.235C163.305 176.266 162.791 157.866 157.701 141.486C152.603 143.215 147.554 145.077 142.554 147.072C139.916 148.111 137.025 149.082 134.612 150.587C127.678 144.583 122.014 136.484 118.79 127.881C121.373 125.458 124.249 123.301 127.026 121.107C146.901 105.404 171.462 93.8713 197.219 94.3383C196.098 100.223 195.778 105.956 198.014 111.636C200.309 117.466 204.461 122.357 210.287 124.845C210.612 124.986 210.94 125.119 211.272 125.244C211.604 125.369 211.939 125.486 212.276 125.594C212.614 125.702 212.954 125.802 213.296 125.893C213.639 125.984 213.984 126.067 214.331 126.141C214.677 126.215 215.026 126.28 215.375 126.337C215.725 126.394 216.076 126.441 216.429 126.48C216.781 126.519 217.134 126.55 217.488 126.571C217.842 126.593 218.196 126.605 218.55 126.609C218.905 126.612 219.259 126.607 219.613 126.593C219.967 126.579 220.321 126.556 220.674 126.525C221.027 126.493 221.379 126.453 221.73 126.403C222.081 126.354 222.431 126.296 222.779 126.229C223.127 126.162 223.474 126.087 223.818 126.003C224.162 125.919 224.505 125.826 224.844 125.725C225.184 125.624 225.521 125.514 225.856 125.396C226.19 125.278 226.521 125.152 226.849 125.017C232.784 122.557 236.863 117.848 239.295 111.978C238.641 112.15 237.986 112.322 237.324 112.458C231.615 113.623 225.741 111.683 221.02 108.483C213.365 103.296 210.015 95.8422 208.33 87.0362C207.178 87.0516 206.168 86.9432 205.04 86.7246C204.977 88.6748 205.363 92.4437 204.344 94.0738C204.135 94.1452 204.101 94.1683 203.847 94.1866C203.317 94.2247 202.703 94.1302 202.29 93.7874C201.852 91.1917 202.177 88.1879 202.196 85.5355C199.936 84.131 198.307 82.1974 196.957 79.9263C192.575 72.5544 190.879 62.4091 193.018 54.0646C194.206 49.432 196.668 45.0483 200.911 42.6109C204.027 40.8209 207.65 40.4607 211.088 41.4228C211.893 39.6914 212.71 38.0798 213.91 36.5865C217.253 32.4304 221.723 30.6951 226.896 30.1023Z" fill="white"/>
    <path d="M372 366.84C372 390.398 352.937 409.496 329.422 409.496C305.906 409.496 286.843 390.398 286.843 366.84C286.843 343.281 305.906 324.184 329.422 324.184C352.937 324.184 372 343.281 372 366.84Z" fill="white"/>
</svg>
