<svg width="66" height="67" viewBox="0 0 66 67" fill="none" xmlns="http://www.w3.org/2000/svg">
    <g filter="url(#filter0_d_2009_2059)">
        <rect x="1" width="64" height="64" rx="16" fill="#2EA33A" shape-rendering="crispEdges"/>
        <path d="M34.4636 14.038C34.7428 14.0197 35.2071 13.9465 35.4617 14.0833C35.4895 14.1553 35.4772 14.1587 35.4481 14.2317C35.2568 14.2267 34.5495 14.2947 34.4177 14.1712C34.4162 14.0997 34.4218 14.0969 34.4636 14.038Z" fill="white"/>
        <path d="M30.6744 10.5737C30.734 10.5692 30.7994 10.5616 30.8586 10.5746C30.9876 10.6031 31.1077 10.733 31.1778 10.8388C31.2426 10.9365 31.2981 11.041 31.273 11.1583L31.2196 11.1669C31.1495 11.1313 31.1167 11.1076 31.0701 11.0407L30.9484 10.8679C30.8763 10.8551 30.8124 10.8535 30.7397 10.8539C30.5459 10.9715 30.663 11.1279 30.5511 11.2673C30.4817 11.2563 30.4708 11.2437 30.416 11.1979C30.3928 11.1448 30.3835 11.1027 30.3923 11.0443C30.4236 10.8373 30.5133 10.6996 30.6744 10.5737Z" fill="white"/>
        <path d="M36.3905 10.5735C36.4692 10.566 36.5507 10.56 36.6278 10.5821C36.7388 10.6139 36.8435 10.6896 36.8993 10.7917C36.9517 10.8874 36.9585 10.9998 36.925 11.1031C36.875 11.2576 36.7556 11.3425 36.6193 11.4165C36.5472 11.4303 36.4649 11.4307 36.394 11.4105C36.2853 11.3795 36.1837 11.3081 36.1296 11.2071C36.0751 11.1056 36.0695 10.9816 36.1016 10.8722C36.1494 10.7092 36.2487 10.6531 36.3905 10.5735Z" fill="white"/>
        <path d="M33.8641 10.5687C33.9376 10.5638 34.0205 10.5637 34.0929 10.5785C34.2047 10.6015 34.3095 10.6776 34.3715 10.7725C34.4357 10.8708 34.4509 10.9852 34.4225 11.0985C34.3791 11.2717 34.2651 11.3494 34.1188 11.4353C34.0753 11.4431 34.0333 11.4456 33.9892 11.443C33.8678 11.4358 33.7436 11.3766 33.668 11.2796C33.5871 11.1757 33.5663 11.0383 33.5909 10.9108C33.6231 10.743 33.7308 10.6608 33.8641 10.5687Z" fill="white"/>
        <path d="M35.353 10.6854C35.4207 10.7084 35.4876 10.7259 35.5346 10.7832C35.6257 10.8945 35.7463 12.8564 35.7195 13.0943C35.5774 13.2043 35.2741 13.1701 35.1009 13.1727C35.0401 13.1631 34.973 13.1426 34.922 13.1066C34.8669 13.0677 34.8484 13.0371 34.8393 12.9723C34.8541 12.934 34.8678 12.9048 34.8992 12.8772C35.0361 12.7567 35.1653 12.7776 35.334 12.7839C35.2969 12.3749 35.133 11.1794 35.2126 10.85C35.2344 10.7601 35.2813 10.7343 35.353 10.6854Z" fill="white"/>
        <path d="M26.1911 43.8281C26.5883 43.9693 26.9736 44.1712 27.3562 44.3482C28.083 44.6843 28.8097 45.0224 29.5573 45.31C29.7277 45.5518 29.8774 45.8062 30.0517 46.0469C30.6584 45.6954 31.2503 45.313 31.8473 44.9447C31.6293 45.3419 31.4739 45.7719 31.2854 46.1837C31.0094 46.7757 30.7195 47.3608 30.4157 47.939C30.1196 48.4271 29.6833 48.8082 29.1405 48.9946C28.0623 49.3649 27.1126 48.8314 26.1608 48.3809C25.7216 48.1731 25.2751 47.9808 24.8386 47.7675C25.9061 46.609 26.1739 45.352 26.1911 43.8281Z" fill="white"/>
        <path d="M43.397 24.4853C43.5689 24.7153 43.7847 25.4502 43.9024 25.7549C44.0677 26.1826 44.3039 26.5838 44.4438 27.021C44.9799 28.6968 45.0608 31.3942 45.0203 33.1645C45.1038 33.2035 45.1839 33.2456 45.2596 33.2984C45.5921 33.5305 45.7047 33.9704 45.7618 34.3502C45.8338 34.8281 45.9356 35.4621 45.6191 35.8732C45.4404 36.1052 45.171 36.2437 44.8832 36.2802C44.562 36.3211 44.2125 36.2422 43.958 36.0367C43.4331 35.6132 43.613 34.821 43.5574 34.2279C43.4065 34.3537 43.3349 34.5472 43.2472 34.7173C43.1977 34.8135 43.1444 34.92 43.0275 34.9438C42.8826 34.9733 42.7194 34.8467 42.6005 34.7765C42.6455 34.5826 42.701 34.3967 42.7756 34.2119C43.0779 33.4631 43.332 33.3871 44.0196 33.0917C43.9005 30.2674 42.6938 28.1887 41.1233 25.9464C41.8092 25.393 42.6122 24.8868 43.397 24.4853Z" fill="white"/>
        <path d="M16.8719 19.8331C17.0749 20.0256 17.2991 20.5113 17.4925 20.7661C17.8614 21.2521 18.3203 21.6494 18.7628 22.0644C18.3649 22.3562 17.9682 22.647 17.5999 22.9763C15.8089 24.578 14.3609 26.7975 13.7295 29.1229C14.0419 29.2042 14.2203 29.3096 14.4243 29.5731C14.6475 29.8613 15.0504 30.5727 14.9814 30.943C14.964 31.0365 14.9062 31.1111 14.8283 31.1624C14.7418 31.2195 14.6292 31.2557 14.5262 31.2262C14.2914 31.159 14.1539 30.7938 14.05 30.5926C14.0116 30.8362 13.9859 31.0824 13.9562 31.3273C13.9322 31.5339 13.9315 31.7495 13.8817 31.9518C13.8141 32.2267 13.6776 32.4814 13.4265 32.6279C13.1671 32.7793 12.8046 32.801 12.5195 32.7194C12.4862 32.7101 12.4534 32.6991 12.4213 32.6865C12.3891 32.674 12.3576 32.6598 12.3268 32.644C12.296 32.6282 12.2661 32.6109 12.2371 32.5921C12.2081 32.5733 12.1801 32.5531 12.1532 32.5315C12.1261 32.5098 12.1003 32.4869 12.0756 32.4627C12.051 32.4384 12.0276 32.413 12.0055 32.3864C11.9834 32.3597 11.9626 32.3321 11.9433 32.3034C11.924 32.2747 11.9062 32.2451 11.8898 32.2146C11.6126 31.7001 11.768 30.7892 11.9419 30.2541C12.0932 29.7886 12.3394 29.4525 12.7811 29.229C12.8467 28.8158 12.8847 28.3973 12.9461 27.9832C13.3161 25.4898 14.2196 23.1638 15.7162 21.1304C16.044 20.6849 16.4279 20.1627 16.8719 19.8331Z" fill="white"/>
        <path d="M16.4137 40.1162C16.5257 40.1115 16.6357 40.1092 16.7454 40.1362C17.274 40.2663 17.8072 40.7004 18.0944 41.1549C19.8583 41.6716 21.6182 42.2163 23.3936 42.6912C23.3221 43.9248 22.8875 45.2328 22.0972 46.1956C21.1882 45.5912 20.2596 45.0155 19.3501 44.4111C18.598 43.9218 17.8368 43.4451 17.1048 42.9259C16.2361 43.522 15.2754 44.0176 14.3681 44.5542C14.0984 44.7137 13.4361 45.162 13.1908 45.2537C13.1381 45.2733 13.081 45.2816 13.0253 45.2675C12.9484 45.2481 12.9263 45.2119 12.8832 45.1523L12.9167 45.1502L12.8874 45.1278C12.9185 45.0353 12.958 44.9489 13.0055 44.8639C13.204 44.5094 13.4673 44.1742 13.6947 43.8364L14.9405 41.97C15.2793 41.4698 15.6452 40.7997 16.0277 40.3642C16.149 40.2259 16.2376 40.1663 16.4137 40.1162Z" fill="white"/>
        <path d="M37.2234 41.7589L37.2606 41.7807C37.4453 42.2305 37.5804 42.7117 37.729 43.1755C37.979 43.9551 38.2828 44.778 38.4003 45.5883C38.4215 45.7366 38.4316 45.8857 38.4306 46.0356C38.4296 46.1854 38.4176 46.3344 38.3946 46.4824C38.2739 47.2625 37.91 48.0436 37.6467 48.7854C36.2711 48.8999 35.0287 48.5115 33.8418 47.8385C33.6606 47.7208 33.4877 47.5849 33.313 47.4573C33.4261 47.1303 33.6114 46.803 33.7522 46.4845C33.1507 45.9657 32.5747 45.4198 32.0242 44.8469C32.7337 44.3949 33.4667 43.9818 34.1875 43.5487C35.1932 42.9446 36.1956 42.3245 37.2234 41.7589Z" fill="white"/>
        <path d="M32.588 50.6152C33.7208 51.5955 34.9556 51.9236 36.4301 51.9747C35.9641 52.8286 35.5719 53.7347 35.1275 54.602C34.6079 55.6162 34.033 56.6067 33.5266 57.6258C34.7781 58.1762 36.05 58.6852 37.3034 59.2336C37.5133 59.3171 37.6944 59.3866 37.8312 59.5746C37.8364 59.6323 37.8496 59.6586 37.8033 59.7021C37.6952 59.8034 37.5213 59.8249 37.3806 59.8356C37.0503 59.8607 36.7006 59.8385 36.3684 59.8374L34.2574 59.83L32.1896 59.8335C31.8322 59.834 31.4396 59.8665 31.0862 59.8157C30.9834 59.8009 30.9069 59.7506 30.8466 59.6661C30.6864 59.4414 30.7481 59.0703 30.7965 58.8147C30.8917 58.3127 31.139 57.6719 31.5761 57.3772C31.7455 56.7148 31.8118 55.897 31.913 55.2109L32.588 50.6152Z" fill="white"/>
        <path d="M33.4863 4.30957C33.4916 4.30895 33.4969 4.30812 33.5023 4.30771C34.7464 4.20926 35.9691 4.68645 36.9059 5.49649C37.5875 6.08598 38.2178 7.06126 38.2857 7.98021C38.1449 8.16569 37.9687 8.30893 37.7972 8.46454C37.6364 8.61051 37.4842 8.75526 37.2894 8.85535C36.5776 9.22118 35.7216 8.91128 35.0484 8.61231C34.7247 8.46849 34.404 8.30289 34.0491 8.25347C33.7428 8.2108 33.4406 8.25932 33.1452 8.34332C31.3569 8.85169 32.6127 10.4779 32.2265 11.0606C32.1845 11.124 32.1313 11.1711 32.0533 11.1828C31.957 11.197 31.8786 11.1449 31.8202 11.0739C31.7489 10.9873 31.7184 10.8305 31.6777 10.7238C31.5146 10.2948 31.2635 9.94441 30.8917 9.66995C30.7796 9.58712 30.6456 9.53525 30.5046 9.55941C30.2999 9.5945 30.1301 9.76666 30.0128 9.92762C29.771 10.2595 29.6953 10.6761 29.7625 11.0771C29.8155 11.3934 29.9704 11.7174 30.2443 11.8983C30.5349 12.0901 30.8839 12.082 31.2122 12.0205L31.2197 12.0822C31.3655 13.2492 31.7917 14.3038 32.7474 15.0389C33.3448 15.4986 34.0819 15.7855 34.8414 15.6798C35.5879 15.5759 36.0675 15.1114 36.5089 14.5347C37.0887 14.7713 37.6499 15.0013 38.1949 15.3131C38.7653 15.6394 39.2711 16.0252 39.7145 16.5119C41.0071 17.9309 41.8858 19.9306 42.5781 21.6983C42.7593 22.161 42.9582 22.6287 43.0888 23.1083C42.0143 23.6384 41.0147 24.2885 40.1338 25.1035C39.4771 24.1121 38.5123 22.8956 37.7218 22.0102C37.3742 22.6763 37.0533 23.351 36.6821 24.0054C36.1725 24.9039 35.6133 25.7725 35.1103 26.6756C34.4395 27.8964 33.794 29.1305 33.1736 30.3777L37.0178 40.0623C36.2648 40.5419 35.4859 40.9847 34.7197 41.4434C33.2575 42.3241 31.7905 43.1965 30.3186 44.0608C30.0215 44.2441 29.7214 44.4224 29.4184 44.5958C29.0991 44.195 28.7152 43.5904 28.3372 43.2694C28.0017 42.9844 27.4684 42.8023 27.0684 42.614L25.1844 41.7282C25.2232 40.9433 25.3848 40.1645 25.4435 39.3799C25.1064 38.9596 24.8182 38.4668 24.5186 38.0172C23.3657 36.2875 22.4048 34.6848 22.6113 32.5134C22.7156 31.4169 23.106 30.0422 23.9826 29.3181C24.0849 28.778 24.1329 28.2141 24.1787 27.6664C24.3815 25.2367 24.3079 22.6023 23.5792 20.2572C22.8493 20.5047 22.1264 20.7713 21.4105 21.0569C21.0327 21.2056 20.6188 21.3447 20.2733 21.5601C19.2806 20.7005 18.4696 19.5409 18.0081 18.3092C18.3779 17.9623 18.7896 17.6535 19.1872 17.3393C22.0328 15.091 25.5494 13.4398 29.2372 13.5067C29.0767 14.3493 29.0309 15.1701 29.351 15.9832C29.6796 16.8181 30.2741 17.5182 31.1082 17.8745C31.1547 17.8947 31.2018 17.9138 31.2493 17.9317C31.2968 17.9496 31.3447 17.9663 31.393 17.9818C31.4414 17.9972 31.4901 18.0115 31.5391 18.0246C31.5882 18.0377 31.6375 18.0495 31.6872 18.0601C31.7368 18.0707 31.7867 18.08 31.8368 18.0881C31.8869 18.0962 31.9371 18.1031 31.9876 18.1087C32.038 18.1142 32.0886 18.1186 32.1393 18.1216C32.1899 18.1247 32.2406 18.1265 32.2913 18.127C32.3421 18.1276 32.3928 18.1268 32.4435 18.1248C32.4942 18.1228 32.5449 18.1195 32.5954 18.115C32.646 18.1105 32.6964 18.1047 32.7467 18.0976C32.7969 18.0906 32.847 18.0823 32.8968 18.0727C32.9467 18.0632 32.9963 18.0523 33.0455 18.0403C33.0949 18.0283 33.1439 18.015 33.1925 18.0005C33.2412 17.986 33.2894 17.9704 33.3373 17.9535C33.3852 17.9366 33.4326 17.9185 33.4795 17.8992C34.3292 17.5469 34.9133 16.8727 35.2614 16.0323C35.1679 16.0569 35.074 16.0816 34.9792 16.1009C34.162 16.2677 33.321 15.9901 32.6449 15.5319C31.5489 14.7892 31.0693 13.722 30.828 12.4612C30.6631 12.4634 30.5185 12.4479 30.3569 12.4166C30.348 12.6958 30.4033 13.2354 30.2573 13.4688C30.2275 13.479 30.2225 13.4823 30.1862 13.4849C30.1102 13.4904 30.0223 13.4769 29.9633 13.4278C29.9005 13.0562 29.947 12.6261 29.9498 12.2463C29.6262 12.0452 29.393 11.7684 29.1997 11.4432C28.5722 10.3877 28.3294 8.93516 28.6357 7.74041C28.8059 7.07713 29.1583 6.44949 29.7658 6.10052C30.212 5.84422 30.7307 5.79265 31.2229 5.9304C31.3382 5.68251 31.4551 5.45176 31.627 5.23796C32.1056 4.64289 32.7456 4.39445 33.4863 4.30957Z" fill="white"/>
        <path d="M54.2618 52.5225C54.2618 55.8955 51.5324 58.6299 48.1656 58.6299C44.7987 58.6299 42.0693 55.8955 42.0693 52.5225C42.0693 49.1495 44.7987 46.4152 48.1656 46.4152C51.5324 46.4152 54.2618 49.1495 54.2618 52.5225Z" fill="white"/>
    </g>
    <defs>
        <filter id="filter0_d_2009_2059" x="0" y="0" width="66" height="67" filterUnits="userSpaceOnUse" color-interpolation-filters="sRGB">
            <feFlood flood-opacity="0" result="BackgroundImageFix"/>
            <feColorMatrix in="SourceAlpha" type="matrix" values="0 0 0 0 0 0 0 0 0 0 0 0 0 0 0 0 0 0 127 0" result="hardAlpha"/>
            <feOffset dy="2"/>
            <feGaussianBlur stdDeviation="0.5"/>
            <feComposite in2="hardAlpha" operator="out"/>
            <feColorMatrix type="matrix" values="0 0 0 0 0 0 0 0 0 0 0 0 0 0 0 0 0 0 0.25 0"/>
            <feBlend mode="normal" in2="BackgroundImageFix" result="effect1_dropShadow_2009_2059"/>
            <feBlend mode="normal" in="SourceGraphic" in2="effect1_dropShadow_2009_2059" result="shape"/>
        </filter>
    </defs>
</svg>
