<svg width="66" height="67" viewBox="0 0 66 67" fill="none" xmlns="http://www.w3.org/2000/svg">
    <g filter="url(#filter0_d_2008_2019)">
        <rect x="1" width="64" height="64" rx="16" fill="#243640"/>
        <path d="M34.3079 16.2431C34.5574 16.2276 34.9723 16.1657 35.1998 16.2814C35.2246 16.3423 35.2137 16.3452 35.1877 16.407C35.0167 16.4027 34.3846 16.4603 34.2668 16.3558C34.2655 16.2953 34.2705 16.2929 34.3079 16.2431Z" fill="white" fill-opacity="0.5"/>
        <path d="M30.9217 13.3121C30.9751 13.3084 31.0335 13.3019 31.0864 13.3129C31.2017 13.337 31.3089 13.4469 31.3716 13.5364C31.4295 13.619 31.4791 13.7075 31.4567 13.8067L31.4089 13.814C31.3463 13.7839 31.317 13.7639 31.2754 13.7073L31.1666 13.5611C31.1022 13.5502 31.0451 13.5488 30.9801 13.5492C30.8069 13.6487 30.9115 13.781 30.8115 13.8989C30.7495 13.8896 30.7398 13.879 30.6908 13.8402C30.6701 13.7953 30.6618 13.7597 30.6697 13.7103C30.6976 13.5351 30.7778 13.4187 30.9217 13.3121Z" fill="white" fill-opacity="0.5"/>
        <path d="M36.0298 13.3119C36.1002 13.3056 36.173 13.3005 36.2419 13.3192C36.341 13.3462 36.4346 13.4102 36.4845 13.4966C36.5313 13.5776 36.5374 13.6727 36.5075 13.76C36.4627 13.8908 36.3561 13.9626 36.2343 14.0252C36.1698 14.0369 36.0963 14.0372 36.0329 14.0201C35.9358 13.9939 35.845 13.9335 35.7966 13.8481C35.748 13.7622 35.7429 13.6572 35.7716 13.5646C35.8144 13.4267 35.9031 13.3793 36.0298 13.3119Z" fill="white" fill-opacity="0.5"/>
        <path d="M33.7721 13.3079C33.8379 13.3038 33.9119 13.3036 33.9766 13.3162C34.0766 13.3356 34.1702 13.4 34.2256 13.4803C34.283 13.5635 34.2966 13.6603 34.2712 13.7562C34.2324 13.9027 34.1305 13.9684 33.9997 14.041C33.9609 14.0477 33.9234 14.0498 33.884 14.0476C33.7755 14.0415 33.6644 13.9914 33.5969 13.9094C33.5246 13.8215 33.5061 13.7052 33.528 13.5973C33.5568 13.4553 33.653 13.3859 33.7721 13.3079Z" fill="white" fill-opacity="0.5"/>
        <path d="M35.1027 13.4066C35.1632 13.4261 35.2229 13.4409 35.2649 13.4894C35.3464 13.5835 35.4542 15.2434 35.4302 15.4447C35.3032 15.5378 35.0322 15.5088 34.8774 15.511C34.823 15.5029 34.7631 15.4856 34.7175 15.4551C34.6683 15.4221 34.6517 15.3963 34.6437 15.3414C34.6568 15.309 34.669 15.2844 34.6972 15.261C34.8195 15.159 34.9349 15.1768 35.0857 15.1821C35.0525 14.836 34.9061 13.8246 34.9772 13.5459C34.9967 13.4698 35.0386 13.448 35.1027 13.4066Z" fill="white" fill-opacity="0.5"/>
        <path d="M26.9154 41.4468C27.2704 41.5664 27.6147 41.7371 27.9566 41.8869C28.606 42.1712 29.2555 42.4573 29.9235 42.7006C30.0758 42.9052 30.2096 43.1204 30.3653 43.3241C30.9075 43.0267 31.4364 42.7032 31.9699 42.3915C31.7751 42.7276 31.6362 43.0914 31.4678 43.4398C31.2212 43.9407 30.9621 44.4357 30.6906 44.9249C30.426 45.3378 30.0361 45.6603 29.551 45.818C28.5875 46.1312 27.7389 45.6799 26.8883 45.2988C26.4959 45.1229 26.0969 44.9602 25.7068 44.7798C26.6607 43.7996 26.9 42.7362 26.9154 41.4468Z" fill="white" fill-opacity="0.5"/>
        <path d="M42.291 25.082C42.4446 25.2766 42.6374 25.8983 42.7426 26.1561C42.8903 26.5179 43.1014 26.8574 43.2264 27.2273C43.7055 28.6451 43.7777 30.9272 43.7416 32.425C43.8162 32.458 43.8878 32.4936 43.9555 32.5383C44.2526 32.7347 44.3532 33.1068 44.4043 33.4282C44.4686 33.8325 44.5595 34.3689 44.2767 34.7166C44.117 34.9129 43.8762 35.0302 43.6191 35.061C43.3321 35.0956 43.0197 35.0288 42.7923 34.855C42.3232 34.4967 42.484 33.8264 42.4343 33.3246C42.2994 33.4311 42.2354 33.5948 42.1572 33.7387C42.1129 33.8201 42.0653 33.9102 41.9608 33.9303C41.8313 33.9553 41.6855 33.8482 41.5792 33.7888C41.6194 33.6247 41.669 33.4675 41.7357 33.3111C42.0058 32.6776 42.2329 32.6133 42.8474 32.3634C42.7409 29.9739 41.6626 28.2153 40.2591 26.3182C40.872 25.85 41.5897 25.4216 42.291 25.082Z" fill="white" fill-opacity="0.5"/>
        <path d="M18.5875 21.146C18.7689 21.3089 18.9693 21.7198 19.1421 21.9353C19.4717 22.3465 19.8818 22.6827 20.2773 23.0337C19.9217 23.2806 19.5672 23.5267 19.2381 23.8053C17.6376 25.1604 16.3437 27.0382 15.7794 29.0056C16.0585 29.0744 16.218 29.1636 16.4003 29.3865C16.5997 29.6304 16.9598 30.2322 16.8981 30.5455C16.8826 30.6246 16.831 30.6877 16.7613 30.7311C16.684 30.7794 16.5834 30.81 16.4914 30.7851C16.2815 30.7282 16.1587 30.4193 16.0658 30.249C16.0315 30.4551 16.0085 30.6634 15.982 30.8706C15.9605 31.0454 15.9599 31.2278 15.9154 31.3989C15.855 31.6315 15.733 31.847 15.5086 31.971C15.2768 32.0991 14.9529 32.1174 14.6981 32.0484C14.6683 32.0405 14.6391 32.0312 14.6103 32.0206C14.5815 32.01 14.5534 31.9979 14.5259 31.9846C14.4984 31.9712 14.4717 31.9566 14.4458 31.9407C14.4199 31.9248 14.3948 31.9077 14.3707 31.8894C14.3466 31.8711 14.3235 31.8517 14.3015 31.8312C14.2794 31.8107 14.2585 31.7892 14.2388 31.7666C14.219 31.7441 14.2005 31.7207 14.1832 31.6964C14.166 31.6722 14.15 31.6471 14.1354 31.6213C13.8877 31.186 14.0265 30.4153 14.1819 29.9627C14.3172 29.5688 14.5372 29.2844 14.9319 29.0954C14.9905 28.7458 15.0245 28.3917 15.0794 28.0413C15.41 25.9318 16.2173 23.9639 17.5547 22.2436C17.8477 21.8667 18.1907 21.4248 18.5875 21.146Z" fill="white" fill-opacity="0.5"/>
        <path d="M18.1781 38.3065C18.2781 38.3024 18.3764 38.3005 18.4745 38.3234C18.9469 38.4335 19.4233 38.8007 19.68 39.1853C21.2563 39.6224 22.8289 40.0832 24.4155 40.485C24.3516 41.5287 23.9632 42.6353 23.257 43.4498C22.4446 42.9386 21.6149 42.4514 20.8021 41.9401C20.13 41.5262 19.4498 41.1228 18.7957 40.6835C18.0193 41.1879 17.1609 41.6072 16.35 42.0612C16.109 42.1961 15.5172 42.5754 15.298 42.653C15.2509 42.6696 15.1998 42.6766 15.1502 42.6647C15.0814 42.6483 15.0616 42.6176 15.0231 42.5672L15.0531 42.5655L15.0268 42.5464C15.0547 42.4683 15.0899 42.3951 15.1324 42.3232C15.3098 42.0233 15.5451 41.7397 15.7483 41.4539L16.8616 39.8748C17.1643 39.4517 17.4914 38.8847 17.8331 38.5162C17.9416 38.3993 18.0207 38.3488 18.1781 38.3065Z" fill="white" fill-opacity="0.5"/>
        <path d="M36.7741 39.6963L36.8073 39.7147C36.9724 40.0952 37.0931 40.5024 37.2259 40.8948C37.4493 41.5543 37.7208 42.2505 37.8258 42.936C37.8447 43.0616 37.8537 43.1877 37.8529 43.3145C37.852 43.4413 37.8413 43.5673 37.8207 43.6926C37.7128 44.3526 37.3877 45.0134 37.1524 45.641C35.9231 45.7378 34.8129 45.4093 33.7523 44.8398C33.5903 44.7403 33.4358 44.6253 33.2797 44.5173C33.3808 44.2407 33.5463 43.9637 33.6722 43.6943C33.1346 43.2554 32.6199 42.7935 32.128 42.3088C32.762 41.9264 33.417 41.5769 34.0612 41.2105C34.9599 40.6994 35.8556 40.1747 36.7741 39.6963Z" fill="white" fill-opacity="0.5"/>
        <path d="M32.6318 47.1891C33.6441 48.0184 34.7475 48.2961 36.0652 48.3393C35.6488 49.0617 35.2983 49.8283 34.9012 50.5621C34.4369 51.4201 33.9231 52.2582 33.4706 53.1204C34.5889 53.586 35.7255 54.0167 36.8456 54.4806C37.0332 54.5513 37.195 54.6101 37.3172 54.7692C37.3219 54.818 37.3337 54.8402 37.2923 54.877C37.1957 54.9627 37.0403 54.9809 36.9146 54.9899C36.6194 55.0111 36.3069 54.9924 36.0101 54.9914L34.1236 54.9852L32.2758 54.9882C31.9564 54.9886 31.6056 55.0161 31.2897 54.9731C31.1979 54.9606 31.1295 54.918 31.0757 54.8466C30.9325 54.6564 30.9876 54.3425 31.0309 54.1262C31.1159 53.7015 31.3369 53.1593 31.7275 52.91C31.8789 52.3496 31.9382 51.6577 32.0286 51.0772L32.6318 47.1891Z" fill="white" fill-opacity="0.5"/>
        <path d="M33.4346 8.01239C33.4393 8.01187 33.444 8.01117 33.4488 8.01082C34.5606 7.92753 35.6533 8.33125 36.4904 9.01658C37.0995 9.51531 37.6627 10.3405 37.7234 11.1179C37.5976 11.2748 37.4401 11.396 37.2869 11.5277C37.1431 11.6512 37.0071 11.7737 36.833 11.8583C36.197 12.1678 35.432 11.9057 34.8305 11.6527C34.5412 11.531 34.2546 11.3909 33.9375 11.3491C33.6637 11.313 33.3937 11.3541 33.1297 11.4251C31.5317 11.8552 32.6538 13.2311 32.3087 13.7241C32.2712 13.7777 32.2237 13.8176 32.154 13.8274C32.0679 13.8395 31.9979 13.7954 31.9457 13.7353C31.882 13.6621 31.8547 13.5294 31.8184 13.4391C31.6726 13.0762 31.4482 12.7797 31.1159 12.5475C31.0157 12.4774 30.896 12.4336 30.77 12.454C30.5871 12.4837 30.4353 12.6293 30.3305 12.7655C30.1145 13.0463 30.0468 13.3988 30.1069 13.7381C30.1542 14.0056 30.2927 14.2797 30.5375 14.4328C30.7971 14.5951 31.1089 14.5883 31.4024 14.5362L31.4091 14.5884C31.5394 15.5757 31.9202 16.468 32.7742 17.0899C33.3081 17.4788 33.9668 17.7215 34.6455 17.6321C35.3126 17.5442 35.7411 17.1512 36.1356 16.6633C36.6537 16.8635 37.1552 17.0581 37.6423 17.3219C38.152 17.598 38.604 17.9243 39.0002 18.3362C40.1553 19.5366 40.9405 21.2285 41.5592 22.724C41.7211 23.1155 41.8989 23.5112 42.0155 23.917C41.0554 24.3655 40.1621 24.9155 39.3749 25.605C38.7881 24.7662 37.9259 23.737 37.2195 22.9879C36.9088 23.5515 36.6221 24.1223 36.2904 24.676C35.835 25.4361 35.3353 26.171 34.8858 26.9351C34.2864 27.9679 33.7095 29.012 33.1551 30.0672L36.5904 38.2609C35.9175 38.6666 35.2214 39.0412 34.5368 39.4293C33.2301 40.1744 31.9191 40.9125 30.6038 41.6437C30.3383 41.7988 30.0701 41.9497 29.7993 42.0963C29.514 41.7573 29.171 41.2458 28.8332 40.9742C28.5334 40.7331 28.0568 40.579 27.6993 40.4196L26.0158 39.6703C26.0505 39.0062 26.1948 38.3473 26.2473 37.6835C25.946 37.3279 25.6885 36.911 25.4208 36.5306C24.3906 35.0672 23.5319 33.7112 23.7164 31.8742C23.8096 30.9464 24.1585 29.7833 24.9419 29.1708C25.0332 28.7138 25.0761 28.2367 25.117 27.7734C25.2983 25.7177 25.2325 23.4889 24.5813 21.5048C23.929 21.7142 23.283 21.9397 22.6433 22.1814C22.3057 22.3072 21.9358 22.4249 21.6271 22.6071C20.74 21.8799 20.0153 20.8988 19.6028 19.8568C19.9333 19.5632 20.3012 19.302 20.6565 19.0362C23.1994 17.1339 26.342 15.737 29.6375 15.7936C29.4941 16.5064 29.4531 17.2009 29.7391 17.8888C30.0328 18.5951 30.5641 19.1875 31.3094 19.4889C31.351 19.506 31.393 19.5222 31.4355 19.5373C31.4779 19.5525 31.5208 19.5666 31.564 19.5797C31.6072 19.5928 31.6507 19.6049 31.6945 19.6159C31.7383 19.627 31.7824 19.637 31.8268 19.6459C31.8712 19.6549 31.9157 19.6628 31.9605 19.6697C32.0053 19.6765 32.0502 19.6823 32.0953 19.6871C32.1403 19.6918 32.1855 19.6954 32.2308 19.698C32.276 19.7006 32.3213 19.7022 32.3667 19.7026C32.4121 19.7031 32.4574 19.7024 32.5027 19.7007C32.548 19.699 32.5933 19.6963 32.6385 19.6924C32.6836 19.6886 32.7287 19.6837 32.7736 19.6777C32.8185 19.6718 32.8632 19.6647 32.9078 19.6566C32.9523 19.6485 32.9966 19.6394 33.0407 19.6292C33.0848 19.619 33.1285 19.6078 33.172 19.5956C33.2155 19.5833 33.2586 19.57 33.3014 19.5557C33.3442 19.5415 33.3865 19.5262 33.4285 19.5099C34.1878 19.2117 34.7097 18.6413 35.0208 17.9304C34.9373 17.9512 34.8534 17.972 34.7687 17.9884C34.0383 18.1296 33.2868 17.8946 32.6827 17.507C31.7032 16.8786 31.2746 15.9757 31.059 14.909C30.9117 14.9109 30.7824 14.8978 30.6381 14.8713C30.6301 15.1075 30.6795 15.5641 30.5491 15.7615C30.5224 15.7702 30.518 15.773 30.4855 15.7752C30.4176 15.7798 30.3391 15.7683 30.2863 15.7268C30.2302 15.4124 30.2718 15.0485 30.2742 14.7272C29.9851 14.5571 29.7766 14.3229 29.6039 14.0478C29.0432 13.1548 28.8262 11.9259 29.1 10.915C29.252 10.3539 29.567 9.82286 30.1098 9.52762C30.5085 9.31077 30.9721 9.26715 31.4119 9.38369C31.515 9.17396 31.6194 8.97874 31.773 8.79785C32.2007 8.2944 32.7726 8.08421 33.4346 8.01239Z" fill="white" fill-opacity="0.5"/>
        <path d="M52 48.8027C52 51.6565 49.561 53.9698 46.5523 53.9698C43.5436 53.9698 41.1046 51.6565 41.1046 48.8027C41.1046 45.949 43.5436 43.6356 46.5523 43.6356C49.561 43.6356 52 45.949 52 48.8027Z" fill="white" fill-opacity="0.5"/>
    </g>
    <defs>
        <filter id="filter0_d_2008_2019" x="0" y="0" width="66" height="67" filterUnits="userSpaceOnUse" color-interpolation-filters="sRGB">
            <feFlood flood-opacity="0" result="BackgroundImageFix"/>
            <feColorMatrix in="SourceAlpha" type="matrix" values="0 0 0 0 0 0 0 0 0 0 0 0 0 0 0 0 0 0 127 0" result="hardAlpha"/>
            <feOffset dy="2"/>
            <feGaussianBlur stdDeviation="0.5"/>
            <feComposite in2="hardAlpha" operator="out"/>
            <feColorMatrix type="matrix" values="0 0 0 0 0 0 0 0 0 0 0 0 0 0 0 0 0 0 0.25 0"/>
            <feBlend mode="normal" in2="BackgroundImageFix" result="effect1_dropShadow_2008_2019"/>
            <feBlend mode="normal" in="SourceGraphic" in2="effect1_dropShadow_2008_2019" result="shape"/>
        </filter>
    </defs>
</svg>
