<svg width="61" height="61" viewBox="0 0 61 61" fill="none" xmlns="http://www.w3.org/2000/svg">
    <rect width="61" height="61" fill="white" fill-opacity="0.2"/>
    <path d="M31.8944 13.3801C32.1606 13.3627 32.6031 13.2929 32.8458 13.4233C32.8722 13.4919 32.8606 13.4952 32.8328 13.5647C32.6505 13.56 31.9763 13.6248 31.8507 13.5071C31.8493 13.439 31.8546 13.4362 31.8944 13.3801Z" fill="white"/>
    <path d="M28.2828 10.0782C28.3397 10.074 28.402 10.0667 28.4584 10.0791C28.5814 10.1062 28.6958 10.23 28.7627 10.3308C28.8244 10.424 28.8774 10.5236 28.8534 10.6354L28.8025 10.6436C28.7357 10.6097 28.7044 10.5871 28.66 10.5233L28.544 10.3586C28.4753 10.3464 28.4144 10.3449 28.3451 10.3453C28.1604 10.4574 28.272 10.6064 28.1653 10.7393C28.0992 10.7288 28.0888 10.7168 28.0365 10.6731C28.0144 10.6226 28.0056 10.5824 28.014 10.5268C28.0438 10.3294 28.1293 10.1983 28.2828 10.0782Z" fill="white"/>
    <path d="M33.7311 10.078C33.8061 10.0709 33.8837 10.0652 33.9572 10.0862C34.063 10.1165 34.1628 10.1887 34.216 10.286C34.266 10.3772 34.2724 10.4844 34.2405 10.5828C34.1928 10.7301 34.079 10.811 33.9491 10.8816C33.8804 10.8947 33.8019 10.8951 33.7343 10.8758C33.6307 10.8462 33.5339 10.7782 33.4823 10.682C33.4304 10.5852 33.425 10.467 33.4556 10.3627C33.5012 10.2073 33.5958 10.1539 33.7311 10.078Z" fill="white"/>
    <path d="M31.323 10.0734C31.3931 10.0688 31.4721 10.0686 31.5411 10.0828C31.6477 10.1047 31.7476 10.1772 31.8067 10.2677C31.8679 10.3614 31.8824 10.4704 31.8553 10.5784C31.8139 10.7435 31.7053 10.8175 31.5658 10.8994C31.5243 10.9069 31.4843 10.9093 31.4423 10.9068C31.3266 10.8999 31.2082 10.8435 31.1362 10.7511C31.059 10.652 31.0392 10.5211 31.0626 10.3995C31.0933 10.2396 31.196 10.1613 31.323 10.0734Z" fill="white"/>
    <path d="M32.7422 10.1846C32.8067 10.2066 32.8704 10.2233 32.9152 10.2779C33.0021 10.3839 33.117 12.2539 33.0915 12.4807C32.9561 12.5855 32.667 12.5529 32.5019 12.5554C32.4439 12.5462 32.38 12.5267 32.3313 12.4924C32.2789 12.4553 32.2612 12.4261 32.2526 12.3644C32.2666 12.3279 32.2797 12.3001 32.3097 12.2737C32.4401 12.1588 32.5633 12.1788 32.724 12.1848C32.6887 11.795 32.5325 10.6555 32.6084 10.3415C32.6291 10.2558 32.6738 10.2312 32.7422 10.1846Z" fill="white"/>
    <path d="M24.0097 41.7738C24.3883 41.9084 24.7556 42.1008 25.1202 42.2695C25.8129 42.5899 26.5056 42.9121 27.2181 43.1862C27.3805 43.4167 27.5233 43.6592 27.6893 43.8886C28.2677 43.5536 28.8318 43.1891 29.4008 42.838C29.193 43.2167 29.0449 43.6265 28.8652 44.0189C28.6022 44.5833 28.3259 45.1409 28.0363 45.692C27.7541 46.1573 27.3382 46.5205 26.8208 46.6982C25.7932 47.051 24.888 46.5426 23.9808 46.1132C23.5623 45.9151 23.1367 45.7318 22.7206 45.5285C23.7381 44.4244 23.9933 43.2263 24.0097 41.7738Z" fill="white"/>
    <path d="M40.4091 23.3377C40.573 23.5569 40.7786 24.2574 40.8908 24.5478C41.0483 24.9554 41.2735 25.3378 41.4068 25.7545C41.9178 27.3518 41.9949 29.9227 41.9563 31.6101C42.0359 31.6473 42.1122 31.6873 42.1844 31.7377C42.5013 31.9589 42.6086 32.3782 42.6631 32.7402C42.7317 33.1957 42.8287 33.8 42.527 34.1918C42.3567 34.4129 42.0999 34.545 41.8256 34.5797C41.5195 34.6187 41.1864 34.5435 40.9438 34.3477C40.4435 33.944 40.615 33.1889 40.562 32.6236C40.4181 32.7435 40.3499 32.928 40.2664 33.0901C40.2191 33.1818 40.1684 33.2832 40.0569 33.3059C39.9188 33.3341 39.7633 33.2134 39.6499 33.1465C39.6928 32.9617 39.7457 32.7845 39.8168 32.6084C40.1049 31.8947 40.3471 31.8223 41.0025 31.5407C40.8889 28.8488 39.7388 26.8675 38.2419 24.7304C38.8957 24.2029 39.6611 23.7204 40.4091 23.3377Z" fill="white"/>
    <path d="M15.1273 18.9036C15.3208 19.0871 15.5345 19.55 15.7189 19.7928C16.0704 20.256 16.5078 20.6348 16.9296 21.0302C16.5503 21.3084 16.1723 21.5855 15.8213 21.8994C14.1142 23.426 12.7341 25.5415 12.1322 27.7579C12.43 27.8354 12.6001 27.9359 12.7945 28.187C13.0072 28.4617 13.3912 29.1397 13.3254 29.4927C13.3089 29.5819 13.2538 29.6529 13.1796 29.7018C13.0971 29.7562 12.9898 29.7907 12.8916 29.7626C12.6678 29.6986 12.5368 29.3505 12.4378 29.1587C12.4011 29.3909 12.3766 29.6255 12.3483 29.859C12.3254 30.0559 12.3248 30.2614 12.2773 30.4542C12.2128 30.7162 12.0828 30.959 11.8435 31.0987C11.5962 31.2429 11.2507 31.2636 10.9789 31.1858C10.9472 31.1769 10.916 31.1665 10.8853 31.1545C10.8546 31.1425 10.8246 31.129 10.7953 31.1139C10.766 31.0989 10.7375 31.0824 10.7098 31.0645C10.6822 31.0466 10.6555 31.0273 10.6298 31.0067C10.604 30.9861 10.5794 30.9642 10.5559 30.9411C10.5324 30.918 10.5101 30.8938 10.489 30.8684C10.468 30.843 10.4482 30.8167 10.4298 30.7893C10.4114 30.762 10.3944 30.7338 10.3788 30.7047C10.1146 30.2143 10.2627 29.3461 10.4284 28.8361C10.5727 28.3924 10.8073 28.072 11.2283 27.8591C11.2908 27.4653 11.327 27.0663 11.3856 26.6716C11.7383 24.2951 12.5994 22.0781 14.0258 20.14C14.3383 19.7155 14.7041 19.2177 15.1273 18.9036Z" fill="white"/>
    <path d="M14.6907 38.236C14.7974 38.2314 14.9022 38.2293 15.0068 38.255C15.5106 38.379 16.0188 38.7927 16.2925 39.226C17.9738 39.7184 19.6512 40.2376 21.3434 40.6902C21.2752 41.866 20.8609 43.1126 20.1077 44.0303C19.2413 43.4543 18.3563 42.9055 17.4894 42.3295C16.7726 41.8631 16.047 41.4087 15.3494 40.9139C14.5213 41.4821 13.6057 41.9544 12.7409 42.4659C12.4839 42.6179 11.8526 43.0452 11.6188 43.1326C11.5686 43.1513 11.5141 43.1592 11.4611 43.1458C11.3878 43.1273 11.3667 43.0928 11.3256 43.0359L11.3575 43.034L11.3296 43.0126C11.3593 42.9245 11.3969 42.8421 11.4422 42.7611C11.6314 42.4232 11.8824 42.1037 12.0991 41.7817L13.2865 40.0028C13.6094 39.5261 13.9582 38.8874 14.3227 38.4722C14.4384 38.3405 14.5228 38.2836 14.6907 38.236Z" fill="white"/>
    <path d="M34.5249 39.8016L34.5603 39.8224C34.7363 40.2511 34.8651 40.7098 35.0068 41.1518C35.245 41.8948 35.5346 42.6792 35.6466 43.4515C35.6668 43.5929 35.6764 43.735 35.6755 43.8778C35.6746 44.0206 35.6631 44.1626 35.6412 44.3037C35.5261 45.0473 35.1793 45.7917 34.9284 46.4987C33.6172 46.6079 32.4331 46.2377 31.3018 45.5962C31.1291 45.484 30.9643 45.3545 30.7978 45.2329C30.9056 44.9212 31.0822 44.6092 31.2164 44.3057C30.6431 43.8112 30.0941 43.2909 29.5694 42.7448C30.2457 42.3141 30.9443 41.9203 31.6313 41.5076C32.5898 40.9317 33.5452 40.3407 34.5249 39.8016Z" fill="white"/>
    <path d="M30.1067 48.2428C31.1865 49.1771 32.3634 49.4899 33.7688 49.5386C33.3246 50.3524 32.9508 51.216 32.5272 52.0427C32.032 53.0093 31.484 53.9534 31.0014 54.9248C32.1942 55.4493 33.4065 55.9345 34.6012 56.4571C34.8012 56.5368 34.9738 56.603 35.1042 56.7822C35.1091 56.8372 35.1217 56.8623 35.0776 56.9037C34.9745 57.0003 34.8088 57.0207 34.6747 57.0309C34.3599 57.0549 34.0266 57.0338 33.71 57.0327L31.6979 57.0256L29.7271 57.029C29.3864 57.0294 29.0122 57.0604 28.6753 57.012C28.5773 56.9979 28.5044 56.9499 28.447 56.8694C28.2943 56.6552 28.3531 56.3016 28.3993 56.0579C28.49 55.5795 28.7257 54.9686 29.1423 54.6878C29.3038 54.0565 29.367 53.277 29.4634 52.6231L30.1067 48.2428Z" fill="white"/>
    <path d="M30.963 4.10771C30.9681 4.10712 30.9731 4.10633 30.9782 4.10593C32.164 4.0121 33.3294 4.46692 34.2222 5.239C34.872 5.80085 35.4727 6.73042 35.5374 7.60629C35.4032 7.78308 35.2352 7.9196 35.0718 8.06792C34.9185 8.20705 34.7734 8.34501 34.5877 8.44041C33.9093 8.78909 33.0934 8.49372 32.4518 8.20877C32.1433 8.07168 31.8376 7.91384 31.4994 7.86675C31.2074 7.82608 30.9194 7.87232 30.6378 7.95238C28.9334 8.43692 30.1303 9.98693 29.7622 10.5423C29.7222 10.6027 29.6715 10.6476 29.5971 10.6587C29.5054 10.6723 29.4307 10.6227 29.3749 10.555C29.307 10.4725 29.2779 10.323 29.2392 10.2212C29.0837 9.81237 28.8444 9.47842 28.49 9.21682C28.3831 9.13788 28.2554 9.08844 28.121 9.11147C27.9259 9.14491 27.764 9.309 27.6522 9.46242C27.4218 9.77871 27.3496 10.1758 27.4137 10.5581C27.4642 10.8595 27.6119 11.1683 27.873 11.3407C28.1499 11.5235 28.4825 11.5158 28.7955 11.4572L28.8026 11.516C28.9416 12.6283 29.3478 13.6334 30.2586 14.3341C30.8281 14.7722 31.5306 15.0457 32.2545 14.945C32.966 14.846 33.4231 14.4032 33.8439 13.8536C34.3965 14.079 34.9314 14.2983 35.4508 14.5954C35.9945 14.9065 36.4766 15.2741 36.8992 15.7381C38.1312 17.0905 38.9687 18.9965 39.6286 20.6813C39.8013 21.1223 39.9909 21.5682 40.1153 22.0252C39.0912 22.5305 38.1384 23.1501 37.2989 23.9269C36.673 22.982 35.7534 21.8225 34.9999 20.9786C34.6686 21.6135 34.3628 22.2566 34.009 22.8803C33.5232 23.7367 32.9903 24.5645 32.5108 25.4253C31.8715 26.5889 31.2562 27.7651 30.6649 28.9539L34.329 38.1846C33.6112 38.6417 32.8688 39.0637 32.1386 39.5009C30.7449 40.3403 29.3466 41.1718 27.9438 41.9956C27.6606 42.1703 27.3745 42.3403 27.0857 42.5055C26.7814 42.1235 26.4155 41.5473 26.0552 41.2413C25.7355 40.9697 25.2272 40.7961 24.8459 40.6166L23.0502 39.7723C23.0872 39.0243 23.2412 38.282 23.2972 37.5342C22.9758 37.1335 22.7012 36.6638 22.4156 36.2353C21.3168 34.5867 20.4009 33.0591 20.5977 30.9895C20.6971 29.9444 21.0693 28.6341 21.9048 27.944C22.0023 27.4292 22.048 26.8917 22.0916 26.3697C22.2849 24.0539 22.2148 21.543 21.5202 19.3078C20.8245 19.5437 20.1355 19.7978 19.4532 20.07C19.0931 20.2117 18.6986 20.3443 18.3693 20.5496C17.4231 19.7303 16.6502 18.6251 16.2103 17.4512C16.5627 17.1205 16.9551 16.8262 17.3341 16.5267C20.0463 14.3837 23.3981 12.81 26.9131 12.8737C26.7601 13.6768 26.7164 14.4591 27.0215 15.2342C27.3347 16.0299 27.9014 16.6972 28.6963 17.0368C28.7407 17.0561 28.7855 17.0742 28.8308 17.0913C28.8761 17.1083 28.9217 17.1242 28.9678 17.139C29.0139 17.1538 29.0603 17.1674 29.107 17.1798C29.1538 17.1923 29.2008 17.2036 29.2482 17.2136C29.2955 17.2238 29.343 17.2327 29.3908 17.2404C29.4385 17.2481 29.4864 17.2547 29.5345 17.26C29.5826 17.2653 29.6308 17.2694 29.6791 17.2723C29.7273 17.2753 29.7756 17.277 29.824 17.2775C29.8724 17.278 29.9207 17.2773 29.9691 17.2754C30.0174 17.2735 30.0657 17.2703 30.1139 17.266C30.162 17.2617 30.2101 17.2562 30.258 17.2495C30.3059 17.2427 30.3536 17.2348 30.4011 17.2257C30.4486 17.2166 30.4959 17.2063 30.5429 17.1948C30.5899 17.1833 30.6366 17.1707 30.683 17.1569C30.7293 17.1431 30.7753 17.1281 30.8209 17.1121C30.8666 17.096 30.9117 17.0787 30.9565 17.0603C31.7664 16.7245 32.323 16.0819 32.6549 15.281C32.5657 15.3044 32.4763 15.3279 32.3859 15.3463C31.6069 15.5053 30.8054 15.2407 30.161 14.804C29.1164 14.0961 28.6592 13.0789 28.4292 11.8772C28.2721 11.8793 28.1342 11.8645 27.9803 11.8347C27.9718 12.1008 28.0244 12.6151 27.8853 12.8376C27.8569 12.8473 27.8522 12.8505 27.8176 12.853C27.7451 12.8582 27.6614 12.8453 27.6051 12.7985C27.5453 12.4443 27.5896 12.0344 27.5922 11.6724C27.2838 11.4807 27.0615 11.2169 26.8772 10.907C26.2792 9.90095 26.0478 8.51648 26.3398 7.37773C26.5019 6.74554 26.8378 6.14732 27.4169 5.81471C27.8421 5.57042 28.3365 5.52127 28.8056 5.65256C28.9155 5.41629 29.027 5.19636 29.1908 4.99258C29.647 4.42541 30.2569 4.18861 30.963 4.10771Z" fill="white"/>
    <path d="M50.7646 50.0607C50.7646 53.2756 48.1631 55.8818 44.9541 55.8818C41.7451 55.8818 39.1437 53.2756 39.1437 50.0607C39.1437 46.8458 41.7451 44.2396 44.9541 44.2396C48.1631 44.2396 50.7646 46.8458 50.7646 50.0607Z" fill="white"/>
</svg>
