<svg width="61" height="61" viewBox="0 0 61 61" fill="none" xmlns="http://www.w3.org/2000/svg">
    <rect width="61" height="61" fill="white" fill-opacity="0.2"/>
    <path d="M30.5586 45.9287C30.7329 45.9494 30.9053 46.0446 31.0663 46.1162C31.1731 46.377 31.2291 46.6617 31.3367 46.9237C31.4381 47.1707 31.6053 47.3846 31.6904 47.6395C31.6511 47.6948 31.5943 47.7124 31.5361 47.7413C31.4363 47.7967 31.3339 47.8453 31.2312 47.8945C31.084 47.5245 30.9645 47.1364 30.8324 46.7597C30.7393 46.4943 30.601 46.2074 30.5586 45.9287Z" fill="white"/>
    <path d="M35.7215 46.1074C35.865 46.2404 36.2796 48.0577 36.4818 48.4266C36.6882 48.8032 37.0981 48.9319 37.112 49.4323C37.1124 49.4464 37.1124 49.4605 37.1121 49.4746C37.1117 49.4887 37.1109 49.5028 37.1099 49.5169C37.1087 49.531 37.1073 49.545 37.1054 49.559C37.1036 49.573 37.1014 49.587 37.0988 49.6008C37.0963 49.6147 37.0933 49.6285 37.09 49.6422C37.0867 49.656 37.0831 49.6696 37.0791 49.6832C37.0751 49.6967 37.0707 49.7102 37.066 49.7235C37.0613 49.7368 37.0562 49.75 37.0508 49.7631C37.0454 49.7761 37.0397 49.7891 37.0336 49.8018C37.0275 49.8146 37.0211 49.8272 37.0143 49.8396C37.0076 49.852 37.0005 49.8643 36.9931 49.8763C36.9858 49.8884 36.9781 49.9003 36.97 49.912C36.962 49.9236 36.9537 49.9351 36.9451 49.9463C36.9365 49.9575 36.9276 49.9685 36.9184 49.9793C36.9092 49.9901 36.8998 50.0006 36.89 50.0109C36.8803 50.0212 36.8703 50.0312 36.86 50.041C36.7719 50.1257 36.6481 50.2105 36.5267 50.237C36.1814 50.3124 35.7626 50.2586 35.406 50.2604C34.385 50.2711 33.364 50.2707 32.343 50.259L32.1971 50.0445C31.8015 49.5504 31.751 49.5374 31.5723 48.9105C32.154 48.6464 32.7486 48.3082 33.2965 47.9779C32.9825 47.5325 32.5219 46.9476 32.3217 46.4523C33.4936 46.5851 34.6171 46.5807 35.7215 46.1074Z" fill="white"/>
    <path d="M29.7982 47.1797C29.8978 47.291 29.9485 47.5437 29.996 47.689C30.1539 48.1707 30.3092 48.6533 30.4621 49.1366C30.5573 49.4386 30.6327 49.8254 30.7926 50.095C31.0473 50.5245 31.5058 50.6953 31.5117 51.2711C31.5142 51.5218 31.4302 51.7607 31.2502 51.94C31.126 52.0637 30.9851 52.1306 30.8117 52.1545C30.4971 52.1979 30.1602 52.1797 29.8428 52.1803L28.2205 52.1787L23.261 52.1764L22.457 52.1613C22.4979 52.0724 22.5489 51.9894 22.5987 51.9052C23.002 51.7333 23.5995 51.6521 24.066 51.4806C25.246 51.0469 26.2919 50.4226 27.3606 49.7742C27.0035 49.2571 26.6878 48.7222 26.3772 48.1768C27.6092 48.1716 28.8321 48.0056 29.7982 47.1797Z" fill="white"/>
    <path d="M29.7862 43.8815C30.274 44.0082 30.7594 44.1465 31.2533 44.2489C31.4583 44.2912 31.6641 44.3295 31.8707 44.3637C32.0772 44.3979 32.2844 44.428 32.4922 44.454C32.6999 44.48 32.9081 44.502 33.1168 44.5198C33.3254 44.5376 33.5343 44.5513 33.7435 44.5609C33.9527 44.5705 34.162 44.5759 34.3714 44.5772C34.5808 44.5785 34.7902 44.5757 34.9995 44.5688C35.2088 44.5619 35.4179 44.5508 35.6267 44.5356C35.8356 44.5205 36.0441 44.5012 36.2522 44.4777C36.1067 44.6174 35.9512 44.7337 35.7828 44.8446C34.863 45.4065 33.696 45.4999 32.6468 45.3562C31.5704 45.2088 30.4596 44.7586 29.7862 43.8815Z" fill="white"/>
    <path fill-rule="evenodd" clip-rule="evenodd" d="M24.2514 9.43476C23.5157 8.98285 22.6096 8.70825 21.7405 8.76398C20.3783 8.84135 19.2746 9.33368 18.3564 10.3607C18.0339 10.7215 17.7051 11.1965 17.5346 11.6513C19.1208 12.2183 20.7916 12.4022 22.4393 11.9877C22.7806 11.9018 23.1358 11.8014 23.4542 11.6509C23.5245 11.6176 23.5919 11.5826 23.6576 11.5484C23.9599 11.3913 24.2283 11.2517 24.5989 11.3811C25.1243 11.5646 25.5848 12.0745 25.8135 12.5696C26.148 13.2937 26.2064 14.1662 25.9295 14.9192C25.7265 15.4712 25.2798 15.8657 24.7522 16.1044C24.2528 16.3303 23.7071 16.4169 23.162 16.4086L23.1799 16.3802C23.3917 16.0503 23.6901 15.8395 23.9844 15.6315C24.449 15.3031 24.9036 14.9818 24.9922 14.2107C25.0209 13.9605 25.0224 13.684 24.9717 13.4364C24.8911 13.0436 24.6519 12.7143 24.3428 12.4661C24.276 12.4973 24.2088 12.5276 24.1413 12.5571C24.0737 12.5866 24.0059 12.6153 23.9376 12.6431C23.8694 12.671 23.8008 12.698 23.7319 12.7241C23.663 12.7503 23.5938 12.7756 23.5243 12.8001C23.4548 12.8245 23.385 12.8482 23.3149 12.8709C23.2448 12.8937 23.1744 12.9156 23.1038 12.9366C23.0332 12.9576 22.9623 12.9778 22.8912 12.9971C22.82 13.0164 22.7487 13.0348 22.6771 13.0524C22.6055 13.07 22.5338 13.0866 22.4618 13.1024C22.3898 13.1182 22.3176 13.1332 22.2453 13.1472C22.1729 13.1612 22.1004 13.1744 22.0278 13.1866C21.9551 13.1989 21.8823 13.2102 21.8093 13.2207C21.7364 13.2312 21.6633 13.2408 21.5902 13.2494C21.517 13.2581 21.4437 13.2659 21.3703 13.2728C21.2969 13.2797 21.2235 13.2857 21.15 13.2908C21.0765 13.2959 21.0029 13.3001 20.9292 13.3034C20.8556 13.3067 20.782 13.3091 20.7083 13.3105C20.6346 13.312 20.5609 13.3126 20.4873 13.3123C20.4136 13.312 20.3399 13.3108 20.2662 13.3086C20.1925 13.3065 20.1189 13.3035 20.0453 13.2996C19.9718 13.2957 19.8982 13.2909 19.8247 13.2852C19.7512 13.2794 19.6778 13.2728 19.6045 13.2653C19.5312 13.2578 19.458 13.2493 19.3849 13.24C19.3118 13.2307 19.2388 13.2206 19.166 13.2095C19.0931 13.1984 19.0204 13.1864 18.9479 13.1735C18.8753 13.1606 18.8029 13.1468 18.7307 13.1322C18.6585 13.1175 18.5864 13.102 18.5146 13.0856C18.4427 13.0692 18.3711 13.0519 18.2997 13.0338C18.2283 13.0156 18.1571 12.9966 18.0861 12.9766C18.0152 12.9567 17.9445 12.9359 17.874 12.9143C17.8035 12.8927 17.7334 12.8702 17.6635 12.8468C17.5936 12.8235 17.524 12.7993 17.4547 12.7742C17.2123 12.6845 16.9763 12.5801 16.7469 12.4611C16.8485 12.6475 16.9595 12.8176 17.1059 12.9725C17.2912 13.1697 17.4145 13.3288 17.5087 13.5861C17.3821 13.9973 17.23 14.3989 17.0525 14.7908C17.005 14.896 16.9431 15.022 16.876 15.1586C16.6753 15.567 16.4284 16.0697 16.3823 16.3921C16.3556 16.5794 16.3996 16.781 16.4903 16.9459C16.5906 17.1282 16.7588 17.2737 16.9635 17.3223C17.4348 17.4339 18.2052 17.1961 18.715 17.0388C18.7585 17.0254 18.8001 17.0125 18.8395 17.0005C18.7051 17.3417 18.4818 17.5709 18.1463 17.7198C17.7623 17.8902 17.3395 17.9301 16.9242 17.9059C17.3791 18.7464 18.0452 19.5497 18.9936 19.8309C19.4976 19.9803 20.0266 19.9509 20.5439 19.9047C20.602 19.8995 20.6595 19.8936 20.7165 19.8878C21.0263 19.8559 21.3228 19.8253 21.633 19.9213C22.2126 18.558 23.1396 17.3805 24.5481 16.8183C24.968 16.6507 25.3996 16.5593 25.8384 16.4665C25.8663 16.4606 25.8944 16.4546 25.9224 16.4487C26.2187 16.0393 26.5203 15.6338 26.8272 15.2322C26.899 15.1394 26.9714 15.0472 27.0438 14.9551C27.2584 14.682 27.4727 14.4093 27.668 14.1208C27.1058 13.7809 26.5661 13.4019 26.4028 12.7298C26.3826 12.6468 26.364 12.5638 26.3454 12.481C26.2967 12.2644 26.2483 12.0492 26.1737 11.8374C25.8336 10.8719 25.1246 9.97103 24.2514 9.43476ZM19.1344 14.0533C18.9788 13.9814 18.8112 13.9575 18.6412 13.9659C18.3844 14.0089 18.1782 14.1122 18.0207 14.327C18.0032 14.3503 17.9869 14.3745 17.9718 14.3994C17.9567 14.4244 17.9429 14.45 17.9303 14.4763C17.9177 14.5026 17.9065 14.5295 17.8966 14.557C17.8866 14.5844 17.8781 14.6122 17.8709 14.6405C17.8638 14.6688 17.858 14.6974 17.8537 14.7262C17.8493 14.755 17.8464 14.784 17.8449 14.8131C17.8434 14.8422 17.8434 14.8714 17.8447 14.9006C17.8461 14.9297 17.8489 14.9587 17.8532 14.9875C17.8575 15.0164 17.8632 15.045 17.8703 15.0733C17.8774 15.1017 17.8859 15.1296 17.8957 15.1571C17.9056 15.1846 17.9168 15.2115 17.9293 15.2379C17.9418 15.2643 17.9556 15.29 17.9707 15.315C17.9857 15.34 18.002 15.3643 18.0194 15.3877C18.0368 15.4111 18.0554 15.4337 18.075 15.4553C18.0947 15.4769 18.1153 15.4975 18.137 15.517C18.1587 15.5366 18.1812 15.5551 18.2047 15.5724C18.4243 15.7324 18.6464 15.7589 18.9085 15.7469C19.1778 15.6716 19.3988 15.5408 19.5385 15.2883C19.5459 15.275 19.5529 15.2616 19.5596 15.248C19.5663 15.2344 19.5726 15.2206 19.5785 15.2067C19.5845 15.1928 19.5901 15.1787 19.5953 15.1645C19.6005 15.1503 19.6054 15.136 19.6099 15.1215C19.6144 15.107 19.6185 15.0924 19.6222 15.0778C19.6259 15.0631 19.6293 15.0483 19.6323 15.0335C19.6353 15.0186 19.6378 15.0037 19.64 14.9887C19.6422 14.9737 19.6441 14.9587 19.6455 14.9436C19.6469 14.9285 19.6479 14.9134 19.6486 14.8983C19.6492 14.8832 19.6495 14.868 19.6493 14.8529C19.6492 14.8377 19.6487 14.8226 19.6478 14.8075C19.6469 14.7923 19.6455 14.7773 19.6438 14.7622C19.6421 14.7472 19.64 14.7322 19.6376 14.7172C19.6351 14.7023 19.6322 14.6874 19.629 14.6726C19.6258 14.6578 19.6221 14.6431 19.6181 14.6285C19.6141 14.6139 19.6097 14.5994 19.605 14.585C19.6003 14.5706 19.5952 14.5562 19.5897 14.542C19.5842 14.5278 19.5784 14.5138 19.5722 14.4999C19.5661 14.486 19.5595 14.4722 19.5526 14.4586C19.5457 14.4451 19.5385 14.4317 19.5309 14.4185C19.5234 14.4053 19.5155 14.3923 19.5073 14.3795C19.499 14.3667 19.4905 14.3541 19.4816 14.3418C19.4727 14.3294 19.4635 14.3173 19.4541 14.3054C19.4446 14.2935 19.4348 14.2819 19.4247 14.2704C19.4146 14.2591 19.4043 14.2479 19.3936 14.2371C19.3829 14.2262 19.372 14.2156 19.3608 14.2053C19.3496 14.195 19.3382 14.185 19.3265 14.1753C19.3148 14.1656 19.3028 14.1561 19.2906 14.147C19.2784 14.1379 19.266 14.1291 19.2534 14.1206C19.2408 14.1122 19.2279 14.104 19.2149 14.0962C19.2019 14.0884 19.1886 14.0809 19.1752 14.0737C19.1617 14.0666 19.1481 14.0598 19.1344 14.0533Z" fill="white"/>
    <path d="M44.5761 31.4939C44.8489 31.7427 45.295 33.412 45.3736 33.8235C45.7315 35.6986 45.4062 37.6802 44.3118 39.2625C42.7784 41.4796 40.0145 42.7461 37.4257 43.2062C37.2532 43.2379 37.0803 43.2667 36.9069 43.2925C36.7334 43.3184 36.5596 43.3414 36.3854 43.3615C36.2112 43.3815 36.0367 43.3987 35.8619 43.4129C35.6871 43.4271 35.5122 43.4384 35.337 43.4467C35.1619 43.455 34.9866 43.4604 34.8112 43.4629C34.6359 43.4654 34.4606 43.4649 34.2853 43.4615C34.1099 43.4581 33.9347 43.4517 33.7596 43.4424C33.5845 43.4331 33.4096 43.4209 33.2348 43.4058C33.0602 43.3906 32.8858 43.3726 32.7117 43.3516C32.5376 43.3306 32.3639 43.3067 32.1906 43.2798C32.0173 43.253 31.8445 43.2233 31.6722 43.1907C31.4999 43.1581 31.3282 43.1226 31.1571 43.0842C30.986 43.0459 30.8156 43.0046 30.6459 42.9605C30.4762 42.9165 30.3073 42.8696 30.1392 42.8198C29.971 42.7701 29.8038 42.7175 29.6374 42.6622C29.4711 42.6068 29.3057 42.5487 29.1412 42.4878C28.7053 42.3241 28.236 42.1612 27.8285 41.9355C27.5172 41.7632 27.2355 41.5029 26.9419 41.299C26.8742 41.2523 26.8059 41.2065 26.7371 41.1616C26.6683 41.1167 26.5989 41.0726 26.5291 41.0293C26.4591 40.9861 26.3887 40.9437 26.3177 40.9022C26.2468 40.8607 26.1754 40.82 26.1034 40.7803C26.0314 40.7405 25.959 40.7017 25.8861 40.6637C25.8132 40.6257 25.7398 40.5887 25.666 40.5525C25.5921 40.5163 25.5179 40.481 25.4432 40.4467C25.3685 40.4124 25.2934 40.3789 25.2179 40.3464C25.1424 40.3139 25.0664 40.2824 24.9901 40.2517C24.9138 40.2211 24.8372 40.1914 24.7601 40.1627C24.6831 40.1339 24.6057 40.1061 24.528 40.0792C24.4503 40.0524 24.3723 40.0265 24.2939 40.0016C24.2156 39.9767 24.1369 39.9527 24.058 39.9297C23.979 39.9067 23.8998 39.8847 23.8203 39.8637C23.7408 39.8426 23.6611 39.8225 23.5811 39.8034C23.5011 39.7844 23.4209 39.7662 23.3405 39.7491C23.2601 39.732 23.1794 39.7159 23.0986 39.7007C23.0178 39.6856 22.9368 39.6715 22.8556 39.6583C22.7744 39.6452 22.6931 39.633 22.6116 39.6219C22.5302 39.6107 22.4485 39.6006 22.3668 39.5915C22.2851 39.5823 22.2033 39.5742 22.1214 39.567C22.0394 39.5599 21.9574 39.5538 21.8753 39.5486C21.7932 39.5436 21.7111 39.5395 21.6289 39.5364C21.5468 39.5333 21.4646 39.5312 21.3823 39.5301C21.3001 39.529 21.2179 39.529 21.1357 39.5299C21.0534 39.5309 20.9712 39.5328 20.889 39.5357C20.8068 39.5387 20.7247 39.5427 20.6426 39.5477C20.5605 39.5527 20.4785 39.5587 20.3966 39.5657C20.3147 39.5727 20.2328 39.5807 20.1511 39.5897C20.0694 39.5987 19.9877 39.6087 19.9062 39.6197C19.8247 39.6308 19.7434 39.6428 19.6622 39.6558C19.581 39.6688 19.5 39.6828 19.4191 39.6978C20.8719 40.0228 22.4096 40.4414 23.809 40.9529C26.0966 41.7889 28.4623 43.353 29.5175 45.6205C29.4604 45.8124 29.3918 45.9811 29.267 46.1399C28.7782 46.7622 27.8489 46.9671 27.1048 47.0462C27.0358 47.0507 26.9667 47.0542 26.8976 47.0568C24.0003 47.1628 20.6032 44.9895 18.5552 43.0977C17.1519 41.8014 15.5019 40.1555 15.4319 38.1254C15.4031 37.2891 15.6531 36.5313 16.2323 35.9171C17.2362 34.8526 18.1808 35.1079 19.493 35.1897C20.1362 35.2298 20.7921 35.228 21.436 35.2059C22.9848 35.1526 24.8138 34.9499 26.1344 34.0657C26.5174 33.8092 26.8221 33.5011 27.1345 33.1665C27.927 33.1569 28.7267 33.1789 29.5147 33.2664C31.4701 33.4836 33.5648 34.0425 35.0603 35.3871C35.3367 35.6356 35.5732 35.9136 35.805 36.203C36.6595 36.1494 37.4947 35.9678 38.3188 35.741C40.6582 35.097 43.3412 33.672 44.5761 31.4939Z" fill="white"/>
    <path fill-rule="evenodd" clip-rule="evenodd" d="M29.7603 14.7124C29.4421 14.6168 29.1211 14.5314 28.7974 14.4563C28.3278 15.0617 27.8645 15.6717 27.4073 16.2865C27.3471 16.3668 27.2824 16.4588 27.2146 16.5551C27.0262 16.8227 26.8143 17.1237 26.6108 17.3016C26.4436 17.4478 26.0738 17.5276 25.7428 17.5991C25.5789 17.6344 25.4245 17.6677 25.3091 17.706C24.8786 17.8489 24.4707 18.0489 24.1072 18.3215C21.7609 20.081 21.3569 25.1264 21.6996 27.8082C21.857 29.0396 22.2556 30.5595 22.9525 31.5989C22.4747 31.2921 22.0674 30.8883 21.7023 30.4555C21.6543 30.3985 21.6075 30.339 21.5605 30.2793C21.4672 30.1607 21.3731 30.0411 21.2667 29.9383L18.596 31.8162C18.5031 31.8812 18.389 31.9591 18.2622 32.0457C17.6887 32.4375 16.8557 33.0065 16.5492 33.3555C16.2099 33.7418 16.0124 34.1835 15.8958 34.6809C17.1045 33.902 17.7793 33.9512 18.9064 34.0335C19.1216 34.0492 19.3532 34.0661 19.6083 34.0786C21.4553 34.1697 24.6181 34.156 25.9915 32.707C26.4554 32.2176 26.8808 31.29 27.1848 30.6271C27.2081 30.5763 27.2307 30.527 27.2525 30.4797C27.4242 30.1094 27.5853 29.7346 27.7358 29.3552C27.8862 28.9758 28.0259 28.5924 28.1547 28.2051C28.2835 27.8178 28.4012 27.4272 28.5079 27.0333C28.6146 26.6393 28.7101 26.2426 28.7943 25.8433C29.1556 24.1721 29.4237 22.123 28.8948 20.4714C28.7475 20.0115 28.5487 19.5867 28.3483 19.1584C28.2556 18.9603 28.1625 18.7614 28.074 18.5579C28.9691 19.0009 29.6789 19.8419 29.9974 20.783C30.2998 21.677 30.2706 22.592 30.2303 23.5197C30.1484 24.3644 30.0452 25.221 29.8427 26.0465C31.7463 25.3689 33.2779 24.4409 34.1755 22.5487C34.3451 22.191 34.4723 21.8309 34.5685 21.4477C34.584 21.386 34.5971 21.3218 34.6104 21.2571C34.6351 21.1371 34.6601 21.0154 34.7007 20.905C34.721 20.85 34.7338 20.8307 34.7782 20.7958C34.8218 20.8235 34.8231 20.8299 34.8322 20.8729C34.8329 20.8762 34.8336 20.8796 34.8344 20.8833C34.862 21.0119 34.8584 21.1621 34.855 21.3026C34.854 21.3436 34.853 21.3839 34.8528 21.4225C34.8484 22.4279 34.5631 23.3946 33.9909 24.2238C33.2541 25.2916 32.0497 26.0923 30.7696 26.3229C30.4376 26.3827 30.1057 26.3986 29.7691 26.3939C29.4698 27.8592 28.9587 29.2843 28.3577 30.6516C28.2661 30.8599 28.1646 31.0647 28.0632 31.2694C27.9393 31.5193 27.8154 31.7692 27.7098 32.0252C28.3254 32.0385 28.9395 32.0833 29.5533 32.1281C30.2519 32.1791 30.9501 32.2301 31.6495 32.2346C34.8084 32.255 38.4334 31.4666 40.7803 29.2096C41.2047 28.8014 41.6227 28.3131 41.874 27.7757C41.6143 26.9424 41.3438 26.1152 40.9984 25.3126C39.3016 21.3711 36.3539 17.8502 32.524 15.8409C32.2298 15.6864 31.9309 15.5415 31.6275 15.4061C31.324 15.2707 31.0165 15.1451 30.705 15.0294C30.3935 14.9136 30.0786 14.808 29.7603 14.7124ZM37.0973 23.5888C37.0957 23.5872 37.094 23.5856 37.0921 23.5838C37.0895 23.5866 37.087 23.5894 37.0844 23.5922C37.0787 23.5985 37.0729 23.6047 37.0675 23.6111C37.0067 23.6825 36.8811 24.02 36.774 24.3078C36.7144 24.468 36.6606 24.6128 36.6268 24.6876C36.4629 25.0515 36.2783 25.4044 36.073 25.7466C36.0391 25.8018 36.0045 25.8565 35.9692 25.9107C35.9339 25.965 35.898 26.0188 35.8613 26.0722C35.8247 26.1255 35.7874 26.1784 35.7494 26.2309C35.7115 26.2833 35.6729 26.3353 35.6336 26.3867C35.5943 26.4382 35.5544 26.4891 35.5139 26.5396C35.4734 26.5901 35.4322 26.64 35.3904 26.6895C35.3486 26.7389 35.3062 26.7878 35.2632 26.8362C35.2202 26.8845 35.1765 26.9324 35.1323 26.9796C35.0881 27.0269 35.0433 27.0736 34.9979 27.1197C34.9525 27.1659 34.9065 27.2115 34.86 27.2564C34.8134 27.3014 34.7664 27.3458 34.7187 27.3896C34.6711 27.4334 34.6229 27.4766 34.5741 27.5192C34.5254 27.5618 34.4761 27.6038 34.4264 27.6452C34.3766 27.6866 34.3263 27.7273 34.2754 27.7674C34.2246 27.8075 34.1733 27.8469 34.1215 27.8857C34.0697 27.9246 34.0175 27.9627 33.9647 28.0002C33.9119 28.0377 33.8587 28.0746 33.805 28.1107C33.7514 28.1469 33.6972 28.1824 33.6427 28.2172C33.5881 28.252 33.5331 28.2861 33.4777 28.3195C33.4222 28.353 33.3664 28.3857 33.3102 28.4177C33.2539 28.4497 33.1973 28.4811 33.1403 28.5117C33.0832 28.5423 33.0258 28.5721 32.9681 28.6013C32.9102 28.6305 32.8521 28.6589 32.7936 28.6866C32.7351 28.7143 32.6763 28.7413 32.6171 28.7675C32.5579 28.7937 32.4984 28.8192 32.4386 28.8439C32.3788 28.8686 32.3187 28.8926 32.2583 28.9158C32.1979 28.9391 32.1372 28.9615 32.0762 28.9832C32.0152 29.0049 31.954 29.0259 31.8925 29.046C31.831 29.0662 31.7692 29.0856 31.7073 29.1042C31.6453 29.1228 31.5831 29.1406 31.5206 29.1577C31.4582 29.1747 31.3956 29.191 31.3327 29.2064C31.2699 29.2219 31.2069 29.2366 31.1436 29.2505C30.8603 29.3123 30.5716 29.3483 30.283 29.3842C29.9105 29.4306 29.5382 29.4769 29.1781 29.5788L29.4732 29.6782C29.5222 29.6891 29.5714 29.6995 29.6207 29.7093C29.67 29.7191 29.7193 29.7282 29.7688 29.7368C29.8184 29.7454 29.868 29.7533 29.9177 29.7606C29.9674 29.768 30.0172 29.7747 30.0671 29.7808C30.117 29.7869 30.1669 29.7925 30.2169 29.7974C30.2669 29.8023 30.317 29.8065 30.3671 29.8102C30.4172 29.8139 30.4673 29.8169 30.5175 29.8194C30.5677 29.8218 30.6179 29.8237 30.6681 29.8249C30.7184 29.8261 30.7686 29.8267 30.8189 29.8267C30.8691 29.8267 30.9193 29.826 30.9696 29.8248C31.0198 29.8235 31.07 29.8217 31.1202 29.8192C31.1704 29.8167 31.2205 29.8136 31.2706 29.8099C31.3207 29.8062 31.3708 29.8018 31.4208 29.7969C31.4708 29.792 31.5208 29.7864 31.5706 29.7803C31.6205 29.7741 31.6703 29.7673 31.72 29.76C31.7697 29.7526 31.8193 29.7446 31.8688 29.736C31.9183 29.7274 31.9677 29.7182 32.017 29.7084C32.0663 29.6986 32.1154 29.6882 32.1644 29.6771C32.2135 29.6661 32.2623 29.6545 32.3111 29.6423C32.3598 29.6301 32.4084 29.6173 32.4569 29.6039C32.5053 29.5905 32.5535 29.5765 32.6016 29.5619C32.6497 29.5473 32.6976 29.5321 32.7453 29.5164C32.793 29.5006 32.8405 29.4843 32.8879 29.4673C32.9352 29.4504 32.9823 29.4329 33.0291 29.4149C33.076 29.3968 33.1227 29.3781 33.1691 29.3589C33.2155 29.3397 33.2617 29.3199 33.3077 29.2995C33.3536 29.2792 33.3993 29.2583 33.4447 29.2368C33.4902 29.2153 33.5353 29.1933 33.5802 29.1707C33.6251 29.1481 33.6697 29.125 33.714 29.1013C33.7583 29.0776 33.8024 29.0534 33.8461 29.0287C33.8898 29.0039 33.9333 28.9786 33.9763 28.9528C34.0195 28.927 34.0623 28.9007 34.1047 28.8738C35.5476 27.9689 36.6052 26.5601 36.9831 24.8906C37.034 24.6657 37.1983 23.7931 37.1172 23.6152C37.1109 23.6015 37.1058 23.5967 37.0973 23.5888Z" fill="white"/>
</svg>
