<svg width="66" height="67" viewBox="0 0 66 67" fill="none" xmlns="http://www.w3.org/2000/svg">
    <g filter="url(#filter0_d_2009_2056)">
        <rect x="1" width="64" height="64" rx="16" fill="#2EA33A" shape-rendering="crispEdges"/>
        <path d="M33.0625 48.1875C33.2454 48.2092 33.4262 48.309 33.5952 48.3842C33.7072 48.6579 33.766 48.9565 33.8788 49.2314C33.9852 49.4906 34.1607 49.715 34.25 49.9824C34.2087 50.0405 34.1492 50.0589 34.0881 50.0892C33.9833 50.1474 33.8759 50.1984 33.7682 50.25C33.6137 49.8617 33.4883 49.4546 33.3497 49.0593C33.2521 48.7809 33.107 48.4799 33.0625 48.1875Z" fill="white"/>
        <path d="M38.4783 48.375C38.6288 48.5145 39.0639 50.4212 39.276 50.8082C39.4925 51.2034 39.9226 51.3384 39.9372 51.8633C39.9376 51.8782 39.9376 51.893 39.9372 51.9077C39.9368 51.9226 39.9361 51.9374 39.9349 51.9522C39.9338 51.9669 39.9322 51.9816 39.9303 51.9963C39.9284 52.011 39.9261 52.0257 39.9234 52.0402C39.9207 52.0548 39.9176 52.0693 39.9141 52.0837C39.9107 52.0981 39.9068 52.1124 39.9026 52.1266C39.8984 52.1409 39.8938 52.1549 39.8889 52.1689C39.884 52.1829 39.8787 52.1967 39.873 52.2104C39.8673 52.2241 39.8613 52.2377 39.8549 52.2511C39.8485 52.2645 39.8418 52.2777 39.8347 52.2907C39.8276 52.3038 39.8202 52.3166 39.8125 52.3293C39.8047 52.3419 39.7967 52.3544 39.7882 52.3666C39.7798 52.3789 39.7711 52.3909 39.7621 52.4027C39.753 52.4145 39.7437 52.426 39.7341 52.4373C39.7244 52.4486 39.7145 52.4597 39.7043 52.4705C39.6941 52.4813 39.6836 52.4918 39.6728 52.502C39.5804 52.5909 39.4505 52.6799 39.3231 52.7076C38.9609 52.7868 38.5215 52.7304 38.1473 52.7322C37.0761 52.7435 36.0048 52.743 34.9336 52.7307L34.7806 52.5057C34.3655 51.9874 34.3126 51.9737 34.125 51.3159C34.7354 51.0389 35.3592 50.6841 35.934 50.3375C35.6046 49.8701 35.1213 49.2565 34.9113 48.7369C36.1408 48.8762 37.3196 48.8715 38.4783 48.375Z" fill="white"/>
        <path d="M32.2647 49.5C32.3692 49.6168 32.4224 49.8819 32.4722 50.0343C32.6379 50.5398 32.8009 51.046 32.9613 51.5532C33.0611 51.87 33.1402 52.2759 33.308 52.5587C33.5752 53.0093 34.0563 53.1885 34.0624 53.7926C34.0651 54.0557 33.977 54.3064 33.7881 54.4945C33.6579 54.6242 33.51 54.6944 33.328 54.7195C32.998 54.765 32.6445 54.7459 32.3115 54.7466L30.6094 54.7449L25.406 54.7425L24.5625 54.7266C24.6054 54.6333 24.6589 54.5463 24.7111 54.4579C25.1342 54.2776 25.7612 54.1924 26.2506 54.0125C27.4887 53.5574 28.586 52.9024 29.7072 52.2221C29.3325 51.6796 29.0013 51.1183 28.6754 50.5462C29.9681 50.5407 31.2511 50.3665 32.2647 49.5Z" fill="white"/>
        <path d="M32.2501 46.0396C32.7619 46.1726 33.2712 46.3177 33.7893 46.4251C34.0045 46.4695 34.2204 46.5096 34.4371 46.5455C34.6538 46.5814 34.8711 46.613 35.0891 46.6403C35.3071 46.6676 35.5255 46.6906 35.7444 46.7093C35.9633 46.728 36.1825 46.7423 36.402 46.7524C36.6215 46.7625 36.8411 46.7682 37.0608 46.7695C37.2805 46.7709 37.5002 46.768 37.7198 46.7607C37.9394 46.7534 38.1587 46.7418 38.3778 46.7259C38.597 46.71 38.8157 46.6897 39.034 46.6652C38.8814 46.8117 38.7183 46.9337 38.5416 47.0501C37.5765 47.6396 36.3521 47.7376 35.2513 47.5869C34.122 47.4322 32.9566 46.9598 32.2501 46.0396Z" fill="white"/>
        <path fill-rule="evenodd" clip-rule="evenodd" d="M26.4431 9.89876C25.6712 9.42463 24.7205 9.13653 23.8086 9.195C22.3794 9.27617 21.2215 9.79272 20.2582 10.8703C19.9198 11.2488 19.5748 11.7472 19.3959 12.2243C21.0602 12.8192 22.8131 13.0121 24.5419 12.5773C24.8999 12.4872 25.2726 12.3818 25.6066 12.2239C25.6804 12.189 25.7511 12.1522 25.8201 12.1164C26.1372 11.9515 26.4188 11.8051 26.8076 11.9408C27.3589 12.1333 27.842 12.6684 28.082 13.1878C28.4329 13.9475 28.4942 14.8629 28.2037 15.653C27.9907 16.2321 27.522 16.646 26.9685 16.8964C26.4445 17.1334 25.872 17.2243 25.3001 17.2156L25.3189 17.1857C25.5411 16.8397 25.8541 16.6185 26.1629 16.4002C26.6504 16.0557 27.1274 15.7186 27.2203 14.9096C27.2505 14.6471 27.252 14.357 27.1987 14.0972C27.1143 13.6851 26.8633 13.3396 26.5389 13.0792C26.4688 13.1119 26.3984 13.1437 26.3275 13.1747C26.2567 13.2056 26.1855 13.2357 26.1139 13.2649C26.0423 13.2941 25.9703 13.3225 25.898 13.3499C25.8257 13.3773 25.7531 13.4039 25.6802 13.4296C25.6073 13.4553 25.534 13.48 25.4605 13.5039C25.387 13.5278 25.3131 13.5508 25.239 13.5729C25.1649 13.5949 25.0906 13.6161 25.0159 13.6363C24.9413 13.6566 24.8664 13.6759 24.7914 13.6943C24.7163 13.7128 24.641 13.7302 24.5654 13.7468C24.4899 13.7634 24.4142 13.779 24.3383 13.7937C24.2624 13.8085 24.1863 13.8223 24.1101 13.8352C24.0338 13.848 23.9574 13.8599 23.8809 13.8709C23.8044 13.8819 23.7277 13.8919 23.6509 13.9011C23.5741 13.9102 23.4973 13.9184 23.4203 13.9256C23.3433 13.9328 23.2663 13.9391 23.1891 13.9445C23.112 13.9498 23.0348 13.9542 22.9575 13.9576C22.8803 13.9611 22.803 13.9636 22.7257 13.9652C22.6484 13.9667 22.5711 13.9673 22.4938 13.967C22.4165 13.9667 22.3392 13.9654 22.2619 13.9632C22.1846 13.961 22.1073 13.9578 22.0301 13.9537C21.9529 13.9496 21.8758 13.9445 21.7987 13.9385C21.7216 13.9325 21.6446 13.9255 21.5677 13.9177C21.4908 13.9098 21.414 13.901 21.3373 13.8912C21.2606 13.8814 21.184 13.8707 21.1076 13.8591C21.0311 13.8475 20.9548 13.8349 20.8787 13.8213C20.8026 13.8078 20.7266 13.7934 20.6508 13.778C20.5751 13.7627 20.4995 13.7464 20.4241 13.7291C20.3487 13.712 20.2736 13.6938 20.1986 13.6748C20.1237 13.6557 20.049 13.6357 19.9746 13.6148C19.9001 13.5939 19.8259 13.5721 19.752 13.5495C19.6781 13.5267 19.6045 13.5031 19.5312 13.4786C19.4578 13.4541 19.3848 13.4287 19.3121 13.4024C19.0577 13.3083 18.8102 13.1988 18.5695 13.074C18.676 13.2695 18.7926 13.448 18.9462 13.6105C19.1406 13.8174 19.2699 13.9843 19.3687 14.2543C19.2359 14.6857 19.0764 15.107 18.8901 15.5182C18.8403 15.6286 18.7753 15.7608 18.7049 15.9041C18.4944 16.3326 18.2353 16.86 18.187 17.1983C18.1589 17.3948 18.2052 17.6063 18.3003 17.7793C18.4055 17.9706 18.582 18.1233 18.7968 18.1742C19.2912 18.2914 20.0995 18.0419 20.6343 17.8768C20.68 17.8627 20.7237 17.8492 20.765 17.8366C20.624 18.1946 20.3898 18.4351 20.0377 18.5913C19.6348 18.77 19.1913 18.8119 18.7555 18.7866C19.2328 19.6683 19.9317 20.5112 20.9267 20.8062C21.4555 20.963 22.0105 20.9321 22.5532 20.8836C22.6142 20.8782 22.6745 20.872 22.7343 20.8658C23.0593 20.8324 23.3705 20.8004 23.6959 20.901C24.304 19.4707 25.2766 18.2353 26.7544 17.6455C27.1949 17.4696 27.6477 17.3737 28.1081 17.2763C28.1374 17.2701 28.1668 17.2639 28.1962 17.2576C28.5071 16.8281 28.8236 16.4026 29.1456 15.9813C29.2208 15.8839 29.2968 15.7873 29.3728 15.6906C29.598 15.4041 29.8228 15.118 30.0277 14.8153C29.4378 14.4586 28.8716 14.061 28.7003 13.3559C28.6791 13.2687 28.6596 13.1817 28.64 13.0948C28.589 12.8676 28.5382 12.6418 28.4599 12.4195C28.1031 11.4066 27.3592 10.4614 26.4431 9.89876ZM21.0744 14.7445C20.9112 14.669 20.7353 14.644 20.557 14.6528C20.2875 14.6979 20.0712 14.8062 19.9059 15.0316C19.8876 15.0561 19.8705 15.0814 19.8546 15.1076C19.8388 15.1338 19.8243 15.1607 19.8111 15.1883C19.7979 15.2159 19.7861 15.2441 19.7757 15.2729C19.7653 15.3017 19.7563 15.3309 19.7488 15.3605C19.7413 15.3902 19.7353 15.4202 19.7307 15.4504C19.7261 15.4807 19.723 15.5111 19.7215 15.5416C19.7199 15.5722 19.7199 15.6028 19.7213 15.6334C19.7228 15.6639 19.7257 15.6943 19.7302 15.7246C19.7347 15.7549 19.7407 15.7849 19.7481 15.8147C19.7556 15.8444 19.7645 15.8737 19.7748 15.9025C19.7852 15.9313 19.7969 15.9596 19.8101 15.9873C19.8232 16.015 19.8376 16.042 19.8534 16.0682C19.8692 16.0945 19.8863 16.1199 19.9046 16.1445C19.9228 16.1691 19.9423 16.1927 19.9629 16.2153C19.9835 16.238 20.0052 16.2596 20.0279 16.2802C20.0507 16.3007 20.0744 16.3201 20.099 16.3383C20.3294 16.5061 20.5624 16.5339 20.8374 16.5214C21.12 16.4423 21.3519 16.3051 21.4984 16.0401C21.5061 16.0262 21.5135 16.0122 21.5205 15.9979C21.5275 15.9836 21.5341 15.9692 21.5404 15.9546C21.5466 15.94 21.5525 15.9252 21.558 15.9103C21.5635 15.8954 21.5686 15.8803 21.5733 15.8651C21.578 15.85 21.5823 15.8347 21.5862 15.8193C21.5901 15.8039 21.5936 15.7884 21.5968 15.7728C21.5999 15.7572 21.6026 15.7416 21.6049 15.7259C21.6072 15.7101 21.6091 15.6944 21.6106 15.6786C21.6121 15.6627 21.6132 15.6469 21.6139 15.631C21.6145 15.6151 21.6148 15.5992 21.6147 15.5833C21.6145 15.5674 21.614 15.5516 21.613 15.5357C21.6121 15.5198 21.6107 15.504 21.6089 15.4882C21.6071 15.4725 21.6049 15.4567 21.6023 15.441C21.5997 15.4253 21.5967 15.4097 21.5933 15.3942C21.5899 15.3787 21.5861 15.3633 21.5819 15.348C21.5777 15.3326 21.5731 15.3174 21.5681 15.3023C21.5632 15.2872 21.5578 15.2721 21.5521 15.2572C21.5464 15.2423 21.5403 15.2276 21.5338 15.213C21.5273 15.1984 21.5204 15.184 21.5132 15.1697C21.506 15.1555 21.4984 15.1415 21.4904 15.1276C21.4825 15.1138 21.4743 15.1001 21.4656 15.0867C21.457 15.0733 21.448 15.0601 21.4387 15.0471C21.4294 15.0341 21.4197 15.0214 21.4098 15.0089C21.3998 14.9965 21.3896 14.9842 21.379 14.9723C21.3684 14.9603 21.3575 14.9487 21.3464 14.9373C21.3352 14.9258 21.3237 14.9147 21.312 14.9039C21.3002 14.8931 21.2882 14.8826 21.2759 14.8724C21.2636 14.8622 21.2511 14.8523 21.2383 14.8428C21.2255 14.8332 21.2125 14.824 21.1993 14.8151C21.186 14.8062 21.1725 14.7977 21.1588 14.7894C21.1452 14.7812 21.1313 14.7734 21.1172 14.7659C21.1031 14.7584 21.0888 14.7513 21.0744 14.7445Z" fill="white"/>
        <path d="M47.7674 33.0428C48.0536 33.3038 48.5216 35.0552 48.6041 35.487C48.9795 37.4543 48.6382 39.5333 47.49 41.1934C45.8812 43.5196 42.9814 44.8483 40.2653 45.3311C40.0843 45.3643 39.9029 45.3945 39.7209 45.4217C39.539 45.4488 39.3566 45.473 39.1738 45.494C38.9911 45.515 38.808 45.533 38.6246 45.5479C38.4412 45.5628 38.2576 45.5747 38.0739 45.5834C37.8901 45.5922 37.7062 45.5978 37.5222 45.6004C37.3383 45.603 37.1543 45.6025 36.9704 45.5989C36.7864 45.5953 36.6026 45.5887 36.4189 45.579C36.2352 45.5692 36.0516 45.5564 35.8683 45.5405C35.685 45.5246 35.5021 45.5056 35.3194 45.4836C35.1368 45.4616 34.9545 45.4365 34.7727 45.4083C34.5909 45.3802 34.4096 45.3491 34.2289 45.3148C34.0481 45.2806 33.8679 45.2434 33.6884 45.2031C33.5089 45.1629 33.3301 45.1196 33.1521 45.0734C32.974 45.0271 32.7968 44.9779 32.6204 44.9257C32.444 44.8735 32.2685 44.8184 32.094 44.7603C31.9194 44.7023 31.7459 44.6413 31.5734 44.5774C31.116 44.4056 30.6236 44.2347 30.1961 43.9979C29.8695 43.8172 29.5739 43.5441 29.2659 43.33C29.1949 43.2811 29.1232 43.2331 29.0511 43.1859C28.9788 43.1388 28.9061 43.0925 28.8327 43.0471C28.7594 43.0018 28.6855 42.9573 28.611 42.9137C28.5366 42.8702 28.4616 42.8276 28.3861 42.7859C28.3106 42.7442 28.2346 42.7034 28.1581 42.6636C28.0817 42.6237 28.0047 42.5848 27.9272 42.5469C27.8498 42.5089 27.7718 42.4719 27.6935 42.4359C27.6151 42.3999 27.5363 42.3648 27.4571 42.3307C27.3779 42.2966 27.2982 42.2635 27.2181 42.2313C27.1381 42.1992 27.0576 42.168 26.9768 42.1379C26.896 42.1077 26.8148 42.0785 26.7333 42.0504C26.6518 42.0222 26.5699 41.995 26.4877 41.9689C26.4055 41.9427 26.3229 41.9176 26.2401 41.8935C26.1573 41.8694 26.0742 41.8462 25.9908 41.8242C25.9074 41.8021 25.8237 41.781 25.7398 41.761C25.6559 41.741 25.5717 41.722 25.4873 41.704C25.403 41.686 25.3184 41.6691 25.2336 41.6532C25.1488 41.6373 25.0638 41.6225 24.9786 41.6087C24.8934 41.5949 24.8081 41.5822 24.7227 41.5705C24.6372 41.5588 24.5515 41.5481 24.4658 41.5386C24.3801 41.529 24.2942 41.5204 24.2083 41.5129C24.1223 41.5055 24.0363 41.499 23.9501 41.4937C23.864 41.4883 23.7778 41.484 23.6916 41.4808C23.6054 41.4775 23.5192 41.4753 23.4329 41.4742C23.3467 41.4731 23.2604 41.473 23.1741 41.474C23.0878 41.475 23.0015 41.477 22.9153 41.4801C22.8291 41.4832 22.7429 41.4874 22.6568 41.4927C22.5707 41.4979 22.4846 41.5042 22.3987 41.5115C22.3127 41.5189 22.2269 41.5273 22.1411 41.5367C22.0554 41.5462 21.9697 41.5567 21.8842 41.5683C21.7987 41.5798 21.7134 41.5924 21.6282 41.6061C21.543 41.6197 21.458 41.6344 21.3731 41.6502C22.8974 41.9911 24.5107 42.4304 25.9789 42.967C28.379 43.8441 30.861 45.4851 31.9682 47.8642C31.9083 48.0655 31.8363 48.2424 31.7054 48.4091C31.1925 49.0619 30.2175 49.277 29.4368 49.36C29.3644 49.3646 29.2919 49.3683 29.2194 49.3711C26.1797 49.4823 22.6154 47.2021 20.4667 45.2173C18.9944 43.8573 17.2633 42.1303 17.1898 40.0004C17.1596 39.123 17.4219 38.3279 18.0296 37.6835C19.0828 36.5666 20.0739 36.8346 21.4506 36.9204C22.1254 36.9624 22.8136 36.9605 23.4892 36.9373C25.1142 36.8814 27.0332 36.6688 28.4187 35.7411C28.8205 35.4719 29.1402 35.1487 29.4679 34.7977C30.2994 34.7876 31.1385 34.8106 31.9652 34.9025C34.0168 35.1303 36.2145 35.7167 37.7836 37.1275C38.0736 37.3882 38.3216 37.6798 38.5648 37.9834C39.4614 37.9273 40.3377 37.7367 41.2023 37.4987C43.6568 36.8231 46.4717 35.328 47.7674 33.0428Z" fill="white"/>
        <path fill-rule="evenodd" clip-rule="evenodd" d="M32.2229 15.4359C31.889 15.3356 31.5522 15.2461 31.2126 15.1673C30.72 15.8024 30.2338 16.4425 29.7542 17.0875C29.691 17.1718 29.6231 17.2683 29.552 17.3693C29.3543 17.65 29.132 17.9658 28.9185 18.1525C28.7431 18.3059 28.3551 18.3897 28.0078 18.4646C27.8359 18.5017 27.6739 18.5367 27.5527 18.5768C27.1011 18.7267 26.6731 18.9366 26.2918 19.2225C23.8301 21.0686 23.4062 26.3621 23.7658 29.1759C23.9309 30.4678 24.3491 32.0625 25.0803 33.153C24.579 32.831 24.1517 32.4074 23.7686 31.9533C23.7182 31.8935 23.6691 31.8311 23.6199 31.7685C23.5219 31.644 23.4232 31.5185 23.3116 31.4106L20.5095 33.381C20.412 33.4491 20.2923 33.5309 20.1593 33.6217C19.5576 34.0327 18.6836 34.6298 18.3621 34.9959C18.0061 35.4013 17.7989 35.8647 17.6766 36.3865C18.9447 35.5693 19.6527 35.621 20.8352 35.7072C21.061 35.7237 21.304 35.7414 21.5716 35.7546C23.5095 35.8502 26.8278 35.8358 28.2687 34.3155C28.7554 33.8021 29.2018 32.8288 29.5207 32.1333C29.5452 32.08 29.5689 32.0284 29.5918 31.9786C29.7719 31.5902 29.9409 31.1969 30.0988 30.7989C30.2567 30.4008 30.4032 29.9986 30.5383 29.5923C30.6734 29.1859 30.797 28.7761 30.9089 28.3628C31.0208 27.9494 31.121 27.5333 31.2094 27.1142C31.5884 25.3609 31.8698 23.211 31.3148 21.4781C31.1603 20.9957 30.9517 20.55 30.7414 20.1006C30.6442 19.8927 30.5465 19.6841 30.4537 19.4706C31.3928 19.9354 32.1375 20.8177 32.4716 21.8051C32.789 22.7431 32.7583 23.7031 32.7161 24.6764C32.6301 25.5627 32.5218 26.4613 32.3094 27.3275C34.3065 26.6166 35.9135 25.6429 36.8552 23.6576C37.0332 23.2824 37.1666 22.9046 37.2675 22.5025C37.2838 22.4377 37.2976 22.3704 37.3116 22.3025C37.3374 22.1766 37.3636 22.049 37.4063 21.9332C37.4276 21.8754 37.441 21.8551 37.4876 21.8185C37.5333 21.8477 37.5347 21.8543 37.5442 21.8995C37.5449 21.9029 37.5457 21.9065 37.5465 21.9104C37.5755 22.0453 37.5717 22.2028 37.5681 22.3503C37.5671 22.3933 37.5661 22.4355 37.5659 22.476C37.5612 23.5309 37.2619 24.5451 36.6616 25.4152C35.8885 26.5355 34.6249 27.3755 33.2818 27.6175C32.9335 27.6803 32.5853 27.6969 32.2321 27.692C31.9181 29.2293 31.3818 30.7245 30.7513 32.159C30.6552 32.3776 30.5488 32.5924 30.4423 32.8072C30.3123 33.0694 30.1824 33.3316 30.0716 33.6002C30.7174 33.6142 31.3617 33.6612 32.0057 33.7082C32.7387 33.7617 33.4712 33.8151 34.205 33.8199C37.5193 33.8413 41.3226 33.0141 43.7849 30.6461C44.2302 30.2179 44.6687 29.7055 44.9323 29.1417C44.6599 28.2675 44.3761 27.3996 44.0136 26.5575C42.2335 22.4221 39.1407 18.7281 35.1225 16.62C34.8138 16.4579 34.5003 16.3058 34.1819 16.1638C33.8635 16.0217 33.5409 15.8899 33.214 15.7685C32.8872 15.6471 32.5568 15.5362 32.2229 15.4359ZM39.9207 24.7489C39.9191 24.7473 39.9172 24.7456 39.9153 24.7437C39.9126 24.7466 39.9099 24.7496 39.9072 24.7525C39.9012 24.759 39.8952 24.7656 39.8894 24.7723C39.8256 24.8472 39.6939 25.2013 39.5816 25.5033C39.519 25.6714 39.4625 25.8233 39.4271 25.9018C39.2551 26.2835 39.0614 26.6538 38.8461 27.0128C38.8105 27.0707 38.7742 27.1281 38.7372 27.185C38.7001 27.242 38.6624 27.2984 38.624 27.3544C38.5855 27.4104 38.5464 27.4659 38.5066 27.5209C38.4667 27.5759 38.4262 27.6304 38.385 27.6844C38.3438 27.7384 38.302 27.7919 38.2595 27.8448C38.2169 27.8978 38.1737 27.9502 38.1299 28.0021C38.086 28.0539 38.0415 28.1052 37.9964 28.156C37.9513 28.2067 37.9055 28.2569 37.8591 28.3065C37.8127 28.3561 37.7657 28.4051 37.718 28.4535C37.6704 28.5019 37.6222 28.5497 37.5734 28.5969C37.5246 28.6441 37.4752 28.6907 37.4251 28.7367C37.3752 28.7826 37.3246 28.828 37.2735 28.8726C37.2224 28.9173 37.1707 28.9614 37.1184 29.0048C37.0662 29.0482 37.0134 29.0909 36.9601 29.133C36.9068 29.1751 36.853 29.2165 36.7986 29.2572C36.7443 29.2979 36.6894 29.338 36.6341 29.3773C36.5787 29.4166 36.5229 29.4553 36.4666 29.4932C36.4102 29.5312 36.3534 29.5684 36.2962 29.6049C36.2389 29.6415 36.1812 29.6772 36.1231 29.7123C36.0649 29.7474 36.0064 29.7817 35.9473 29.8153C35.8883 29.8489 35.8289 29.8818 35.7691 29.9139C35.7092 29.946 35.649 29.9773 35.5884 30.0079C35.5278 30.0385 35.4668 30.0683 35.4054 30.0974C35.344 30.1265 35.2823 30.1548 35.2202 30.1823C35.1581 30.2098 35.0957 30.2365 35.0329 30.2624C34.9702 30.2884 34.9071 30.3136 34.8438 30.3379C34.7804 30.3623 34.7167 30.3859 34.6527 30.4086C34.5887 30.4314 34.5245 30.4534 34.4599 30.4745C34.3954 30.4957 34.3306 30.516 34.2656 30.5355C34.2006 30.555 34.1353 30.5738 34.0698 30.5916C34.0043 30.6095 33.9386 30.6266 33.8727 30.6428C33.8067 30.6591 33.7406 30.6745 33.6743 30.6891C33.377 30.7539 33.0741 30.7916 32.7713 30.8293C32.3805 30.878 31.9899 30.9266 31.6121 31.0335L31.9217 31.1378C31.9731 31.1493 32.0247 31.1601 32.0764 31.1704C32.1281 31.1807 32.1799 31.1903 32.2319 31.1993C32.2838 31.2082 32.3359 31.2166 32.388 31.2243C32.4402 31.232 32.4924 31.239 32.5448 31.2455C32.5971 31.2519 32.6495 31.2577 32.702 31.2628C32.7544 31.2679 32.8069 31.2724 32.8595 31.2763C32.9121 31.2801 32.9647 31.2834 33.0173 31.2859C33.07 31.2885 33.1227 31.2904 33.1754 31.2917C33.2281 31.293 33.2808 31.2936 33.3335 31.2936C33.3862 31.2936 33.4389 31.2929 33.4917 31.2916C33.5444 31.2903 33.597 31.2883 33.6497 31.2857C33.7023 31.2831 33.755 31.2798 33.8075 31.2759C33.8601 31.272 33.9126 31.2675 33.9651 31.2623C34.0175 31.2571 34.0699 31.2513 34.1223 31.2449C34.1746 31.2384 34.2268 31.2313 34.279 31.2236C34.3311 31.2158 34.3831 31.2074 34.4351 31.1984C34.487 31.1894 34.5389 31.1797 34.5906 31.1694C34.6423 31.1592 34.6938 31.1482 34.7453 31.1367C34.7967 31.1251 34.848 31.1129 34.8991 31.1001C34.9503 31.0873 35.0012 31.0739 35.0521 31.0598C35.1029 31.0457 35.1535 31.0311 35.2039 31.0157C35.2544 31.0004 35.3046 30.9845 35.3547 30.968C35.4048 30.9515 35.4546 30.9343 35.5043 30.9166C35.5539 30.8988 35.6033 30.8804 35.6525 30.8615C35.7017 30.8425 35.7507 30.823 35.7994 30.8028C35.8481 30.7826 35.8965 30.7619 35.9447 30.7405C35.9929 30.7192 36.0408 30.6972 36.0885 30.6747C36.1362 30.6521 36.1836 30.629 36.2307 30.6053C36.2778 30.5816 36.3246 30.5574 36.371 30.5325C36.4176 30.5077 36.4638 30.4823 36.5096 30.4563C36.5555 30.4303 36.6011 30.4038 36.6463 30.3767C36.6915 30.3497 36.7364 30.322 36.781 30.2938C38.2948 29.3444 39.4044 27.8663 39.801 26.1148C39.8544 25.8788 40.0267 24.9632 39.9416 24.7766C39.9351 24.7623 39.9297 24.7572 39.9207 24.7489Z" fill="white"/>
    </g>
    <defs>
        <filter id="filter0_d_2009_2056" x="0" y="0" width="66" height="67" filterUnits="userSpaceOnUse" color-interpolation-filters="sRGB">
            <feFlood flood-opacity="0" result="BackgroundImageFix"/>
            <feColorMatrix in="SourceAlpha" type="matrix" values="0 0 0 0 0 0 0 0 0 0 0 0 0 0 0 0 0 0 127 0" result="hardAlpha"/>
            <feOffset dy="2"/>
            <feGaussianBlur stdDeviation="0.5"/>
            <feComposite in2="hardAlpha" operator="out"/>
            <feColorMatrix type="matrix" values="0 0 0 0 0 0 0 0 0 0 0 0 0 0 0 0 0 0 0.25 0"/>
            <feBlend mode="normal" in2="BackgroundImageFix" result="effect1_dropShadow_2009_2056"/>
            <feBlend mode="normal" in="SourceGraphic" in2="effect1_dropShadow_2009_2056" result="shape"/>
        </filter>
    </defs>
</svg>
