<svg width="447" height="447" viewBox="0 0 447 447" fill="none" xmlns="http://www.w3.org/2000/svg">
    <rect width="447" height="447" fill="#2EA33A"/>
    <path d="M223.937 336.56C225.214 336.711 226.477 337.408 227.657 337.933C228.44 339.845 228.85 341.931 229.638 343.85C230.381 345.661 231.607 347.228 232.23 349.096C231.942 349.501 231.526 349.63 231.1 349.842C230.368 350.248 229.618 350.604 228.865 350.965C227.787 348.253 226.911 345.41 225.943 342.649C225.261 340.704 224.247 338.602 223.937 336.56Z" fill="white"/>
    <path d="M261.763 337.869C262.814 338.843 265.852 352.16 267.334 354.864C268.846 357.624 271.85 358.566 271.952 362.233C271.955 362.337 271.955 362.44 271.952 362.543C271.949 362.647 271.944 362.75 271.936 362.853C271.928 362.956 271.917 363.059 271.904 363.162C271.89 363.264 271.874 363.367 271.855 363.468C271.836 363.57 271.815 363.671 271.791 363.772C271.767 363.873 271.74 363.973 271.711 364.072C271.681 364.171 271.649 364.27 271.615 364.367C271.58 364.465 271.543 364.561 271.503 364.657C271.464 364.753 271.422 364.848 271.377 364.941C271.333 365.035 271.286 365.127 271.236 365.218C271.187 365.309 271.135 365.399 271.081 365.487C271.027 365.576 270.97 365.663 270.912 365.748C270.853 365.834 270.792 365.918 270.729 366C270.666 366.082 270.601 366.163 270.533 366.242C270.466 366.321 270.397 366.398 270.325 366.473C270.254 366.549 270.181 366.622 270.105 366.694C269.46 367.315 268.553 367.936 267.663 368.13C265.133 368.683 262.064 368.289 259.451 368.302C251.969 368.38 244.487 368.377 237.005 368.291L235.936 366.719C233.037 363.099 232.667 363.004 231.357 358.409C235.62 356.475 239.977 353.996 243.992 351.576C241.692 348.312 238.316 344.026 236.849 340.397C245.437 341.37 253.669 341.337 261.763 337.869Z" fill="white"/>
    <path d="M218.364 345.727C219.095 346.542 219.465 348.394 219.814 349.459C220.971 352.989 222.109 356.525 223.229 360.067C223.927 362.28 224.479 365.114 225.651 367.09C227.517 370.237 230.877 371.489 230.92 375.708C230.939 377.545 230.324 379.296 229.005 380.61C228.095 381.516 227.062 382.006 225.791 382.182C223.486 382.499 221.017 382.366 218.691 382.371L206.803 382.359L170.461 382.342L164.569 382.231C164.869 381.58 165.243 380.972 165.607 380.354C168.562 379.095 172.941 378.5 176.36 377.243C185.007 374.065 192.671 369.49 200.502 364.739C197.885 360.95 195.572 357.03 193.296 353.034C202.324 352.995 211.285 351.779 218.364 345.727Z" fill="white"/>
    <path d="M218.262 321.558C221.837 322.487 225.394 323.5 229.013 324.25C230.516 324.56 232.023 324.841 233.537 325.091C235.051 325.342 236.569 325.563 238.091 325.753C239.613 325.944 241.139 326.105 242.668 326.235C244.197 326.366 245.728 326.466 247.261 326.536C248.794 326.607 250.328 326.646 251.862 326.656C253.397 326.666 254.931 326.645 256.465 326.594C257.998 326.543 259.531 326.462 261.061 326.351C262.591 326.24 264.119 326.099 265.644 325.927C264.578 326.951 263.439 327.802 262.205 328.615C255.464 332.733 246.913 333.417 239.224 332.364C231.336 331.284 223.197 327.985 218.262 321.558Z" fill="white"/>
    <path fill-rule="evenodd" clip-rule="evenodd" d="M177.704 69.1367C172.313 65.8252 165.673 63.8129 159.304 64.2213C149.322 64.7883 141.234 68.396 134.506 75.922C132.143 78.5658 129.733 82.0468 128.484 85.3792C140.108 89.5338 152.351 90.8816 164.425 87.8443C166.926 87.2151 169.529 86.4792 171.862 85.3761C172.377 85.1323 172.871 84.8758 173.353 84.6253C175.568 83.4737 177.535 82.451 180.25 83.3991C184.1 84.7437 187.475 88.4805 189.151 92.1084C191.602 97.4142 192.03 103.808 190.001 109.326C188.513 113.371 185.24 116.262 181.374 118.011C177.714 119.666 173.715 120.301 169.721 120.24L169.852 120.032C171.404 117.615 173.591 116.07 175.747 114.545C179.152 112.139 182.483 109.785 183.132 104.134C183.343 102.301 183.354 100.275 182.982 98.4602C182.392 95.5818 180.639 93.1686 178.374 91.3502C177.884 91.5785 177.392 91.8007 176.897 92.0167C176.402 92.233 175.905 92.4431 175.405 92.647C174.905 92.8512 174.402 93.0491 173.897 93.2408C173.392 93.4324 172.885 93.6179 172.376 93.7972C171.866 93.9765 171.355 94.1496 170.841 94.3164C170.328 94.4831 169.812 94.6436 169.294 94.7979C168.777 94.9519 168.257 95.0996 167.736 95.2411C167.215 95.3825 166.692 95.5176 166.168 95.6463C165.643 95.775 165.117 95.8972 164.59 96.0128C164.062 96.1288 163.533 96.238 163.003 96.3407C162.473 96.4436 161.942 96.54 161.409 96.6299C160.877 96.7196 160.343 96.8028 159.809 96.8797C159.274 96.9564 158.739 97.0265 158.203 97.0902C157.666 97.1538 157.129 97.211 156.592 97.2616C156.054 97.312 155.516 97.3559 154.977 97.3933C154.438 97.4305 153.899 97.4611 153.36 97.4853C152.82 97.5095 152.28 97.527 151.741 97.5379C151.201 97.5488 150.661 97.5531 150.121 97.5508C149.581 97.5485 149.041 97.5395 148.501 97.524C147.961 97.5086 147.422 97.4866 146.882 97.4578C146.343 97.429 145.804 97.3937 145.266 97.3519C144.727 97.3098 144.19 97.2613 143.652 97.2062C143.115 97.1512 142.579 97.0895 142.043 97.0212C141.507 96.9531 140.973 96.8785 140.439 96.7972C139.905 96.7159 139.372 96.6279 138.84 96.5334C138.309 96.4391 137.778 96.3383 137.249 96.231C136.72 96.1236 136.192 96.0098 135.665 95.8895C135.139 95.7694 134.614 95.6428 134.091 95.5097C133.567 95.3766 133.045 95.237 132.525 95.0909C132.006 94.945 131.487 94.7929 130.971 94.6345C130.455 94.4758 129.941 94.3109 129.429 94.1397C128.916 93.9687 128.406 93.7914 127.898 93.6077C126.122 92.9503 124.393 92.1856 122.712 91.3136C123.456 92.6794 124.27 93.9258 125.343 95.0606C126.7 96.5059 127.604 97.6717 128.294 99.5571C127.367 102.57 126.252 105.513 124.951 108.385C124.603 109.156 124.149 110.079 123.658 111.08C122.188 114.073 120.378 117.757 120.04 120.119C119.844 121.492 120.167 122.969 120.832 124.177C121.567 125.513 122.799 126.58 124.299 126.935C127.752 127.754 133.398 126.011 137.134 124.858C137.453 124.76 137.758 124.666 138.046 124.578C137.061 127.078 135.425 128.757 132.966 129.848C130.152 131.097 127.055 131.389 124.011 131.212C127.345 137.371 132.226 143.258 139.176 145.318C142.869 146.413 146.745 146.198 150.536 145.859C150.961 145.821 151.383 145.778 151.801 145.735C154.071 145.501 156.244 145.277 158.517 145.98C162.764 135.991 169.557 127.362 179.878 123.242C182.955 122.014 186.118 121.345 189.333 120.664C189.538 120.621 189.743 120.577 189.949 120.534C192.12 117.534 194.33 114.562 196.579 111.62C197.105 110.939 197.636 110.264 198.166 109.589C199.739 107.588 201.309 105.59 202.74 103.475C198.62 100.985 194.666 98.2072 193.469 93.2826C193.321 92.6739 193.185 92.0658 193.048 91.4591C192.692 89.8721 192.337 88.2948 191.79 86.7426C189.298 79.668 184.102 73.0664 177.704 69.1367ZM140.207 102.981C139.067 102.454 137.839 102.279 136.593 102.341C134.711 102.656 133.201 103.412 132.046 104.986C131.918 105.157 131.798 105.334 131.688 105.517C131.577 105.7 131.476 105.888 131.384 106.081C131.292 106.273 131.209 106.47 131.136 106.672C131.064 106.873 131.001 107.077 130.949 107.284C130.896 107.491 130.854 107.7 130.822 107.912C130.79 108.123 130.769 108.335 130.758 108.549C130.747 108.762 130.747 108.976 130.757 109.189C130.767 109.403 130.787 109.615 130.818 109.827C130.85 110.038 130.892 110.248 130.944 110.456C130.996 110.663 131.058 110.868 131.131 111.069C131.203 111.27 131.285 111.468 131.376 111.661C131.468 111.855 131.569 112.043 131.68 112.227C131.79 112.41 131.909 112.587 132.037 112.759C132.164 112.931 132.3 113.096 132.444 113.254C132.588 113.412 132.739 113.563 132.898 113.707C133.057 113.85 133.223 113.986 133.395 114.113C135.004 115.285 136.631 115.479 138.552 115.391C140.526 114.839 142.145 113.881 143.169 112.03C143.223 111.933 143.274 111.835 143.323 111.735C143.372 111.636 143.418 111.535 143.462 111.433C143.505 111.331 143.546 111.228 143.585 111.123C143.623 111.019 143.659 110.914 143.692 110.808C143.725 110.702 143.755 110.595 143.782 110.488C143.809 110.38 143.834 110.272 143.856 110.163C143.877 110.054 143.896 109.945 143.912 109.835C143.929 109.725 143.942 109.615 143.952 109.505C143.963 109.394 143.97 109.284 143.975 109.173C143.98 109.062 143.982 108.951 143.981 108.84C143.98 108.729 143.976 108.618 143.969 108.507C143.962 108.396 143.953 108.286 143.94 108.176C143.928 108.065 143.912 107.955 143.894 107.846C143.876 107.736 143.855 107.627 143.832 107.519C143.808 107.41 143.781 107.303 143.752 107.196C143.723 107.089 143.69 106.983 143.656 106.877C143.621 106.771 143.584 106.666 143.543 106.562C143.504 106.458 143.461 106.355 143.416 106.253C143.37 106.151 143.322 106.051 143.272 105.951C143.221 105.852 143.168 105.754 143.113 105.657C143.058 105.56 143 105.465 142.939 105.371C142.879 105.277 142.816 105.185 142.751 105.095C142.686 105.004 142.619 104.915 142.55 104.828C142.48 104.741 142.408 104.656 142.334 104.572C142.261 104.489 142.185 104.407 142.107 104.327C142.028 104.248 141.948 104.17 141.866 104.095C141.784 104.019 141.7 103.946 141.615 103.874C141.529 103.803 141.441 103.734 141.352 103.667C141.263 103.601 141.172 103.536 141.079 103.474C140.987 103.412 140.893 103.352 140.797 103.295C140.702 103.238 140.605 103.183 140.506 103.131C140.408 103.078 140.308 103.028 140.207 102.981Z" fill="white"/>
    <path d="M326.641 230.783C328.64 232.606 331.909 244.839 332.485 247.854C335.107 261.595 332.723 276.115 324.704 287.71C313.467 303.957 293.214 313.238 274.244 316.609C272.98 316.842 271.712 317.052 270.441 317.242C269.171 317.432 267.897 317.6 266.62 317.747C265.344 317.894 264.065 318.02 262.784 318.124C261.503 318.228 260.221 318.311 258.938 318.372C257.654 318.433 256.37 318.472 255.085 318.49C253.8 318.509 252.515 318.505 251.231 318.48C249.946 318.455 248.662 318.408 247.379 318.34C246.096 318.272 244.814 318.183 243.533 318.072C242.253 317.961 240.975 317.828 239.7 317.674C238.424 317.521 237.151 317.346 235.881 317.149C234.611 316.953 233.345 316.735 232.083 316.496C230.82 316.257 229.562 315.997 228.308 315.716C227.054 315.434 225.806 315.132 224.562 314.809C223.319 314.486 222.081 314.143 220.849 313.778C219.617 313.414 218.391 313.028 217.172 312.623C215.953 312.217 214.741 311.791 213.536 311.345C210.341 310.146 206.902 308.952 203.916 307.298C201.635 306.036 199.571 304.128 197.42 302.633C196.923 302.292 196.423 301.956 195.919 301.627C195.415 301.298 194.906 300.974 194.394 300.657C193.882 300.34 193.366 300.03 192.846 299.726C192.326 299.422 191.802 299.124 191.275 298.833C190.748 298.541 190.217 298.257 189.683 297.978C189.148 297.7 188.611 297.428 188.07 297.163C187.529 296.898 186.985 296.64 186.437 296.388C185.89 296.137 185.339 295.892 184.786 295.653C184.233 295.415 183.676 295.184 183.117 294.959C182.558 294.735 181.996 294.517 181.432 294.307C180.867 294.096 180.301 293.892 179.731 293.695C179.162 293.499 178.59 293.309 178.015 293.126C177.441 292.944 176.865 292.768 176.286 292.6C175.708 292.431 175.127 292.27 174.545 292.116C173.962 291.961 173.378 291.814 172.792 291.674C172.206 291.535 171.618 291.402 171.029 291.276C170.44 291.151 169.849 291.033 169.256 290.922C168.664 290.811 168.071 290.707 167.476 290.611C166.881 290.515 166.285 290.426 165.688 290.344C165.091 290.262 164.493 290.188 163.894 290.121C163.295 290.054 162.696 289.994 162.095 289.942C161.495 289.89 160.894 289.845 160.292 289.807C159.691 289.77 159.089 289.74 158.487 289.717C157.885 289.695 157.283 289.679 156.68 289.671C156.077 289.663 155.475 289.663 154.872 289.67C154.269 289.677 153.667 289.691 153.065 289.713C152.463 289.734 151.861 289.764 151.259 289.8C150.658 289.837 150.057 289.881 149.456 289.932C148.856 289.983 148.256 290.042 147.657 290.108C147.058 290.174 146.46 290.247 145.863 290.328C145.266 290.409 144.67 290.497 144.075 290.592C143.48 290.688 142.886 290.791 142.294 290.9C152.94 293.282 164.207 296.35 174.462 300.097C191.226 306.224 208.561 317.685 216.293 334.301C215.875 335.707 215.372 336.943 214.458 338.107C210.876 342.667 204.066 344.169 198.613 344.749C198.108 344.781 197.601 344.807 197.095 344.826C175.864 345.603 150.97 329.677 135.963 315.814C125.68 306.316 113.589 294.254 113.076 279.378C112.865 273.25 114.696 267.696 118.941 263.196C126.297 255.395 133.219 257.266 142.835 257.866C147.548 258.159 152.354 258.146 157.073 257.984C168.422 257.594 181.825 256.109 191.502 249.629C194.309 247.749 196.542 245.491 198.831 243.04C204.638 242.969 210.498 243.131 216.273 243.772C230.602 245.363 245.951 249.459 256.91 259.312C258.936 261.133 260.668 263.17 262.367 265.291C268.629 264.898 274.749 263.567 280.788 261.905C297.931 257.186 317.591 246.744 326.641 230.783Z" fill="white"/>
    <path fill-rule="evenodd" clip-rule="evenodd" d="M218.073 107.81C215.74 107.11 213.388 106.484 211.016 105.934C207.575 110.37 204.18 114.84 200.83 119.345C200.389 119.934 199.914 120.608 199.418 121.314C198.037 123.274 196.484 125.48 194.993 126.784C193.768 127.855 191.058 128.44 188.633 128.964C187.432 129.223 186.301 129.467 185.454 129.748C182.3 130.794 179.311 132.26 176.648 134.257C159.454 147.151 156.493 184.123 159.005 203.775C160.158 212.798 163.079 223.936 168.186 231.553C164.685 229.304 161.7 226.345 159.025 223.174C158.672 222.756 158.33 222.321 157.986 221.883C157.302 221.013 156.612 220.137 155.832 219.384L136.262 233.145C135.581 233.621 134.745 234.192 133.816 234.827C129.614 237.697 123.509 241.867 121.263 244.424C118.777 247.256 117.33 250.492 116.475 254.137C125.332 248.429 130.277 248.79 138.536 249.393C140.113 249.508 141.811 249.632 143.68 249.724C157.215 250.391 180.391 250.291 190.455 239.672C193.854 236.086 196.972 229.289 199.199 224.431C199.37 224.059 199.536 223.698 199.696 223.351C200.954 220.638 202.134 217.891 203.237 215.111C204.34 212.331 205.363 209.522 206.306 206.684C207.25 203.845 208.113 200.983 208.895 198.096C209.677 195.209 210.376 192.303 210.994 189.376C213.641 177.13 215.606 162.114 211.73 150.011C210.651 146.642 209.194 143.529 207.725 140.39C207.046 138.938 206.364 137.481 205.715 135.99C212.275 139.236 217.476 145.399 219.81 152.295C222.026 158.846 221.812 165.551 221.517 172.349C220.916 178.539 220.16 184.816 218.677 190.865C232.625 185.9 243.849 179.1 250.426 165.234C251.669 162.613 252.601 159.974 253.306 157.166C253.42 156.714 253.516 156.243 253.613 155.769C253.794 154.89 253.977 153.998 254.275 153.189C254.424 152.786 254.518 152.644 254.843 152.389C255.162 152.592 255.172 152.638 255.238 152.954C255.243 152.978 255.249 153.003 255.255 153.03C255.457 153.973 255.43 155.073 255.405 156.103C255.398 156.403 255.391 156.698 255.39 156.981C255.357 164.349 253.267 171.432 249.074 177.509C243.674 185.334 234.849 191.201 225.468 192.891C223.036 193.329 220.604 193.445 218.137 193.411C215.944 204.149 212.198 214.591 207.794 224.611C207.123 226.137 206.38 227.638 205.636 229.138C204.728 230.969 203.821 232.8 203.047 234.676C207.557 234.774 212.058 235.102 216.556 235.431C221.675 235.804 226.791 236.178 231.916 236.211C255.064 236.36 281.628 230.583 298.826 214.044C301.936 211.053 304.998 207.474 306.84 203.537C304.937 197.431 302.955 191.369 300.423 185.487C287.99 156.604 266.389 130.804 238.325 116.08C236.168 114.948 233.979 113.886 231.755 112.894C229.531 111.901 227.278 110.981 224.995 110.133C222.712 109.285 220.405 108.511 218.073 107.81ZM271.837 172.855C271.825 172.844 271.813 172.832 271.799 172.819C271.78 172.84 271.761 172.86 271.742 172.881C271.7 172.926 271.658 172.972 271.618 173.019C271.173 173.542 270.253 176.016 269.468 178.124C269.031 179.298 268.637 180.359 268.389 180.908C267.188 183.574 265.835 186.16 264.331 188.668C264.083 189.072 263.829 189.473 263.571 189.87C263.312 190.268 263.048 190.662 262.78 191.053C262.512 191.445 262.238 191.832 261.96 192.216C261.682 192.601 261.399 192.981 261.111 193.359C260.823 193.736 260.531 194.109 260.234 194.479C259.937 194.849 259.635 195.215 259.329 195.577C259.023 195.939 258.712 196.297 258.397 196.652C258.081 197.006 257.762 197.357 257.438 197.703C257.114 198.049 256.785 198.392 256.453 198.73C256.12 199.068 255.783 199.402 255.442 199.732C255.101 200.061 254.756 200.387 254.407 200.708C254.058 201.029 253.705 201.345 253.348 201.657C252.99 201.97 252.63 202.277 252.265 202.58C251.9 202.884 251.531 203.182 251.159 203.476C250.787 203.77 250.411 204.059 250.031 204.343C249.651 204.628 249.268 204.907 248.882 205.182C248.495 205.457 248.105 205.727 247.712 205.992C247.318 206.257 246.922 206.517 246.522 206.772C246.122 207.027 245.719 207.277 245.313 207.522C244.907 207.767 244.497 208.007 244.085 208.241C243.673 208.476 243.258 208.705 242.84 208.93C242.422 209.154 242.002 209.373 241.578 209.587C241.155 209.8 240.729 210.009 240.3 210.212C239.871 210.415 239.44 210.612 239.007 210.804C238.573 210.996 238.137 211.183 237.699 211.364C237.261 211.546 236.82 211.721 236.378 211.891C235.935 212.062 235.49 212.226 235.043 212.385C234.596 212.544 234.148 212.698 233.697 212.845C233.246 212.993 232.794 213.135 232.339 213.272C231.885 213.408 231.429 213.539 230.972 213.664C230.514 213.788 230.055 213.908 229.595 214.021C229.134 214.135 228.673 214.242 228.209 214.344C226.133 214.797 224.018 215.06 221.903 215.324C219.173 215.663 216.445 216.003 213.806 216.75L215.968 217.478C216.328 217.558 216.688 217.634 217.049 217.706C217.41 217.777 217.772 217.845 218.135 217.907C218.498 217.97 218.862 218.028 219.226 218.082C219.59 218.136 219.955 218.185 220.32 218.23C220.686 218.275 221.052 218.315 221.418 218.351C221.785 218.387 222.152 218.418 222.519 218.445C222.886 218.472 223.253 218.495 223.621 218.513C223.989 218.53 224.357 218.544 224.725 218.553C225.093 218.562 225.461 218.566 225.83 218.566C226.198 218.566 226.566 218.561 226.934 218.552C227.302 218.543 227.67 218.529 228.038 218.511C228.405 218.493 228.773 218.47 229.14 218.443C229.507 218.416 229.874 218.384 230.24 218.348C230.607 218.312 230.973 218.271 231.338 218.226C231.704 218.181 232.069 218.131 232.433 218.077C232.797 218.023 233.16 217.964 233.523 217.901C233.886 217.838 234.248 217.771 234.609 217.699C234.97 217.627 235.33 217.551 235.69 217.47C236.049 217.389 236.407 217.304 236.764 217.215C237.121 217.125 237.477 217.031 237.833 216.933C238.187 216.835 238.541 216.733 238.893 216.625C239.245 216.519 239.596 216.408 239.946 216.292C240.296 216.177 240.644 216.057 240.991 215.933C241.337 215.809 241.683 215.681 242.026 215.548C242.37 215.416 242.712 215.279 243.052 215.138C243.392 214.997 243.73 214.852 244.067 214.703C244.404 214.554 244.738 214.401 245.071 214.243C245.404 214.086 245.735 213.925 246.064 213.759C246.393 213.594 246.72 213.424 247.045 213.251C247.37 213.077 247.692 212.9 248.013 212.718C248.333 212.537 248.651 212.352 248.967 212.163C249.283 211.973 249.597 211.78 249.908 211.583C260.481 204.952 268.231 194.629 271 182.395C271.373 180.747 272.577 174.353 271.983 173.049C271.937 172.949 271.899 172.914 271.837 172.855Z" fill="white"/>
</svg>
