<svg width="49" height="48" viewBox="0 0 49 48" fill="none" xmlns="http://www.w3.org/2000/svg">
    <path d="M22.7128 5.54767C23.354 3.48411 26.146 3.48411 26.7872 5.54767L30.0401 16.016C30.3269 16.9389 31.1493 17.5637 32.0773 17.5637H42.6039C44.6789 17.5637 45.5417 20.3402 43.8629 21.6156L35.3467 28.0854C34.596 28.6557 34.2818 29.6667 34.5686 30.5895L37.8215 41.0579C38.4627 43.1215 36.204 44.8374 34.5252 43.5621L26.0091 37.0923C25.2583 36.5219 24.2417 36.5219 23.4909 37.0923L14.9748 43.5621C13.296 44.8374 11.0373 43.1215 11.6785 41.0579L14.9314 30.5895C15.2182 29.6667 14.904 28.6557 14.1533 28.0854L5.63709 21.6156C3.95834 20.3402 4.8211 17.5637 6.89614 17.5637H17.4227C18.3507 17.5637 19.1731 16.9389 19.4599 16.016L22.7128 5.54767Z" fill="#2EA33A"/>
</svg>
