<svg width="61" height="61" viewBox="0 0 61 61" fill="none" xmlns="http://www.w3.org/2000/svg">
    <rect width="61" height="61" fill="white" fill-opacity="0.2"/>
    <path d="M33.4705 32.585C33.529 32.5945 33.5444 32.5904 33.5877 32.637C33.6381 32.8673 33.4847 33.1705 33.4044 33.3742L33.3779 33.4189C33.3177 33.2555 33.4193 32.7577 33.4705 32.585Z" fill="white"/>
    <path d="M27.461 32.5882C27.5333 32.5848 27.5692 32.5773 27.6361 32.61C27.756 32.8442 27.7431 33.1617 27.7588 33.4189C27.6123 33.1809 27.4575 32.8685 27.461 32.5882Z" fill="white"/>
    <path d="M25.9355 15.1309C25.9392 15.1348 25.943 15.1386 25.9467 15.1425C26.1582 15.3719 26.2738 16.0125 26.2715 16.3223C26.2415 16.2846 26.2121 16.2467 26.1855 16.2066C25.9827 15.9015 25.8627 15.4962 25.9355 15.1309Z" fill="white"/>
    <path d="M36.492 31.0957C36.6229 31.2272 36.7465 31.68 36.7559 31.8701C36.6384 31.8231 36.5174 31.783 36.3984 31.7399C36.4259 31.5246 36.4571 31.3099 36.492 31.0957Z" fill="white"/>
    <path d="M24.3539 31.0361C24.4233 31.2456 24.5137 31.4961 24.4717 31.7202C24.3927 31.8511 24.3256 31.8585 24.198 31.9163L24.1289 31.9297C24.0947 31.7337 24.2973 31.2448 24.3539 31.0361Z" fill="white"/>
    <path d="M34.7871 15.0713C34.8081 15.0787 34.8299 15.0839 34.8502 15.0934C34.9292 15.1302 34.9788 15.1752 35.0073 15.2643C35.1048 15.57 34.8223 16.0273 34.6728 16.2763C34.6511 16.2939 34.615 16.309 34.5903 16.3223C34.5846 16.3122 34.5775 16.303 34.5733 16.2921C34.4786 16.0464 34.708 15.3276 34.7871 15.0713Z" fill="white"/>
    <path d="M29.1402 20.4326C30.0621 20.7453 30.7588 20.7702 31.6755 20.4367C31.8012 21.0442 31.9528 21.5201 32.3467 22.0175C32.1063 22.3189 31.8802 22.5768 31.5586 22.8003C31.5037 22.8312 31.4496 22.8609 31.392 22.8874C30.8301 23.1454 30.2444 23.192 29.6549 22.9772C29.123 22.7834 28.7119 22.4273 28.4746 21.9295C28.8095 21.4408 28.9985 21.0017 29.1402 20.4326Z" fill="white"/>
    <path d="M30.3531 9.53774C30.3992 9.53322 30.408 9.53155 30.4612 9.53125C30.5252 9.53145 30.5892 9.53325 30.6531 9.53665C30.7171 9.54005 30.7809 9.54503 30.8446 9.5516C30.9083 9.55818 30.9718 9.56634 31.0351 9.57608C31.0984 9.58582 31.1614 9.59713 31.2241 9.61002C31.2868 9.6229 31.3491 9.63733 31.4111 9.65332C31.4731 9.66931 31.5347 9.68684 31.5958 9.7059C31.6568 9.72495 31.7174 9.74552 31.7774 9.7676C31.8375 9.78968 31.897 9.81323 31.9559 9.83827C32.0148 9.86332 32.073 9.88981 32.1305 9.91776C32.188 9.9457 32.2448 9.97506 32.3009 10.0058C32.3569 10.0366 32.4122 10.0688 32.4666 10.1023C32.521 10.1358 32.5746 10.1707 32.6273 10.2069C32.6799 10.2431 32.7317 10.2806 32.7825 10.3194C32.8332 10.3581 32.883 10.3981 32.9318 10.4394C32.9805 10.4806 33.0282 10.5231 33.0749 10.5668C33.1215 10.6104 33.167 10.6552 33.2114 10.7011C34.151 11.6801 34.2828 12.7035 34.2493 13.999C34.1907 13.8887 34.1297 13.7798 34.0663 13.6722C33.7671 13.1703 32.918 12.0416 32.3275 11.9181C31.9533 11.8399 31.5295 12.3736 31.2392 12.5781C29.6532 13.4416 27.9453 12.1558 27.3207 12.4478C26.9193 12.6356 26.7733 13.1555 26.6289 13.5338C26.64 12.5725 26.8782 11.7161 27.5067 10.9685C28.2482 10.0863 29.2145 9.64186 30.3531 9.53774Z" fill="white"/>
    <path d="M31.0352 27.5811C31.1453 27.6956 31.2005 27.9621 31.2527 28.1192C31.4783 28.7969 31.6737 29.4873 31.8867 30.1693C31.9912 30.5037 32.0771 30.8769 32.2455 31.1853C32.3243 31.3298 32.4081 31.4308 32.5526 31.5131C32.9851 31.7594 33.5128 31.8841 33.9866 32.0336C34.7781 32.2834 35.576 32.5209 36.3611 32.7893C37.0268 33.0169 37.6742 33.3414 38.3487 33.5352C38.4987 33.5783 38.6667 33.62 38.8206 33.5712C38.983 33.5196 39.109 33.3564 39.1728 33.2057C39.2168 33.1017 39.2247 32.983 39.1729 32.8801C39.0149 32.5658 38.414 32.4379 38.0982 32.3236C37.9073 31.8604 37.7598 31.3684 37.5944 30.8949C38.3018 30.5242 39.3537 30.0918 40.1149 29.8493C40.2122 30.232 40.272 30.6297 40.3466 31.0176C40.4702 31.7757 40.9528 33.811 40.85 34.4598C40.7799 34.9029 40.5267 35.3334 40.1584 35.5974C39.7979 35.8557 39.2978 35.9789 38.8581 35.8945C38.4044 35.8075 37.9424 35.5678 37.5167 35.3933C36.9831 35.1746 36.4412 34.9695 35.9169 34.7299C35.0096 34.3154 34.1242 33.8499 33.2226 33.4227C32.6788 33.1651 32.0017 32.9421 31.5105 32.607C31.3654 32.5081 31.2683 32.3417 31.1734 32.1976C31.1409 31.4616 31.0896 30.7224 31.0786 29.9859C31.0668 29.1863 31.0942 28.3785 31.0352 27.5811Z" fill="white"/>
    <path d="M29.9619 27.7002C30.1046 28.2379 29.9546 30.4832 29.9218 31.1308C29.9037 31.4875 29.9366 31.8608 29.8772 32.2132C29.8486 32.3829 29.7712 32.4353 29.6358 32.5298C29.08 32.9177 28.3433 33.1526 27.7282 33.4438L24.2731 35.066C23.7115 35.3235 23.133 35.6244 22.5485 35.8231C22.3022 35.9068 22.0187 35.9497 21.7612 35.8993C21.2219 35.7938 20.7131 35.4739 20.4101 35.0145C19.8654 34.1885 20.1042 33.2754 20.2884 32.3829L20.5694 31.0014L20.7936 29.7845C21.6511 30.0964 22.5042 30.3406 23.39 30.5582C23.1878 31.118 23.0368 31.6796 22.9086 32.2595C22.7016 32.316 22.4913 32.3695 22.2885 32.4398C22.0892 32.509 21.762 32.6405 21.6847 32.8603C21.6479 32.9651 21.6533 33.0597 21.6973 33.1607C21.7641 33.3145 21.8914 33.4593 22.0516 33.5179C22.1745 33.5629 22.2758 33.5442 22.3988 33.5134C23.2132 33.3097 24.0155 32.9743 24.8172 32.7201C25.7484 32.4249 26.6828 32.1431 27.6081 31.8296C27.9837 31.7023 28.4122 31.5928 28.7623 31.4059C28.8606 31.3534 28.8886 31.2887 28.9303 31.1905C29.0787 30.8404 29.1534 30.4364 29.2618 30.0711C29.4963 29.2808 29.7384 28.4937 29.9619 27.7002Z" fill="white"/>
    <path d="M32.237 13.165C32.2567 13.1734 32.278 13.1787 32.2961 13.1901C32.7823 13.499 33.4237 14.6999 33.5485 15.252C33.7207 16.0139 33.4174 17.3299 33.004 17.9939C32.5726 18.6867 31.7129 19.3028 30.9101 19.482C30.163 19.6489 29.5057 19.4348 28.8815 19.0322C28.3612 18.6531 27.9802 18.2217 27.693 17.6453C27.0455 16.3461 27.2529 14.8717 27.7117 13.5449C28.2427 13.7187 28.7651 13.8696 29.3232 13.9275C30.4449 14.0441 31.3506 13.8706 32.237 13.165Z" fill="white"/>
    <path d="M30.563 33.2402C30.864 33.3669 31.1104 33.6475 31.4094 33.7978C32.5424 34.3674 33.7022 34.8985 34.8486 35.4409C34.6748 36.9276 34.549 38.4435 34.4623 39.9379C33.1595 40.1725 31.8772 40.3129 30.5523 40.3291C29.1899 40.3154 27.8101 40.1993 26.4948 39.8254C26.4209 38.3548 26.2933 36.8869 26.2109 35.4168C26.7555 35.1843 27.2835 34.9035 27.8214 34.6546C28.7011 34.2473 29.8203 33.8706 30.563 33.2402Z" fill="white"/>
    <path d="M33.2683 22.2793C33.7938 22.4171 34.3127 22.5814 34.838 22.7214C35.82 22.983 36.8509 23.1629 37.7116 23.7334C39.3881 24.8446 39.5471 26.8945 39.9121 28.6933C38.9741 29.149 37.9894 29.5125 37.044 29.9558C36.9266 29.6592 36.6325 28.8013 36.3306 28.6883C36.2779 28.6686 36.2309 28.6769 36.182 28.7055C35.7092 28.9824 35.4799 30.8658 35.402 31.3843C34.6758 31.0999 33.9156 30.9094 33.1949 30.613C32.773 29.4271 32.4483 28.2048 32.0056 27.0264C31.8993 26.7435 31.7133 26.2976 31.4111 26.179C31.1808 26.0885 30.9537 26.1873 30.7414 26.2761C30.4832 26.3842 30.4623 26.2615 30.224 26.1741C30.0602 26.1141 29.8509 26.1419 29.6985 26.222C29.1771 26.4957 28.8523 27.9452 28.6677 28.5167C28.417 29.1649 28.2147 29.8855 28.0577 30.5625C27.2533 30.8826 26.4288 31.1356 25.6031 31.3936C25.4164 30.6428 25.16 29.8364 24.8676 29.1199C24.8085 28.9751 24.73 28.7475 24.5775 28.684C24.2843 28.7804 24.0651 29.3239 23.9243 29.582C22.9656 29.3494 22.027 29.0729 21.0879 28.7728C21.2439 27.6222 21.5524 25.8784 22.1444 24.8818C22.9221 23.5722 24.1707 23.174 25.5665 22.8042L27.4959 22.3078C27.5459 22.4251 27.6026 22.5391 27.6659 22.6498C28.0833 23.3869 28.8381 23.9437 29.6526 24.1655C30.4374 24.3794 31.2892 24.2353 31.9898 23.8319C32.5618 23.5026 33.0969 22.9264 33.2683 22.2793Z" fill="white"/>
    <path d="M26.0133 40.7461C26.3009 40.7547 26.6712 40.9046 26.9581 40.973C27.3963 41.0748 27.8375 41.1602 28.282 41.229C30.5201 41.5658 32.7556 41.3106 34.9529 40.8476C35.951 41.6378 42.0608 46.2303 42.3524 46.7179C42.7722 47.4195 42.8738 48.2889 42.6666 49.0767C42.6542 49.1245 42.6405 49.172 42.6257 49.2191C42.6109 49.2663 42.5949 49.313 42.5777 49.3593C42.5606 49.4057 42.5423 49.4516 42.5228 49.497C42.5033 49.5424 42.4828 49.5873 42.461 49.6316C42.4393 49.676 42.4165 49.7198 42.3925 49.763C42.3686 49.8062 42.3436 49.8488 42.3175 49.8907C42.2914 49.9326 42.2643 49.9739 42.2362 50.0144C42.2081 50.055 42.1789 50.0949 42.1487 50.1339C42.1186 50.173 42.0875 50.2113 42.0554 50.2488C42.0233 50.2863 41.9904 50.323 41.9564 50.3589C41.9225 50.3947 41.8877 50.4297 41.8521 50.4638C41.8164 50.4978 41.7799 50.531 41.7425 50.5632C41.7052 50.5954 41.667 50.6267 41.6281 50.657C41.5892 50.6873 41.5496 50.7166 41.5092 50.7449C41.4688 50.7732 41.4277 50.8004 41.386 50.8266C41.3442 50.8528 41.3018 50.878 41.2588 50.9021C40.2978 51.4496 39.4196 51.3362 38.3833 51.1137C37.8975 51.0135 37.4155 50.8977 36.9371 50.7663C36.6571 49.6188 35.8042 48.6015 34.7487 48.0837C34.3478 47.887 33.8928 47.7668 33.5111 47.5368C33.07 47.2709 32.7725 46.8218 32.3408 46.5474C31.6472 46.1063 31.004 46.6494 30.3283 46.8072C30.3075 46.8121 30.2866 46.816 30.2658 46.8207C30.0347 46.8733 29.8058 46.8287 29.5738 46.7982L25.6783 46.1499C24.8525 46.0088 24.0046 45.8157 23.1707 45.7422C23.0396 45.7307 22.8569 45.7009 22.7437 45.7825C22.6378 45.8587 22.5647 46.0048 22.5344 46.1289C22.4955 46.2888 22.5413 46.4435 22.6371 46.5755C22.7202 46.6901 22.8728 46.7339 23.0022 46.7697C23.5323 46.9164 24.1145 46.9676 24.6579 47.0658C25.8033 47.2804 26.9506 47.4844 28.0998 47.6779C28.1151 48.5415 28.1149 49.4052 28.0994 50.2689C26.7785 50.5791 25.392 50.7739 24.0517 50.9879C23.1272 51.1355 22.0943 51.4352 21.1565 51.3263C20.3442 51.232 19.5779 50.8386 19.067 50.1913C19.0358 50.1522 19.0055 50.1123 18.9763 50.0716C18.947 50.031 18.9188 49.9896 18.8916 49.9476C18.8644 49.9055 18.8383 49.8628 18.8132 49.8194C18.7882 49.7761 18.7642 49.7321 18.7412 49.6875C18.7184 49.6429 18.6966 49.5978 18.6759 49.5522C18.6552 49.5065 18.6357 49.4604 18.6173 49.4138C18.599 49.3672 18.5818 49.3201 18.5657 49.2726C18.5497 49.2251 18.5348 49.1772 18.5212 49.129C18.5075 49.0808 18.4951 49.0323 18.4838 48.9834C18.4726 48.9346 18.4625 48.8855 18.4536 48.8361C18.4448 48.7868 18.4373 48.7372 18.4309 48.6875C18.4245 48.6378 18.4193 48.5879 18.4155 48.5379C18.4116 48.4879 18.4089 48.4379 18.4074 48.3877C18.406 48.3376 18.4059 48.2875 18.407 48.2374C18.408 48.1872 18.4103 48.1371 18.4138 48.0871C18.4174 48.0371 18.4222 47.9872 18.4282 47.9375C18.487 47.4454 18.6588 46.924 18.9662 46.5306C19.4532 45.9074 20.761 44.9839 21.4165 44.4559L26.0133 40.7461Z" fill="white"/>
</svg>
