<svg width="447" height="447" viewBox="0 0 447 447" fill="none" xmlns="http://www.w3.org/2000/svg">
    <rect width="447" height="447" fill="#2EA33A"/>
    <path d="M245.267 238.778C245.696 238.848 245.809 238.818 246.126 239.16C246.495 240.847 245.372 243.069 244.783 244.562L244.589 244.89C244.148 243.692 244.892 240.044 245.267 238.778Z" fill="white"/>
    <path d="M201.238 238.802C201.768 238.777 202.031 238.722 202.521 238.962C203.4 240.678 203.305 243.005 203.42 244.89C202.347 243.145 201.212 240.856 201.238 238.802Z" fill="white"/>
    <path d="M190.045 110.877C190.072 110.906 190.1 110.934 190.127 110.962C191.677 112.643 192.523 117.338 192.507 119.607C192.287 119.332 192.072 119.053 191.876 118.76C190.39 116.524 189.511 113.554 190.045 110.877Z" fill="white"/>
    <path d="M267.401 227.865C268.36 228.829 269.267 232.147 269.335 233.54C268.474 233.195 267.588 232.902 266.716 232.586C266.917 231.008 267.146 229.435 267.401 227.865Z" fill="white"/>
    <path d="M178.469 227.429C178.978 228.964 179.64 230.799 179.333 232.441C178.754 233.401 178.262 233.455 177.327 233.879L176.82 233.977C176.57 232.54 178.054 228.958 178.469 227.429Z" fill="white"/>
    <path d="M254.915 110.44C255.069 110.495 255.229 110.533 255.377 110.602C255.956 110.872 256.32 111.202 256.529 111.855C257.244 114.095 255.173 117.446 254.077 119.271C253.919 119.4 253.654 119.51 253.473 119.607C253.432 119.534 253.38 119.466 253.349 119.386C252.655 117.586 254.336 112.318 254.915 110.44Z" fill="white"/>
    <path d="M213.536 149.728C220.291 152.019 225.396 152.202 232.114 149.758C233.035 154.209 234.146 157.696 237.032 161.341C235.271 163.55 233.614 165.439 231.257 167.077C230.855 167.304 230.458 167.522 230.036 167.716C225.919 169.607 221.627 169.948 217.307 168.374C213.41 166.954 210.397 164.344 208.658 160.697C211.112 157.115 212.497 153.898 213.536 149.728Z" fill="white"/>
    <path d="M222.416 69.8913C222.754 69.8582 222.818 69.846 223.209 69.8438C223.678 69.8452 224.147 69.8584 224.615 69.8833C225.084 69.9082 225.552 69.9447 226.018 69.9929C226.485 70.0411 226.95 70.1009 227.414 70.1723C227.878 70.2436 228.339 70.3265 228.799 70.4209C229.258 70.5153 229.715 70.6211 230.169 70.7383C230.624 70.8555 231.075 70.9839 231.522 71.1235C231.97 71.2632 232.414 71.4139 232.854 71.5757C233.294 71.7375 233.73 71.9101 234.161 72.0936C234.593 72.2771 235.019 72.4713 235.441 72.676C235.862 72.8808 236.279 73.0959 236.69 73.3214C237.1 73.547 237.505 73.7826 237.904 74.0282C238.303 74.274 238.695 74.5295 239.081 74.7948C239.467 75.06 239.846 75.3347 240.219 75.6189C240.59 75.903 240.955 76.1962 241.313 76.4984C241.67 76.8007 242.019 77.1119 242.361 77.4318C242.703 77.7517 243.036 78.0798 243.361 78.4161C250.247 85.5899 251.213 93.0893 250.968 102.583C250.538 101.775 250.091 100.976 249.627 100.188C247.433 96.5106 241.212 88.2394 236.884 87.3345C234.143 86.761 231.037 90.6718 228.91 92.1707C217.288 98.4985 204.772 89.0763 200.195 91.2162C197.254 92.5918 196.184 96.4015 195.126 99.1738C195.207 92.1296 196.953 85.8544 201.558 80.3755C206.992 73.911 214.073 70.6543 222.416 69.8913Z" fill="white"/>
    <path d="M227.429 202.11C228.236 202.95 228.64 204.903 229.023 206.053C230.676 211.02 232.108 216.079 233.669 221.077C234.435 223.527 235.064 226.262 236.298 228.522C236.876 229.581 237.49 230.321 238.548 230.924C241.717 232.729 245.585 233.643 249.057 234.738C254.856 236.568 260.703 238.309 266.456 240.276C271.334 241.943 276.079 244.321 281.021 245.742C282.12 246.058 283.352 246.363 284.48 246.005C285.669 245.627 286.592 244.431 287.06 243.327C287.383 242.565 287.44 241.695 287.061 240.941C285.904 238.638 281.5 237.7 279.186 236.863C277.787 233.469 276.706 229.863 275.494 226.394C280.678 223.677 288.386 220.509 293.964 218.732C294.677 221.536 295.115 224.451 295.662 227.293C296.568 232.848 300.104 247.762 299.351 252.517C298.837 255.764 296.982 258.919 294.283 260.853C291.641 262.746 287.977 263.649 284.754 263.03C281.429 262.393 278.044 260.636 274.925 259.357C271.015 257.755 267.044 256.252 263.201 254.496C256.553 251.459 250.065 248.047 243.458 244.917C239.473 243.029 234.512 241.395 230.912 238.94C229.848 238.215 229.137 236.996 228.442 235.94C228.203 230.547 227.827 225.13 227.747 219.733C227.66 213.873 227.861 207.954 227.429 202.11Z" fill="white"/>
    <path d="M219.564 202.983C220.61 206.924 219.511 223.377 219.27 228.122C219.137 230.736 219.378 233.472 218.943 236.054C218.734 237.298 218.166 237.682 217.174 238.374C213.102 241.217 207.703 242.938 203.196 245.072L177.877 256.959C173.762 258.846 169.523 261.051 165.239 262.507C163.435 263.12 161.357 263.435 159.471 263.066C155.518 262.292 151.79 259.948 149.57 256.582C145.578 250.529 147.328 243.837 148.678 237.298L150.737 227.174L152.38 218.257C158.663 220.542 164.915 222.332 171.406 223.927C169.924 228.029 168.818 232.144 167.878 236.393C166.361 236.807 164.82 237.2 163.334 237.715C161.874 238.222 159.476 239.185 158.91 240.796C158.64 241.564 158.68 242.257 159.002 242.997C159.491 244.124 160.424 245.185 161.598 245.615C162.499 245.945 163.241 245.807 164.143 245.582C170.111 244.089 175.989 241.631 181.864 239.769C188.688 237.605 195.535 235.541 202.316 233.243C205.068 232.311 208.208 231.508 210.773 230.138C211.494 229.754 211.699 229.279 212.005 228.56C213.092 225.994 213.639 223.034 214.434 220.357C216.152 214.566 217.926 208.798 219.564 202.983Z" fill="white"/>
    <path d="M236.229 96.4717C236.373 96.5328 236.529 96.5717 236.661 96.6557C240.224 98.919 244.924 107.719 245.839 111.765C247.101 117.348 244.878 126.991 241.849 131.857C238.688 136.933 232.388 141.448 226.505 142.762C221.03 143.985 216.214 142.416 211.64 139.466C207.827 136.688 205.035 133.527 202.931 129.303C198.186 119.782 199.705 108.978 203.067 99.2556C206.959 100.529 210.787 101.634 214.876 102.059C223.096 102.913 229.733 101.642 236.229 96.4717Z" fill="white"/>
    <path d="M223.962 243.58C226.168 244.508 227.973 246.565 230.164 247.666C238.467 251.84 246.965 255.732 255.366 259.707C254.092 270.601 253.17 281.709 252.535 292.659C242.988 294.379 233.592 295.408 223.883 295.526C213.899 295.426 203.789 294.575 194.151 291.835C193.609 281.059 192.674 270.302 192.07 259.529C196.061 257.826 199.93 255.769 203.871 253.944C210.318 250.96 218.519 248.2 223.962 243.58Z" fill="white"/>
    <path d="M243.786 163.26C247.637 164.269 251.439 165.473 255.288 166.499C262.484 168.417 270.038 169.735 276.345 173.915C288.631 182.058 289.796 197.079 292.471 210.261C285.597 213.6 278.382 216.264 271.454 219.513C270.593 217.339 268.438 211.052 266.226 210.224C265.84 210.08 265.495 210.14 265.137 210.35C261.672 212.379 259.992 226.18 259.421 229.98C254.1 227.896 248.529 226.5 243.248 224.328C240.156 215.638 237.777 206.681 234.533 198.046C233.754 195.973 232.391 192.705 230.177 191.836C228.489 191.173 226.825 191.897 225.269 192.548C223.377 193.34 223.224 192.441 221.478 191.801C220.277 191.361 218.744 191.565 217.627 192.151C213.806 194.157 211.426 204.779 210.073 208.967C208.236 213.717 206.753 218.997 205.603 223.958C199.709 226.304 193.667 228.158 187.616 230.048C186.248 224.546 184.369 218.637 182.226 213.387C181.793 212.326 181.218 210.658 180.1 210.193C177.952 210.899 176.346 214.882 175.314 216.773C168.289 215.069 161.411 213.042 154.529 210.843C155.672 202.412 157.934 189.634 162.271 182.33C167.97 172.734 177.12 169.816 187.348 167.106L201.486 163.469C201.853 164.328 202.268 165.164 202.732 165.974C205.791 171.376 211.322 175.456 217.29 177.082C223.041 178.649 229.284 177.593 234.417 174.637C238.608 172.224 242.529 168.002 243.786 163.26Z" fill="white"/>
    <path d="M190.629 298.582C192.737 298.645 195.45 299.744 197.553 300.244C200.763 300.991 203.997 301.616 207.254 302.121C223.655 304.588 240.036 302.718 256.138 299.326C263.451 305.116 308.223 338.77 310.36 342.343C313.436 347.484 314.181 353.854 312.663 359.627C312.571 359.978 312.471 360.326 312.363 360.671C312.254 361.017 312.137 361.359 312.011 361.699C311.886 362.038 311.751 362.375 311.609 362.707C311.466 363.04 311.315 363.369 311.156 363.694C310.997 364.019 310.829 364.34 310.654 364.657C310.479 364.973 310.295 365.285 310.104 365.592C309.913 365.9 309.715 366.202 309.508 366.499C309.302 366.797 309.089 367.089 308.867 367.375C308.647 367.661 308.419 367.942 308.184 368.217C307.949 368.492 307.707 368.76 307.458 369.023C307.21 369.286 306.955 369.542 306.694 369.792C306.432 370.041 306.164 370.284 305.891 370.52C305.617 370.757 305.338 370.986 305.052 371.208C304.768 371.43 304.477 371.645 304.181 371.852C303.885 372.059 303.584 372.259 303.278 372.451C302.972 372.643 302.661 372.827 302.346 373.004C295.304 377.016 288.869 376.185 281.275 374.554C277.715 373.82 274.183 372.971 270.677 372.009C268.626 363.6 262.375 356.145 254.641 352.351C251.703 350.91 248.369 350.029 245.572 348.343C242.34 346.395 240.16 343.104 236.996 341.093C231.913 337.861 227.201 341.841 222.249 342.997C222.097 343.033 221.943 343.061 221.791 343.096C220.097 343.482 218.42 343.155 216.72 342.931L188.174 338.18C182.123 337.146 175.91 335.731 169.799 335.193C168.839 335.108 167.499 334.891 166.67 335.488C165.894 336.046 165.358 337.117 165.136 338.027C164.851 339.198 165.187 340.332 165.889 341.299C166.498 342.139 167.616 342.46 168.564 342.722C172.449 343.797 176.715 344.172 180.697 344.892C189.091 346.465 197.498 347.959 205.919 349.377C206.031 355.706 206.03 362.035 205.916 368.364C196.236 370.637 186.076 372.064 176.255 373.633C169.48 374.714 161.911 376.91 155.039 376.112C149.087 375.421 143.472 372.538 139.727 367.795C139.499 367.509 139.277 367.216 139.063 366.918C138.848 366.621 138.642 366.317 138.443 366.009C138.243 365.701 138.052 365.388 137.868 365.07C137.684 364.752 137.509 364.43 137.34 364.104C137.173 363.777 137.013 363.446 136.862 363.112C136.71 362.777 136.567 362.439 136.433 362.098C136.298 361.756 136.172 361.411 136.054 361.063C135.937 360.715 135.828 360.364 135.728 360.011C135.628 359.658 135.537 359.302 135.454 358.944C135.372 358.586 135.298 358.226 135.233 357.865C135.168 357.503 135.113 357.14 135.066 356.776C135.019 356.411 134.982 356.046 134.953 355.68C134.925 355.313 134.905 354.946 134.894 354.579C134.884 354.212 134.883 353.844 134.891 353.477C134.899 353.11 134.915 352.743 134.941 352.376C134.967 352.01 135.003 351.644 135.047 351.279C135.478 347.674 136.736 343.853 138.989 340.97C142.557 336.403 152.141 329.636 156.945 325.767L190.629 298.582Z" fill="white"/>
</svg>
