<svg width="66" height="67" viewBox="0 0 66 67" fill="none" xmlns="http://www.w3.org/2000/svg">
    <g filter="url(#filter0_d_2009_2058)">
        <rect x="1" width="64" height="64" rx="16" fill="#2EA33A" shape-rendering="crispEdges"/>
        <path d="M36.1166 34.1875C36.178 34.1975 36.1942 34.1932 36.2396 34.2421C36.2924 34.4838 36.1315 34.8018 36.0472 35.0155L36.0194 35.0625C35.9563 34.891 36.0629 34.3687 36.1166 34.1875Z" fill="white"/>
        <path d="M29.8126 34.1909C29.8885 34.1873 29.9261 34.1795 29.9963 34.2138C30.1221 34.4595 30.1086 34.7926 30.125 35.0625C29.9713 34.8127 29.8088 34.485 29.8126 34.1909Z" fill="white"/>
        <path d="M28.21 15.875C28.2139 15.8791 28.2179 15.8831 28.2217 15.8872C28.4437 16.1279 28.5649 16.8 28.5625 17.125C28.5311 17.0855 28.5002 17.0457 28.4722 17.0036C28.2595 16.6835 28.1336 16.2583 28.21 15.875Z" fill="white"/>
        <path d="M39.2856 32.625C39.423 32.763 39.5527 33.2381 39.5625 33.4375C39.4392 33.3881 39.3123 33.3461 39.1875 33.3009C39.2164 33.075 39.2491 32.8497 39.2856 32.625Z" fill="white"/>
        <path d="M26.5526 32.5625C26.6255 32.7823 26.7203 33.0451 26.6763 33.2802C26.5934 33.4176 26.523 33.4253 26.389 33.486L26.3165 33.5C26.2807 33.2944 26.4933 32.7814 26.5526 32.5625Z" fill="white"/>
        <path d="M37.4979 15.8125C37.5199 15.8202 37.5428 15.8257 37.5641 15.8356C37.647 15.8743 37.6991 15.9215 37.729 16.015C37.8313 16.3357 37.5349 16.8155 37.378 17.0768C37.3553 17.0953 37.3173 17.1111 37.2915 17.125C37.2855 17.1145 37.2781 17.1048 37.2736 17.0933C37.1743 16.8356 37.415 16.0814 37.4979 15.8125Z" fill="white"/>
        <path d="M31.5733 21.4375C32.5406 21.7656 33.2715 21.7917 34.2333 21.4418C34.3652 22.0791 34.5243 22.5785 34.9375 23.1003C34.6853 23.4166 34.4481 23.6871 34.1107 23.9216C34.053 23.954 33.9963 23.9852 33.9359 24.013C33.3464 24.2837 32.7318 24.3326 32.1133 24.1072C31.5553 23.9039 31.124 23.5303 30.875 23.008C31.2263 22.4952 31.4246 22.0346 31.5733 21.4375Z" fill="white"/>
        <path d="M32.8448 10.0068C32.8932 10.0021 32.9024 10.0003 32.9583 10C33.0254 10.0002 33.0926 10.0021 33.1596 10.0057C33.2268 10.0092 33.2937 10.0145 33.3605 10.0214C33.4274 10.0283 33.494 10.0368 33.5604 10.047C33.6268 10.0573 33.6929 10.0691 33.7587 10.0826C33.8245 10.0962 33.8899 10.1113 33.9549 10.1281C34.0199 10.1449 34.0845 10.1632 34.1486 10.1832C34.2127 10.2032 34.2762 10.2248 34.3392 10.248C34.4023 10.2711 34.4647 10.2959 34.5265 10.3221C34.5882 10.3484 34.6493 10.3762 34.7097 10.4055C34.77 10.4348 34.8296 10.4656 34.8884 10.4979C34.9472 10.5302 35.0052 10.5639 35.0623 10.5991C35.1194 10.6343 35.1756 10.6709 35.2309 10.7089C35.2861 10.7468 35.3404 10.7862 35.3937 10.8269C35.447 10.8675 35.4992 10.9095 35.5503 10.9528C35.6015 10.9961 35.6516 11.0406 35.7005 11.0864C35.7494 11.1322 35.7971 11.1792 35.8437 11.2274C36.8296 12.2545 36.9678 13.3282 36.9327 14.6875C36.8712 14.5718 36.8072 14.4575 36.7407 14.3446C36.4267 13.8181 35.5359 12.6338 34.9163 12.5043C34.5238 12.4222 34.0791 12.9821 33.7746 13.1967C32.1105 14.1027 30.3186 12.7536 29.6633 13.06C29.2422 13.257 29.0889 13.8024 28.9375 14.1994C28.9491 13.1908 29.1991 12.2923 29.8585 11.5079C30.6364 10.5823 31.6503 10.1161 32.8448 10.0068Z" fill="white"/>
        <path d="M33.5625 28.9375C33.678 29.0577 33.7359 29.3373 33.7908 29.5021C34.0275 30.2131 34.2324 30.9375 34.456 31.6531C34.5656 32.0038 34.6557 32.3954 34.8324 32.719C34.9151 32.8706 35.003 32.9766 35.1546 33.0629C35.6083 33.3213 36.162 33.4522 36.6591 33.6091C37.4895 33.8711 38.3266 34.1203 39.1503 34.4019C39.8488 34.6407 40.5281 34.9811 41.2357 35.1845C41.3931 35.2297 41.5694 35.2735 41.7309 35.2222C41.9012 35.1681 42.0334 34.9969 42.1003 34.8387C42.1465 34.7297 42.1548 34.6051 42.1005 34.4971C41.9347 34.1674 41.3043 34.0332 40.9729 33.9133C40.7727 33.4273 40.6179 32.9111 40.4443 32.4143C41.1865 32.0254 42.2902 31.5717 43.0888 31.3173C43.1909 31.7188 43.2537 32.1361 43.3319 32.5431C43.4616 33.3384 43.9678 35.4738 43.8601 36.1546C43.7865 36.6194 43.5209 37.0711 43.1344 37.3481C42.7562 37.6191 42.2315 37.7484 41.7702 37.6598C41.2941 37.5685 40.8095 37.3171 40.3628 37.1339C39.803 36.9045 39.2345 36.6893 38.6843 36.4379C37.7325 36.003 36.8034 35.5146 35.8575 35.0664C35.287 34.7961 34.5766 34.5622 34.0612 34.2107C33.909 34.1069 33.8071 33.9323 33.7076 33.7811C33.6734 33.0089 33.6196 32.2333 33.6081 31.4607C33.5957 30.6216 33.6244 29.7741 33.5625 28.9375Z" fill="white"/>
        <path d="M32.4365 29.0625C32.5862 29.6266 32.4289 31.9824 32.3943 32.6618C32.3754 33.036 32.4099 33.4277 32.3476 33.7975C32.3176 33.9755 32.2364 34.0305 32.0943 34.1297C31.5112 34.5366 30.7383 34.7831 30.0929 35.0886L26.4679 36.7905C25.8787 37.0607 25.2717 37.3765 24.6584 37.5849C24.4 37.6727 24.1026 37.7177 23.8325 37.6649C23.2666 37.5541 22.7328 37.2185 22.4149 36.7366C21.8434 35.8699 22.094 34.9119 22.2872 33.9755L22.582 32.526L22.8173 31.2493C23.7169 31.5765 24.612 31.8328 25.5413 32.0611C25.3292 32.6484 25.1708 33.2376 25.0363 33.846C24.8191 33.9053 24.5985 33.9615 24.3857 34.0352C24.1766 34.1078 23.8333 34.2457 23.7522 34.4764C23.7135 34.5863 23.7193 34.6856 23.7654 34.7915C23.8354 34.9529 23.969 35.1048 24.1371 35.1664C24.266 35.2135 24.3724 35.1939 24.5014 35.1616C25.3559 34.9479 26.1976 34.596 27.0387 34.3293C28.0157 34.0196 28.9961 33.7239 29.9669 33.395C30.361 33.2615 30.8106 33.1465 31.1778 32.9504C31.281 32.8954 31.3104 32.8275 31.3541 32.7244C31.5098 32.3571 31.5882 31.9332 31.7019 31.55C31.948 30.7208 32.2019 29.8951 32.4365 29.0625Z" fill="white"/>
        <path d="M34.8224 13.8125C34.8431 13.8213 34.8655 13.8268 34.8844 13.8388C35.3945 14.1629 36.0674 15.4228 36.1984 16.0021C36.379 16.8014 36.0608 18.1822 35.6271 18.8788C35.1745 19.6057 34.2726 20.2521 33.4303 20.4402C32.6464 20.6152 31.9568 20.3907 31.3019 19.9683C30.7561 19.5705 30.3563 19.1179 30.055 18.5131C29.3756 17.1501 29.5932 15.6031 30.0745 14.2111C30.6317 14.3934 31.1798 14.5517 31.7653 14.6125C32.9422 14.7348 33.8924 14.5527 34.8224 13.8125Z" fill="white"/>
        <path d="M33.0661 34.875C33.3819 35.0079 33.6404 35.3023 33.9542 35.46C35.1429 36.0576 36.3596 36.6149 37.5625 37.1839C37.3801 38.7438 37.2481 40.3341 37.1571 41.902C35.7903 42.1482 34.4449 42.2955 33.0548 42.3125C31.6254 42.2981 30.1778 42.1763 28.7979 41.784C28.7202 40.2411 28.5864 38.701 28.5 37.1586C29.0713 36.9146 29.6253 36.6201 30.1896 36.3589C31.1126 35.9316 32.2869 35.5364 33.0661 34.875Z" fill="white"/>
        <path d="M35.9044 23.375C36.4558 23.5196 37.0002 23.6919 37.5514 23.8388C38.5816 24.1133 39.6632 24.3021 40.5662 24.9006C42.3253 26.0664 42.4921 28.2172 42.875 30.1044C41.8909 30.5826 40.8578 30.964 39.8659 31.4291C39.7427 31.1179 39.4341 30.2178 39.1173 30.0992C39.062 30.0785 39.0128 30.0872 38.9614 30.1172C38.4654 30.4078 38.2248 32.3837 38.1431 32.9278C37.3812 32.6294 36.5836 32.4296 35.8275 32.1186C35.3847 30.8743 35.0441 29.5919 34.5797 28.3556C34.4681 28.0587 34.273 27.5909 33.9559 27.4665C33.7143 27.3716 33.476 27.4751 33.2533 27.5684C32.9824 27.6818 32.9605 27.553 32.7104 27.4614C32.5385 27.3984 32.319 27.4276 32.1591 27.5116C31.612 27.7987 31.2713 29.3196 31.0776 29.9192C30.8146 30.5992 30.6023 31.3553 30.4375 32.0656C29.5936 32.4015 28.7286 32.6669 27.8623 32.9375C27.6664 32.1498 27.3974 31.3038 27.0906 30.552C27.0285 30.4001 26.9463 30.1613 26.7862 30.0947C26.4786 30.1958 26.2486 30.7661 26.101 31.0369C25.0951 30.7928 24.1103 30.5027 23.125 30.1878C23.2887 28.9807 23.6124 27.1512 24.2334 26.1055C25.0494 24.7315 26.3594 24.3137 27.8238 23.9257L29.8481 23.4049C29.9006 23.528 29.9601 23.6476 30.0265 23.7637C30.4645 24.537 31.2563 25.1212 32.1109 25.354C32.9343 25.5784 33.8281 25.4272 34.5631 25.004C35.1632 24.6585 35.7246 24.054 35.9044 23.375Z" fill="white"/>
        <path d="M28.2936 42.75C28.5954 42.7591 28.9839 42.9163 29.285 42.988C29.7446 43.0949 30.2076 43.1844 30.6739 43.2567C33.0222 43.61 35.3675 43.3422 37.6729 42.8565C38.7201 43.6856 45.1304 48.504 45.4364 49.0155C45.8767 49.7516 45.9833 50.6637 45.766 51.4903C45.7529 51.5404 45.7386 51.5903 45.7231 51.6397C45.7076 51.6892 45.6908 51.7383 45.6728 51.7868C45.6548 51.8355 45.6355 51.8836 45.6151 51.9313C45.5947 51.9789 45.5731 52.026 45.5503 52.0725C45.5275 52.1191 45.5035 52.165 45.4785 52.2104C45.4533 52.2557 45.4271 52.3003 45.3997 52.3443C45.3724 52.3883 45.3439 52.4316 45.3144 52.4742C45.2849 52.5168 45.2543 52.5586 45.2226 52.5996C45.191 52.6406 45.1584 52.6807 45.1247 52.7201C45.0911 52.7594 45.0565 52.7979 45.0209 52.8355C44.9853 52.8731 44.9488 52.9098 44.9114 52.9456C44.8739 52.9813 44.8356 53.0161 44.7965 53.0499C44.7573 53.0837 44.7172 53.1165 44.6764 53.1483C44.6356 53.1801 44.594 53.2109 44.5517 53.2405C44.5093 53.2702 44.4662 53.2988 44.4224 53.3263C44.3785 53.3538 44.3341 53.3802 44.289 53.4054C43.2806 53.9799 42.3593 53.861 41.272 53.6275C40.7624 53.5223 40.2566 53.4008 39.7547 53.263C39.4609 52.0591 38.566 50.9917 37.4586 50.4484C37.0381 50.2421 36.5606 50.116 36.1602 49.8746C35.6974 49.5957 35.3853 49.1245 34.9323 48.8366C34.2046 48.3739 33.5298 48.9436 32.8209 49.1092C32.7991 49.1143 32.7771 49.1184 32.7553 49.1234C32.5128 49.1786 32.2727 49.1317 32.0293 49.0997L27.9422 48.4196C27.0758 48.2715 26.1862 48.0689 25.3112 47.9918C25.1738 47.9797 24.982 47.9485 24.8632 48.0341C24.7522 48.114 24.6754 48.2673 24.6437 48.3976C24.6028 48.5653 24.6509 48.7276 24.7515 48.8661C24.8386 48.9863 24.9987 49.0323 25.1345 49.0698C25.6906 49.2238 26.3015 49.2775 26.8716 49.3806C28.0734 49.6057 29.2771 49.8197 30.4828 50.0227C30.4988 50.9288 30.4987 51.835 30.4824 52.7412C29.0965 53.0666 27.6418 53.271 26.2356 53.4955C25.2656 53.6504 24.1819 53.9648 23.198 53.8505C22.3457 53.7516 21.5418 53.3388 21.0057 52.6597C20.973 52.6187 20.9413 52.5768 20.9106 52.5342C20.8799 52.4915 20.8502 52.4481 20.8218 52.404C20.7932 52.3599 20.7658 52.3151 20.7395 52.2696C20.7132 52.2241 20.688 52.1779 20.664 52.1312C20.64 52.0844 20.6171 52.0371 20.5954 51.9892C20.5737 51.9413 20.5533 51.8929 20.534 51.844C20.5147 51.7951 20.4967 51.7457 20.4798 51.6959C20.463 51.646 20.4474 51.5958 20.4331 51.5452C20.4188 51.4946 20.4057 51.4437 20.3939 51.3925C20.3821 51.3412 20.3715 51.2897 20.3622 51.2379C20.353 51.1861 20.345 51.1341 20.3384 51.082C20.3316 51.0298 20.3262 50.9775 20.3222 50.9251C20.3181 50.8726 20.3153 50.8201 20.3137 50.7675C20.3123 50.7149 20.3121 50.6623 20.3133 50.6097C20.3143 50.5571 20.3168 50.5045 20.3205 50.452C20.3242 50.3996 20.3292 50.3472 20.3356 50.295C20.3972 49.7788 20.5774 49.2318 20.9 48.819C21.4109 48.1652 22.783 47.1962 23.4708 46.6422L28.2936 42.75Z" fill="white"/>
    </g>
    <defs>
        <filter id="filter0_d_2009_2058" x="0" y="0" width="66" height="67" filterUnits="userSpaceOnUse" color-interpolation-filters="sRGB">
            <feFlood flood-opacity="0" result="BackgroundImageFix"/>
            <feColorMatrix in="SourceAlpha" type="matrix" values="0 0 0 0 0 0 0 0 0 0 0 0 0 0 0 0 0 0 127 0" result="hardAlpha"/>
            <feOffset dy="2"/>
            <feGaussianBlur stdDeviation="0.5"/>
            <feComposite in2="hardAlpha" operator="out"/>
            <feColorMatrix type="matrix" values="0 0 0 0 0 0 0 0 0 0 0 0 0 0 0 0 0 0 0.25 0"/>
            <feBlend mode="normal" in2="BackgroundImageFix" result="effect1_dropShadow_2009_2058"/>
            <feBlend mode="normal" in="SourceGraphic" in2="effect1_dropShadow_2009_2058" result="shape"/>
        </filter>
    </defs>
</svg>
